<svg id="cardQuote" xmlns="http://www.w3.org/2000/svg" xmlns:xlink="http://www.w3.org/1999/xlink" width="109.255" height="83.194" viewBox="0 0 109.255 83.194">
  <defs>
    <clipPath id="clip-path">
      <rect id="Rectangle_775" data-name="Rectangle 775" width="109.255" height="83.194" fill="#04b5ff"/>
    </clipPath>
  </defs>
  <g id="Group_1561" data-name="Group 1561" clip-path="url(#clip-path)">
    <path id="Path_4088" data-name="Path 4088" d="M48.848,83.194H0V41.216Q0,30.744,3.76,23.823a35.782,35.782,0,0,1,9.759-11.508A52.5,52.5,0,0,1,26.874,4.958Q34.233,2.177,41.43,0l7.2,13.081a74.023,74.023,0,0,0-9.321,4.2,26.914,26.914,0,0,0-6.326,4.633,15.7,15.7,0,0,0-3.6,5.723,22.636,22.636,0,0,0-1.144,7.578h20.61Zm60.407,0H60.516V41.216q0-10.473,3.76-17.393a36.048,36.048,0,0,1,9.708-11.508,51.553,51.553,0,0,1,13.3-7.358Q94.641,2.177,101.838,0l7.307,13.081a74.023,74.023,0,0,0-9.321,4.2A26.914,26.914,0,0,0,93.5,21.912a15.674,15.674,0,0,0-3.6,5.723,22.637,22.637,0,0,0-1.144,7.578h20.5Z" transform="translate(0 -0.001)" fill="#04b5ff"/>
  </g>
</svg>
