<svg xmlns="http://www.w3.org/2000/svg" xmlns:xlink="http://www.w3.org/1999/xlink" width="35.382" height="35.381" viewBox="0 0 35.382 35.381">
  <defs>
    <clipPath id="clip-path">
      <rect id="Rectangle_811" data-name="Rectangle 811" width="35.382" height="35.381" transform="translate(0 0)" fill="none"/>
    </clipPath>
  </defs>
  <g id="facebook" transform="translate(0 0)">
    <g id="Group_1642" data-name="Group 1642" clip-path="url(#clip-path)">
      <path id="Path_4308" data-name="Path 4308" d="M35.382,17.691A17.691,17.691,0,1,0,14.927,35.167V22.805H10.435V17.691h4.492v-3.9c0-4.433,2.641-6.882,6.682-6.882a27.235,27.235,0,0,1,3.96.345V11.61H23.338a2.557,2.557,0,0,0-2.883,2.762v3.319h4.907l-.785,5.114H20.455V35.167A17.7,17.7,0,0,0,35.382,17.691" fill="#04b5ff"/>
      <path id="Path_4309" data-name="Path 4309" d="M24.577,22.805l.784-5.114H20.455V14.373a2.557,2.557,0,0,1,2.883-2.763h2.231V7.256a27.253,27.253,0,0,0-3.96-.345c-4.041,0-6.682,2.449-6.682,6.883v3.9H10.435v5.114h4.492V35.167a17.874,17.874,0,0,0,5.528,0V22.805Z" fill="#fff"/>
    </g>
  </g>
</svg>
