<svg xmlns="http://www.w3.org/2000/svg" xmlns:xlink="http://www.w3.org/1999/xlink" width="151.654" height="139.9" viewBox="0 0 151.654 139.9">
  <defs>
    <clipPath id="clip-path">
      <rect id="Rectangle_502" data-name="Rectangle 502" width="151.654" height="139.9" fill="none"/>
    </clipPath>
  </defs>
  <g id="globeAndPlane" transform="translate(21.107 3)">
    <g id="Group_1196" data-name="Group 1196" transform="translate(-21.107 -3)" clip-path="url(#clip-path)">
      <path id="Path_3135" data-name="Path 3135" d="M148.525,78.416A55.538,55.538,0,1,1,92.988,22.878a55.538,55.538,0,0,1,55.538,55.538" transform="translate(-14.987 -9.155)" fill="#04b5ff"/>
      <path id="Path_3136" data-name="Path 3136" d="M92.8,134.048a55.823,55.823,0,1,1,55.823-55.822A55.886,55.886,0,0,1,92.8,134.048m0-111.075a55.253,55.253,0,1,0,55.253,55.253A55.315,55.315,0,0,0,92.8,22.972" transform="translate(-14.796 -8.965)" fill="#04b5ff"/>
      <path id="Path_3137" data-name="Path 3137" d="M181.049,87.16a5.979,5.979,0,0,1-3.247-3.522,8.268,8.268,0,0,1,2.1-8.445,55.526,55.526,0,0,0-19.907-32.217,11.845,11.845,0,0,1-1.393,8.532s-.57-4.991-4.42-4.706,0,4.563-2.994,6.7,1,5.7,3.137,3.137a2.314,2.314,0,0,1,3.85,2.566c-1.426,2.282-4.277,2.709-7.272,1.426s-2.282,3.707-4.991,4.991a6.872,6.872,0,0,1-5.419,0l3.042,3.827a2.472,2.472,0,0,1-.194,3.294l-.994.986s-.642-2.332-2.424-2.474-1.069,3.922-3.493,4.064-2.709,3.708.57,3.992,3.708,2.068,3.708,2.068a3.97,3.97,0,0,0,3.279-3.85c0-3.28,3.421-2.352,3.421-2.352a2.411,2.411,0,0,1,3.352-1.854c2.852.927,5.917-4.563,8.413,2.139s5.418,4.207,5.418,4.207l.856-3.28s1.5,5.062,4.634,4.991,5.062,5.49,0,6.773-6.63-1.635-6.63-1.635.285,3.7-1.854,3.7-3.493-2.994-3.493-2.994-4.206.428-4.634-1.569,1.853-1.783,1.853-1.783.143-3.565-2.353-2.638-7.557,0-7.557,0-1.783,3.351-4.848,2.852-6.345-1.486-8.2,2.429-5.2,3.7-5.2,3.7l-4.3,3.968s-2.567-1.236-3.422.855,2.376,2.472.475,7.89-1.141,7.129-.095,7.889c0,0-1.331,4.373,4.087,6.179a6.372,6.372,0,0,0,7.89,1.331s2.852,2.446,6.083.8,6.369.345,6.464,2.152c0,0,3.327-.761,3.232,1.9s-3.042,2.092-3.042,2.092,4.112,3.707,1.438,8.08c0,0-5.145-.286-4.765,2.661a7.284,7.284,0,0,1-1.113,4.106A55.558,55.558,0,0,0,181.049,87.16" transform="translate(-47.519 -17.198)" fill="#5f980a"/>
      <path id="Path_3138" data-name="Path 3138" d="M139.327,140.108l.32-.587a6.819,6.819,0,0,0,1.08-3.933,2.082,2.082,0,0,1,.53-1.763c1.128-1.214,3.664-1.239,4.36-1.227,2.347-4.052-1.311-7.434-1.47-7.577l-.753-.682,1,.19a2.952,2.952,0,0,0,2.084-.387,1.817,1.817,0,0,0,.618-1.434,1.5,1.5,0,0,0-.474-1.294,3.356,3.356,0,0,0-2.409-.319l-.331.074-.018-.337a2.605,2.605,0,0,0-1.447-1.907,4.81,4.81,0,0,0-4.6-.006,6.028,6.028,0,0,1-6.25-.717,6.689,6.689,0,0,1-8.018-1.418c-4.875-1.665-4.427-5.415-4.242-6.312-1.438-1.208-1.39-3.721.145-8.1,1.117-3.184.42-4.519-.139-5.592a2.478,2.478,0,0,1-.331-2.311,2.11,2.11,0,0,1,1.207-1.239,3.547,3.547,0,0,1,2.422.157l4.254-3.926.122.007c.126.006,3.186.145,4.929-3.539,1.783-3.766,4.921-3.216,7.69-2.728.272.047.543.1.812.139,2.829.456,4.533-2.672,4.55-2.7l.1-.185.205.038c.05.009,5.013.9,7.407.013a1.811,1.811,0,0,1,1.772.114c1.034.75.968,2.72.965,2.8l-.012.3-.3-.027a1.908,1.908,0,0,0-1.385.4,1.144,1.144,0,0,0-.163,1.036c.307,1.434,3.229,1.455,4.326,1.345l.2-.021.085.187c.013.028,1.306,2.826,3.234,2.826a1.155,1.155,0,0,0,.893-.381c.83-.9.678-2.993.677-3.013l-.1-1.346.64,1.189c.06.11,1.545,2.7,6.308,1.492,2.028-.514,3.1-1.827,2.872-3.513a2.981,2.981,0,0,0-2.795-2.7h-.074c-2.46,0-3.924-2.825-4.524-4.312l-.645,2.473-.068.058a2.485,2.485,0,0,1-2.144.443c-1.434-.372-2.688-1.976-3.727-4.767-.638-1.711-1.343-2.709-2.159-3.053-.885-.372-1.847.053-2.865.5a4.519,4.519,0,0,1-3.21.583,2.325,2.325,0,0,0-1.96.076,2.517,2.517,0,0,0-1.023,1.557l-.055.305-.3-.08a3.15,3.15,0,0,0-2.365.293,2.119,2.119,0,0,0-.7,1.784c0,3.479-3.481,4.124-3.516,4.13l-.264.046-.062-.26c-.016-.062-.449-1.588-3.454-1.85-1.877-.163-2.7-1.341-2.686-2.435a2.163,2.163,0,0,1,2.123-2.126c1.1-.064,1.44-1.074,1.8-2.143.333-.986.674-2,1.732-1.921a3.268,3.268,0,0,1,2.52,2.239l.674-.669a2.185,2.185,0,0,0,.172-2.914l-3.8-4.782,1.1.519a6.636,6.636,0,0,0,5.174,0,4.889,4.889,0,0,0,2.056-2.85c.412-1,.8-1.943,1.59-2.265a2,2,0,0,1,1.58.12c2.966,1.272,5.616.767,6.918-1.315a2.056,2.056,0,0,0-.578-2.767,1.964,1.964,0,0,0-2.811.534,2.547,2.547,0,0,1-2.671.909,2.766,2.766,0,0,1-2.009-2.053,2.36,2.36,0,0,1,1.158-2.408c1.291-.922,1.181-2.275,1.075-3.583a3.336,3.336,0,0,1,.38-2.488,2.329,2.329,0,0,1,1.684-.683c3.107-.233,4.214,2.73,4.573,4.181a11.674,11.674,0,0,0,.981-7.673l-.136-.746.594.471a55.9,55.9,0,0,1,20.009,32.383l.032.153-.112.109a7.95,7.95,0,0,0-2.024,8.161,5.686,5.686,0,0,0,3.105,3.349l.157.08,0,.176a56.013,56.013,0,0,1-41.169,53.233Zm6.1-6.94c-.81,0-2.87.1-3.75,1.046a1.518,1.518,0,0,0-.381,1.3,6.72,6.72,0,0,1-.843,3.693,55.448,55.448,0,0,0,40.117-52.34,6.142,6.142,0,0,1-3.234-3.613,8.616,8.616,0,0,1,2.062-8.619A55.323,55.323,0,0,0,160.2,43.2a11.836,11.836,0,0,1-1.549,8l-.431.7-.095-.818c-.022-.193-.59-4.712-4.115-4.454a1.817,1.817,0,0,0-1.293.485,2.966,2.966,0,0,0-.245,2.071c.108,1.329.242,2.983-1.311,4.093a1.839,1.839,0,0,0-.93,1.841,2.179,2.179,0,0,0,1.594,1.6A1.962,1.962,0,0,0,153.909,56a2.522,2.522,0,0,1,3.583-.631,2.622,2.622,0,0,1,.727,3.531c-1.46,2.338-4.382,2.927-7.626,1.537a1.471,1.471,0,0,0-1.14-.116c-.567.231-.913,1.068-1.278,1.954a5.375,5.375,0,0,1-2.338,3.148,6.856,6.856,0,0,1-4.7.336l2.43,3.056a2.756,2.756,0,0,1-.217,3.673l-1.341,1.328-.13-.469c-.006-.021-.612-2.141-2.172-2.266-.584-.043-.815.553-1.146,1.534-.367,1.088-.825,2.442-2.308,2.529a1.586,1.586,0,0,0-1.586,1.565c-.011.77.549,1.719,2.164,1.859,2.712.236,3.6,1.466,3.859,2.018a3.58,3.58,0,0,0,2.818-3.517,2.649,2.649,0,0,1,.923-2.239,3.424,3.424,0,0,1,2.576-.45,2.953,2.953,0,0,1,1.218-1.66,2.861,2.861,0,0,1,2.43-.129,4.066,4.066,0,0,0,2.8-.562c1.084-.48,2.2-.975,3.318-.507.968.408,1.776,1.513,2.471,3.38,1.209,3.246,2.481,4.192,3.335,4.413a1.925,1.925,0,0,0,1.565-.275l1.089-4.174.292.981c.014.048,1.452,4.787,4.3,4.787h.127a3.566,3.566,0,0,1,3.3,3.193c.211,1.545-.545,3.445-3.3,4.142-3.661.929-5.573-.257-6.411-1.091a4.309,4.309,0,0,1-.833,2.6,1.72,1.72,0,0,1-1.311.564c-2,0-3.318-2.3-3.664-2.979-.882.061-4.319.166-4.742-1.809a1.676,1.676,0,0,1,.3-1.536,2.19,2.19,0,0,1,1.551-.6,2.86,2.86,0,0,0-.729-2.04,1.266,1.266,0,0,0-1.238-.041c-2.284.849-6.528.212-7.509.048-.437.722-2.2,3.28-5.042,2.818-.272-.044-.545-.092-.819-.14-2.817-.5-5.479-.963-7.076,2.411a6.14,6.14,0,0,1-5.352,3.865l-4.361,4.024-.175-.083a3.206,3.206,0,0,0-2.153-.217,1.541,1.541,0,0,0-.881.923c-.285.7-.049,1.147.308,1.831.578,1.109,1.371,2.627.172,6.044-1.931,5.5-1.037,6.954-.2,7.566l.164.119-.058.194c-.05.169-1.175,4.132,3.9,5.825l.08.027.053.066c.115.145,2.874,3.5,7.543,1.252l.167-.081.142.121a5.439,5.439,0,0,0,5.768.758,5.378,5.378,0,0,1,5.146.02,3.372,3.372,0,0,1,1.689,2.053,3.509,3.509,0,0,1,2.592.489,2.051,2.051,0,0,1,.683,1.754,2.362,2.362,0,0,1-.836,1.862,2.949,2.949,0,0,1-1.786.556c1.044,1.227,3.134,4.364.977,7.892l-.089.145-.17-.01c-.006,0-.131-.007-.336-.007" transform="translate(-47.325 -16.735)"/>
      <path id="Path_3139" data-name="Path 3139" d="M60,137.207c-5.894.665-7.795-7.89-7.795-7.89a4.134,4.134,0,0,1-3.612-4.943,8.621,8.621,0,0,0-3.232-7.32s.19-7.7-2.186-9.316-2.186-5.316-2.186-5.316.76-3.619-1.046-.767c-.753,1.189-1.5,1.53-2.127,1.53a56.042,56.042,0,0,0-.368,6.389,55.285,55.285,0,0,0,9.489,31.058c1.42-.6,3.289.316,4.6,3.038C54.2,149.184,57.15,147,57.15,147s.19-4.183,2.946-3.137,2.947-.475,2.947-.475C59.431,141.864,60,137.207,60,137.207" transform="translate(-14.986 -40.242)" fill="#5f980a"/>
      <path id="Path_3140" data-name="Path 3140" d="M55.511,147.52a3,3,0,0,1-.724-.089c-1.39-.342-2.633-1.63-3.693-3.827-1.3-2.685-3.061-3.391-4.236-2.9l-.216.09-.131-.193a55.542,55.542,0,0,1-9.538-31.217,56.725,56.725,0,0,1,.37-6.422l.029-.254h.257c.663,0,1.3-.47,1.883-1.4.639-1.008,1.028-1.345,1.393-1.2.144.058.581.236.173,2.175,0,0-.143,3.519,2.068,5.022,2.32,1.577,2.328,8.307,2.314,9.414a8.785,8.785,0,0,1,3.228,7.486,4.267,4.267,0,0,0,.783,3.255,4.194,4.194,0,0,0,2.573,1.375l.206.02.046.2c.018.083,1.91,8.306,7.485,7.669l.358-.04-.044.358c0,.044-.5,4.463,2.87,5.881l.2.084-.027.214a1.25,1.25,0,0,1-.6.853,3.218,3.218,0,0,1-2.732-.146,1.485,1.485,0,0,0-1.416.052c-.86.565-1.118,2.235-1.145,2.831l-.006.135-.109.081a2.89,2.89,0,0,1-1.618.485m-7.892-7.536c1.242,0,2.777.862,3.989,3.372.966,2,2.108,3.219,3.3,3.519a2.4,2.4,0,0,0,1.773-.23c.047-.546.284-2.4,1.391-3.132a2.044,2.044,0,0,1,1.931-.109c1.281.486,1.918.376,2.224.2a.723.723,0,0,0,.263-.256c-2.933-1.418-3.036-4.9-2.99-6.017-5.344.288-7.389-6.686-7.719-7.948a4.677,4.677,0,0,1-2.753-1.548,4.809,4.809,0,0,1-.912-3.68A8.4,8.4,0,0,0,45,117.092L44.883,117l0-.148c0-.076.16-7.562-2.061-9.073-2.481-1.687-2.319-5.409-2.311-5.566a5.989,5.989,0,0,0,.151-1.491,4.539,4.539,0,0,0-.671.89,3.116,3.116,0,0,1-2.111,1.646,55.923,55.923,0,0,0-.34,6.121A54.977,54.977,0,0,0,46.86,140.1a2.551,2.551,0,0,1,.759-.113" transform="translate(-14.796 -40.05)"/>
      <path id="Path_3141" data-name="Path 3141" d="M98.4,22.892A55.483,55.483,0,0,0,52.717,47.866c.19-.161,3.079-2.532,1.608,3.814A11.206,11.206,0,0,0,59.647,47.3c2.282-3.416,4.943-4.937,5.7-2.94,0,0,1.331-3.232,3.8-1.806v2a3.049,3.049,0,0,0,4.183-.95s-2-1.426-.855-3.137,5.133-2,5.323.951-1.9,3.042-1.9,3.042,1.236,2.567,4.658.38.761-5.653.761-5.653A5.077,5.077,0,0,1,85.028,33.9l-1.44-.557a.609.609,0,0,1-.048-1.116c.814-.4,1.638-1.039,1.488-1.939-.286-1.711-2.852-.665-5.323,1.616a4.334,4.334,0,0,1-5.228.476s2.264-.251,4.277-3.327,8.27-3.422,7.51,0l2.442-1.013a.382.382,0,0,1,.437.6l-2.119,2.5s1.141,2.376,4.563-1.33,5.608-3.642,6.559-3.2c0,0,0-1.459-3.042-1.744-1.533-.144.7-1.084,3.294-1.982" transform="translate(-21.096 -9.161)" fill="#5f980a"/>
      <path id="Path_3142" data-name="Path 3142" d="M53.039,51.9l.113-.487c.738-3.185.3-3.844.079-3.979-.3-.182-.895.168-1.223.447l-1.526,1.3,1.1-1.672A55.8,55.8,0,0,1,97.5,22.4l1.762-.022-1.665.576a18.394,18.394,0,0,0-3.439,1.42l.079.008c3.263.307,3.3,1.958,3.3,2.029v.447l-.406-.188c-.546-.254-2.616-.781-6.229,3.133-1.462,1.584-2.727,2.306-3.769,2.152a1.729,1.729,0,0,1-1.261-.891l-.08-.166,2.239-2.646a.09.09,0,0,0,0-.119.088.088,0,0,0-.115-.032l-2.95,1.222.119-.535a1.456,1.456,0,0,0-.913-1.847,5.684,5.684,0,0,0-6.08,2.066,7.883,7.883,0,0,1-3.722,3.249,3.873,3.873,0,0,0,4.241-.763c1.6-1.474,3.755-2.894,5.011-2.464a1.182,1.182,0,0,1,.787,1.011c.1.6-.1,1.482-1.642,2.242a.324.324,0,0,0,.025.594l2.17.84-.742.253a4.765,4.765,0,0,0-3.523,4.9,5.031,5.031,0,0,1,.943,3.492,3.737,3.737,0,0,1-1.826,2.507,4.275,4.275,0,0,1-3.436.822,2.722,2.722,0,0,1-1.632-1.318l-.187-.389.431-.02a1.692,1.692,0,0,0,1.083-.567,2.911,2.911,0,0,0,.546-2.171,1.911,1.911,0,0,0-1.5-1.867,3.24,3.24,0,0,0-3.3,1.056c-.972,1.458.712,2.7.784,2.747l.239.172-.179.234A3.35,3.35,0,0,1,68.1,44.583l-.127-.085V42.519a1.86,1.86,0,0,0-1.48-.157,3.7,3.7,0,0,0-1.773,1.9l-.274.665-.256-.672a.944.944,0,0,0-.777-.7c-.9-.1-2.622,1-4.423,3.7a11.4,11.4,0,0,1-5.475,4.493Zm0-5.086a.931.931,0,0,1,.491.133c.694.423.792,1.72.3,4.065a11.459,11.459,0,0,0,4.691-4.071c1.7-2.546,3.655-4.092,4.961-3.948a1.384,1.384,0,0,1,.971.555,3.757,3.757,0,0,1,1.862-1.723A2.474,2.474,0,0,1,68.4,42.1l.142.082v2a2.715,2.715,0,0,0,3.494-.744,2.5,2.5,0,0,1-.689-3.339,3.8,3.8,0,0,1,3.925-1.29,2.5,2.5,0,0,1,1.919,2.38,3.433,3.433,0,0,1-.7,2.6,2.3,2.3,0,0,1-1.015.656,2.137,2.137,0,0,0,1.066.7,3.759,3.759,0,0,0,2.964-.756,3.2,3.2,0,0,0,1.572-2.121,4.6,4.6,0,0,0-.883-3.118l-.047-.062-.01-.077a5.362,5.362,0,0,1,3.208-5.31l-.761-.295a.895.895,0,0,1-.071-1.638c.677-.334,1.457-.889,1.333-1.636a.618.618,0,0,0-.409-.565c-.817-.28-2.642.685-4.44,2.344a4.653,4.653,0,0,1-5.578.5l-.663-.434.788-.088c.02,0,2.165-.289,4.07-3.2A6.232,6.232,0,0,1,84.4,26.417,1.984,1.984,0,0,1,85.715,28.4l1.988-.824a.667.667,0,0,1,.764,1.047l-1.983,2.344a1.15,1.15,0,0,0,.743.429c.573.08,1.61-.194,3.256-1.976,3.069-3.324,5.165-3.651,6.28-3.453a3.5,3.5,0,0,0-2.58-1.012c-.213-.02-.711-.067-.757-.449-.031-.254-.068-.56,2.321-1.483A55.226,55.226,0,0,0,52.712,46.854a1.326,1.326,0,0,1,.324-.043" transform="translate(-20.202 -8.956)"/>
      <path id="Path_3143" data-name="Path 3143" d="M127.839,29.841a17.683,17.683,0,0,1-7.414,5.323c-5.228,2.186-3.327,6.369,0,6.464,0,0-1.236-3.042,4.467-3.517A23.18,23.18,0,0,0,135.159,34.4l.665-3.327s-4.658.476-7.985-1.236" transform="translate(-46.892 -11.942)" fill="#5f980a"/>
      <path id="Path_3144" data-name="Path 3144" d="M120.657,41.679l-.432-.011A3.521,3.521,0,0,1,116.748,39c-.317-1.707.945-3.332,3.375-4.349a17.546,17.546,0,0,0,7.291-5.223l.143-.205.221.114c3.215,1.654,7.779,1.21,7.826,1.206l.384-.039-.764,3.817-.093.065a23.691,23.691,0,0,1-10.407,3.758c-2.1.175-3.5.737-4.055,1.624a1.772,1.772,0,0,0-.172,1.5Zm7.077-11.722a18.519,18.519,0,0,1-7.39,5.225c-2.165.905-3.3,2.3-3.035,3.719a2.88,2.88,0,0,0,2.553,2.167,2.335,2.335,0,0,1,.317-1.584c.656-1.068,2.17-1.708,4.5-1.9a23.062,23.062,0,0,0,10.033-3.594l.569-2.843a16.572,16.572,0,0,1-7.545-1.188" transform="translate(-46.701 -11.696)"/>
      <path id="Path_3145" data-name="Path 3145" d="M136.423,22.878a6.461,6.461,0,0,0,5.068,3.268c6.464,1.045,5.228,4.562,5.228,4.562l3.423-.475,1.14-2.186a13.592,13.592,0,0,0,5.936.544,55.2,55.2,0,0,0-20.8-5.713" transform="translate(-54.593 -9.155)" fill="#5f980a"/>
      <path id="Path_3146" data-name="Path 3146" d="M145.967,30.84l.155-.441a2.344,2.344,0,0,0-.281-1.859c-.681-1.134-2.315-1.938-4.724-2.327a6.768,6.768,0,0,1-5.274-3.418l-.24-.453.513.037a55.316,55.316,0,0,1,20.9,5.742l.786.395-.867.142a13.685,13.685,0,0,1-5.841-.48l-1.1,2.1Zm-9.349-7.851a6.4,6.4,0,0,0,4.59,2.661c2.627.424,4.353,1.3,5.13,2.611a3,3,0,0,1,.413,1.9l2.877-.4,1.187-2.275.233.081a13.82,13.82,0,0,0,4.838.639,54.715,54.715,0,0,0-19.269-5.212" transform="translate(-54.265 -8.941)"/>
      <path id="Path_3147" data-name="Path 3147" d="M155.846,64.432a1.281,1.281,0,0,0-1,1.782,13.083,13.083,0,0,0,.971,1.745c1.569,2.424-1.386,4.278-1.386,4.278s5.283,1.616,6-1.853c.636-3.1-2.175-2.634-3.089-5.1a1.29,1.29,0,0,0-1.382-.864Z" transform="translate(-61.801 -25.773)" fill="#5f980a"/>
      <path id="Path_3148" data-name="Path 3148" d="M156.554,72.709a10.118,10.118,0,0,1-2.657-.39l-.6-.182.527-.332a4.088,4.088,0,0,0,1.662-2.151,2.228,2.228,0,0,0-.364-1.73,13.475,13.475,0,0,1-.991-1.784,1.537,1.537,0,0,1,.06-1.381,1.564,1.564,0,0,1,1.158-.8l.112-.016a1.573,1.573,0,0,1,1.69,1.047,4.048,4.048,0,0,0,1.639,1.894,2.866,2.866,0,0,1,1.463,3.366,2.771,2.771,0,0,1-1.32,1.912,4.7,4.7,0,0,1-2.382.548m-1.925-.795c.933.2,2.811.473,4.016-.244a2.191,2.191,0,0,0,1.051-1.536c.336-1.632-.326-2.119-1.241-2.792a4.57,4.57,0,0,1-1.835-2.155,1.006,1.006,0,0,0-1.075-.681l-.112.016a1,1,0,0,0-.738.51.97.97,0,0,0-.038.874,12.747,12.747,0,0,0,.95,1.706,2.779,2.779,0,0,1,.441,2.167,4.142,4.142,0,0,1-1.417,2.134" transform="translate(-61.348 -25.582)"/>
      <path id="Path_3149" data-name="Path 3149" d="M144.16,42.992a1.651,1.651,0,0,0,.341,3.282l.076-.008c2.567-.286,2.282-2.837.476-3.225a2.785,2.785,0,0,0-.893-.049" transform="translate(-57.119 -17.198)" fill="#5f980a"/>
      <path id="Path_3150" data-name="Path 3150" d="M144.13,46.377a1.939,1.939,0,0,1-.191-3.859h0a3.115,3.115,0,0,1,.983.053,1.966,1.966,0,0,1,1.626,1.969c-.038.768-.618,1.65-2.129,1.818l-.083.008c-.07.006-.139.01-.207.01M144,43.085a1.272,1.272,0,0,0-1.164,1.482,1.3,1.3,0,0,0,1.449,1.231l.068-.007c.984-.109,1.591-.588,1.625-1.28A1.4,1.4,0,0,0,144.8,43.13a2.512,2.512,0,0,0-.8-.044" transform="translate(-56.929 -17.008)"/>
      <path id="Path_3151" data-name="Path 3151" d="M47.2,81.4s2.068,1.069,2-2.852c-.042-2.309-1.268-3.655-1.819-5.971q-.458.874-.887,1.764c0,.01,1.777,4.282.709,7.059" transform="translate(-18.604 -29.045)" fill="#5f980a"/>
      <path id="Path_3152" data-name="Path 3152" d="M47.58,81.282a1.708,1.708,0,0,1-.721-.165L46.633,81l.091-.238c1-2.609-.636-6.674-.706-6.846L45.97,73.8l.054-.116q.429-.9.891-1.773l.354-.675.176.741A14.417,14.417,0,0,0,48.31,74.4a9.036,9.036,0,0,1,.962,3.608c.029,1.62-.3,2.655-.977,3.075a1.338,1.338,0,0,1-.715.2m-.227-.6A.861.861,0,0,0,48,80.6c.338-.213.735-.833.7-2.578a8.587,8.587,0,0,0-.915-3.393,18.759,18.759,0,0,1-.7-1.805q-.252.5-.495,1c.274.707,1.566,4.289.761,6.87" transform="translate(-18.396 -28.506)"/>
      <path id="Path_3153" data-name="Path 3153" d="M52.207,90.854c0,.846-.4,1.533-.893,1.533s-.893-.686-.893-1.533.4-1.533.893-1.533.893.687.893,1.533" transform="translate(-20.178 -35.744)" fill="#5f980a"/>
      <path id="Path_3154" data-name="Path 3154" d="M51.125,92.482c-.66,0-1.178-.8-1.178-1.818s.518-1.818,1.178-1.818,1.177.8,1.177,1.818-.518,1.818-1.177,1.818m0-3.066c-.287,0-.608.534-.608,1.248s.321,1.248.608,1.248.607-.533.607-1.248-.32-1.248-.607-1.248" transform="translate(-19.988 -35.554)"/>
      <path id="Path_3155" data-name="Path 3155" d="M151.505,71.041a1.294,1.294,0,1,1-1.283-1.462,1.381,1.381,0,0,1,1.283,1.462" transform="translate(-59.602 -27.844)" fill="#5f980a"/>
      <path id="Path_3156" data-name="Path 3156" d="M150.032,72.6a1.757,1.757,0,1,1,1.568-1.747,1.666,1.666,0,0,1-1.568,1.747m0-2.923a1.192,1.192,0,1,0,1,1.176,1.1,1.1,0,0,0-1-1.176" transform="translate(-59.412 -27.654)"/>
      <path id="Path_3157" data-name="Path 3157" d="M114.754,142.671a1.233,1.233,0,1,1-1.212-1.462,1.355,1.355,0,0,1,1.212,1.462" transform="translate(-44.952 -56.509)" fill="#5f980a"/>
      <path id="Path_3158" data-name="Path 3158" d="M113.351,144.227a1.767,1.767,0,1,1,1.5-1.747,1.638,1.638,0,0,1-1.5,1.747m0-2.923a1.21,1.21,0,1,0,.927,1.176,1.075,1.075,0,0,0-.927-1.176" transform="translate(-44.761 -56.319)"/>
      <path id="Path_3159" data-name="Path 3159" d="M182.2,103.915a2.326,2.326,0,0,0,2.56,1.8,1.4,1.4,0,0,0-.375-2.1,1.712,1.712,0,0,1-1.051-1.467l-.36.17a1.4,1.4,0,0,0-.774,1.6" transform="translate(-72.897 -40.877)" fill="#5f980a"/>
      <path id="Path_3160" data-name="Path 3160" d="M184.708,105.689h-.136a2.616,2.616,0,0,1-2.837-2.012h0a1.69,1.69,0,0,1,.93-1.926l.788-.371-.023.473c-.021.443.284.849.909,1.207a1.66,1.66,0,0,1,.8,1.138,1.7,1.7,0,0,1-.35,1.386Zm-2.418-2.15a2.024,2.024,0,0,0,2.139,1.578,1.138,1.138,0,0,0,.155-.815,1.091,1.091,0,0,0-.528-.748,2.191,2.191,0,0,1-1.147-1.287h0a1.117,1.117,0,0,0-.619,1.272" transform="translate(-72.707 -40.57)"/>
      <path id="Path_3161" data-name="Path 3161" d="M87.671,62.769a2.326,2.326,0,0,0,2.56,1.8,1.4,1.4,0,0,0-.375-2.1A1.711,1.711,0,0,1,88.805,61l-.36.17a1.4,1.4,0,0,0-.774,1.6" transform="translate(-35.068 -24.411)" fill="#5f980a"/>
      <path id="Path_3162" data-name="Path 3162" d="M90.177,64.543h-.136A2.617,2.617,0,0,1,87.2,62.531h0a1.691,1.691,0,0,1,.93-1.926l.789-.371-.023.474c-.021.443.284.849.908,1.206a1.661,1.661,0,0,1,.806,1.138,1.7,1.7,0,0,1-.35,1.387Zm-2.42-2.149A2.023,2.023,0,0,0,89.9,63.97a1.136,1.136,0,0,0,.156-.815,1.091,1.091,0,0,0-.529-.747,2.19,2.19,0,0,1-1.147-1.288h0a1.118,1.118,0,0,0-.619,1.273" transform="translate(-34.878 -24.104)"/>
      <path id="Path_3163" data-name="Path 3163" d="M138.162,195.109a.423.423,0,0,0-.742.259,5.776,5.776,0,0,1-1.753,4.021c-1.6,1.5-2.715.6-3.208-.006a.417.417,0,0,0-.626-.029c-2.213,2.242-7.954,3.284-8.2,3.328,1.269.086,2.547.134,3.838.134a55.836,55.836,0,0,0,10.473-.99,4.62,4.62,0,0,0,.22-6.718" transform="translate(-49.474 -78.019)" fill="#5f980a"/>
      <path id="Path_3164" data-name="Path 3164" d="M125.914,202.912c-1.244,0-2.542-.045-3.857-.135l-2.311-.157,2.28-.409c.24-.043,5.908-1.078,8.05-3.249a.692.692,0,0,1,.538-.211.705.705,0,0,1,.512.259,1.773,1.773,0,0,0,1.2.719,2.18,2.18,0,0,0,1.59-.74,5.467,5.467,0,0,0,1.663-3.826.708.708,0,0,1,1.244-.431,4.938,4.938,0,0,1-.23,7.1l-.064.067-.091.017a56.322,56.322,0,0,1-10.527,1m-1.729-.6c.585.019,1.163.028,1.729.028a55.739,55.739,0,0,0,10.33-.968,4.343,4.343,0,0,0,.148-6.27.125.125,0,0,0-.146-.039.133.133,0,0,0-.094.125,6.032,6.032,0,0,1-1.844,4.218,2.757,2.757,0,0,1-2.018.892,2.325,2.325,0,0,1-1.606-.928.133.133,0,0,0-.2-.007c-1.459,1.478-4.32,2.433-6.3,2.949" transform="translate(-47.92 -77.829)"/>
      <path id="Path_3165" data-name="Path 3165" d="M178.949,36.856a6.419,6.419,0,0,1,1.6,4.4.288.288,0,0,0,.49.237,5.852,5.852,0,0,0,1.426-2.255q-1.711-1.259-3.519-2.386" transform="translate(-71.611 -14.749)" fill="#5f980a"/>
      <path id="Path_3166" data-name="Path 3166" d="M180.06,41.158a.576.576,0,0,1-.255-.06.565.565,0,0,1-.316-.581,6.006,6.006,0,0,0-1.546-4.2L177,35.081l1.32.822c1.209.755,2.4,1.561,3.537,2.4l.169.125-.068.2a6.152,6.152,0,0,1-1.5,2.366.574.574,0,0,1-.4.167m-.888-4.031a5.6,5.6,0,0,1,.884,3.457,5.507,5.507,0,0,0,1.291-1.949c-.708-.517-1.437-1.021-2.176-1.509" transform="translate(-70.832 -14.039)"/>
      <path id="Path_3167" data-name="Path 3167" d="M51.911,113.358a16.317,16.317,0,0,1,.855,6.356s2.662-.652,2-4.265c0,0-1.236.761-2.852-2.091" transform="translate(-20.774 -45.363)" fill="#5f980a"/>
      <path id="Path_3168" data-name="Path 3168" d="M52.249,120l.055-.414a16.1,16.1,0,0,0-.842-6.223l.517-.235c1.425,2.515,2.448,1.99,2.46,1.985l.346-.19.079.384c.705,3.833-2.18,4.586-2.209,4.593Zm.22-5.191a14.87,14.87,0,0,1,.449,4.378c.628-.322,1.739-1.219,1.435-3.462a1.469,1.469,0,0,1-.57-.039,2.8,2.8,0,0,1-1.314-.876" transform="translate(-20.594 -45.27)"/>
      <path id="Path_3169" data-name="Path 3169" d="M201.83,91.637s-.966,2.139-2.6,1.069-.965-4.349.362-6.488c0,0,1.147,2.923,3.319,1.069s2.776,4.705-1.086,4.349" transform="translate(-79.345 -34.503)" fill="#04b5ff"/>
      <path id="Path_3170" data-name="Path 3170" d="M199.944,92.871a1.91,1.91,0,0,1-1.05-.347c-1.851-1.215-1.029-4.774.277-6.876l.3-.482.208.527c0,.013.5,1.25,1.392,1.471a1.678,1.678,0,0,0,1.478-.513,1.126,1.126,0,0,1,1.469-.223c.723.5.948,1.983.491,3.235a2.61,2.61,0,0,1-2.694,1.85,2.681,2.681,0,0,1-1.428,1.294,1.565,1.565,0,0,1-.441.064m-.549-6.474c-1.135,2.1-1.492,4.8-.188,5.65a1.2,1.2,0,0,0,1.019.212,2.268,2.268,0,0,0,1.159-1.161l.084-.185.2.019a2.088,2.088,0,0,0,2.3-1.465,2.529,2.529,0,0,0-.28-2.571c-.2-.14-.462-.078-.774.188a2.209,2.209,0,0,1-1.987.633,2.7,2.7,0,0,1-1.534-1.32" transform="translate(-79.161 -34.082)" fill="#04b5ff"/>
      <path id="Path_3171" data-name="Path 3171" d="M214.53,135.472c-.03-.045-2-3-1.7-5.9.3-2.923.357-9.625-3.947-4.277,0,0,4.652,7.983,3.679,15.411a55.2,55.2,0,0,0,1.963-5.23" transform="translate(-83.592 -49.335)" fill="#04b5ff"/>
      <path id="Path_3172" data-name="Path 3172" d="M211.788,142.494l.265-2.02c.949-7.242-3.6-15.151-3.642-15.23l-.1-.17.124-.152c1.374-1.707,2.446-2.369,3.277-2.028,1.648.679,1.316,5.157,1.176,6.514a10.051,10.051,0,0,0,1.648,5.716l.076.114-.041.13a55.761,55.761,0,0,1-1.973,5.257ZM209,125.131c.61,1.111,3.872,7.357,3.749,13.64.458-1.154.872-2.308,1.237-3.448a10.5,10.5,0,0,1-1.666-5.974c.268-2.58.124-5.536-.825-5.927-.307-.127-1.033-.063-2.495,1.71" transform="translate(-83.361 -49.145)" fill="#04b5ff"/>
      <path id="Path_3173" data-name="Path 3173" d="M147.395,44.314A69.3,69.3,0,0,1,131.132,42.1a64.061,64.061,0,0,1-17.722-7.011c-4.6-2.856-6.8-5.725-6.22-8.08a4.426,4.426,0,0,1,2.643-2.769l.248.513a3.894,3.894,0,0,0-2.338,2.393c-.513,2.065,1.661,4.783,5.967,7.458a63.482,63.482,0,0,0,17.559,6.942c14.074,3.5,26.426,2.735,27.53-1.705a2.733,2.733,0,0,0,.037-1.1l.563-.091a3.3,3.3,0,0,1-.047,1.327c-.707,2.844-5.307,4.336-11.959,4.336" transform="translate(-42.858 -9.7)"/>
      <path id="Path_3174" data-name="Path 3174" d="M121.235,117.765a122.547,122.547,0,0,1-29.051-3.821c-29.5-7.335-51.119-22.9-48.186-34.7l.554.138C41.7,90.873,63.124,106.131,92.323,113.39c14.184,3.527,28.06,4.65,39.069,3.166,10.922-1.473,17.694-5.325,19.066-10.847l.554.138c-1.434,5.763-8.374,9.767-19.543,11.274a76.911,76.911,0,0,1-10.234.644" transform="translate(-17.501 -31.71)"/>
      <path id="Path_3175" data-name="Path 3175" d="M105.646,180.519a90.542,90.542,0,0,1-21.6-2.78c-19.595-4.872-35.49-15.2-39.55-25.711l.533-.206c4,10.341,19.732,20.534,39.156,25.363,17.289,4.3,33.953,3.546,43.487-1.966l.285.493c-5.508,3.185-13.351,4.806-22.306,4.806" transform="translate(-17.804 -60.756)"/>
      <path id="Path_3176" data-name="Path 3176" d="M220.75,126.241l-.506-.265a50.988,50.988,0,0,0,4.213-26.339,59.321,59.321,0,0,0-2.175-10.973l.546-.164a59.759,59.759,0,0,1,2.2,11.079,51.567,51.567,0,0,1-4.274,26.661" transform="translate(-88.137 -35.416)" fill="#f7921e"/>
      <path id="Path_3177" data-name="Path 3177" d="M218.114,75.523a43.57,43.57,0,0,0-4.9-9.573l.456-.341a44.056,44.056,0,0,1,4.98,9.71Z" transform="translate(-85.322 -26.256)" fill="#f7921e"/>
      <path id="Path_3178" data-name="Path 3178" d="M51.371,136.538a10.225,10.225,0,0,1-6.611-2.052C39.248,130.03,39.811,119.2,46.346,104l.557.239c-6.324,14.713-6.966,25.564-1.761,29.772,10.331,8.349,40.24-10.614,66.671-42.28,20.874-25.009,33.976-51.217,32.6-65.216-.324-3.307-1.471-5.777-3.41-7.345-4.719-3.813-13.791-2.013-25.548,5.071l-.313-.52c11.99-7.224,21.311-9.009,26.242-5.023,2.07,1.673,3.292,4.283,3.633,7.757C146.408,40.61,133.25,67,112.279,92.123c-22.317,26.739-47.2,44.414-60.907,44.415" transform="translate(-16.407 -6.652)" fill="#f7921e"/>
      <path id="Path_3179" data-name="Path 3179" d="M110.663,126.307a211.562,211.562,0,0,1-37.406-3.6C40.592,116.753,13.216,104.855,5.138,93.1c-1.939-2.822-2.68-5.546-2.2-8.1,1.269-6.738,10.8-11.445,26.846-13.253l.068.6c-15.528,1.75-25.119,6.4-26.317,12.762-.449,2.385.259,4.956,2.1,7.64,7.993,11.629,35.211,23.426,67.729,29.355,40.941,7.467,76.234,3.015,78.67-9.921,1.1-5.848-4.778-12.731-16.555-19.38l.3-.529c12.02,6.787,18.006,13.9,16.853,20.021-1.688,8.964-18.5,14-41.97,14" transform="translate(-1.119 -28.714)" fill="#f7921e"/>
      <path id="Path_3180" data-name="Path 3180" d="M128.63,139.9c-5.956,0-13.57-5.182-21.892-15.006l.463-.392c9.82,11.593,18.56,16.634,24.6,14.2,2.341-.944,4.187-3,5.488-6.107,5.448-13.015.747-41.828-11.695-71.7C109.8,22.979,86.88-3.808,74.516,1.186c-6,2.422-8.689,12.418-7.367,27.426l-.6.053C65.178,13.148,67.928,3.189,74.289.623c12.676-5.114,35.946,21.817,51.868,60.038,12.5,30.008,17.2,59.009,11.694,72.165-1.365,3.262-3.324,5.427-5.819,6.434a9.018,9.018,0,0,1-3.4.639" transform="translate(-26.493 0)" fill="#f7921e"/>
      <path id="Path_3181" data-name="Path 3181" d="M3.96,93.767A.663.663,0,1,1,3.3,93.1a.663.663,0,0,1,.663.663" transform="translate(-1.054 -37.258)" fill="#ed2693"/>
      <path id="Path_3182" data-name="Path 3182" d="M3.108,94.524a.945.945,0,1,1,.945-.945.946.946,0,0,1-.945.945m0-1.325a.38.38,0,1,0,.38.38.381.381,0,0,0-.38-.38" transform="translate(-0.866 -37.07)" fill="#ed2693"/>
      <path id="Path_3183" data-name="Path 3183" d="M100.723,5.616a.663.663,0,1,1-.663-.663.663.663,0,0,1,.663.663" transform="translate(-39.777 -1.982)" fill="#ed2693"/>
      <path id="Path_3184" data-name="Path 3184" d="M99.872,6.373a.945.945,0,1,1,.945-.945.947.947,0,0,1-.945.945m0-1.325a.38.38,0,1,0,.379.38.381.381,0,0,0-.379-.38" transform="translate(-39.588 -1.794)" fill="#ed2693"/>
      <path id="Path_3185" data-name="Path 3185" d="M210.559,57.611a.663.663,0,1,1-.663-.663.663.663,0,0,1,.663.663" transform="translate(-83.73 -22.789)" fill="#ed2693"/>
      <path id="Path_3186" data-name="Path 3186" d="M209.707,58.368a.945.945,0,1,1,.945-.945.946.946,0,0,1-.945.945m0-1.325a.38.38,0,1,0,.38.38.381.381,0,0,0-.38-.38" transform="translate(-83.542 -22.601)" fill="#ed2693"/>
      <path id="Path_3187" data-name="Path 3187" d="M141.822,216.1a.662.662,0,1,1-.663-.663.663.663,0,0,1,.663.663" transform="translate(-56.224 -86.213)" fill="#ed2693"/>
      <path id="Path_3188" data-name="Path 3188" d="M140.971,216.856a.945.945,0,1,1,.945-.945.946.946,0,0,1-.945.945m0-1.325a.38.38,0,1,0,.38.38.381.381,0,0,0-.38-.38" transform="translate(-56.035 -86.024)" fill="#ed2693"/>
      <path id="Path_3189" data-name="Path 3189" d="M34.9,73.7a.663.663,0,1,1-.663-.663.663.663,0,0,1,.663.663" transform="translate(-13.437 -29.227)" fill="#ed2693"/>
      <path id="Path_3190" data-name="Path 3190" d="M34.052,74.454A.945.945,0,1,1,35,73.508a.946.946,0,0,1-.945.945m0-1.326a.38.38,0,1,0,.38.38.381.381,0,0,0-.38-.38" transform="translate(-13.249 -29.038)" fill="#ed2693"/>
      <path id="Path_3191" data-name="Path 3191" d="M41.517,196.481a1.558,1.558,0,1,1-1.558-1.558,1.558,1.558,0,0,1,1.558,1.558" transform="translate(-15.368 -78.004)" fill="#ed2693"/>
      <path id="Path_3192" data-name="Path 3192" d="M39.771,198.132a1.841,1.841,0,1,1,1.84-1.841,1.843,1.843,0,0,1-1.84,1.841m0-3.115a1.275,1.275,0,1,0,1.275,1.275,1.276,1.276,0,0,0-1.275-1.275" transform="translate(-15.179 -77.815)" fill="#ed2693"/>
      <path id="Path_3193" data-name="Path 3193" d="M212.252,49a1.558,1.558,0,1,1-1.558-1.558A1.558,1.558,0,0,1,212.252,49" transform="translate(-83.692 -18.987)" fill="#ed2693"/>
      <path id="Path_3194" data-name="Path 3194" d="M210.506,50.656a1.84,1.84,0,1,1,1.84-1.84,1.843,1.843,0,0,1-1.84,1.84m0-3.115a1.275,1.275,0,1,0,1.275,1.275,1.276,1.276,0,0,0-1.275-1.275" transform="translate(-83.503 -18.798)" fill="#ed2693"/>
      <path id="Path_3195" data-name="Path 3195" d="M157.684,81.9a1.558,1.558,0,1,1-1.558-1.558,1.558,1.558,0,0,1,1.558,1.558" transform="translate(-61.855 -32.152)" fill="#ed2693"/>
      <path id="Path_3196" data-name="Path 3196" d="M155.938,83.553a1.84,1.84,0,1,1,1.84-1.84,1.843,1.843,0,0,1-1.84,1.84m0-3.115a1.275,1.275,0,1,0,1.275,1.275,1.276,1.276,0,0,0-1.275-1.275" transform="translate(-61.666 -31.963)" fill="#ed2693"/>
      <path id="Path_3197" data-name="Path 3197" d="M107.3,9.229a1.558,1.558,0,1,1-1.558-1.558A1.558,1.558,0,0,1,107.3,9.229" transform="translate(-41.692 -3.07)" fill="#ed2693"/>
      <path id="Path_3198" data-name="Path 3198" d="M105.552,10.88a1.841,1.841,0,1,1,1.84-1.841,1.843,1.843,0,0,1-1.84,1.841m0-3.115a1.275,1.275,0,1,0,1.275,1.275,1.276,1.276,0,0,0-1.275-1.275" transform="translate(-41.503 -2.881)" fill="#ed2693"/>
      <path id="Path_3199" data-name="Path 3199" d="M189.966,195.6a1.558,1.558,0,1,1-1.558-1.558,1.558,1.558,0,0,1,1.558,1.558" transform="translate(-74.774 -77.65)" fill="#ed2693"/>
      <path id="Path_3200" data-name="Path 3200" d="M188.22,197.248a1.841,1.841,0,1,1,1.84-1.841,1.843,1.843,0,0,1-1.84,1.841m0-3.115a1.275,1.275,0,1,0,1.275,1.275,1.276,1.276,0,0,0-1.275-1.275" transform="translate(-74.585 -77.461)" fill="#ed2693"/>
      <path id="Path_3201" data-name="Path 3201" d="M230.3,156.017a1.246,1.246,0,1,1-1.246-1.246,1.247,1.247,0,0,1,1.246,1.246" transform="translate(-91.162 -61.936)" fill="#ed2693"/>
      <path id="Path_3202" data-name="Path 3202" d="M228.861,157.358a1.529,1.529,0,1,1,1.529-1.529,1.531,1.531,0,0,1-1.529,1.529m0-2.493a.964.964,0,1,0,.964.964.965.965,0,0,0-.964-.964" transform="translate(-90.973 -61.747)" fill="#ed2693"/>
      <path id="Path_3203" data-name="Path 3203" d="M154.231,159.925a1.246,1.246,0,1,1-1.246-1.246,1.246,1.246,0,0,1,1.246,1.246" transform="translate(-60.723 -63.5)" fill="#ed2693"/>
      <path id="Path_3204" data-name="Path 3204" d="M152.8,161.266a1.529,1.529,0,1,1,1.529-1.529,1.531,1.531,0,0,1-1.529,1.529m0-2.493a.964.964,0,1,0,.964.964.965.965,0,0,0-.964-.964" transform="translate(-60.534 -63.311)" fill="#ed2693"/>
      <path id="Path_3205" data-name="Path 3205" d="M16.845,116.4A1.246,1.246,0,1,1,15.6,115.15a1.247,1.247,0,0,1,1.246,1.246" transform="translate(-5.744 -46.08)" fill="#ed2693"/>
      <path id="Path_3206" data-name="Path 3206" d="M15.41,117.737a1.529,1.529,0,1,1,1.529-1.529,1.531,1.531,0,0,1-1.529,1.529m0-2.493a.964.964,0,1,0,.964.964.965.965,0,0,0-.964-.964" transform="translate(-5.555 -45.892)" fill="#ed2693"/>
      <path id="Path_3207" data-name="Path 3207" d="M185.828,105.792a1.246,1.246,0,1,1-1.246-1.246,1.246,1.246,0,0,1,1.246,1.246" transform="translate(-73.367 -41.837)" fill="#ed2693"/>
      <path id="Path_3208" data-name="Path 3208" d="M184.393,107.133a1.529,1.529,0,1,1,1.529-1.529,1.531,1.531,0,0,1-1.529,1.529m0-2.493a.964.964,0,1,0,.964.964.965.965,0,0,0-.964-.964" transform="translate(-73.178 -41.649)" fill="#ed2693"/>
      <path id="Path_3209" data-name="Path 3209" d="M4.794,101.472a1.246,1.246,0,1,1-1.246-1.246,1.247,1.247,0,0,1,1.246,1.246" transform="translate(-0.921 -40.108)" fill="#ed2693"/>
      <path id="Path_3210" data-name="Path 3210" d="M3.359,102.812a1.529,1.529,0,1,1,1.529-1.529,1.531,1.531,0,0,1-1.529,1.529m0-2.493a.964.964,0,1,0,.964.964.965.965,0,0,0-.964-.964" transform="translate(-0.733 -39.919)" fill="#ed2693"/>
      <path id="Path_3211" data-name="Path 3211" d="M103.036,153.109a2,2,0,1,1,.857-2.689,2,2,0,0,1-.857,2.689" transform="translate(-40.068 -59.762)" fill="#ed2693"/>
      <path id="Path_3212" data-name="Path 3212" d="M100.355,152.792a2.278,2.278,0,1,1,2.622.379,2.274,2.274,0,0,1-2.622-.379m2.762-2.882a1.713,1.713,0,1,0,.337.45,1.715,1.715,0,0,0-.337-.45" transform="translate(-39.879 -59.574)" fill="#ed2693"/>
      <path id="Path_3213" data-name="Path 3213" d="M152.884,70.551a2,2,0,1,1-2.125-1.858,2,2,0,0,1,2.125,1.858" transform="translate(-59.585 -27.488)" fill="#ed2693"/>
      <path id="Path_3214" data-name="Path 3214" d="M151.585,72.6a2.279,2.279,0,1,1,1.393-2.254,2.262,2.262,0,0,1-1.393,2.254m-1.542-3.682a1.714,1.714,0,1,0,.547-.129,1.716,1.716,0,0,0-.547.129" transform="translate(-59.397 -27.299)" fill="#ed2693"/>
      <path id="Path_3215" data-name="Path 3215" d="M210.974,20.767a2,2,0,1,1-2.3-1.637,2,2,0,0,1,2.3,1.637" transform="translate(-82.841 -7.644)" fill="#ed2693"/>
      <path id="Path_3216" data-name="Path 3216" d="M209.9,22.914a2.279,2.279,0,1,1,1.161-2.382,2.262,2.262,0,0,1-1.161,2.382M208,19.4a1.714,1.714,0,1,0,.531-.183A1.715,1.715,0,0,0,208,19.4" transform="translate(-82.652 -7.456)" fill="#ed2693"/>
      <path id="Path_3217" data-name="Path 3217" d="M43.165,184.995a2,2,0,1,1-1.423-2.438,2,2,0,0,1,1.423,2.438" transform="translate(-15.702 -73.029)" fill="#ed2693"/>
      <path id="Path_3218" data-name="Path 3218" d="M41.211,186.571a2.279,2.279,0,1,1,.414-4.476,2.279,2.279,0,0,1-.414,4.476m-.29-3.981a1.713,1.713,0,1,0,.56.052,1.715,1.715,0,0,0-.56-.052" transform="translate(-15.514 -72.84)" fill="#ed2693"/>
      <path id="Path_3219" data-name="Path 3219" d="M99.088,136.814l7.614-7.354a1.26,1.26,0,0,1,1.408-.314l.974.4a.573.573,0,0,1,.305.764L104.9,138.8Z" transform="translate(-39.653 -51.643)" fill="#e9212a"/>
      <path id="Path_3220" data-name="Path 3220" d="M99.059,136.947l7.614-7.354a1.26,1.26,0,0,1,1.408-.314l.054.175c.3.123.334.378.2.674l-4.5,8.366Z" transform="translate(-39.641 -51.696)" fill="#fff"/>
      <path id="Path_3221" data-name="Path 3221" d="M109.34,130.274a.716.716,0,0,0-.381-.954l-.973-.4a1.405,1.405,0,0,0-1.562.344l-7.781,7.516,6.151,2.1Zm-5.671,2.046a10.8,10.8,0,0,1,2.993-1.693,7.034,7.034,0,0,1,1.579.505l.266.109-3.851,7.287-5.479-1.868Z" transform="translate(-39.475 -51.549)"/>
      <path id="Path_3222" data-name="Path 3222" d="M46.638,102.258a1.549,1.549,0,0,0-.808-1.282h0l-.007,0-.029-.011-6.074-3.033-.03-.012-.041-.016v0a1.547,1.547,0,0,0-1.429.341,4.524,4.524,0,0,0-1.606,3.892,1.541,1.541,0,0,0,.825,1.291l0,.01,6.51,2.1.022.009.033.013v0a1.54,1.54,0,0,0,1.441-.337,2.717,2.717,0,0,0,1.2-2.963" transform="translate(-14.639 -39.153)" fill="#e9212a"/>
      <path id="Path_3223" data-name="Path 3223" d="M46.684,102.143A1.741,1.741,0,0,0,45.9,100.8l0-.008-6.211-3.088-.177-.068-.05,0a1.762,1.762,0,0,0-1.422.4,4.686,4.686,0,0,0-1.661,4.027,2.08,2.08,0,0,0,.411,1.024,1.316,1.316,0,0,0,.374.317l.125.072,6.53,2.11.181.055a1.759,1.759,0,0,0,1.432-.4,2.866,2.866,0,0,0,1.252-3.1M37.4,103.2a1.407,1.407,0,0,1-.738-1.18,4.373,4.373,0,0,1,1.549-3.758,1.417,1.417,0,0,1,1.3-.321l.05.017,5.993,2.991,0,0,.131.058a1.417,1.417,0,0,1,.723,1.173,2.9,2.9,0,0,1-.18,1.756l-6.2-2.385-.2.47,6.15,2.315a3.19,3.19,0,0,1-.421.439l-6.08-2.284-.643.522-.793.4-.525-.17Z" transform="translate(-14.545 -39.058)"/>
      <path id="Path_3224" data-name="Path 3224" d="M51.221,101.433c-.061-.07-1.442-1.8-3-1.222a8.368,8.368,0,0,1-2.645.355c-.632.013-.942.025-1.1.141h0a.327.327,0,0,0-.141.271.519.519,0,0,0,.134.31,1.186,1.186,0,0,0,.2.191l3.081,1.3a2.031,2.031,0,0,0,1.866-.152l1.7-1.068Z" transform="translate(-17.742 -40.055)"/>
      <path id="Path_3225" data-name="Path 3225" d="M36.249,102.854l.134-.533a2.382,2.382,0,0,1-.057-.278,4.768,4.768,0,0,1,1.362-3.777l.231-.718,1.419.04a1.554,1.554,0,0,1,1.2,1.485,4.7,4.7,0,0,1-1.666,4.037,1.66,1.66,0,0,1-1.622.343,2.153,2.153,0,0,1-.454-.277Zm1.877-5.017-.188.585-.027.025a4.456,4.456,0,0,0-1.3,3.555,2.457,2.457,0,0,0,.061.285l.011.041-.119.368.512.316a1.047,1.047,0,0,0,.282.176,1.392,1.392,0,0,0,1.346-.307,4.386,4.386,0,0,0,1.554-3.769c-.11-.753-.5-1.222-1.056-1.254h-.022Z" transform="translate(-14.506 -39.037)"/>
      <path id="Path_3226" data-name="Path 3226" d="M37.259,102.553a1.21,1.21,0,0,1-2.092-.877,4.09,4.09,0,0,1,1.452-3.52,1.21,1.21,0,0,1,2.092.877,4.091,4.091,0,0,1-1.452,3.52" transform="translate(-14.061 -39.133)" fill="#e9212a"/>
      <path id="Path_3227" data-name="Path 3227" d="M37.68,101.95a1.064,1.064,0,0,1-1.84-.771,3.6,3.6,0,0,1,1.276-3.1,1.065,1.065,0,0,1,1.841.771,3.6,3.6,0,0,1-1.277,3.1" transform="translate(-14.332 -39.121)" fill="#fcebcc"/>
      <path id="Path_3228" data-name="Path 3228" d="M35.306,102.533a1.89,1.89,0,0,1-.375-.933,4.254,4.254,0,0,1,1.507-3.654,1.349,1.349,0,0,1,2.318.971,4.252,4.252,0,0,1-1.507,3.654,1.506,1.506,0,0,1-1.482.309,1.172,1.172,0,0,1-.461-.347m2.856-4.368a.9.9,0,0,0-.35-.266,1.241,1.241,0,0,0-1.2.275,3.941,3.941,0,0,0-1.4,3.385,1.255,1.255,0,0,0,.663,1.058,1.24,1.24,0,0,0,1.2-.275,3.94,3.94,0,0,0,1.4-3.385,1.606,1.606,0,0,0-.313-.793" transform="translate(-13.967 -39.037)"/>
      <path id="Path_3229" data-name="Path 3229" d="M36.2,102.252a1.129,1.129,0,0,1-.224-.555,2.488,2.488,0,0,1,.881-2.136.9.9,0,0,1,.889-.182.911.911,0,0,1,.5.765,2.485,2.485,0,0,1-.881,2.136.9.9,0,0,1-.889.183.714.714,0,0,1-.28-.211" transform="translate(-14.391 -39.748)"/>
      <path id="Path_3230" data-name="Path 3230" d="M57.366,75.569l-1.473-.59a1.134,1.134,0,0,0-1.336.444L37.625,103.161l13.819,4.881,2.2-19.353,4.139-12.22a.7.7,0,0,0-.419-.9" transform="translate(-15.057 -29.978)" fill="#e9212a"/>
      <path id="Path_3231" data-name="Path 3231" d="M55.391,76.577l-.616-.225a1.134,1.134,0,0,0-1.336.444L36.507,104.533l12.962,4.517L51.67,89.7l4.139-12.221a.7.7,0,0,0-.419-.9" transform="translate(-14.609 -30.527)" fill="#fff"/>
      <path id="Path_3232" data-name="Path 3232" d="M53.643,88.624l4.132-12.2a.843.843,0,0,0-.5-1.081L55.8,74.75a1.273,1.273,0,0,0-1.507.5L37.27,103.141l14.152,5ZM51.789,79.9c.674-.776,1.9-2.119,2.407-2.18a7.635,7.635,0,0,1,2.617.654L53.369,88.547l-2.189,19.2L37.7,102.99Z" transform="translate(-14.915 -29.882)"/>
      <path id="Path_3233" data-name="Path 3233" d="M47.628,158.138a1.547,1.547,0,0,0-.807-1.282h0l-.007,0-.029-.011-6.075-3.033-.031-.012-.04-.016v0a1.548,1.548,0,0,0-1.429.341,4.525,4.525,0,0,0-1.605,3.892,1.539,1.539,0,0,0,.825,1.291l0,.01,6.51,2.1.022.009.032.013v0a1.54,1.54,0,0,0,1.441-.337,2.715,2.715,0,0,0,1.2-2.963" transform="translate(-15.036 -61.515)" fill="#e9212a"/>
      <path id="Path_3234" data-name="Path 3234" d="M47.674,158.023a1.74,1.74,0,0,0-.786-1.341l0-.008-6.211-3.089-.177-.068-.05,0a1.762,1.762,0,0,0-1.422.4,4.687,4.687,0,0,0-1.661,4.027,2.077,2.077,0,0,0,.411,1.024,1.317,1.317,0,0,0,.374.317l.124.071,6.531,2.11.181.055a1.755,1.755,0,0,0,1.432-.4,2.866,2.866,0,0,0,1.252-3.1m-9.285,1.057a1.4,1.4,0,0,1-.738-1.18,4.373,4.373,0,0,1,1.549-3.758,1.415,1.415,0,0,1,1.3-.32l.05.016,5.993,2.991,0,0,.132.058a1.417,1.417,0,0,1,.723,1.172,2.905,2.905,0,0,1-.18,1.756l-6.2-2.385-.2.47,6.15,2.315a3.19,3.19,0,0,1-.421.439l-6.08-2.284-.644.522-.792.4-.525-.169Z" transform="translate(-14.941 -61.42)"/>
      <path id="Path_3235" data-name="Path 3235" d="M52.211,157.313c-.061-.07-1.442-1.8-3-1.222a8.349,8.349,0,0,1-2.645.355c-.632.013-.942.025-1.1.141h0a.327.327,0,0,0-.142.27.519.519,0,0,0,.134.31,1.185,1.185,0,0,0,.2.191l3.081,1.3a2.031,2.031,0,0,0,1.866-.152l1.7-1.067Z" transform="translate(-18.138 -62.417)"/>
      <path id="Path_3236" data-name="Path 3236" d="M37.239,158.734l.134-.533a2.552,2.552,0,0,1-.058-.278,4.771,4.771,0,0,1,1.363-3.777l.231-.718,1.419.04a1.553,1.553,0,0,1,1.2,1.485,4.7,4.7,0,0,1-1.665,4.037,1.66,1.66,0,0,1-1.622.343,2.122,2.122,0,0,1-.454-.277Zm1.877-5.017-.189.585-.026.025a4.456,4.456,0,0,0-1.3,3.555,2.459,2.459,0,0,0,.061.285l.011.041-.119.368.512.316a1.061,1.061,0,0,0,.282.176,1.392,1.392,0,0,0,1.346-.307,4.386,4.386,0,0,0,1.554-3.769c-.11-.753-.5-1.222-1.056-1.254h-.023Z" transform="translate(-14.902 -61.398)"/>
      <path id="Path_3237" data-name="Path 3237" d="M38.249,158.433a1.21,1.21,0,0,1-2.092-.877,4.091,4.091,0,0,1,1.452-3.52,1.21,1.21,0,0,1,2.092.878,4.091,4.091,0,0,1-1.452,3.519" transform="translate(-14.457 -61.495)" fill="#e9212a"/>
      <path id="Path_3238" data-name="Path 3238" d="M38.67,157.83a1.064,1.064,0,0,1-1.84-.772,3.6,3.6,0,0,1,1.276-3.1,1.065,1.065,0,0,1,1.841.771,3.6,3.6,0,0,1-1.277,3.1" transform="translate(-14.728 -61.483)" fill="#fff"/>
      <path id="Path_3239" data-name="Path 3239" d="M36.3,158.413a1.9,1.9,0,0,1-.375-.933,4.253,4.253,0,0,1,1.508-3.654,1.508,1.508,0,0,1,1.482-.31,1.523,1.523,0,0,1,.836,1.281,4.252,4.252,0,0,1-1.507,3.654,1.508,1.508,0,0,1-1.482.31,1.183,1.183,0,0,1-.461-.347m2.856-4.369a.9.9,0,0,0-.35-.266,1.242,1.242,0,0,0-1.2.275,3.941,3.941,0,0,0-1.4,3.385,1.257,1.257,0,0,0,.663,1.058,1.242,1.242,0,0,0,1.2-.274,3.942,3.942,0,0,0,1.4-3.385,1.606,1.606,0,0,0-.313-.793" transform="translate(-14.363 -61.399)"/>
      <path id="Path_3240" data-name="Path 3240" d="M37.192,158.132a1.128,1.128,0,0,1-.224-.555,2.487,2.487,0,0,1,.882-2.136.812.812,0,0,1,1.392.583,2.484,2.484,0,0,1-.881,2.135.9.9,0,0,1-.889.183.72.72,0,0,1-.28-.211" transform="translate(-14.787 -62.11)"/>
      <path id="Path_3241" data-name="Path 3241" d="M11.682,125.75l-1.059-.411-1.276,1.025a.412.412,0,0,0-.155.23l-.005.045a.188.188,0,0,0,.011.075l.041.237.215-.032.214.083a.836.836,0,0,0,.752-.145l.659-.529.659-.242Z" transform="translate(-3.676 -50.158)"/>
      <path id="Path_3242" data-name="Path 3242" d="M9.8,127.385l-.29-.112c-.191-.074-.2-.256-.012-.4l1.244-1,.983.381-1.243,1a.77.77,0,0,1-.681.134" transform="translate(-3.749 -50.37)" fill="#e9212a"/>
      <path id="Path_3243" data-name="Path 3243" d="M9.3,127.19a.235.235,0,0,1-.051-.113.352.352,0,0,1,.159-.316l1.276-1.025,1.136.441-1.34,1.077a.836.836,0,0,1-.752.145l-.29-.112a.337.337,0,0,1-.139-.1m1.409-1.292-1.212.974a.225.225,0,0,0-.107.184.143.143,0,0,0,.1.1l.29.113a.705.705,0,0,0,.611-.124l1.147-.923Z" transform="translate(-3.701 -50.316)"/>
      <path id="Path_3244" data-name="Path 3244" d="M7.415,128.9l.4-.126-.07-.407a.3.3,0,0,0-.009-.053l-.006-.037h0a.432.432,0,0,0-.378-.264,1.327,1.327,0,0,0-1.144.467.481.481,0,0,0-.113.378l.008.072.06.363.4-.125a1.367,1.367,0,0,0,.858-.271" transform="translate(-2.435 -51.224)" fill="#e9212a"/>
      <path id="Path_3245" data-name="Path 3245" d="M7.7,129.118a.561.561,0,0,0,.13-.419s0,.007,0,0l-.065-.384a.287.287,0,0,0-.01-.063l-.041-.113a.532.532,0,0,0-.405-.244,1.406,1.406,0,0,0-1.212.494.551.551,0,0,0-.127.431l.067.422a.1.1,0,0,0,.007.018.352.352,0,0,0,.016.066.368.368,0,0,0,.06.1.575.575,0,0,0,.369.186,1.408,1.408,0,0,0,1.212-.494m-1.59-.321a.418.418,0,0,1,.1-.323,1.252,1.252,0,0,1,1.077-.44.43.43,0,0,1,.276.135.258.258,0,0,1,.046.081l.009.041a.22.22,0,0,1,.005.037l.014.084a.667.667,0,0,0-.259-.092,1.409,1.409,0,0,0-1.212.494.808.808,0,0,0-.045.074l0-.015Z" transform="translate(-2.387 -51.176)"/>
      <path id="Path_3246" data-name="Path 3246" d="M7.146,129.772a.174.174,0,0,1-.122-.3.59.59,0,0,1,.508-.207.174.174,0,0,1,.121.3.588.588,0,0,1-.507.207" transform="translate(-2.789 -51.726)" fill="#fcebcc"/>
      <path id="Path_3247" data-name="Path 3247" d="M7.771,130.735l.4-.126L8.1,130.2a.3.3,0,0,0-.009-.053l-.006-.037h0a.433.433,0,0,0-.378-.264,1.328,1.328,0,0,0-1.144.467.482.482,0,0,0-.113.379l.008.072.06.363.4-.125a1.367,1.367,0,0,0,.858-.271" transform="translate(-2.578 -51.959)" fill="#e9212a"/>
      <path id="Path_3248" data-name="Path 3248" d="M8.059,130.956a.561.561,0,0,0,.13-.419s0,.007,0,0l-.065-.384a.451.451,0,0,0-.009-.063l-.041-.113a.531.531,0,0,0-.405-.244,1.406,1.406,0,0,0-1.212.494.552.552,0,0,0-.127.43l.067.422a.094.094,0,0,0,.007.018.312.312,0,0,0,.016.066.352.352,0,0,0,.059.1.573.573,0,0,0,.369.186,1.407,1.407,0,0,0,1.211-.494m-1.588-.321a.415.415,0,0,1,.1-.323,1.251,1.251,0,0,1,1.077-.44.428.428,0,0,1,.277.135.245.245,0,0,1,.045.081l.01.041a.29.29,0,0,1,.005.037l.014.083a.666.666,0,0,0-.259-.091,1.409,1.409,0,0,0-1.212.494.687.687,0,0,0-.044.074l0-.016Z" transform="translate(-2.53 -51.912)"/>
      <path id="Path_3249" data-name="Path 3249" d="M7.5,131.609a.174.174,0,0,1-.122-.3.59.59,0,0,1,.508-.207.174.174,0,0,1,.121.3.59.59,0,0,1-.507.207" transform="translate(-2.931 -52.461)" fill="#fcebcc"/>
      <path id="Path_3250" data-name="Path 3250" d="M9.133,129.306l-.2-.3-.014-.1a.328.328,0,0,0-.179-.244l-.2-.083-.345-.331-.223.183a.171.171,0,0,0-.038.146l.06.409a.337.337,0,0,0,.074.162.272.272,0,0,0,.106.082l.59.25a.164.164,0,0,0,.175-.021l0,0,.017-.014Z" transform="translate(-3.176 -51.323)"/>
      <path id="Path_3251" data-name="Path 3251" d="M8.477,128.357l.606.257a.259.259,0,0,1,.136.188l.059.407c.012.078-.031.121-.094.1l-.606-.257a.259.259,0,0,1-.136-.188l-.06-.407c-.011-.078.031-.121.095-.1" transform="translate(-3.353 -51.363)" fill="#e9212a"/>
      <path id="Path_3252" data-name="Path 3252" d="M8.4,128.985a.339.339,0,0,1-.074-.162l-.06-.407a.165.165,0,0,1,.05-.157.138.138,0,0,1,.141-.016h0l.606.257a.326.326,0,0,1,.179.243l.059.407a.163.163,0,0,1-.05.158.139.139,0,0,1-.141.015l-.607-.257a.275.275,0,0,1-.1-.082m0-.609a.179.179,0,0,1,0,.019l.06.407a.188.188,0,0,0,.092.132l.6.256a.164.164,0,0,0,0-.019l-.059-.407a.184.184,0,0,0-.092-.131Z" transform="translate(-3.306 -51.315)"/>
      <path id="Path_3253" data-name="Path 3253" d="M8.939,128.131h0a.156.156,0,0,1,.022-.221l1.681-1.375a.157.157,0,1,1,.2.242l-1.681,1.376a.157.157,0,0,1-.22-.022" transform="translate(-3.563 -50.622)" fill="#e9212a"/>
      <path id="Path_3254" data-name="Path 3254" d="M8.837,128.128a.228.228,0,0,1,.032-.32l1.681-1.376a.228.228,0,1,1,.289.353L9.157,128.16a.228.228,0,0,1-.32-.032m1.924-1.574a.085.085,0,0,0-.12-.012l-1.681,1.375a.085.085,0,0,0,.108.133l1.681-1.375a.086.086,0,0,0,.012-.121" transform="translate(-3.516 -50.575)"/>
      <path id="Path_3255" data-name="Path 3255" d="M11.936,126.938l-1.059-.411L9.6,127.551a.412.412,0,0,0-.155.23l-.01.006,0,.039a.2.2,0,0,0,.01.075l.041.237.215-.032.214.083a.836.836,0,0,0,.752-.145l.659-.529.659-.242Z" transform="translate(-3.776 -50.633)"/>
      <path id="Path_3256" data-name="Path 3256" d="M10.062,128.572l-.29-.112c-.191-.074-.2-.255-.012-.4l1.244-1,.983.381-1.243,1a.77.77,0,0,1-.681.134" transform="translate(-3.852 -50.845)" fill="#e9212a"/>
      <path id="Path_3257" data-name="Path 3257" d="M9.559,128.377a.235.235,0,0,1-.051-.113.354.354,0,0,1,.159-.316l1.276-1.025,1.136.441-1.34,1.077a.836.836,0,0,1-.752.145l-.29-.112a.333.333,0,0,1-.139-.1m1.409-1.292-1.212.974a.225.225,0,0,0-.107.184.144.144,0,0,0,.1.1l.29.112a.7.7,0,0,0,.611-.123l1.147-.923Z" transform="translate(-3.804 -50.791)"/>
      <path id="Path_3258" data-name="Path 3258" d="M14.242,110.269c-5.35-.782-12.725,1.737-13.621,3.162-1.2,1.912.618,2.991,2.642,4.55,4.24,3.262,20.691,9.917,31.215,13.87s14.933,5.77,17.739,6.463c4.844,1.2,16.406-1.215,19.919-2.388,2.574-.86.837-2.816-1.441-4.093s-18-7.6-31.464-12.957-18.588-7.672-24.989-8.607" transform="translate(-0.094 -44.068)" fill="#e9212a"/>
      <path id="Path_3259" data-name="Path 3259" d="M71.223,131.942a1.72,1.72,0,0,0,.83-1.624c-5.65-2.453-14.861-6.028-25.594-10.3-13.468-5.358-18.587-7.672-24.989-8.607,0,0-2.516-.224-2.247,1.2s1.932,2.961,9.839,6.111S63,131.756,63,131.756s5.38,1.835,8.219.185" transform="translate(-7.684 -44.58)" fill="#fffefd"/>
      <path id="Path_3260" data-name="Path 3260" d="M20.347,112.732a2.605,2.605,0,0,1-.583-1.192.942.942,0,0,1,.212-.851c.592-.653,2.123-.525,2.188-.519,5.539.809,10.035,2.612,19.886,6.561,1.571.63,3.277,1.314,5.143,2.056,2.605,1.036,5.12,2.031,7.517,2.979,7.405,2.93,13.8,5.461,18.081,7.319l.085.037v.092a1.852,1.852,0,0,1-.9,1.748c-2.862,1.663-8.114-.1-8.337-.175-.265-.1-26.13-9.918-33.948-13.032-5.871-2.339-8.346-3.805-9.344-5.025M72.59,129.31c-4.276-1.853-10.633-4.369-17.986-7.278-2.4-.948-4.912-1.943-7.517-2.98-1.867-.742-3.573-1.426-5.144-2.056-9.829-3.941-14.315-5.739-19.813-6.542-.006,0-1.446-.121-1.943.427a.664.664,0,0,0-.142.606c.26,1.377,2.017,2.924,9.753,6.005,7.816,3.114,33.679,12.93,33.939,13.029.049.016,5.348,1.793,8.1.2a1.536,1.536,0,0,0,.758-1.408" transform="translate(-7.9 -44.082)"/>
      <path id="Path_3261" data-name="Path 3261" d="M27.6,124.822l-.266-.1c-.238-.089-.247-.313-.02-.5l.473-.388a.955.955,0,0,1,.842-.176l.266.1c.238.09.247.314.02.5l-.473.389a.957.957,0,0,1-.842.175" transform="translate(-10.864 -49.471)" fill="#fff"/>
      <path id="Path_3262" data-name="Path 3262" d="M27.725,124.023a.343.343,0,0,1-.074-.164.489.489,0,0,1,.212-.444l.472-.389a1.1,1.1,0,0,1,.983-.2l.266.1a.391.391,0,0,1,.272.3.49.49,0,0,1-.212.444l-.472.388a1.1,1.1,0,0,1-.983.2l-.266-.1a.464.464,0,0,1-.2-.136m1.837-.779a.186.186,0,0,0-.077-.049l-.266-.1a.811.811,0,0,0-.7.152l-.472.387c-.091.076-.118.143-.112.178s.06.067.092.079l.266.1a.813.813,0,0,0,.7-.152l.472-.388c.092-.075.118-.143.112-.178a.064.064,0,0,0-.014-.029" transform="translate(-11.063 -49.135)"/>
      <path id="Path_3263" data-name="Path 3263" d="M31.193,126.17l-.266-.1c-.238-.089-.247-.313-.02-.5l.473-.388a.955.955,0,0,1,.842-.176l.266.1c.238.09.247.314.02.5l-.473.389a.955.955,0,0,1-.842.175" transform="translate(-12.302 -50.01)" fill="#fff"/>
      <path id="Path_3264" data-name="Path 3264" d="M31.319,125.371a.338.338,0,0,1-.074-.163.491.491,0,0,1,.212-.445l.473-.388a1.1,1.1,0,0,1,.983-.2l.266.1a.391.391,0,0,1,.272.3.49.49,0,0,1-.212.444l-.472.388a1.1,1.1,0,0,1-.983.2l-.266-.1a.462.462,0,0,1-.2-.135m1.837-.779a.19.19,0,0,0-.077-.049l-.266-.1a.811.811,0,0,0-.7.152l-.472.388c-.092.076-.118.143-.112.178s.067.069.092.079l.266.1a.811.811,0,0,0,.7-.152l.472-.388c.092-.075.118-.143.112-.178a.065.065,0,0,0-.014-.029" transform="translate(-12.502 -49.674)"/>
      <path id="Path_3265" data-name="Path 3265" d="M33.9,127.183l-.266-.1c-.238-.089-.247-.313-.02-.5l.473-.387a.955.955,0,0,1,.842-.176l.266.1c.238.09.247.313.02.5l-.473.388a.955.955,0,0,1-.842.175" transform="translate(-13.384 -50.416)" fill="#fff"/>
      <path id="Path_3266" data-name="Path 3266" d="M34.022,126.385a.338.338,0,0,1-.074-.163.49.49,0,0,1,.213-.444l.471-.388a1.1,1.1,0,0,1,.983-.2l.267.1a.393.393,0,0,1,.272.3.49.49,0,0,1-.212.444l-.472.388a1.1,1.1,0,0,1-.983.2l-.266-.1a.461.461,0,0,1-.2-.136m1.838-.778a.2.2,0,0,0-.079-.049l-.266-.1a.811.811,0,0,0-.7.152l-.472.388c-.092.076-.118.143-.112.178s.067.069.092.079l.266.1a.815.815,0,0,0,.7-.152l.472-.388c.092-.076.118-.143.112-.178a.067.067,0,0,0-.013-.029" transform="translate(-13.583 -50.08)"/>
      <path id="Path_3267" data-name="Path 3267" d="M36.66,128.239l-.266-.1c-.238-.089-.247-.313-.02-.5l.473-.388a.955.955,0,0,1,.842-.176l.266.1c.238.09.247.314.02.5l-.473.388a.957.957,0,0,1-.842.175" transform="translate(-14.49 -50.838)" fill="#fff"/>
      <path id="Path_3268" data-name="Path 3268" d="M36.786,127.441a.338.338,0,0,1-.074-.163.488.488,0,0,1,.212-.444l.471-.388a1.1,1.1,0,0,1,.983-.2l.266.1a.394.394,0,0,1,.272.3.489.489,0,0,1-.212.444l-.473.389a1.1,1.1,0,0,1-.983.2l-.266-.1a.459.459,0,0,1-.2-.136m1.837-.779a.187.187,0,0,0-.077-.049l-.266-.1a.813.813,0,0,0-.7.152l-.472.388c-.092.075-.118.143-.112.178s.067.069.092.079l.266.1a.813.813,0,0,0,.7-.152l.472-.389c.092-.075.118-.143.112-.178a.064.064,0,0,0-.014-.03" transform="translate(-14.689 -50.503)"/>
      <path id="Path_3269" data-name="Path 3269" d="M39.364,129.253l-.266-.1c-.238-.09-.247-.313-.02-.5l.473-.389a.957.957,0,0,1,.842-.175l.266.1c.238.09.247.314.02.5l-.473.389a.957.957,0,0,1-.842.175" transform="translate(-15.572 -51.244)" fill="#fff"/>
      <path id="Path_3270" data-name="Path 3270" d="M39.49,128.455a.343.343,0,0,1-.074-.163.488.488,0,0,1,.212-.444l.472-.388a1.1,1.1,0,0,1,.983-.2l.266.1a.393.393,0,0,1,.272.3.488.488,0,0,1-.212.444l-.472.388a1.1,1.1,0,0,1-.983.2l-.267-.1a.46.46,0,0,1-.2-.136m1.837-.779a.2.2,0,0,0-.077-.049l-.266-.1a.813.813,0,0,0-.7.152l-.473.388c-.092.076-.118.143-.112.178s.06.066.091.078l.267.1a.81.81,0,0,0,.7-.152l.472-.388c.092-.075.118-.143.112-.178a.064.064,0,0,0-.014-.029" transform="translate(-15.771 -50.908)"/>
      <path id="Path_3271" data-name="Path 3271" d="M42.127,130.309l-.266-.1c-.239-.09-.247-.313-.02-.5l.473-.389a.957.957,0,0,1,.842-.175l.266.1c.238.09.247.314.02.5l-.473.388a.957.957,0,0,1-.842.175" transform="translate(-16.678 -51.666)" fill="#fff"/>
      <path id="Path_3272" data-name="Path 3272" d="M42.252,129.51a.342.342,0,0,1-.074-.163.49.49,0,0,1,.212-.444l.473-.388a1.1,1.1,0,0,1,.983-.2l.267.1a.394.394,0,0,1,.272.3.491.491,0,0,1-.212.445l-.472.387a1.1,1.1,0,0,1-.983.2l-.267-.1a.46.46,0,0,1-.2-.136m1.837-.779a.2.2,0,0,0-.077-.049l-.267-.1a.809.809,0,0,0-.7.152l-.472.388c-.092.076-.118.143-.112.178s.06.066.091.078l.267.1a.81.81,0,0,0,.7-.152l.473-.389c.092-.075.118-.143.112-.178a.063.063,0,0,0-.014-.029" transform="translate(-16.877 -51.331)"/>
      <path id="Path_3273" data-name="Path 3273" d="M44.831,131.322l-.266-.1c-.239-.089-.248-.313-.021-.5l.473-.389a.957.957,0,0,1,.842-.175l.266.1c.238.09.247.314.02.5l-.473.389a.956.956,0,0,1-.842.175" transform="translate(-17.76 -52.072)" fill="#fff"/>
      <path id="Path_3274" data-name="Path 3274" d="M44.956,130.524a.339.339,0,0,1-.074-.163.488.488,0,0,1,.212-.444l.473-.389a1.1,1.1,0,0,1,.983-.2l.266.1a.392.392,0,0,1,.272.3.49.49,0,0,1-.212.444l-.472.388a1.1,1.1,0,0,1-.983.2l-.266-.1a.462.462,0,0,1-.2-.136m1.837-.779a.187.187,0,0,0-.077-.049l-.266-.1a.811.811,0,0,0-.7.152l-.473.388c-.092.076-.118.143-.112.178s.067.068.092.078l.266.1a.813.813,0,0,0,.7-.152l.473-.388c.092-.075.117-.143.112-.178a.064.064,0,0,0-.014-.029" transform="translate(-17.959 -51.736)"/>
      <path id="Path_3275" data-name="Path 3275" d="M47.593,132.378l-.266-.1c-.238-.089-.247-.313-.02-.5l.473-.388a.955.955,0,0,1,.842-.176l.266.1c.238.09.247.314.02.5l-.473.389a.957.957,0,0,1-.842.175" transform="translate(-18.865 -52.494)" fill="#fff"/>
      <path id="Path_3276" data-name="Path 3276" d="M47.719,131.58a.336.336,0,0,1-.074-.163.49.49,0,0,1,.212-.445l.473-.388a1.1,1.1,0,0,1,.983-.2l.266.1a.393.393,0,0,1,.272.3.49.49,0,0,1-.212.445l-.473.388a1.1,1.1,0,0,1-.983.2l-.266-.1a.459.459,0,0,1-.2-.136m1.837-.779a.19.19,0,0,0-.077-.049l-.266-.1a.811.811,0,0,0-.7.152l-.472.388c-.092.076-.118.143-.112.178s.067.068.092.078l.266.1a.813.813,0,0,0,.7-.152l.472-.388c.092-.076.118-.143.112-.178a.064.064,0,0,0-.014-.029" transform="translate(-19.065 -52.159)"/>
      <path id="Path_3277" data-name="Path 3277" d="M50.3,133.392l-.266-.1c-.238-.089-.247-.313-.02-.5l.473-.388a.955.955,0,0,1,.842-.176l.266.1c.238.09.247.314.02.5l-.473.388a.957.957,0,0,1-.842.175" transform="translate(-19.947 -52.9)" fill="#fff"/>
      <path id="Path_3278" data-name="Path 3278" d="M50.423,132.593a.338.338,0,0,1-.074-.163.491.491,0,0,1,.212-.445l.472-.388a1.1,1.1,0,0,1,.983-.2l.266.1a.392.392,0,0,1,.272.3.49.49,0,0,1-.212.444l-.472.388a1.1,1.1,0,0,1-.983.2l-.266-.1a.458.458,0,0,1-.2-.135m1.837-.779a.187.187,0,0,0-.077-.049l-.266-.1a.811.811,0,0,0-.7.152l-.473.388c-.092.076-.117.143-.112.178s.06.066.092.078l.266.1a.81.81,0,0,0,.7-.152l.473-.388c.091-.075.118-.143.112-.178a.064.064,0,0,0-.014-.029" transform="translate(-20.147 -52.564)"/>
      <path id="Path_3279" data-name="Path 3279" d="M53.084,134.428l-.266-.1c-.239-.089-.247-.313-.02-.5l.472-.389a.958.958,0,0,1,.843-.175l.266.1c.238.09.247.314.02.5l-.473.389a.955.955,0,0,1-.842.175" transform="translate(-21.062 -53.315)" fill="#fff"/>
      <path id="Path_3280" data-name="Path 3280" d="M53.209,133.63a.352.352,0,0,1-.074-.163.491.491,0,0,1,.212-.445l.472-.388a1.1,1.1,0,0,1,.983-.2l.266.1a.392.392,0,0,1,.272.3.49.49,0,0,1-.212.445l-.472.388a1.1,1.1,0,0,1-.983.2l-.266-.1a.471.471,0,0,1-.2-.135m1.837-.779a.19.19,0,0,0-.077-.049l-.267-.1a.811.811,0,0,0-.7.152l-.472.388c-.092.076-.118.143-.112.178s.06.067.091.078l.267.1a.813.813,0,0,0,.7-.152l.472-.388c.092-.076.118-.143.112-.178a.061.061,0,0,0-.014-.029" transform="translate(-21.262 -52.979)"/>
      <path id="Path_3281" data-name="Path 3281" d="M55.788,135.441l-.266-.1c-.238-.089-.247-.313-.02-.5l.473-.388a.955.955,0,0,1,.842-.176l.266.1c.238.09.247.314.02.5l-.473.388a.957.957,0,0,1-.842.175" transform="translate(-22.145 -53.72)" fill="#fff"/>
      <path id="Path_3282" data-name="Path 3282" d="M55.914,134.643a.352.352,0,0,1-.074-.163.489.489,0,0,1,.212-.444l.473-.389a1.1,1.1,0,0,1,.983-.2l.266.1a.393.393,0,0,1,.272.3.49.49,0,0,1-.212.444l-.472.388a1.1,1.1,0,0,1-.983.2l-.266-.1a.464.464,0,0,1-.2-.136m1.837-.779a.186.186,0,0,0-.077-.049l-.266-.1a.811.811,0,0,0-.7.152l-.473.388c-.092.076-.118.143-.112.178s.061.067.092.079l.266.1a.809.809,0,0,0,.7-.152l.472-.388c.092-.075.118-.143.112-.178a.064.064,0,0,0-.014-.029" transform="translate(-22.344 -53.385)"/>
      <path id="Path_3283" data-name="Path 3283" d="M58.551,136.5l-.266-.1c-.238-.09-.247-.313-.02-.5l.473-.389a.957.957,0,0,1,.842-.175l.266.1c.238.09.247.314.02.5l-.473.387a.956.956,0,0,1-.842.176" transform="translate(-23.25 -54.143)" fill="#fff"/>
      <path id="Path_3284" data-name="Path 3284" d="M58.676,135.7a.337.337,0,0,1-.075-.163.49.49,0,0,1,.212-.444l.472-.388a1.1,1.1,0,0,1,.983-.2l.266.1a.392.392,0,0,1,.272.3.491.491,0,0,1-.211.445l-.473.388a1.1,1.1,0,0,1-.983.2l-.266-.1a.453.453,0,0,1-.2-.136m1.837-.779a.2.2,0,0,0-.078-.049l-.266-.1a.811.811,0,0,0-.7.152l-.473.388c-.092.076-.118.143-.112.178s.061.067.092.079l.266.1a.811.811,0,0,0,.7-.152l.472-.388c.092-.076.118-.143.112-.178a.074.074,0,0,0-.014-.029" transform="translate(-23.449 -53.807)"/>
      <path id="Path_3285" data-name="Path 3285" d="M61.255,137.511l-.266-.1c-.238-.089-.247-.313-.02-.5l.473-.389a.957.957,0,0,1,.842-.175l.266.1c.238.09.247.313.02.5l-.473.389a.957.957,0,0,1-.842.175" transform="translate(-24.332 -54.548)" fill="#fff"/>
      <path id="Path_3286" data-name="Path 3286" d="M61.38,136.712a.342.342,0,0,1-.074-.163.492.492,0,0,1,.212-.444l.472-.388a1.1,1.1,0,0,1,.983-.2l.266.1a.392.392,0,0,1,.272.3.491.491,0,0,1-.212.445l-.473.388a1.1,1.1,0,0,1-.983.2l-.267-.1a.461.461,0,0,1-.2-.136m1.837-.779a.19.19,0,0,0-.077-.049l-.266-.1a.813.813,0,0,0-.7.152l-.473.388c-.092.076-.118.143-.112.178s.067.069.092.079l.266.1a.813.813,0,0,0,.7-.152l.472-.388c.092-.076.118-.143.112-.178a.061.061,0,0,0-.014-.029" transform="translate(-24.532 -54.213)"/>
      <path id="Path_3287" data-name="Path 3287" d="M64.017,138.567l-.267-.1c-.238-.089-.247-.313-.02-.5l.473-.388a.956.956,0,0,1,.842-.176l.266.1c.238.09.247.314.02.5l-.473.388a.953.953,0,0,1-.842.175" transform="translate(-25.438 -54.971)" fill="#fff"/>
      <path id="Path_3288" data-name="Path 3288" d="M64.143,137.768a.336.336,0,0,1-.074-.163.489.489,0,0,1,.212-.444l.472-.389a1.1,1.1,0,0,1,.983-.2l.266.1a.393.393,0,0,1,.272.3.49.49,0,0,1-.212.444l-.472.388a1.1,1.1,0,0,1-.983.2l-.266-.1a.46.46,0,0,1-.2-.136m1.837-.779a.191.191,0,0,0-.077-.049l-.266-.1a.811.811,0,0,0-.7.152l-.473.388c-.092.076-.118.143-.112.178s.061.067.092.079l.266.1a.811.811,0,0,0,.7-.152l.472-.388c.092-.076.118-.143.112-.178a.065.065,0,0,0-.014-.029" transform="translate(-25.637 -54.636)"/>
      <path id="Path_3289" data-name="Path 3289" d="M66.721,139.58l-.266-.1c-.238-.089-.247-.313-.02-.5l.473-.388a.955.955,0,0,1,.842-.176l.266.1c.238.09.247.314.02.5l-.472.389a.957.957,0,0,1-.842.175" transform="translate(-26.52 -55.376)" fill="#fff"/>
      <path id="Path_3290" data-name="Path 3290" d="M66.847,138.782a.349.349,0,0,1-.074-.163.49.49,0,0,1,.212-.444l.473-.389a1.1,1.1,0,0,1,.983-.2l.266.1a.4.4,0,0,1,.273.3.491.491,0,0,1-.212.444l-.472.388a1.1,1.1,0,0,1-.983.2l-.266-.1a.46.46,0,0,1-.2-.135M68.684,138a.187.187,0,0,0-.078-.049l-.266-.1a.811.811,0,0,0-.7.152l-.472.389c-.092.075-.118.143-.112.178s.061.066.092.078l.266.1a.81.81,0,0,0,.7-.152l.472-.388c.092-.075.118-.143.112-.178a.061.061,0,0,0-.014-.029" transform="translate(-26.719 -55.041)"/>
      <path id="Path_3291" data-name="Path 3291" d="M69.484,140.636l-.266-.1c-.239-.09-.247-.313-.02-.5l.473-.389a.957.957,0,0,1,.842-.175l.266.1c.238.09.247.314.02.5l-.473.388a.955.955,0,0,1-.842.176" transform="translate(-27.625 -55.799)" fill="#fff"/>
      <path id="Path_3292" data-name="Path 3292" d="M69.609,139.838a.349.349,0,0,1-.074-.164.488.488,0,0,1,.212-.444l.472-.389a1.1,1.1,0,0,1,.983-.2l.267.1a.394.394,0,0,1,.272.3.491.491,0,0,1-.212.444l-.472.388a1.1,1.1,0,0,1-.983.2l-.266-.1a.457.457,0,0,1-.2-.135m1.837-.779a.187.187,0,0,0-.078-.049l-.266-.1a.811.811,0,0,0-.7.152l-.472.389c-.092.075-.118.143-.112.178s.06.067.091.079l.266.1a.813.813,0,0,0,.7-.152l.473-.388c.092-.075.118-.143.112-.178a.061.061,0,0,0-.014-.029" transform="translate(-27.824 -55.464)"/>
      <path id="Path_3293" data-name="Path 3293" d="M72.188,141.65l-.266-.1c-.238-.09-.247-.313-.02-.5l.473-.389a.957.957,0,0,1,.842-.175l.266.1c.238.089.247.313.02.5l-.473.389a.957.957,0,0,1-.842.175" transform="translate(-28.708 -56.205)" fill="#fff"/>
      <path id="Path_3294" data-name="Path 3294" d="M72.314,140.851a.339.339,0,0,1-.074-.163.491.491,0,0,1,.212-.445l.472-.388a1.1,1.1,0,0,1,.983-.2l.266.1a.392.392,0,0,1,.272.3.489.489,0,0,1-.212.444l-.472.388a1.1,1.1,0,0,1-.983.2l-.266-.1a.459.459,0,0,1-.2-.136m1.837-.779a.191.191,0,0,0-.077-.049l-.266-.1a.811.811,0,0,0-.7.152l-.473.388c-.092.076-.118.143-.112.178s.061.067.092.079l.266.1a.813.813,0,0,0,.7-.152l.473-.388c.091-.075.117-.143.112-.178a.065.065,0,0,0-.014-.029" transform="translate(-28.907 -55.869)"/>
      <path id="Path_3295" data-name="Path 3295" d="M74.951,142.706l-.266-.1c-.239-.09-.247-.314-.021-.5l.473-.389a.955.955,0,0,1,.842-.175l.267.1c.238.09.247.314.02.5l-.472.389a.958.958,0,0,1-.842.175" transform="translate(-29.813 -56.627)" fill="#fff"/>
      <path id="Path_3296" data-name="Path 3296" d="M75.075,141.907a.344.344,0,0,1-.074-.163.49.49,0,0,1,.212-.444l.472-.389a1.1,1.1,0,0,1,.983-.2l.266.1a.394.394,0,0,1,.272.3.489.489,0,0,1-.212.444l-.472.388a1.1,1.1,0,0,1-.983.2l-.267-.1a.465.465,0,0,1-.2-.135m1.837-.779a.189.189,0,0,0-.077-.049l-.266-.1a.811.811,0,0,0-.7.152l-.473.388c-.092.076-.118.143-.112.178s.06.067.091.079l.267.1a.813.813,0,0,0,.7-.152l.472-.388c.092-.075.118-.143.112-.178a.062.062,0,0,0-.014-.029" transform="translate(-30.012 -56.292)"/>
      <path id="Path_3297" data-name="Path 3297" d="M77.655,143.719l-.266-.1c-.238-.09-.247-.313-.02-.5l.473-.389a.957.957,0,0,1,.842-.175l.266.1c.238.09.247.314.02.5l-.473.389a.957.957,0,0,1-.842.175" transform="translate(-30.895 -57.033)" fill="#fff"/>
      <path id="Path_3298" data-name="Path 3298" d="M77.779,142.921a.342.342,0,0,1-.074-.163.491.491,0,0,1,.212-.444l.472-.388a1.1,1.1,0,0,1,.983-.2l.266.1a.392.392,0,0,1,.272.3.491.491,0,0,1-.211.445l-.473.388a1.1,1.1,0,0,1-.983.2l-.267-.1a.46.46,0,0,1-.2-.136m1.837-.779a.2.2,0,0,0-.078-.049l-.266-.1a.815.815,0,0,0-.7.152l-.472.388c-.092.076-.118.143-.112.178s.06.067.091.078l.267.1a.811.811,0,0,0,.7-.152l.472-.388c.092-.076.118-.143.112-.178a.066.066,0,0,0-.013-.029" transform="translate(-31.094 -56.697)"/>
      <path id="Path_3299" data-name="Path 3299" d="M80.417,144.775l-.266-.1c-.238-.09-.247-.314-.02-.5l.473-.389a.957.957,0,0,1,.842-.175l.266.1c.238.09.247.314.02.5l-.473.389a.957.957,0,0,1-.842.175" transform="translate(-32.001 -57.455)" fill="#fff"/>
      <path id="Path_3300" data-name="Path 3300" d="M80.542,143.976a.34.34,0,0,1-.074-.163.492.492,0,0,1,.212-.445l.472-.388a1.1,1.1,0,0,1,.983-.2l.266.1a.393.393,0,0,1,.272.3.49.49,0,0,1-.212.444l-.472.388a1.1,1.1,0,0,1-.983.2l-.267-.1a.461.461,0,0,1-.2-.136m1.837-.779a.191.191,0,0,0-.077-.049l-.266-.1a.811.811,0,0,0-.7.152l-.473.388c-.092.076-.118.143-.112.178s.061.067.092.079l.266.1a.811.811,0,0,0,.7-.152l.472-.388c.092-.076.118-.143.112-.178a.064.064,0,0,0-.014-.029" transform="translate(-32.2 -57.12)"/>
      <path id="Path_3301" data-name="Path 3301" d="M83.121,145.789l-.266-.1c-.238-.089-.247-.313-.02-.5l.473-.389a.957.957,0,0,1,.842-.175l.266.1c.238.09.247.314.02.5l-.473.389a.957.957,0,0,1-.842.175" transform="translate(-33.083 -57.861)" fill="#fff"/>
      <path id="Path_3302" data-name="Path 3302" d="M83.246,144.99a.342.342,0,0,1-.074-.163.49.49,0,0,1,.212-.444l.472-.388a1.1,1.1,0,0,1,.983-.2l.267.1a.392.392,0,0,1,.272.3.491.491,0,0,1-.212.445l-.472.388a1.1,1.1,0,0,1-.983.2l-.266-.1a.46.46,0,0,1-.2-.136m1.837-.779a.19.19,0,0,0-.077-.049l-.267-.1a.814.814,0,0,0-.7.152l-.472.388c-.092.076-.118.143-.112.178s.06.067.091.078l.267.1a.813.813,0,0,0,.7-.152l.472-.388c.092-.076.118-.143.112-.178a.061.061,0,0,0-.014-.029" transform="translate(-33.282 -57.525)"/>
      <path id="Path_3303" data-name="Path 3303" d="M85.884,146.844l-.267-.1c-.238-.09-.247-.313-.02-.5l.473-.389a.957.957,0,0,1,.842-.175l.266.1c.238.09.247.314.02.5l-.473.389a.957.957,0,0,1-.842.175" transform="translate(-34.188 -58.283)" fill="#fff"/>
      <path id="Path_3304" data-name="Path 3304" d="M86.008,146.046a.345.345,0,0,1-.074-.163.492.492,0,0,1,.212-.445l.472-.388a1.1,1.1,0,0,1,.983-.2l.266.1a.392.392,0,0,1,.272.3.49.49,0,0,1-.212.444l-.473.389a1.1,1.1,0,0,1-.983.2l-.267-.1a.459.459,0,0,1-.2-.135m1.837-.779a.187.187,0,0,0-.077-.049l-.266-.1a.81.81,0,0,0-.7.152l-.473.388c-.092.076-.118.143-.112.178s.06.067.091.079l.267.1a.81.81,0,0,0,.7-.152l.472-.388c.092-.076.118-.143.112-.178a.071.071,0,0,0-.014-.029" transform="translate(-34.387 -57.948)"/>
      <path id="Path_3305" data-name="Path 3305" d="M24.448,124.857a.415.415,0,0,1-.091-.2.657.657,0,0,1,.293-.586l2.175-1.78A1.6,1.6,0,0,1,28.259,122l.78.295a.5.5,0,0,1,.351.376.659.659,0,0,1-.293.586l-2.176,1.78a1.6,1.6,0,0,1-1.433.292l-.78-.3a.6.6,0,0,1-.26-.176m4.695-2.26a.421.421,0,0,0-.176-.116l-.78-.3a1.431,1.431,0,0,0-1.237.26l-2.174,1.78a.473.473,0,0,0-.223.4.322.322,0,0,0,.225.222l.78.295a1.427,1.427,0,0,0,1.236-.259l2.175-1.78a.47.47,0,0,0,.222-.4.222.222,0,0,0-.049-.106" transform="translate(-9.745 -48.795)"/>
      <path id="Path_3306" data-name="Path 3306" d="M15.24,116.615l.4-.327c.212-.162.215-.41,0-.505a39.7,39.7,0,0,1-4.692-2.151c-.8-.452-1.42-1.053-1.438-1.757-.016-.636,1.2-1.013,1.428-1.043a17.493,17.493,0,0,0-2.488.52,1.022,1.022,0,0,0-.589.386,1.391,1.391,0,0,0,.149,1.588c.807,1.227,4.252,2.812,5.947,3.331a1.786,1.786,0,0,0,1.286-.042" transform="translate(-3.069 -44.353)" fill="#fff"/>
      <path id="Path_3307" data-name="Path 3307" d="M16.934,115.643a.393.393,0,0,0-.246-.311c-.184-.08-.418-.175-.693-.285-.256-.1-.546-.221-.863-.353h0l-.516-.224a27.144,27.144,0,0,1-2.628-1.3,4.424,4.424,0,0,1-.681-.473l-.039-.033a2.227,2.227,0,0,1-.437-.516L10.764,112a1.156,1.156,0,0,1-.109-.455.386.386,0,0,1,.056-.2l.034-.061a2.394,2.394,0,0,1,1.2-.629l-.035-.283a17.11,17.11,0,0,0-2.442.506l-.067.018a1.163,1.163,0,0,0-.67.441,1.525,1.525,0,0,0,.148,1.748,2.1,2.1,0,0,0,.129.175c1.024,1.252,4.266,2.715,5.9,3.214a1.921,1.921,0,0,0,1.387-.049l.426-.342a.488.488,0,0,0,.213-.437m-.775.529a1.676,1.676,0,0,1-1.168.028c-1.625-.5-5.07-2.056-5.87-3.273A1.292,1.292,0,0,1,8.97,111.5a.882.882,0,0,1,.507-.329l.067-.017c.408-.106.822-.214,1.244-.3a1.256,1.256,0,0,0-.3.3l-1,.23-.023.081a1.432,1.432,0,0,0,.054.878l.043.121.125-.031c.3-.074.059-.01.271-.061l.59-.143a2.236,2.236,0,0,0,.384.513l-.969.247.166.178a11.569,11.569,0,0,0,2.719,1.66l.037.019,1.618-.1c.522.227,1,.418,1.386.576.272.11.5.2.686.282a.112.112,0,0,1,.077.085.218.218,0,0,1-.107.179Z" transform="translate(-3.411 -44.167)"/>
      <path id="Path_3308" data-name="Path 3308" d="M73.46,134.694c.1-1.061-1.375-2.287-2.789-3.079-1.808-1.013-12.4-5.375-31.48-12.965-1.867-.743-3.573-1.426-5.145-2.056-9.85-3.949-14.346-5.751-19.876-6.559-5.352-.782-12.815,1.718-13.763,3.226a2.015,2.015,0,0,0,.163,2.618,11.527,11.527,0,0,0,1.948,1.691c.185.14.374.282.564.429,4.037,3.106,19.359,9.424,31.253,13.891,2.868,1.077,5.281,2,7.332,2.775,5.4,2.054,8.374,3.186,10.423,3.693,4.793,1.183,16.336-1.168,20-2.392.858-.286,1.32-.714,1.372-1.272M14.128,110.316c5.5.8,9.983,2.6,19.812,6.542,1.572.63,3.279,1.314,5.145,2.057,19.07,7.585,29.65,11.941,31.447,12.948a7.518,7.518,0,0,1,2.23,1.764,79.05,79.05,0,0,1-9.025,1.723c-.918-.618-2.133-1.342-2.493-1.12a10.991,10.991,0,0,1-4.724,1.452,10.9,10.9,0,0,1-1.632-.253c-2.805-.693-6.691-2.576-17.215-6.528S12.9,119.723,5.992,115.544c-2.424-1.467-3.289-2.5-3.051-3.531a23.584,23.584,0,0,1,11.187-1.7" transform="translate(0 -43.974)"/>
      <path id="Path_3309" data-name="Path 3309" d="M1.473,117.11c-.371.3-.735.166-.812-.307a1.66,1.66,0,0,1,.532-1.406c.371-.3.734-.166.812.307a1.663,1.663,0,0,1-.531,1.407" transform="translate(-0.259 -46.115)" fill="#fff"/>
      <path id="Path_3310" data-name="Path 3310" d="M77.389,152.33h0a.283.283,0,0,1,.369-.154,50.457,50.457,0,0,0,5.035,1.831,15.664,15.664,0,0,0,2.876.437.285.285,0,0,1-.028.57,16.042,16.042,0,0,1-2.984-.454,49.946,49.946,0,0,1-5.116-1.857.283.283,0,0,1-.152-.373" transform="translate(-30.96 -60.889)" fill="#fff"/>
      <path id="Path_3311" data-name="Path 3311" d="M93.084,156.244h0a.284.284,0,0,1,.278-.28c.195,0,.471-.014.749-.043a.285.285,0,0,1,.059.567c-.3.031-.589.042-.8.046a.284.284,0,0,1-.289-.29" transform="translate(-37.25 -62.396)" fill="#fff"/>
      <path id="Path_3312" data-name="Path 3312" d="M38.682,134.022c1.048-.495,10.763,3.339,14.106,4.651a2.337,2.337,0,0,1,1.395,1.539l5.6,16.858,9.241,20.706a.6.6,0,0,1-.714.831l-1.839-.563a4.868,4.868,0,0,1-2.6-1.924l-24.175-35.7a10.448,10.448,0,0,1-1.574-3.575c-.239-1.078-.5-2.323.565-2.827" transform="translate(-15.168 -53.615)" fill="#e9212a"/>
      <path id="Path_3313" data-name="Path 3313" d="M39.394,136.329c1.048-.494,8.8,2.735,12.142,4.047a2.337,2.337,0,0,1,1.394,1.539l5.979,16.652,9.173,19.542c.227.47.04.526-.459.374l-1.593-.474a4.865,4.865,0,0,1-2.6-1.924L40.3,141.958a6.894,6.894,0,0,1-1.467-2.8c-.24-1.077-.5-2.323.565-2.827" transform="translate(-15.453 -54.535)" fill="#fff"/>
      <path id="Path_3314" data-name="Path 3314" d="M68.952,178.427a.728.728,0,0,0,.107-.8l-.3-.664h0l-8.94-20.029-5.6-16.852a2.492,2.492,0,0,0-1.479-1.632l-.214-.084c-6.016-2.362-13.045-5.016-14-4.563-1.183.558-.871,1.961-.644,2.987a10.547,10.547,0,0,0,1.6,3.624l20.79,30.7h0l3.384,5q.126.186.268.36a5.023,5.023,0,0,0,2.412,1.62l1.84.563a.73.73,0,0,0,.779-.226M39.715,140.253a10.263,10.263,0,0,1-1.553-3.526c-.278-1.25-.418-2.24.487-2.667.971-.458,10.611,3.327,13.779,4.571l.214.084a2.184,2.184,0,0,1,1.312,1.451l5.6,16.871,7.417,16.619c-.626-.163-2.805-.738-3.955-1.18-1.043-.4-3.595-3.383-4.8-4.907l.016.027Z" transform="translate(-15.074 -53.524)"/>
      <path id="Path_3315" data-name="Path 3315" d="M101.957,151.373a.515.515,0,0,1,.339-.849c1.879-.194,6.178,1.119,6.517,1.242.425.154,1.112,1.834,1.112,1.834l4.395,10.273a.373.373,0,0,1-.459.5l-1.36-.443a3.167,3.167,0,0,1-1.51-1.056Z" transform="translate(-40.751 -60.229)" fill="#e9212a"/>
      <path id="Path_3316" data-name="Path 3316" d="M102.7,152.655a3.412,3.412,0,0,1-.473-.854,23.043,23.043,0,0,1,6.113,1.317c.405.2,1.113,1.835,1.113,1.835l3.728,8.717c.126.295.476.562.172.463l-1.36-.443a2.059,2.059,0,0,1-1.173-.894Z" transform="translate(-40.908 -60.747)" fill="#fff"/>
      <path id="Path_3317" data-name="Path 3317" d="M114.149,164.367a.525.525,0,0,0,.116-.095.511.511,0,0,0,.093-.551l-4.393-10.27c-.119-.29-.734-1.747-1.2-1.915-.4-.146-4.7-1.444-6.581-1.249a.656.656,0,0,0-.545.411.665.665,0,0,0,.11.669l9.032,11.5.041.052a3.3,3.3,0,0,0,1.536,1.05l1.36.444a.506.506,0,0,0,.384-.031.408.408,0,0,0,.041-.017m-12.175-13.18,0,0a.358.358,0,0,1-.064-.381.368.368,0,0,1,.31-.233c1.829-.189,6.057,1.09,6.453,1.234a4.893,4.893,0,0,1,1.03,1.756l3.457,8.08c-.62-.2-1.856-.588-2.433-.765a11.044,11.044,0,0,1-2.9-2.237l-5.851-7.45Z" transform="translate(-40.657 -60.134)"/>
      <path id="Path_3318" data-name="Path 3318" d="M102.117,139.023s16.272-6.48,17.206-6.422a22.673,22.673,0,0,1,3.758,1.179.4.4,0,0,1,.082.713l-12.052,8.153a1.633,1.633,0,0,1-1.5.173l-7.484-2.856s-.867-.368-.01-.941" transform="translate(-40.713 -53.064)" fill="#e9212a"/>
      <path id="Path_3319" data-name="Path 3319" d="M123.332,133.205a.568.568,0,0,0-.038-.146.542.542,0,0,0-.311-.3,22.507,22.507,0,0,0-3.8-1.188c-.939-.059-15.6,5.767-17.268,6.431l-.026.014a1.65,1.65,0,0,0-.2.159.608.608,0,0,0-.236.5.51.51,0,0,0,.12.276,1.01,1.01,0,0,0,.358.261l.414.158.173.077v-.011l6.9,2.631a1.781,1.781,0,0,0,1.631-.188l12.052-8.153a.545.545,0,0,0,.238-.517m-12.449,8.434a1.5,1.5,0,0,1-1.37.158l-6.919-2.64a1.356,1.356,0,0,1,.741-.516c.825-.263,10.439-1.891,16.063-2.762Z" transform="translate(-40.597 -52.651)"/>
      <path id="Path_3320" data-name="Path 3320" d="M131.352,135.634a2.4,2.4,0,0,1-2.142.351.662.662,0,0,1-.2-1.237,2.4,2.4,0,0,1,2.142-.35.661.661,0,0,1,.2,1.236" transform="translate(-51.486 -53.737)" fill="#fff"/>
      <path id="Path_3321" data-name="Path 3321" d="M184.486,128.582c-.017-.092-.039-.179-.061-.266l.517-.825-1.66-.924a2.291,2.291,0,0,0-.241-.134l-.082-.038a3.462,3.462,0,0,0-3.107.439,10.432,10.432,0,0,0-4.72,8.175,3.869,3.869,0,0,0,.463,2.075l.05.1,2.458,4.55a1,1,0,0,0,.445.5v0l.018.01.006,0,1.781.992a.178.178,0,0,0,.254-.1l.644-1.809,2.062-4.637,2.517-6.554Zm-3.83,5.849c-1.2,1.143-2.322,1.186-2.862.443l3.436-4.609-.5-1.056c1.092-.131,1.79.865,1.4,2.6a5.214,5.214,0,0,1-1.482,2.624" transform="translate(-70.084 -50.5)" fill="#e9212a"/>
      <path id="Path_3322" data-name="Path 3322" d="M175.5,136.127l.082.038a2.192,2.192,0,0,1,.241.134l1.661.924.221-.319,2.274-4.64.627-.949a1.265,1.265,0,0,1,.845.183l1.886-2.723-.182-.1a2.045,2.045,0,0,0-.241-.134l-.082-.039a3.464,3.464,0,0,0-3.107.44A10.588,10.588,0,0,0,175.1,136a2.384,2.384,0,0,1,.4.129" transform="translate(-70.072 -51.343)" fill="#fff"/>
      <path id="Path_3323" data-name="Path 3323" d="M180.307,143.33a.372.372,0,0,1-.183-.047l-1.884-1.054a1.228,1.228,0,0,1-.452-.546l-2.5-4.64a4.019,4.019,0,0,1-.485-2.164,10.667,10.667,0,0,1,4.819-8.347,3.674,3.674,0,0,1,3.286-.449l.087.04a2.727,2.727,0,0,1,.264.147l1.833,1.02-.584.931c.013.051.023.1.032.142l1.388,1.612-2.561,6.665-2.065,4.647-.638,1.8a.38.38,0,0,1-.223.226.375.375,0,0,1-.133.024m-1.692-1.344,1.7.949.614-1.8L183,136.486l2.471-6.434-1.3-1.513-.01-.053c-.014-.077-.032-.152-.051-.226l-.02-.082.038-.1.406-.647-1.477-.822a2.138,2.138,0,0,0-.232-.13l-.079-.037a3.3,3.3,0,0,0-2.924.432,10.224,10.224,0,0,0-4.62,8,3.667,3.667,0,0,0,.435,1.973l.056.112,2.456,4.545a.823.823,0,0,0,.363.419Zm.04-6.547c-.049,0-.1,0-.145-.007a1.365,1.365,0,0,1-1.01-.572l-.086-.118,3.451-4.631-.562-1.2.273-.032a1.427,1.427,0,0,1,1.266.441,2.675,2.675,0,0,1,.356,2.4,5.375,5.375,0,0,1-1.539,2.724,3.08,3.08,0,0,1-2,1m-.741-.7a.976.976,0,0,0,.632.3,2.578,2.578,0,0,0,1.839-.881,4.973,4.973,0,0,0,1.425-2.523,2.342,2.342,0,0,0-.262-2.044.97.97,0,0,0-.637-.318l.416.887Z" transform="translate(-69.951 -50.368)"/>
      <path id="Path_3324" data-name="Path 3324" d="M186.086,141.738l1.209-3.148-2.507-1.7a4.656,4.656,0,0,1-.072.463,5.218,5.218,0,0,1-1.482,2.624c-.937.894-1.825,1.107-2.428.8l1.264,3.067Z" transform="translate(-72.355 -54.78)" fill="#fff"/>
      <path id="Path_3325" data-name="Path 3325" d="M187.756,131.342c0-3.01-2.113-4.23-4.72-2.725a10.432,10.432,0,0,0-4.72,8.175,4.229,4.229,0,0,0,.517,2.173l.112.215,2.343,4.337c.279.639.956.813,1.748.355a4.2,4.2,0,0,0,1.749-2.374l2.394-7.2.06-.189a8.45,8.45,0,0,0,.517-2.769m-4.72,5.487c-1.321.763-2.392.145-2.392-1.381a5.286,5.286,0,0,1,2.392-4.144c1.321-.763,2.392-.145,2.392,1.381a5.287,5.287,0,0,1-2.392,4.144" transform="translate(-71.358 -51.212)"/>
      <path id="Path_3326" data-name="Path 3326" d="M182.065,144.195a1.227,1.227,0,0,1-.385-.06,1.169,1.169,0,0,1-.707-.672l-2.448-4.54a4.408,4.408,0,0,1-.539-2.265,10.669,10.669,0,0,1,4.82-8.347,3.07,3.07,0,0,1,5.018,2.9,8.6,8.6,0,0,1-.528,2.836l-.058.182-2.4,7.2A4.381,4.381,0,0,1,183,143.91a1.9,1.9,0,0,1-.938.284m2.946-16.159a4.089,4.089,0,0,0-2.008.62,10.228,10.228,0,0,0-4.62,8,4.028,4.028,0,0,0,.489,2.071l.117.225,2.342,4.335a.8.8,0,0,0,.474.468,1.273,1.273,0,0,0,1-.192,4.026,4.026,0,0,0,1.657-2.258l2.456-7.39a8.2,8.2,0,0,0,.508-2.709,3.13,3.13,0,0,0-1.284-2.883,2.229,2.229,0,0,0-1.131-.289m-3.176,9.187a1.42,1.42,0,0,1-.722-.188,1.866,1.866,0,0,1-.8-1.721A5.515,5.515,0,0,1,182.8,131a1.652,1.652,0,0,1,2.69,1.553A5.516,5.516,0,0,1,183,136.868a2.374,2.374,0,0,1-1.168.355m2.137-6.181a1.975,1.975,0,0,0-.968.3,5.075,5.075,0,0,0-2.293,3.971,1.266,1.266,0,0,0,2.095,1.209,5.076,5.076,0,0,0,2.293-3.971,1.5,1.5,0,0,0-.6-1.376,1.035,1.035,0,0,0-.525-.134" transform="translate(-71.226 -51.078)"/>
      <path id="Path_3327" data-name="Path 3327" d="M185.475,161.475l-.012-.038L185,160.29h-.858a5.087,5.087,0,0,0-3.453,0h-.858l-.468,1.147-.01.031c-.192.567.1,1.146.863,1.585a4.862,4.862,0,0,0,4.4,0c.761-.439,1.057-1.011.865-1.578" transform="translate(-71.749 -64.024)" fill="#e9212a"/>
      <path id="Path_3328" data-name="Path 3328" d="M182.277,163.642a4.7,4.7,0,0,1-2.3-.549c-.834-.482-1.18-1.145-.951-1.821l.533-1.314h.955a5.282,5.282,0,0,1,3.525,0H185l.535,1.323c.226.671-.122,1.33-.955,1.811a4.706,4.706,0,0,1-2.3.549m-2.45-3.286-.418,1.024c-.17.507.1.986.768,1.368a4.647,4.647,0,0,0,4.2,0c.384-.221,1-.691.776-1.342l-.425-1.05-.8-.013a4.916,4.916,0,0,0-3.309,0l-.071.013Z" transform="translate(-71.615 -63.89)"/>
      <path id="Path_3329" data-name="Path 3329" d="M184.6,159.044a1.155,1.155,0,0,1,0,2.188,4.188,4.188,0,0,1-3.789,0,1.155,1.155,0,0,1,0-2.188,4.188,4.188,0,0,1,3.789,0" transform="translate(-72.042 -63.464)" fill="#e9212a"/>
      <path id="Path_3330" data-name="Path 3330" d="M184.6,159.884a1.155,1.155,0,0,1,0,2.188,4.188,4.188,0,0,1-3.789,0,1.155,1.155,0,0,1,0-2.188,4.188,4.188,0,0,1,3.789,0" transform="translate(-72.042 -63.801)" fill="#fff"/>
      <path id="Path_3331" data-name="Path 3331" d="M182.572,161.749a4.077,4.077,0,0,1-1.994-.476,1.348,1.348,0,0,1,0-2.532,4.416,4.416,0,0,1,3.988,0,1.348,1.348,0,0,1,0,2.532,4.076,4.076,0,0,1-1.993.476m0-3.091a3.671,3.671,0,0,0-1.795.428.962.962,0,0,0,0,1.843,3.972,3.972,0,0,0,3.59,0,.962.962,0,0,0,0-1.843,3.674,3.674,0,0,0-1.8-.428" transform="translate(-71.909 -63.334)"/>
      <path id="Path_3332" data-name="Path 3332" d="M184.549,159.944a.6.6,0,0,1,0,1.144,2.193,2.193,0,0,1-1.982,0,.6.6,0,0,1,0-1.144,2.189,2.189,0,0,1,1.982,0" transform="translate(-72.895 -63.911)" fill="#e9212a"/>
      <path id="Path_3333" data-name="Path 3333" d="M183.425,161.391a2.21,2.21,0,0,1-1.09-.265.8.8,0,0,1,0-1.488,2.373,2.373,0,0,1,2.181,0,.8.8,0,0,1,0,1.488,2.223,2.223,0,0,1-1.09.264m0-1.618a1.834,1.834,0,0,0-.891.209.412.412,0,0,0,0,.8,2,2,0,0,0,1.783,0,.412.412,0,0,0,0-.8h0a1.834,1.834,0,0,0-.891-.209" transform="translate(-72.762 -63.778)"/>
      <path id="Path_3334" data-name="Path 3334" d="M182.566,160.529a2.189,2.189,0,0,1,1.982,0,.926.926,0,0,1,.314.28c.2-.29.092-.632-.314-.866a2.188,2.188,0,0,0-1.981,0c-.4.234-.508.575-.314.864a.93.93,0,0,1,.313-.278" transform="translate(-72.896 -63.911)" fill="#e9212a"/>
      <path id="Path_3335" data-name="Path 3335" d="M184.417,160.955l.148-.168a.721.721,0,0,0-.249-.218,2,2,0,0,0-1.783,0h0a.732.732,0,0,0-.248.217l.041.121-.37-.122a.7.7,0,0,1-.111-.557.954.954,0,0,1,.491-.589,2.372,2.372,0,0,1,2.18,0,.951.951,0,0,1,.491.59.7.7,0,0,1-.112.558Zm-.993-1a2.213,2.213,0,0,1,1.09.266c.034.019.065.038.095.059a.625.625,0,0,0-.292-.3,2,2,0,0,0-1.783,0,.631.631,0,0,0-.291.3c.029-.02.059-.039.092-.058a2.219,2.219,0,0,1,1.09-.265" transform="translate(-72.763 -63.778)"/>
      <path id="Path_3336" data-name="Path 3336" d="M183.93,159.678v.671l-1.047.056-.543.284.107-.539.473-.389Z" transform="translate(-72.969 -63.9)"/>
      <path id="Path_3337" data-name="Path 3337" d="M185.64,162.786l.133,1.284,1.432-.348.867-.855-.064-.884-.323-.437-.7.86Z" transform="translate(-74.289 -64.647)"/>
    </g>
  </g>
</svg>
