<svg xmlns="http://www.w3.org/2000/svg" xmlns:xlink="http://www.w3.org/1999/xlink" width="35.382" height="35.382" viewBox="0 0 35.382 35.382">
  <defs>
    <clipPath id="clip-path">
      <rect id="Rectangle_812" data-name="Rectangle 812" width="35.382" height="35.382" transform="translate(0 0)" fill="none"/>
    </clipPath>
  </defs>
  <g id="instagram" transform="translate(0 0)">
    <g id="Group_1644" data-name="Group 1644" clip-path="url(#clip-path)">
      <path id="Path_4310" data-name="Path 4310" d="M27.058,6.318a2.074,2.074,0,1,0,2.074,2.074,2.075,2.075,0,0,0-2.074-2.074" fill="#04b5ff"/>
      <path id="Path_4311" data-name="Path 4311" d="M17.836,8.977a8.713,8.713,0,1,0,8.713,8.714,8.724,8.724,0,0,0-8.713-8.714m0,14.295a5.581,5.581,0,1,1,5.581-5.581,5.588,5.588,0,0,1-5.581,5.581" fill="#04b5ff"/>
      <path id="Path_4312" data-name="Path 4312" d="M24.753,35.382H10.627A10.64,10.64,0,0,1,0,24.754V10.628A10.64,10.64,0,0,1,10.627,0H24.753A10.64,10.64,0,0,1,35.381,10.628V24.754A10.64,10.64,0,0,1,24.753,35.382M10.627,3.329a7.307,7.307,0,0,0-7.3,7.3V24.754a7.307,7.307,0,0,0,7.3,7.3H24.753a7.307,7.307,0,0,0,7.3-7.3V10.628a7.307,7.307,0,0,0-7.3-7.3Z" fill="#04b5ff"/>
    </g>
  </g>
</svg>
