<svg xmlns="http://www.w3.org/2000/svg" viewBox="0 0 698.5 372"><defs><style>.cls-1{isolation:isolate;}.cls-2,.cls-3{fill:#214a74;}.cls-3{stroke:#214a74;stroke-miterlimit:10;stroke-width:4px;}</style></defs><g id="Layer_2" data-name="Layer 2"><g id="Layer_1-2" data-name="Layer 1"><g class="cls-1"><path class="cls-2" d="M138,332s-29,0-36,8L66,372,0,314l103-20S-27,173,77,0c0,0,7,156,124,238,0,0,34-46,69-6,0,0-32,9-34,24C236,256,236,358,138,332Z"/><path class="cls-2" d="M243,266s62,32,104,34c0,0-53,57-141,37C206,337,243,324,243,266Z"/></g><path class="cls-2" d="M298.7,91.58h21.51l25,79.52h-19l-10.4-40.27c-2.21-8-4.34-17.35-6.46-25.65h-.49c-1.92,8.4-4,17.7-6.25,25.65L292.11,171.1H273.73Zm-8.5,46.61h38.25v14H290.2Z"/><path class="cls-2" d="M348.68,161.06,359,148.73c5.66,4.92,13,8.31,19.53,8.31,7.51,0,11.18-3,11.18-7.68,0-5-4.52-6.61-11.47-9.46l-10.33-4.41c-8.24-3.35-16.05-10.12-16.05-21.67,0-13.18,11.77-23.7,28.32-23.7a36.77,36.77,0,0,1,25.58,10.42l-9.07,11.33c-5.24-4-10.22-6.23-16.51-6.23S370,108.22,370,112.77c0,4.88,5.2,6.65,12.14,9.41l10.13,4.11c9.71,3.92,15.77,10.39,15.77,21.62,0,13.21-11,24.65-29.95,24.65A43.77,43.77,0,0,1,348.68,161.06Z"/><path class="cls-2" d="M421.65,91.58H449c17.5,0,31.61,6.26,31.61,25.58,0,18.69-14.27,27-31.12,27h-9.83v27h-18Zm26.74,38.27c9.88,0,14.56-4.41,14.56-12.69s-5.32-11.3-15.05-11.3h-8.28v24Z"/><path class="cls-2" d="M494.36,91.58h18V171.1h-18Z"/><path class="cls-2" d="M531.08,91.58h28.63c16.87,0,30.69,5.86,30.69,24.76,0,18.28-13.82,26.14-30.69,26.14H549.05V171.1h-18Zm27.17,36.63c9.46,0,14.54-4.05,14.54-11.87s-5.08-10.48-14.54-10.48h-9.2v22.35Zm-1.82,9.53,12.43-11.5,25.38,44.86H574.12Z"/><path class="cls-2" d="M605.86,91.58h18V171.1h-18Z"/><path class="cls-2" d="M658.14,106.66H636.26V91.58H698v15.08H676.12V171.1h-18Z"/><path class="cls-2" d="M273.28,196.17h17.37v5.26h-11.1V207H289v5.26h-9.45v6.38h11.52v5.26H273.28Z"/><path class="cls-2" d="M296.59,196.17h7.83c8.47,0,13.92,4.21,13.92,13.74s-5.45,14-13.57,14h-8.18ZM304,218.84c4.7,0,7.88-2.3,7.88-8.93s-3.18-8.69-7.88-8.69h-1.19v17.62Z"/><path class="cls-2" d="M323.43,211V196.17h6.27v15.51c0,5.43,1.71,7.31,4.81,7.31s4.91-1.88,4.91-7.31V196.17h6V211c0,9.31-3.78,13.36-10.95,13.36S323.43,220.35,323.43,211Z"/><path class="cls-2" d="M350.56,210.19c0-9.2,6.08-14.53,13.08-14.53a11.72,11.72,0,0,1,8.34,3.6l-3.31,4a6.94,6.94,0,0,0-4.89-2.21c-3.8,0-6.8,3.35-6.8,8.91s2.65,9,6.7,9a7.28,7.28,0,0,0,5.42-2.59l3.31,3.93a11.41,11.41,0,0,1-9,4.07C356.43,224.4,350.56,219.53,350.56,210.19Z"/><path class="cls-2" d="M381.78,196.17h7.49L398,223.89h-6.63l-3.63-14c-.77-2.77-1.51-6-2.25-8.94h-.17c-.67,2.93-1.41,6.17-2.18,8.94l-3.64,14h-6.41Zm-3,16.25h13.34v4.87H378.81Z"/><path class="cls-2" d="M403.3,201.43h-7.62v-5.26H417.2v5.26h-7.63v22.46H403.3Z"/><path class="cls-2" d="M421.53,196.17h6.26v27.72h-6.26Z"/><path class="cls-2" d="M433,209.91c0-9.06,5.11-14.25,12.58-14.25s12.59,5.23,12.59,14.25-5.11,14.49-12.59,14.49S433,219,433,209.91Zm18.75,0c0-5.56-2.38-8.84-6.17-8.84s-6.16,3.28-6.16,8.84,2.38,9.08,6.16,9.08S451.77,215.47,451.77,209.91Z"/><path class="cls-2" d="M463.41,196.17h6.43L477.07,210l2.74,6.08H480c-.3-2.93-.8-6.81-.8-10.08v-9.79h6v27.72h-6.42l-7.23-13.82L468.75,204h-.17c.3,3.06.8,6.77.8,10v9.84h-6Z"/><path class="cls-2" d="M496.85,196.17h7.5l8.7,27.72h-6.63l-3.62-14c-.77-2.77-1.51-6-2.26-8.94h-.16c-.68,2.93-1.42,6.17-2.19,8.94l-3.64,14h-6.4Zm-3,16.25h13.33v4.87H493.89Z"/><path class="cls-2" d="M515.72,196.17H522v22.46h10.94v5.26H515.72Z"/><path class="cls-2" d="M544.46,220.39l3.6-4.3a11,11,0,0,0,6.81,2.9c2.62,0,3.9-1,3.9-2.68s-1.58-2.3-4-3.3l-3.6-1.53c-2.88-1.17-5.6-3.53-5.6-7.56,0-4.59,4.11-8.26,9.88-8.26a12.82,12.82,0,0,1,8.91,3.63l-3.16,4a9,9,0,0,0-5.75-2.17c-2.16,0-3.54.9-3.54,2.49s1.81,2.31,4.23,3.28l3.53,1.43c3.39,1.37,5.5,3.62,5.5,7.54,0,4.6-3.84,8.59-10.44,8.59A15.28,15.28,0,0,1,544.46,220.39Z"/><path class="cls-2" d="M569.9,196.17h17.37v5.26h-11.1V207h9.44v5.26h-9.44v6.38h11.52v5.26H569.9Z"/><path class="cls-2" d="M593.2,196.17h10c5.88,0,10.7,2,10.7,8.63,0,6.37-4.82,9.11-10.7,9.11h-3.71v10H593.2Zm9.47,12.77c3.3,0,5.07-1.41,5.07-4.14s-1.77-3.65-5.07-3.65h-3.2v7.79Zm-.63,3.32,4.33-4,8.85,15.64h-7Z"/><path class="cls-2" d="M615.14,196.17h6.63l3.34,12.92c.83,3,1.39,5.83,2.23,8.88h.17c.84-3.05,1.43-5.85,2.22-8.88L633,196.17h6.4L631,223.89h-7.52Z"/><path class="cls-2" d="M642,196.17h6.27v27.72H642Z"/><path class="cls-2" d="M654.82,196.17h17.37v5.26h-11.1V207h9.45v5.26h-9.45v6.38h11.53v5.26h-17.8Z"/><path class="cls-2" d="M676.34,220.39l3.59-4.3a11,11,0,0,0,6.81,2.9c2.62,0,3.9-1,3.9-2.68s-1.58-2.3-4-3.3l-3.6-1.53c-2.87-1.17-5.59-3.53-5.59-7.56,0-4.59,4.1-8.26,9.87-8.26a12.81,12.81,0,0,1,8.91,3.63l-3.16,4a9,9,0,0,0-5.75-2.17c-2.16,0-3.54.9-3.54,2.49s1.82,2.31,4.24,3.28l3.53,1.43c3.38,1.37,5.49,3.62,5.49,7.54,0,4.6-3.83,8.59-10.44,8.59A15.26,15.26,0,0,1,676.34,220.39Z"/><line class="cls-3" x1="273.5" y1="183.5" x2="698.5" y2="183.5"/><line class="cls-3" x1="273.5" y1="235.5" x2="698.5" y2="235.5"/></g></g></svg>