<svg id="servicesImage1" xmlns="http://www.w3.org/2000/svg" xmlns:xlink="http://www.w3.org/1999/xlink" width="275" height="206.793" viewBox="0 0 275 206.793">
  <defs>
    <clipPath id="clip-path">
      <rect id="Rectangle_565" data-name="Rectangle 565" width="275" height="206.793" fill="none"/>
    </clipPath>
    <clipPath id="clip-path-3">
      <rect id="Rectangle_548" data-name="Rectangle 548" width="18.827" height="22.659" fill="none"/>
    </clipPath>
    <clipPath id="clip-path-4">
      <rect id="Rectangle_549" data-name="Rectangle 549" width="17.882" height="23.976" fill="none"/>
    </clipPath>
    <clipPath id="clip-path-5">
      <rect id="Rectangle_550" data-name="Rectangle 550" width="13.152" height="18.686" fill="none"/>
    </clipPath>
    <clipPath id="clip-path-6">
      <rect id="Rectangle_551" data-name="Rectangle 551" width="7.19" height="11.542" fill="none"/>
    </clipPath>
    <clipPath id="clip-path-7">
      <rect id="Rectangle_552" data-name="Rectangle 552" width="6.213" height="22.394" fill="none"/>
    </clipPath>
    <clipPath id="clip-path-8">
      <rect id="Rectangle_553" data-name="Rectangle 553" width="3.983" height="2.746" fill="none"/>
    </clipPath>
    <clipPath id="clip-path-9">
      <rect id="Rectangle_554" data-name="Rectangle 554" width="12.794" height="18.133" fill="none"/>
    </clipPath>
    <clipPath id="clip-path-10">
      <rect id="Rectangle_557" data-name="Rectangle 557" width="21.695" height="8.534" fill="none"/>
    </clipPath>
    <clipPath id="clip-path-11">
      <rect id="Rectangle_560" data-name="Rectangle 560" width="21.696" height="8.534" fill="none"/>
    </clipPath>
  </defs>
  <g id="Group_1287" data-name="Group 1287" clip-path="url(#clip-path)">
    <g id="Group_1286" data-name="Group 1286">
      <g id="Group_1285" data-name="Group 1285" clip-path="url(#clip-path)">
        <path id="Path_3402" data-name="Path 3402" d="M56.3,85.11s-2-1.642-5.146,3.233a67.243,67.243,0,0,0-4.439,7.738s-.8,1.006-1.469.226-1.475-2.881-2.769-2.651c-1.342.24-1.92,1.652-1.89,3.817s-.079,6.912-.091,7.341-.314,1.012-.853.554-3.5-4.524-5.339-3-.77,7.539-.666,8.2-.05.922-.371,1.05-1.187-1.333-2.075-2.454-2.116-2.266-3.107-1.3-1.72,5.325,1.721,12.878l1.824,3.4,3.864.18c8.292-.118,11.914-2.644,12.364-3.954s-1.11-1.929-2.5-2.253-3.082-.483-3.1-.828.148-.6.789-.784,6.533-1.793,7.117-4.111-4.351-3.255-5-3.547-.24-.819.135-1.009,4.621-2.324,6.589-3.224,2.995-2.027,2.637-3.343c-.346-1.269-2.589-1.1-3.578-1.371s-.425-1.426-.425-1.426A67.294,67.294,0,0,0,55.6,91.135c3.055-4.93.651-6.055.651-6.055" transform="translate(-0.029)" fill="#ebebeb"/>
        <path id="Path_3403" data-name="Path 3403" d="M30.947,124.761c2.257-3.612,6.379-9.965,9.888-15.438S47.515,98.9,49.792,95.3c1.133-1.8,2.053-3.255,2.691-4.266.315-.5.562-.891.731-1.16l.193-.3c.046-.067.07-.1.07-.1s-.017.037-.058.106-.1.175-.184.307c-.166.272-.406.666-.714,1.171-.619,1.017-1.528,2.482-2.658,4.288-2.258,3.612-5.419,8.575-8.927,14.046s-7.642,11.818-9.917,15.418" transform="translate(-0.033)" fill="#e0e0e0"/>
        <path id="Path_3404" data-name="Path 3404" d="M43.5,96.642a1.249,1.249,0,0,1,.07.27c.038.175.086.43.142.745.111.631.242,1.507.369,2.475s.232,1.82.316,2.481c.04.3.074.548.1.75a1.222,1.222,0,0,1,.026.278,1.285,1.285,0,0,1-.072-.27c-.038-.175-.085-.43-.138-.746-.1-.632-.225-1.509-.352-2.477s-.244-1.817-.334-2.477c-.041-.3-.076-.549-.1-.751a1.28,1.28,0,0,1-.024-.278" transform="translate(-0.047)" fill="#e0e0e0"/>
        <path id="Path_3405" data-name="Path 3405" d="M44.871,103.745c-.006-.033,1.785-.382,4-.781s4.015-.695,4.021-.662-1.785.382-4,.78-4.015.7-4.021.663" transform="translate(-0.048)" fill="#e0e0e0"/>
        <path id="Path_3406" data-name="Path 3406" d="M39.1,111.9a1.317,1.317,0,0,1,.284.016l.769.081c.648.068,1.545.158,2.537.221s1.894.093,2.546.108l.772.018a1.313,1.313,0,0,1,.284.02,1.2,1.2,0,0,1-.283.027c-.183.008-.448.017-.774.019-.653.007-1.556-.007-2.552-.072s-1.894-.167-2.541-.256c-.323-.047-.584-.087-.764-.12a1.307,1.307,0,0,1-.278-.062" transform="translate(-0.042)" fill="#e0e0e0"/>
        <path id="Path_3407" data-name="Path 3407" d="M36.445,105.752a1.1,1.1,0,0,1,.128.23l.309.645c.256.547.6,1.306.977,2.147s.709,1.606.945,2.162l.274.661a1.177,1.177,0,0,1,.086.249,1.123,1.123,0,0,1-.129-.23l-.308-.645c-.257-.547-.6-1.306-.977-2.148s-.709-1.6-.945-2.161c-.108-.261-.2-.481-.274-.661a1.063,1.063,0,0,1-.086-.249" transform="translate(-0.039)" fill="#e0e0e0"/>
        <path id="Path_3408" data-name="Path 3408" d="M30.433,112.308a1.74,1.74,0,0,1,.161.3l.4.825c.332.7.782,1.669,1.274,2.742s.93,2.049,1.242,2.757l.365.842a1.736,1.736,0,0,1,.118.315,1.936,1.936,0,0,1-.161-.3l-.4-.825c-.332-.7-.782-1.669-1.274-2.743s-.93-2.048-1.242-2.757l-.364-.841a1.736,1.736,0,0,1-.119-.315" transform="translate(-0.033)" fill="#e0e0e0"/>
        <path id="Path_3409" data-name="Path 3409" d="M33.962,119.875a2.1,2.1,0,0,1,.361.011l.978.068c.826.057,1.967.131,3.229.176s2.405.061,3.233.065l.981,0a1.923,1.923,0,0,1,.36.016,2.082,2.082,0,0,1-.359.031c-.232.012-.566.024-.981.033-.828.018-1.974.018-3.239-.03s-2.405-.133-3.231-.211c-.413-.041-.746-.076-.976-.106a2.159,2.159,0,0,1-.356-.058" transform="translate(-0.036)" fill="#e0e0e0"/>
        <path id="Path_3410" data-name="Path 3410" d="M24.736,98.772a10.356,10.356,0,0,1-.1,1.766,12.853,12.853,0,0,1-1.608,4.74l-.038-.065h.078l-.036.065c-2.333,4.141-5.834,10.356-10.023,17.794l-.063.112-.068-.109L2.284,106.155l-.521-.833-.081-.129h.153l-.073.126a13.012,13.012,0,0,1-1.6-4.469,12.328,12.328,0,0,1-.159-2.326q.031-.578.063-1.151.085-.567.171-1.13a13.052,13.052,0,0,1,4.324-7.4A12.549,12.549,0,0,1,8.05,86.79l.461-.172.23-.086.235-.062.934-.244A13.116,13.116,0,0,1,11.776,86a12.612,12.612,0,0,1,1.817.033c.3.024.585.087.874.129l.431.069c.142.03.279.073.418.108l.82.223.778.3c.127.05.257.094.381.149l.362.182.709.359a12.842,12.842,0,0,1,4.116,3.8,13.059,13.059,0,0,1,1.793,3.841,11.422,11.422,0,0,1,.316,1.517,8.172,8.172,0,0,1,.12,1.128c.011.3.019.535.024.7s0,.237,0,.237-.009-.08-.02-.237-.022-.393-.04-.7a8.6,8.6,0,0,0-.136-1.123,11.843,11.843,0,0,0-.329-1.508A13.127,13.127,0,0,0,22.4,91.4a12.78,12.78,0,0,0-4.1-3.754l-.7-.353-.359-.178c-.122-.055-.251-.1-.378-.147l-.77-.291-.812-.218c-.137-.034-.274-.077-.414-.106l-.426-.067c-.286-.04-.572-.1-.865-.125a12.335,12.335,0,0,0-1.8-.027,12.836,12.836,0,0,0-1.846.228l-.922.243-.232.062-.227.085-.455.171a12.4,12.4,0,0,0-3.44,2.031A12.9,12.9,0,0,0,.4,96.275q-.084.555-.168,1.116c-.02.377-.041.756-.061,1.137a12.262,12.262,0,0,0,.158,2.3,12.861,12.861,0,0,0,1.577,4.411l.074.127H1.833l.072-.129c.164.263.343.547.52.833l10.582,16.927-.131,0,10.08-17.761.038.064h-.079l.038-.065a12.96,12.96,0,0,0,1.637-4.7c.083-.571.106-1.013.125-1.31.006-.145.01-.256.013-.336s.008-.114.008-.114" transform="translate(0)" fill="#e0e0e0"/>
        <path id="Path_3411" data-name="Path 3411" d="M20.245,98.63a.705.705,0,0,1-.015-.127c-.006-.092-.015-.215-.026-.372,0-.082-.011-.173-.017-.273s-.033-.209-.05-.327a5.825,5.825,0,0,0-.164-.808,7.481,7.481,0,0,0-.866-2.076A7.758,7.758,0,0,0,9.79,91.313a8.11,8.11,0,0,0-1.012.443,8.153,8.153,0,0,0-.952.609,8.831,8.831,0,0,0-.881.746,9.024,9.024,0,0,0-.761.9,7.522,7.522,0,0,0-1.113,2.134,7.7,7.7,0,0,0-.013,4.9,7.521,7.521,0,0,0,1.1,2.141,8.925,8.925,0,0,0,.757.9,8.861,8.861,0,0,0,.877.751,8.162,8.162,0,0,0,.949.614,8.055,8.055,0,0,0,1.01.448,7.783,7.783,0,0,0,4.074.352,7.817,7.817,0,0,0,5.261-3.64,7.475,7.475,0,0,0,.875-2.071,5.719,5.719,0,0,0,.168-.806c.018-.118.041-.227.052-.327s.013-.191.019-.274c.011-.156.021-.279.028-.371a.705.705,0,0,1,.015-.127.765.765,0,0,1,0,.127c0,.092-.007.216-.012.374,0,.083-.006.175-.01.275s-.029.211-.044.33a5.668,5.668,0,0,1-.154.815,7.439,7.439,0,0,1-.859,2.1,7.888,7.888,0,0,1-5.316,3.729A7.907,7.907,0,0,1,9.7,106.04a7.3,7.3,0,0,1-2-1.079,8.953,8.953,0,0,1-.9-.765,8.937,8.937,0,0,1-.775-.92A7.682,7.682,0,0,1,4.9,101.091a7.865,7.865,0,0,1,.013-5,7.641,7.641,0,0,1,1.14-2.179A8.923,8.923,0,0,1,6.83,93a8.823,8.823,0,0,1,.9-.76,7.242,7.242,0,0,1,2.007-1.069,7.9,7.9,0,0,1,4.153-.323,7.883,7.883,0,0,1,5.3,3.756,7.4,7.4,0,0,1,.848,2.107,5.5,5.5,0,0,1,.15.817c.015.119.035.229.043.33s.006.192.009.275c0,.158.007.282.01.374a.681.681,0,0,1,0,.127" transform="translate(-0.005)" fill="#e0e0e0"/>
        <path id="Path_3412" data-name="Path 3412" d="M12.261,102.28,7.709,99.1l1.108-1.59,3.053,2.132,3.95-5.023,1.521,1.2Z" transform="translate(-0.008)" fill="#e0e0e0"/>
        <path id="Path_3413" data-name="Path 3413" d="M139.788,43.4a15.107,15.107,0,0,1,3.872,1.024l2.847-2.388,4.889,3.726-1.54,3.382a15.1,15.1,0,0,1,2.018,3.464l3.7.326.825,6.095-3.477,1.3a15.024,15.024,0,0,1-1.023,3.877l2.385,2.849-3.72,4.894-3.379-1.542a15.048,15.048,0,0,1-3.461,2.019l-.325,3.7-6.088.827-1.3-3.481a14.982,14.982,0,0,1-3.873-1.024l-2.847,2.388L124.4,71.116l1.541-3.382a15.125,15.125,0,0,1-2.018-3.464l-3.7-.327-.826-6.094,3.476-1.3a15.066,15.066,0,0,1,1.024-3.877l-2.385-2.849,3.72-4.894,3.379,1.542a15.044,15.044,0,0,1,3.46-2.02l.326-3.7,6.087-.827Zm-1.826,8.4a6.6,6.6,0,1,0,6.62,5.047,6.6,6.6,0,0,0-6.62-5.047" transform="translate(-0.128)" fill="#f5f5f5" fill-rule="evenodd"/>
        <path id="Path_3414" data-name="Path 3414" d="M84.3,62.888a9.78,9.78,0,0,1,2.513.665L88.656,62l3.174,2.418-1,2.2a9.8,9.8,0,0,1,1.311,2.248l2.4.212.535,3.956-2.257.845a9.786,9.786,0,0,1-.664,2.516l1.548,1.85-2.415,3.177-2.194-1a9.762,9.762,0,0,1-2.247,1.311l-.211,2.4-3.952.537-.844-2.26a9.719,9.719,0,0,1-2.513-.665L77.48,83.3l-3.174-2.418,1-2.2A9.791,9.791,0,0,1,74,76.434l-2.4-.212-.536-3.956,2.257-.844a9.753,9.753,0,0,1,.664-2.517l-1.548-1.85,2.414-3.177,2.194,1a9.786,9.786,0,0,1,2.247-1.312l.212-2.4,3.952-.537ZM83.11,68.344a4.284,4.284,0,1,0,4.3,3.276,4.283,4.283,0,0,0-4.3-3.276" transform="translate(-0.076)" fill="#ebebeb" fill-rule="evenodd"/>
        <path id="Path_3415" data-name="Path 3415" d="M117.495,91.805a5.217,5.217,0,0,1,1.427.946,6.892,6.892,0,0,1,2.216,4.076,7.007,7.007,0,0,1-.244,3.247,7.088,7.088,0,0,1-2.044,3.13,7.07,7.07,0,0,1-3.751,1.716,7.051,7.051,0,0,1-7.367-4.045,7.094,7.094,0,0,1-.57-4.089,7.093,7.093,0,0,1,1.539-3.407,6.968,6.968,0,0,1,2.6-1.952,6.877,6.877,0,0,1,4.624-.32,5.237,5.237,0,0,1,1.565.7c-.022.045-.548-.283-1.6-.548a6.885,6.885,0,0,0-4.471.427,6.759,6.759,0,0,0-3.9,5.158,6.759,6.759,0,0,0,.561,3.869,6.7,6.7,0,0,0,6.964,3.824,6.755,6.755,0,0,0,3.56-1.606,6.764,6.764,0,0,0,2.252-6.06,6.9,6.9,0,0,0-2.043-4.005c-.79-.749-1.35-1.018-1.323-1.059" transform="translate(-0.115)" fill="#ebebeb"/>
        <path id="Path_3416" data-name="Path 3416" d="M124.86,86.228a1.617,1.617,0,0,1,.053-.237l.188-.714c.179-.653.436-1.593.77-2.814l.03.073-5.668-3.07.123-.022-2.568,2.93-.046.052-.069-.016a15.745,15.745,0,0,0-4.146-.44l-.079,0-.039-.07c-.592-1.061-1.233-2.21-1.9-3.4l.163.067-6.182,1.82.112-.159c.076,1.205.159,2.532.245,3.892l.006.1-.085.051a15.677,15.677,0,0,0-3.239,2.61l-.071.075-.1-.029-3.744-1.067.2-.086-3.093,5.661-.04-.227,2.918,2.58.086.076-.028.111a15.76,15.76,0,0,0-.447,4.131l0,.116-.1.057-3.405,1.894.092-.225c.572,1.961,1.185,4.063,1.806,6.193l-.2-.141,3.889-.239.12-.007.062.1a15.63,15.63,0,0,0,2.593,3.237h0c.024.089-.053-.2.054.2v0l0,.008,0,.014-.008.03-.017.059-.034.118-.068.236-.135.471-.269.94q-.268.938-.534,1.868l-.1-.229,5.651,3.105-.242.042,2.581-2.918.079-.089.114.029a15.606,15.606,0,0,0,4.126.453l.117,0,.056.1,1.888,3.412-.219-.09,6.188-1.8-.131.186q-.118-1.981-.233-3.893l-.006-.108.092-.055a15.6,15.6,0,0,0,3.246-2.6l.072-.075.1.029,3.741,1.079-.19.079,3.112-5.65.033.187-2.91-2.59-.065-.058.021-.083a15.739,15.739,0,0,0,.464-4.144l0-.08.069-.038,3.412-1.88-.055.135-1.777-6.2.091.064-3.89.213-.039,0-.019-.033a16.4,16.4,0,0,0-1.869-2.548c-.228-.247-.4-.435-.531-.574a1.686,1.686,0,0,1-.174-.192,1.983,1.983,0,0,1,.2.169c.126.118.316.3.556.553a15.276,15.276,0,0,1,1.929,2.526l-.058-.031,3.886-.263.071,0,.02.069c.517,1.747,1.122,3.789,1.831,6.186l.027.089-.083.046-3.4,1.9.067-.117a15.977,15.977,0,0,1-.448,4.219l-.044-.141,2.922,2.577.091.08-.058.107-3.089,5.662-.063.116-.128-.036-3.745-1.067.172-.047a15.918,15.918,0,0,1-3.31,2.666l.086-.163q.118,1.911.242,3.892l.009.146-.141.041-6.184,1.811-.145.043-.073-.133-1.893-3.408.173.1a15.96,15.96,0,0,1-4.228-.46l.192-.06-2.578,2.92-.1.118-.138-.075-5.652-3.1-.139-.076.043-.152.534-1.869.269-.94.135-.471.068-.236.034-.118.017-.059.008-.029,0-.015,0-.007,0,0c.107.4.029.11.053.2h0a16.019,16.019,0,0,1-2.659-3.32l.182.1-3.889.237-.158.009-.044-.151-1.8-6.195-.043-.149.136-.076L97.93,97.94l-.1.173a16.1,16.1,0,0,1,.465-4.231l.058.186-2.913-2.586-.111-.1.072-.13L98.508,85.6l.069-.124.135.039,3.742,1.079-.171.047a15.966,15.966,0,0,1,3.317-2.655l-.079.151c-.081-1.361-.159-2.688-.23-3.893l-.008-.125.12-.035,6.191-1.791.109-.032.054.1c.66,1.2,1.295,2.351,1.88,3.416l-.117-.068a15.952,15.952,0,0,1,4.208.474l-.115.036,2.592-2.908.054-.061.07.039,5.632,3.136.045.025-.015.048c-.359,1.2-.634,2.128-.826,2.77l-.221.715a1.918,1.918,0,0,1-.085.245" transform="translate(-0.101)" fill="#ebebeb"/>
        <path id="Path_3417" data-name="Path 3417" d="M140.054,92.705l-5.615-22.354,22.846-.377Z" transform="translate(-0.144)" fill="#ebebeb"/>
        <path id="Path_3766" data-name="Path 3766" d="M0,0,12.991-.007l-.027,52.521-12.991.007Z" transform="translate(142.405 84.67) rotate(-52.808)" fill="#ebebeb"/>
        <path id="Path_3418" data-name="Path 3418" d="M178.053,150.747l4.208,9.553s-8.286,7.491-7.68,9.332l18.8-7.5-5.948-15.154Z" transform="translate(-0.187)" fill="#e8505b"/>
        <g id="Group_1257" data-name="Group 1257" transform="translate(174.364 146.974)" opacity="0.5">
          <g id="Group_1256" data-name="Group 1256">
            <g id="Group_1255" data-name="Group 1255" clip-path="url(#clip-path-3)">
              <path id="Path_3419" data-name="Path 3419" d="M178.053,150.747l4.208,9.553s-8.286,7.491-7.68,9.332l18.8-7.5-5.948-15.154Z" transform="translate(-174.551 -146.974)"/>
            </g>
          </g>
        </g>
        <path id="Path_3420" data-name="Path 3420" d="M193.378,162.128l-.659-1.5-17.775,7.757s-.691.7-.362,1.251Z" transform="translate(-0.187)" fill="#263238"/>
        <path id="Path_3421" data-name="Path 3421" d="M211.191,164.279l5.268,9.011s-7.379,8.387-6.568,10.147l17.82-9.6-7.634-14.377Z" transform="translate(-0.225)" fill="#e8505b"/>
        <g id="Group_1260" data-name="Group 1260" transform="translate(209.604 159.461)" opacity="0.5">
          <g id="Group_1259" data-name="Group 1259">
            <g id="Group_1258" data-name="Group 1258" clip-path="url(#clip-path-4)">
              <path id="Path_3422" data-name="Path 3422" d="M211.191,164.279l5.268,9.011s-7.379,8.387-6.568,10.147l17.82-9.6-7.634-14.377Z" transform="translate(-209.829 -159.461)"/>
            </g>
          </g>
        </g>
        <path id="Path_3423" data-name="Path 3423" d="M227.711,173.838l-.826-1.419-16.776,9.734s-.607.773-.218,1.284Z" transform="translate(-0.225)" fill="#263238"/>
        <path id="Path_3424" data-name="Path 3424" d="M188.154,37.883l-11.551.9-.384-6.474s-4.659-.068-5.356-4.623-1.379-15.146-1.379-15.146a15.985,15.985,0,0,1,16.2-.238l.749.426Z" transform="translate(-0.182)" fill="#ffbe9d"/>
        <path id="Path_3425" data-name="Path 3425" d="M176.211,32.246a10.7,10.7,0,0,0,5.706-2.527s-1.01,3.583-5.617,3.812Z" transform="translate(-0.189)" fill="#eb996e"/>
        <path id="Path_3426" data-name="Path 3426" d="M186.555,17.535c.073-.045,3-1.368,3.34,1.766s-2.874,2.827-2.889,2.738-.452-4.5-.452-4.5" transform="translate(-0.2)" fill="#ffbe9d"/>
        <path id="Path_3427" data-name="Path 3427" d="M187.836,20.749c.013-.012.059.032.156.065a.55.55,0,0,0,.409-.036,1.361,1.361,0,0,0,.493-1.28,1.809,1.809,0,0,0-.238-.765.634.634,0,0,0-.456-.375.28.28,0,0,0-.306.185c-.032.092-.006.152-.022.16s-.073-.046-.061-.178a.349.349,0,0,1,.1-.209.409.409,0,0,1,.293-.113.774.774,0,0,1,.622.424,1.875,1.875,0,0,1,.284.853,1.428,1.428,0,0,1-.649,1.44.588.588,0,0,1-.508-.029c-.1-.067-.129-.135-.119-.142" transform="translate(-0.201)" fill="#eb996e"/>
        <path id="Path_3428" data-name="Path 3428" d="M171.454,19.712a.657.657,0,0,0,.72.569.629.629,0,0,0,.588-.682.658.658,0,0,0-.719-.57.631.631,0,0,0-.589.683" transform="translate(-0.184)" fill="#263238"/>
        <path id="Path_3429" data-name="Path 3429" d="M171.251,18.839c.093.074.534-.36,1.236-.457s1.263.182,1.327.085c.032-.043-.071-.186-.318-.317a1.794,1.794,0,0,0-1.078-.173,1.728,1.728,0,0,0-.968.47c-.193.2-.244.36-.2.392" transform="translate(-0.184)" fill="#263238"/>
        <path id="Path_3430" data-name="Path 3430" d="M178.275,18.923a.657.657,0,0,0,.72.569.629.629,0,0,0,.588-.682.658.658,0,0,0-.719-.57.631.631,0,0,0-.589.683" transform="translate(-0.191)" fill="#263238"/>
        <path id="Path_3431" data-name="Path 3431" d="M178.163,18c.093.074.535-.361,1.236-.458s1.264.182,1.328.085c.032-.043-.071-.185-.319-.316a1.8,1.8,0,0,0-1.078-.174,1.728,1.728,0,0,0-.968.471c-.192.2-.244.36-.2.392" transform="translate(-0.191)" fill="#263238"/>
        <path id="Path_3432" data-name="Path 3432" d="M176.347,23.56a4.71,4.71,0,0,0-1.167-.045c-.182.006-.356,0-.4-.123a.92.92,0,0,1,.044-.548q.162-.686.338-1.438a23.554,23.554,0,0,0,.687-3.734,23.863,23.863,0,0,0-.986,3.67c-.109.5-.214.984-.314,1.443a1.05,1.05,0,0,0,.006.716.45.45,0,0,0,.331.22,1.227,1.227,0,0,0,.31,0,4.614,4.614,0,0,0,1.154-.161" transform="translate(-0.187)" fill="#263238"/>
        <path id="Path_3433" data-name="Path 3433" d="M178.479,23.755c-.115.009-.009.771-.584,1.4s-1.4.662-1.387.769c0,.049.2.123.545.084a1.913,1.913,0,0,0,1.164-.6,1.667,1.667,0,0,0,.442-1.169c-.016-.322-.127-.5-.179-.487" transform="translate(-0.189)" fill="#263238"/>
        <path id="Path_3434" data-name="Path 3434" d="M177.6,15.278c.1.181.783-.008,1.618-.024.836-.034,1.532.114,1.617-.073.037-.088-.1-.251-.4-.4a2.812,2.812,0,0,0-2.464.073c-.285.164-.416.336-.374.422" transform="translate(-0.19)" fill="#263238"/>
        <path id="Path_3435" data-name="Path 3435" d="M171.224,16.774c.146.142.605-.091,1.184-.181.576-.11,1.087-.044,1.177-.226.038-.088-.061-.237-.3-.357a1.729,1.729,0,0,0-1.9.328c-.182.192-.226.366-.161.436" transform="translate(-0.183)" fill="#263238"/>
        <path id="Path_3436" data-name="Path 3436" d="M166.857,9.973a1.706,1.706,0,0,1,.41-1.593,1.2,1.2,0,0,1,1.563-.1,1.409,1.409,0,0,1,.96-1.86c.736-.152,1.449.321,2.2.417a3.419,3.419,0,0,0,2.094-.545c.636-.367,1.215-.832,1.863-1.177a5.883,5.883,0,0,1,7.936,2.377,2.612,2.612,0,0,1,2.891.654,4.3,4.3,0,0,1,1.071,2.9,9.618,9.618,0,0,1-.234,2.121c.008.059.022.116.029.175.306,2.516.437,5.5-.631,5.67-1.86.291-1.909-3.288-1.909-3.288-2.412-.562-2.042-4.113-2.687-4.553s-2.011-1.481-6.456,1.643a9.353,9.353,0,0,1-5.6,1.415c-.041,0-.082,0-.123-.007l-.028,0c-.016,0-.027-.008-.042-.01a4.347,4.347,0,0,1-1.3-.349,2.454,2.454,0,0,1-1.171-.984,1.342,1.342,0,0,1,.061-1.465,2.95,2.95,0,0,1-.9-1.44" transform="translate(-0.179)" fill="#263238"/>
        <path id="Path_3437" data-name="Path 3437" d="M176.211,36.277l.515,18.117,11.26-24.267-.282-2.246Z" transform="translate(-0.189)" fill="#ebebeb"/>
        <path id="Path_3438" data-name="Path 3438" d="M183.664,90.436c-.413.135-23.856,23.871-23.33,28.134s17.216,35.838,17.216,35.838l11.907-5.877-11.17-27.681.147-1.717,13.65-11.2-.729-18.008Z" transform="translate(-0.172)" fill="#263238"/>
        <path id="Path_3439" data-name="Path 3439" d="M188.75,95.114c.273.414,4.332,37.7,5.42,39.633s17.4,33.764,17.4,33.764l12.107-4.884L208.892,128.64l1.685-33.114-.912-9.351-18.279,3.752Z" transform="translate(-0.202)" fill="#263238"/>
        <path id="Path_3440" data-name="Path 3440" d="M193.957,134.09a2.065,2.065,0,0,1-.079-.373c-.045-.271-.1-.629-.177-1.077-.146-.964-.35-2.313-.6-3.967-.485-3.377-1.15-8-1.883-13.1-.7-5.109-1.342-9.733-1.807-13.113-.216-1.659-.393-3.011-.518-3.978-.053-.451-.095-.811-.128-1.084a2.119,2.119,0,0,1-.027-.38,2.066,2.066,0,0,1,.079.373c.045.271.1.629.177,1.077.146.964.35,2.312.6,3.966.485,3.377,1.15,8,1.883,13.1.7,5.108,1.342,9.731,1.807,13.111.217,1.659.393,3.011.518,3.978.053.451.1.811.128,1.084a2.119,2.119,0,0,1,.027.38" transform="translate(-0.202)" fill="#455a64"/>
        <path id="Path_3441" data-name="Path 3441" d="M208.6,127.569a17.817,17.817,0,0,1-.7,2.955,17.867,17.867,0,0,1-.955,2.884,17.765,17.765,0,0,1,.7-2.955,17.806,17.806,0,0,1,.954-2.884" transform="translate(-0.222)" fill="#455a64"/>
        <path id="Path_3442" data-name="Path 3442" d="M210.438,136.015a3.366,3.366,0,0,1-.661-.92,9.081,9.081,0,0,1-1.127-5.294,3.387,3.387,0,0,1,.229-1.11,11.827,11.827,0,0,0,1.559,7.324" transform="translate(-0.224)" fill="#455a64"/>
        <path id="Path_3443" data-name="Path 3443" d="M174.4,116.834a6.383,6.383,0,0,1,3.349,3.058c-.066.043-.643-.805-1.57-1.644s-1.816-1.345-1.779-1.414" transform="translate(-0.187)" fill="#455a64"/>
        <path id="Path_3444" data-name="Path 3444" d="M176.237,115.732a5.189,5.189,0,0,1,1.809,2.931,15.264,15.264,0,0,1-.876-1.483,15.671,15.671,0,0,1-.933-1.448" transform="translate(-0.189)" fill="#455a64"/>
        <path id="Path_3445" data-name="Path 3445" d="M177.857,61.334l3,14.885,2.439,20.771s10.055-1.406,14.341-2.764c4.971-1.575,15.786-2.916,15.786-2.916L211.6,93.116a12.88,12.88,0,0,0,6.333-4.782C211.26,82.142,205.571,69.4,205.571,69.4L200.5,44.194s-.77-3.556-1.235-5.137-8.166-6.682-9.233-7.327l-.671-.318-.213-2.02-.794-.475L180.019,36.5a9.048,9.048,0,0,0-2.9,5.665,65.555,65.555,0,0,0-.364,9.483c.1,2.953,1.1,9.69,1.1,9.69" transform="translate(-0.189)" fill="#04b5ff"/>
        <path id="Path_3446" data-name="Path 3446" d="M183.564,35.549s-4.4,2.363-5.166,4.369S179.9,63.911,179.9,63.911l-15.812.3-.049,9.432s25.115,1.986,26.092.627c1.322-1.838,2.857-19.019,2.857-19.019l.57-12.362s-1.455-9.427-10-7.337" transform="translate(-0.176)" fill="#04b5ff"/>
        <g id="Group_1263" data-name="Group 1263" transform="translate(180.368 58.218)" opacity="0.3">
          <g id="Group_1262" data-name="Group 1262">
            <g id="Group_1261" data-name="Group 1261" clip-path="url(#clip-path-5)">
              <path id="Path_3447" data-name="Path 3447" d="M180.858,76.218a15.114,15.114,0,0,0,6.329.592,6.281,6.281,0,0,0,5.334-3.5c.645-1.588.377-3.378.473-5.09.085-1.487.454-2.941.677-4.414s-.537-4.179-1.023-5.587c0,0-.564,10.207-2.159,14.492a3.517,3.517,0,0,1-.978,1.565,3.842,3.842,0,0,1-2.067.57,59.84,59.84,0,0,1-6.885-.139" transform="translate(-180.561 -58.218)"/>
            </g>
          </g>
        </g>
        <path id="Path_3448" data-name="Path 3448" d="M193.536,44.221a1.268,1.268,0,0,1,0,.224c-.006.16-.014.378-.025.657-.028.591-.069,1.439-.121,2.525-.058,1.1-.128,2.441-.21,4s-.146,3.333-.337,5.287c-.171,1.955-.375,4.1-.62,6.391s-.526,4.747-.962,7.311a15.8,15.8,0,0,1-.435,1.939,3.787,3.787,0,0,1-1.14,1.71,2.885,2.885,0,0,1-1.968.7c-.7.016-1.4,0-2.1-.011-2.822-.069-5.74-.214-8.727-.376-4.488-.249-8.814-.529-12.855-.813l-.117-.008v-.117c.02-3.35.039-6.506.057-9.416v-.109l.109,0,15.262-.329,4.269-.074,1.124-.011c.255,0,.386.008.386.008s-.131.015-.385.027l-1.124.044-4.267.136-15.26.422.109-.111c-.01,2.911-.02,6.067-.031,9.416l-.116-.124c4.042.276,8.366.552,12.852.8,2.986.162,5.9.309,8.719.382.7.009,1.4.028,2.09.014a2.637,2.637,0,0,0,1.816-.643,3.543,3.543,0,0,0,1.068-1.6,15.842,15.842,0,0,0,.429-1.9c.441-2.551.72-5,.984-7.292s.469-4.431.651-6.385c.2-1.951.267-3.726.376-5.281s.183-2.891.253-3.99.131-1.932.171-2.522q.031-.417.051-.655a1.386,1.386,0,0,1,.026-.223" transform="translate(-0.176)" fill="#263238"/>
        <path id="Path_3449" data-name="Path 3449" d="M167.15,73.5a40.108,40.108,0,0,1-.106-4.574,40.269,40.269,0,0,1,.154-4.573,40.133,40.133,0,0,1,.106,4.575,40.25,40.25,0,0,1-.154,4.572" transform="translate(-0.179)" fill="#263238"/>
        <path id="Path_3450" data-name="Path 3450" d="M165.472,65.787c-.03-.017.128-.193.428-.093a.484.484,0,0,1,.321.419.573.573,0,0,1-.321.564.587.587,0,0,1-.636-.117.53.53,0,0,1-.154-.5c.071-.3.279-.362.286-.332.025.029-.1.14-.1.355a.361.361,0,0,0,.131.3.371.371,0,0,0,.369.059.355.355,0,0,0,.19-.314.306.306,0,0,0-.159-.265c-.182-.109-.335-.04-.351-.074" transform="translate(-0.177)" fill="#263238"/>
        <path id="Path_3451" data-name="Path 3451" d="M200.594,46.354s8.226,10.767,9.228,13.7.228,7.147-1.447,9.161-3.026,1.2-3.026,1.2Z" transform="translate(-0.215)" fill="#04b5ff"/>
        <path id="Path_3452" data-name="Path 3452" d="M205.055,69.548a17.275,17.275,0,0,1-4.168.716,17.146,17.146,0,0,1,4.168-.716" transform="translate(-0.215)" fill="#263238"/>
        <path id="Path_3453" data-name="Path 3453" d="M206.642,77.487a2.8,2.8,0,0,1,.224.568c.124.371.314.9.557,1.56a46.192,46.192,0,0,0,2.21,4.99,52.882,52.882,0,0,0,2.763,4.709c.385.584.7,1.053.923,1.376a2.7,2.7,0,0,1,.321.519,2.757,2.757,0,0,1-.4-.459c-.247-.305-.587-.759-.993-1.333a40.459,40.459,0,0,1-2.843-4.692,36.868,36.868,0,0,1-2.152-5.048c-.223-.666-.386-1.211-.481-1.592a2.828,2.828,0,0,1-.126-.6" transform="translate(-0.221)" fill="#263238"/>
        <g id="Group_1266" data-name="Group 1266" transform="translate(206.98 78.763)" opacity="0.3">
          <g id="Group_1265" data-name="Group 1265">
            <g id="Group_1264" data-name="Group 1264" clip-path="url(#clip-path-6)">
              <path id="Path_3454" data-name="Path 3454" d="M207.2,78.763a24.314,24.314,0,0,0,4.63,6.475,11.947,11.947,0,0,1,2.02,1.959,2.467,2.467,0,0,1,.258,2.65.832.832,0,0,1-.82.444,1.05,1.05,0,0,1-.536-.436,32.1,32.1,0,0,1-5.462-10.736" transform="translate(-207.202 -78.763)"/>
            </g>
          </g>
        </g>
        <g id="Group_1269" data-name="Group 1269" transform="translate(201.07 47.978)" opacity="0.3">
          <g id="Group_1268" data-name="Group 1268">
            <g id="Group_1267" data-name="Group 1267" clip-path="url(#clip-path-7)">
              <path id="Path_3455" data-name="Path 3455" d="M206.11,70.372a3.984,3.984,0,0,0,1.354-3.729,13.788,13.788,0,0,0-1.367-3.916,64.484,64.484,0,0,1-4.006-11.763l-.8-2.987,4.069,21.31Z" transform="translate(-201.286 -47.978)"/>
            </g>
          </g>
        </g>
        <path id="Path_3456" data-name="Path 3456" d="M185.729,34.592a17.963,17.963,0,0,1,1.533-1.533,17.965,17.965,0,0,1,1.531-1.535,6.182,6.182,0,0,1-1.348,1.719,6.177,6.177,0,0,1-1.717,1.349" transform="translate(-0.199)" fill="#263238"/>
        <path id="Path_3457" data-name="Path 3457" d="M184.889,36.416c.013.044-.474.191-1.2.551a9.567,9.567,0,0,0-4.366,4.423c-.352.733-.492,1.223-.536,1.211a.988.988,0,0,1,.057-.356,5.867,5.867,0,0,1,.312-.93,8.59,8.59,0,0,1,4.456-4.515,5.886,5.886,0,0,1,.926-.323.969.969,0,0,1,.355-.061" transform="translate(-0.192)" fill="#263238"/>
        <path id="Path_3458" data-name="Path 3458" d="M207.006,72.514a.864.864,0,0,1-.129-.207c-.089-.166-.2-.369-.33-.618-.295-.576-.693-1.357-1.184-2.318l-.005-.009,0-.012c-.513-2.36-1.242-5.8-2.033-9.629-.73-3.607-1.392-6.871-1.879-9.279-.223-1.162-.406-2.116-.54-2.818-.054-.31-.1-.564-.134-.769a1.105,1.105,0,0,1-.029-.272,1.137,1.137,0,0,1,.081.261c.048.2.108.453.182.759.155.7.365,1.646.621,2.8l1.953,9.263c.791,3.828,1.487,7.276,1.951,9.646l-.007-.021,1.112,2.354.288.638a.908.908,0,0,1,.085.229" transform="translate(-0.215)" fill="#263238"/>
        <path id="Path_3459" data-name="Path 3459" d="M179.646,63.9a4.566,4.566,0,0,1-.121-.78c-.059-.551-.138-1.27-.232-2.137-.184-1.805-.422-4.3-.667-7.058s-.454-5.257-.591-7.067c-.06-.869-.111-1.591-.149-2.143a4.553,4.553,0,0,1-.02-.789,4.616,4.616,0,0,1,.121.781c.06.551.138,1.27.232,2.137.185,1.805.422,4.3.667,7.058s.454,5.255.591,7.064c.061.87.111,1.592.149,2.144a4.562,4.562,0,0,1,.02.79" transform="translate(-0.191)" fill="#263238"/>
        <path id="Path_3460" data-name="Path 3460" d="M164.278,65.311s-3.41-2.59-4.242-2.746c-.636-.119-4.442-.056-6.193-.02a1.254,1.254,0,0,0-1.256,1.217.607.607,0,0,0,.012.124,1.142,1.142,0,0,0,.832.866,1.328,1.328,0,0,0-.922,1.25c-.015.989,1.182,1.2,1.182,1.2a1.677,1.677,0,0,0-.171.152,1.181,1.181,0,0,0,.578,1.981l.539.123a1.169,1.169,0,0,0-.719.983c.02,1.3,2.945,1.551,2.945,1.551s7.23,1.146,7.386,1.094.029-7.772.029-7.772" transform="translate(-0.163)" fill="#ffbe9d"/>
        <path id="Path_3461" data-name="Path 3461" d="M154.518,61.005a2.115,2.115,0,0,0,.862,1.757l4.029-.158s-3-1.037-3.427-1.549a3.419,3.419,0,0,0-.574-.563.569.569,0,0,0-.889.513" transform="translate(-0.166)" fill="#ffbe9d"/>
        <path id="Path_3462" data-name="Path 3462" d="M157.512,62.564a5.909,5.909,0,0,1-1.84.13,7.409,7.409,0,0,1-1.835-.13,5.9,5.9,0,0,1,1.839-.13,7.421,7.421,0,0,1,1.836.13" transform="translate(-0.165)" fill="#eb996e"/>
        <path id="Path_3463" data-name="Path 3463" d="M156.607,64.816a5.828,5.828,0,0,1-3.161-.113,30.141,30.141,0,0,1,3.161.113" transform="translate(-0.164)" fill="#eb996e"/>
        <path id="Path_3464" data-name="Path 3464" d="M158.661,64.529c.06.037-.017.257-.245.4s-.46.128-.469.058.15-.16.327-.277.326-.226.387-.185" transform="translate(-0.169)" fill="#eb996e"/>
        <path id="Path_3465" data-name="Path 3465" d="M157.05,67.371a11.6,11.6,0,0,1-3.463-.114,11.6,11.6,0,0,1,3.463.114" transform="translate(-0.165)" fill="#eb996e"/>
        <path id="Path_3466" data-name="Path 3466" d="M159.358,66.293c.032-.009.095.072.114.231a.83.83,0,0,1-.7.9c-.159.018-.253-.023-.251-.057,0-.071.347-.116.576-.412s.2-.644.265-.659" transform="translate(-0.17)" fill="#eb996e"/>
        <path id="Path_3467" data-name="Path 3467" d="M157.66,69.873a4.832,4.832,0,0,1-1.566-.062,4.766,4.766,0,0,1-1.534-.322,9.452,9.452,0,0,1,3.1.384" transform="translate(-0.166)" fill="#eb996e"/>
        <path id="Path_3468" data-name="Path 3468" d="M159.913,68.6c.034,0,.083.084.079.24a.983.983,0,0,1-.216.548c-.3.357-.626.487-.663.438s.214-.3.457-.6.277-.616.344-.628" transform="translate(-0.17)" fill="#eb996e"/>
        <path id="Path_3469" data-name="Path 3469" d="M210.264,93.333a4.6,4.6,0,0,0,3.493-2.2c.083-.14.154-.33.046-.451a.4.4,0,0,0-.3-.091,9.439,9.439,0,0,0-3.31.568.449.449,0,0,0-.3.222.465.465,0,0,0,.014.273q.213.819.425,1.639" transform="translate(-0.225)" fill="#e8505b"/>
        <g id="Group_1272" data-name="Group 1272" transform="translate(209.65 90.587)" opacity="0.4">
          <g id="Group_1271" data-name="Group 1271">
            <g id="Group_1270" data-name="Group 1270" clip-path="url(#clip-path-8)">
              <path id="Path_3470" data-name="Path 3470" d="M210.264,93.333a4.6,4.6,0,0,0,3.493-2.2c.083-.14.154-.33.046-.451a.4.4,0,0,0-.3-.091,9.439,9.439,0,0,0-3.31.568.449.449,0,0,0-.3.222.465.465,0,0,0,.014.273q.213.819.425,1.639" transform="translate(-209.875 -90.587)"/>
            </g>
          </g>
        </g>
        <path id="Path_3471" data-name="Path 3471" d="M176.21,36.277s-1.658,5.574-1.2,5.257,1.448-1.2,1.448-1.2Z" transform="translate(-0.187)" fill="#ebebeb"/>
        <path id="Path_3472" data-name="Path 3472" d="M176.306,38.847l-.907,2.17a2.968,2.968,0,0,0-.176.7c-.075.608-.162,1.722.2,1.8a1.217,1.217,0,0,0,.97-.4Z" transform="translate(-0.188)" fill="#263238"/>
        <path id="Path_3473" data-name="Path 3473" d="M204.432,39.189s-8.872-3.465-13.785-.4-5.807,7.942-8.733,7.942c-5.706,0-5.523-4.029-5.523-4.029l-1.213.367c-.023.825-1.323,6.745,4.69,7.479s8.54-7.471,13.949-7.479a17.942,17.942,0,0,1,9.515,2.928l3.886-2.46Z" transform="translate(-0.188)" fill="#263238"/>
        <path id="Path_3474" data-name="Path 3474" d="M181.674,50.446a8.338,8.338,0,0,0,3.422-3.931c1.379-3.183,4.337-6.818,6.808-7.731s8.186-1.55,12.135,1.025l2.528,3.42-3.282,2.131a30.466,30.466,0,0,0-5.785-2.318c-4.081-1.141-6.56.147-8.932,2.4-.148.14-.283.278-.4.412a27,27,0,0,1-3.756,3.328,5.911,5.911,0,0,1-2.737,1.269" transform="translate(-0.195)" fill="#455a64"/>
        <path id="Path_3475" data-name="Path 3475" d="M77.02,25.11c-5.262.812-9.12-3.613-10.35-7.553-1.136-3.636-1.676-7.42-3.271-10.879C61.169,1.843,55.263-.391,49.963.056S39.321,3.162,34.631,5.675l1.294,29.1S46.137,23.89,51.044,23.691c8.187-.33,7.742,13.142,15.692,15.132,0,0,11.146,3.025,18.682-6.719a27.436,27.436,0,0,0,5.206-13.7s-3.663,5.17-13.605,6.7" transform="translate(-0.037)" fill="#04b5ff"/>
        <path id="Path_3476" data-name="Path 3476" d="M34.416.846c.072,0,1.5,30.9,3.2,69.015s3.01,69.029,2.938,69.032-1.5-30.893-3.2-69.021S34.344.849,34.416.846" transform="translate(-0.037)" fill="#263238"/>
        <g id="Group_1275" data-name="Group 1275" transform="translate(62.486 15.544)" opacity="0.2">
          <g id="Group_1274" data-name="Group 1274">
            <g id="Group_1273" data-name="Group 1273" clip-path="url(#clip-path-9)">
              <path id="Path_3477" data-name="Path 3477" d="M62.553,15.544a35.455,35.455,0,0,0,3.87,8.735,10.735,10.735,0,0,0,6.571,4.951,6.383,6.383,0,0,1,1.475.384,1.426,1.426,0,0,1,.878,1.157c.021.763-.766,1.261-1.449,1.6a11.923,11.923,0,0,1-3.025,1.164c-1.065.2-1.9.31-2.631-.49a15.285,15.285,0,0,1-1.9-2.283c-2.4-4.1-3.59-9.958-3.786-14.595" transform="translate(-62.553 -15.544)"/>
            </g>
          </g>
        </g>
        <path id="Path_3478" data-name="Path 3478" d="M69.669,34.231a1.1,1.1,0,0,1-.237-.135c-.15-.1-.364-.25-.628-.462a10.856,10.856,0,0,1-1.941-2.111,16.222,16.222,0,0,1-1.943-3.784,41.743,41.743,0,0,1-1.439-5,55.836,55.836,0,0,1-1.341-9.345c-.067-1.207-.078-2.185-.078-2.861.007-.313.013-.57.018-.777a1.068,1.068,0,0,1,.024-.271,1.092,1.092,0,0,1,.028.27c.009.207.019.464.032.777.03.674.069,1.648.16,2.85a62.449,62.449,0,0,0,1.41,9.3,44.374,44.374,0,0,0,1.41,4.976,16.7,16.7,0,0,0,1.869,3.761,11.812,11.812,0,0,0,1.856,2.14c.5.444.812.655.8.674" transform="translate(-0.067)" fill="#263238"/>
        <path id="Path_3479" data-name="Path 3479" d="M2.651,145.038l69.525,11.394V145.038Z" transform="translate(-0.003)" fill="#e0e0e0"/>
        <path id="Path_3480" data-name="Path 3480" d="M83.741,170.777l69.525,11.394V170.777Z" transform="translate(-0.09)" fill="#e0e0e0"/>
        <path id="Path_3481" data-name="Path 3481" d="M164.271,195.4,233.8,206.793V195.4Z" transform="translate(-0.176)" fill="#e0e0e0"/>
        <rect id="Rectangle_555" data-name="Rectangle 555" width="69.525" height="8.534" transform="translate(2.648 136.504)" fill="#04b5ff"/>
        <g id="Group_1278" data-name="Group 1278" transform="translate(50.479 136.504)" opacity="0.3">
          <g id="Group_1277" data-name="Group 1277">
            <g id="Group_1276" data-name="Group 1276" clip-path="url(#clip-path-10)">
              <rect id="Rectangle_556" data-name="Rectangle 556" width="21.696" height="8.534" transform="translate(-0.001 0)"/>
            </g>
          </g>
        </g>
        <rect id="Rectangle_558" data-name="Rectangle 558" width="69.525" height="8.534" transform="translate(83.651 162.243)" fill="#04b5ff"/>
        <g id="Group_1281" data-name="Group 1281" transform="translate(131.481 162.243)" opacity="0.3">
          <g id="Group_1280" data-name="Group 1280">
            <g id="Group_1279" data-name="Group 1279" clip-path="url(#clip-path-11)">
              <rect id="Rectangle_559" data-name="Rectangle 559" width="21.696" height="8.534" transform="translate(0)"/>
            </g>
          </g>
        </g>
        <rect id="Rectangle_561" data-name="Rectangle 561" width="69.525" height="8.534" transform="translate(164.095 186.865)" fill="#04b5ff"/>
        <g id="Group_1284" data-name="Group 1284" transform="translate(211.926 186.865)" opacity="0.3">
          <g id="Group_1283" data-name="Group 1283">
            <g id="Group_1282" data-name="Group 1282" clip-path="url(#clip-path-10)">
              <rect id="Rectangle_562" data-name="Rectangle 562" width="21.696" height="8.534" transform="translate(-0.001 0)"/>
            </g>
          </g>
        </g>
        <path id="Path_3482" data-name="Path 3482" d="M271.509,175.4A1.89,1.89,0,1,0,273.4,173.5a1.892,1.892,0,0,0-1.891,1.893" transform="translate(-0.291)" fill="#ebebeb"/>
      </g>
    </g>
  </g>
</svg>
