<svg xmlns="http://www.w3.org/2000/svg" xmlns:xlink="http://www.w3.org/1999/xlink" width="943.4" height="709.411" viewBox="0 0 943.4 709.411">
  <defs>
    <clipPath id="clip-path">
      <rect id="Rectangle_653" data-name="Rectangle 653" width="943.4" height="709.411" fill="none"/>
    </clipPath>
    <clipPath id="clip-path-3">
      <rect id="Rectangle_625" data-name="Rectangle 625" width="466.049" height="103.697" fill="none"/>
    </clipPath>
    <clipPath id="clip-path-4">
      <rect id="Rectangle_632" data-name="Rectangle 632" width="17.673" height="88.908" fill="none"/>
    </clipPath>
    <clipPath id="clip-path-8">
      <rect id="Rectangle_636" data-name="Rectangle 636" width="251.421" height="174.107" fill="none"/>
    </clipPath>
    <clipPath id="clip-path-9">
      <rect id="Rectangle_637" data-name="Rectangle 637" width="161.626" height="201.959" fill="none"/>
    </clipPath>
    <clipPath id="clip-path-10">
      <rect id="Rectangle_638" data-name="Rectangle 638" width="12.389" height="15.35" fill="none"/>
    </clipPath>
    <clipPath id="clip-path-11">
      <rect id="Rectangle_639" data-name="Rectangle 639" width="107.48" height="103.428" fill="none"/>
    </clipPath>
    <clipPath id="clip-path-12">
      <rect id="Rectangle_640" data-name="Rectangle 640" width="22.062" height="237.748" fill="none"/>
    </clipPath>
    <clipPath id="clip-path-13">
      <rect id="Rectangle_641" data-name="Rectangle 641" width="22.063" height="237.748" fill="none"/>
    </clipPath>
    <clipPath id="clip-path-14">
      <rect id="Rectangle_642" data-name="Rectangle 642" width="22.064" height="237.748" fill="none"/>
    </clipPath>
    <clipPath id="clip-path-15">
      <rect id="Rectangle_643" data-name="Rectangle 643" width="22.061" height="237.748" fill="none"/>
    </clipPath>
    <clipPath id="clip-path-16">
      <rect id="Rectangle_645" data-name="Rectangle 645" width="47.433" height="16.11" fill="none"/>
    </clipPath>
    <clipPath id="clip-path-17">
      <rect id="Rectangle_646" data-name="Rectangle 646" width="18.68" height="93.975" fill="none"/>
    </clipPath>
    <clipPath id="clip-path-19">
      <rect id="Rectangle_648" data-name="Rectangle 648" width="18.679" height="93.975" fill="none"/>
    </clipPath>
    <clipPath id="clip-path-20">
      <rect id="Rectangle_649" data-name="Rectangle 649" width="18.682" height="93.975" fill="none"/>
    </clipPath>
    <clipPath id="clip-path-21">
      <rect id="Rectangle_650" data-name="Rectangle 650" width="265.751" height="184.029" fill="none"/>
    </clipPath>
  </defs>
  <g id="servicesImage2Big" transform="translate(-28 -70)">
    <g id="Group_1376" data-name="Group 1376" transform="translate(28 70)" clip-path="url(#clip-path)">
      <rect id="Rectangle_595" data-name="Rectangle 595" width="943.4" height="0.473" transform="translate(0 623.428)" fill="#ebebeb"/>
      <rect id="Rectangle_596" data-name="Rectangle 596" width="62.492" height="0.476" transform="translate(786.379 654.069)" fill="#ebebeb"/>
      <rect id="Rectangle_597" data-name="Rectangle 597" width="133.598" height="0.476" transform="translate(629.023 654.069)" fill="#ebebeb"/>
      <rect id="Rectangle_598" data-name="Rectangle 598" width="36.211" height="0.473" transform="translate(519.136 636.392)" fill="#ebebeb"/>
      <rect id="Rectangle_599" data-name="Rectangle 599" width="64.697" height="0.476" transform="translate(98.979 639.589)" fill="#ebebeb"/>
      <rect id="Rectangle_600" data-name="Rectangle 600" width="117.635" height="0.476" transform="translate(180.479 639.589)" fill="#ebebeb"/>
      <rect id="Rectangle_601" data-name="Rectangle 601" width="69.459" height="0.476" transform="translate(355.347 647.628)" fill="#ebebeb"/>
      <g id="Group_1375" data-name="Group 1375">
        <g id="Group_1374" data-name="Group 1374" clip-path="url(#clip-path)">
          <path id="Path_3629" data-name="Path 3629" d="M400.771,538.514H36.432a10.832,10.832,0,0,1-10.771-10.868V10.868A10.832,10.832,0,0,1,36.432,0h364.34a10.832,10.832,0,0,1,10.768,10.868V527.646a10.832,10.832,0,0,1-10.768,10.868M36.432.476a10.357,10.357,0,0,0-10.3,10.392V527.646a10.357,10.357,0,0,0,10.3,10.392h364.34a10.357,10.357,0,0,0,10.3-10.392V10.868A10.357,10.357,0,0,0,400.771.476Z" transform="translate(46.428)" fill="#ebebeb"/>
          <path id="Path_3630" data-name="Path 3630" d="M546.042,538.514H181.7a10.832,10.832,0,0,1-10.768-10.868V10.868A10.832,10.832,0,0,1,181.7,0h364.34a10.83,10.83,0,0,1,10.768,10.868V527.646a10.83,10.83,0,0,1-10.768,10.868M181.7.476a10.355,10.355,0,0,0-10.3,10.392V527.646a10.355,10.355,0,0,0,10.3,10.392h364.34a10.355,10.355,0,0,0,10.3-10.392V10.868A10.355,10.355,0,0,0,546.042.476Z" transform="translate(309.265)" fill="#ebebeb"/>
          <rect id="Rectangle_602" data-name="Rectangle 602" width="182.439" height="507.766" transform="translate(117.082 66.489)" fill="#f5f5f5"/>
          <rect id="Rectangle_603" data-name="Rectangle 603" width="1.848" height="507.766" transform="translate(299.521 66.489)" fill="#ebebeb"/>
          <rect id="Rectangle_604" data-name="Rectangle 604" width="147.231" height="469.026" transform="translate(134.685 85.858)" fill="#fff"/>
          <rect id="Rectangle_605" data-name="Rectangle 605" width="430.366" height="322.655" transform="translate(377.7 44.392)" fill="#e7e7e7"/>
          <rect id="Rectangle_606" data-name="Rectangle 606" width="430.366" height="322.655" transform="translate(371.04 44.392)" fill="#f5f5f5"/>
          <rect id="Rectangle_607" data-name="Rectangle 607" width="406.453" height="295.552" transform="translate(382.999 57.942)" fill="#fff"/>
          <rect id="Rectangle_608" data-name="Rectangle 608" width="5.037" height="295.552" transform="translate(382.996 57.942)" fill="#e7e7e7"/>
          <rect id="Rectangle_609" data-name="Rectangle 609" width="420.474" height="18.193" transform="translate(375.987 272.165)" fill="#f5f5f5"/>
          <g id="Group_1319" data-name="Group 1319" transform="translate(357.696 30.13)" opacity="0.4">
            <g id="Group_1318" data-name="Group 1318">
              <g id="Group_1317" data-name="Group 1317" clip-path="url(#clip-path-3)">
                <rect id="Rectangle_610" data-name="Rectangle 610" width="40.63" height="103.697" transform="translate(0 0)" fill="#e7e7e7"/>
                <rect id="Rectangle_611" data-name="Rectangle 611" width="20.142" height="95.363" transform="translate(40.63 0.003)" fill="#f5f5f5"/>
                <rect id="Rectangle_612" data-name="Rectangle 612" width="40.63" height="103.697" transform="translate(60.776 0)" fill="#e7e7e7"/>
                <rect id="Rectangle_613" data-name="Rectangle 613" width="20.142" height="95.363" transform="translate(101.406 0.003)" fill="#f5f5f5"/>
                <rect id="Rectangle_614" data-name="Rectangle 614" width="40.63" height="103.697" transform="translate(121.549 0)" fill="#e7e7e7"/>
                <rect id="Rectangle_615" data-name="Rectangle 615" width="20.142" height="95.363" transform="translate(162.179 0.003)" fill="#f5f5f5"/>
                <rect id="Rectangle_616" data-name="Rectangle 616" width="40.63" height="103.697" transform="translate(182.321 0)" fill="#e7e7e7"/>
                <rect id="Rectangle_617" data-name="Rectangle 617" width="20.142" height="95.363" transform="translate(222.952 0.003)" fill="#f5f5f5"/>
                <rect id="Rectangle_618" data-name="Rectangle 618" width="40.63" height="103.697" transform="translate(243.097 0)" fill="#e7e7e7"/>
                <rect id="Rectangle_619" data-name="Rectangle 619" width="20.142" height="95.363" transform="translate(283.728 0.003)" fill="#f5f5f5"/>
                <rect id="Rectangle_620" data-name="Rectangle 620" width="40.63" height="103.697" transform="translate(303.87 0)" fill="#e7e7e7"/>
                <rect id="Rectangle_621" data-name="Rectangle 621" width="20.142" height="95.363" transform="translate(344.501 0.003)" fill="#f5f5f5"/>
                <rect id="Rectangle_622" data-name="Rectangle 622" width="40.63" height="103.697" transform="translate(364.643 0)" fill="#e7e7e7"/>
                <rect id="Rectangle_623" data-name="Rectangle 623" width="20.142" height="95.363" transform="translate(405.273 0.003)" fill="#f5f5f5"/>
                <rect id="Rectangle_624" data-name="Rectangle 624" width="40.63" height="103.697" transform="translate(425.419 0)" fill="#e7e7e7"/>
              </g>
            </g>
          </g>
          <rect id="Rectangle_626" data-name="Rectangle 626" width="50.353" height="189.244" transform="translate(384.375 434.182)" fill="#e7e7e7"/>
          <path id="Path_3631" data-name="Path 3631" d="M145.2,230.946h-8.38V213.917h17.167Z" transform="translate(247.552 392.481)" fill="#f0f0f0"/>
          <rect id="Rectangle_627" data-name="Rectangle 627" width="50.356" height="189.244" transform="translate(746.709 434.182)" fill="#e7e7e7"/>
          <rect id="Rectangle_628" data-name="Rectangle 628" width="369.646" height="182.707" transform="translate(384.375 434.179)" fill="#f0f0f0"/>
          <rect id="Rectangle_629" data-name="Rectangle 629" width="356.645" height="50.104" transform="translate(390.876 442.28)" fill="#e7e7e7"/>
          <path id="Path_3632" data-name="Path 3632" d="M185.174,172.578H361.386c8.178,0,15.993-6.182,21.617-17.093H163.557c5.624,10.912,13.442,17.093,21.617,17.093" transform="translate(295.918 285.271)" fill="#f0f0f0"/>
          <path id="Path_3633" data-name="Path 3633" d="M271.081,230.946h8.38V213.917H262.294Z" transform="translate(474.56 392.481)" fill="#f0f0f0"/>
          <rect id="Rectangle_630" data-name="Rectangle 630" width="356.645" height="50.104" transform="translate(390.876 500.483)" fill="#e7e7e7"/>
          <path id="Path_3634" data-name="Path 3634" d="M185.174,193.11H361.386c8.178,0,15.993-6.183,21.617-17.093H163.557c5.624,10.91,13.442,17.093,21.617,17.093" transform="translate(295.918 322.941)" fill="#f0f0f0"/>
          <rect id="Rectangle_631" data-name="Rectangle 631" width="356.645" height="50.104" transform="translate(390.876 558.686)" fill="#e7e7e7"/>
          <path id="Path_3635" data-name="Path 3635" d="M185.174,213.642H361.386c8.178,0,15.993-6.182,21.617-17.093H163.557c5.624,10.912,13.442,17.093,21.617,17.093" transform="translate(295.918 360.612)" fill="#f0f0f0"/>
          <path id="Path_3636" data-name="Path 3636" d="M769.346,256.6c0,11.908-163.789,21.561-365.831,21.561S37.686,268.511,37.686,256.6s163.786-21.556,365.828-21.556S769.346,244.7,769.346,256.6" transform="translate(68.184 431.247)" fill="#f5f5f5"/>
          <path id="Path_3637" data-name="Path 3637" d="M258.76,296.364h-2.023a1.764,1.764,0,0,1-1.6-1.655l-12.423-87.253h9.434l8.228,86.673a1.9,1.9,0,0,1-1.615,2.234" transform="translate(439.133 380.628)" fill="#007cff"/>
          <g id="Group_1322" data-name="Group 1322" transform="translate(681.846 588.085)" opacity="0.3">
            <g id="Group_1321" data-name="Group 1321">
              <g id="Group_1320" data-name="Group 1320" clip-path="url(#clip-path-4)">
                <path id="Path_3638" data-name="Path 3638" d="M258.76,296.364h-2.023a1.764,1.764,0,0,1-1.6-1.655l-12.423-87.253h9.434l8.228,86.673a1.9,1.9,0,0,1-1.615,2.234" transform="translate(-242.713 -207.457)"/>
              </g>
            </g>
          </g>
          <path id="Path_3639" data-name="Path 3639" d="M267.974,296.364h-2.023a1.764,1.764,0,0,1-1.6-1.655l-12.423-87.253h9.434l8.228,86.673a1.9,1.9,0,0,1-1.615,2.234" transform="translate(455.803 380.628)" fill="#007cff"/>
          <g id="Group_1325" data-name="Group 1325" transform="translate(707.73 588.085)" opacity="0.3">
            <g id="Group_1324" data-name="Group 1324">
              <g id="Group_1323" data-name="Group 1323" clip-path="url(#clip-path-4)">
                <path id="Path_3640" data-name="Path 3640" d="M267.974,296.364h-2.023a1.764,1.764,0,0,1-1.6-1.655l-12.423-87.253h9.434l8.228,86.673a1.9,1.9,0,0,1-1.615,2.234" transform="translate(-251.927 -207.457)"/>
              </g>
            </g>
          </g>
          <path id="Path_3641" data-name="Path 3641" d="M207.346,296.364h2.023a1.764,1.764,0,0,0,1.6-1.655l12.423-87.253h-9.434L205.73,294.13a1.9,1.9,0,0,0,1.615,2.234" transform="translate(372.201 380.628)" fill="#007cff"/>
          <g id="Group_1328" data-name="Group 1328" transform="translate(577.92 588.085)" opacity="0.3">
            <g id="Group_1327" data-name="Group 1327">
              <g id="Group_1326" data-name="Group 1326" clip-path="url(#clip-path-4)">
                <path id="Path_3642" data-name="Path 3642" d="M207.346,296.364h2.023a1.764,1.764,0,0,0,1.6-1.655l12.423-87.253h-9.434L205.73,294.13a1.9,1.9,0,0,0,1.615,2.234" transform="translate(-205.719 -207.457)"/>
              </g>
            </g>
          </g>
          <path id="Path_3643" data-name="Path 3643" d="M198.131,296.364h2.023a1.764,1.764,0,0,0,1.6-1.655l12.423-87.253h-9.434l-8.228,86.673a1.9,1.9,0,0,0,1.615,2.234" transform="translate(355.53 380.628)" fill="#007cff"/>
          <g id="Group_1331" data-name="Group 1331" transform="translate(552.035 588.085)" opacity="0.3">
            <g id="Group_1330" data-name="Group 1330">
              <g id="Group_1329" data-name="Group 1329" clip-path="url(#clip-path-4)">
                <path id="Path_3644" data-name="Path 3644" d="M198.131,296.364h2.023a1.764,1.764,0,0,0,1.6-1.655l12.423-87.253h-9.434l-8.228,86.673a1.9,1.9,0,0,0,1.615,2.234" transform="translate(-196.505 -207.457)"/>
              </g>
            </g>
          </g>
          <path id="Path_3645" data-name="Path 3645" d="M191.276,216.717h63.548c11.274-39.507,51.842-70.679,93.388-70.679h20.643c43.487,0,71.549,34.144,62.683,76.263a86.02,86.02,0,0,1-8.085,22.224l-10.023,61.3c-1.292,7.911-7.548,14.323-13.971,14.323H208.185c-6.422,0-12.675-6.412-13.971-14.323l-12.226-74.78c-1.292-7.912,2.865-14.325,9.287-14.325" transform="translate(328.84 267.94)" fill="#007cff"/>
          <g id="Group_1334" data-name="Group 1334" transform="translate(510.593 413.978)" opacity="0.5">
            <g id="Group_1333" data-name="Group 1333">
              <g id="Group_1332" data-name="Group 1332" clip-path="url(#clip-path-8)">
                <path id="Path_3646" data-name="Path 3646" d="M191.276,216.717h63.548c11.274-39.507,51.842-70.679,93.388-70.679h20.643c43.487,0,71.549,34.144,62.683,76.263a86.02,86.02,0,0,1-8.085,22.224l-10.023,61.3c-1.292,7.911-7.548,14.323-13.971,14.323H208.185c-6.422,0-12.675-6.412-13.971-14.323l-12.226-74.78c-1.292-7.912,2.865-14.325,9.287-14.325" transform="translate(-181.753 -146.038)" fill="#fff"/>
              </g>
            </g>
          </g>
          <path id="Path_3647" data-name="Path 3647" d="M199.292,233.888l15.74,7.287a1.125,1.125,0,0,1,.6,1.451l-4.953,12.917a2.721,2.721,0,0,1-3.6,1.379c-5.436-2.636-7.905-4.171-14.827-7.376a184.491,184.491,0,0,1-21.171-12.378c-5.135-3.727-1.363-8.944,1.2-7.8,11.5,5.116,18.819,5.576,24.2,4.273a4.318,4.318,0,0,1,2.809.25" transform="translate(304.915 420.53)" fill="#263238"/>
          <path id="Path_3648" data-name="Path 3648" d="M291.871,162.184s-100.622,1.262-102.176,41.287C187.461,261,179.042,356.514,179.042,356.514l16.968,7.63s29.728-95.853,30.79-140.781c28.23-7.095,101.072.059,109.629-23.354,7-19.154,3.217-37.825,3.217-37.825Z" transform="translate(323.935 297.564)" fill="#007cff"/>
          <g id="Group_1337" data-name="Group 1337" transform="translate(502.977 459.747)" opacity="0.2">
            <g id="Group_1336" data-name="Group 1336">
              <g id="Group_1335" data-name="Group 1335" clip-path="url(#clip-path-9)">
                <path id="Path_3649" data-name="Path 3649" d="M291.871,162.184s-100.622,1.262-102.176,41.287C187.461,261,179.042,356.514,179.042,356.514l16.968,7.63s29.728-95.853,30.79-140.781c28.23-7.095,101.072.059,109.629-23.354,7-19.154,3.217-37.825,3.217-37.825Z" transform="translate(-179.042 -162.182)"/>
              </g>
            </g>
          </g>
          <path id="Path_3650" data-name="Path 3650" d="M294.059,134.335c-.874,3.693-1.759,7.026-2.773,10.482q-1.488,5.136-3.118,10.228c-2.208,6.78-4.641,13.515-7.45,20.184a167.193,167.193,0,0,1-9.7,19.823,97.066,97.066,0,0,1-6.391,9.718,55.218,55.218,0,0,1-8.765,9.343l-.281.232a6.886,6.886,0,0,1-.612.454,14.217,14.217,0,0,1-6.332,2.294,17.793,17.793,0,0,1-4.3-.031,26.353,26.353,0,0,1-5.779-1.412,60.009,60.009,0,0,1-8.442-3.876,138.083,138.083,0,0,1-14.015-8.982q-6.578-4.776-12.712-9.9c-4.076-3.481-8.074-6.919-11.962-10.7a5.848,5.848,0,0,1-.149-8.221,5.725,5.725,0,0,1,6.936-1.053l.093.054c4.453,2.491,8.948,5.131,13.451,7.584,4.486,2.507,8.962,4.984,13.44,7.3,4.447,2.346,8.962,4.526,13.26,6.318a39.94,39.94,0,0,0,6.012,2.029,7.053,7.053,0,0,0,1.837.248c.126,0,.036-.077-.4-.046a5.817,5.817,0,0,0-2.677,1.015l-.891.686a35.439,35.439,0,0,0,4.885-6.071c1.573-2.415,3.115-5.041,4.545-7.8a180.989,180.989,0,0,0,7.745-17.658c2.323-6.139,4.5-12.418,6.512-18.773,2.048-6.293,3.913-12.9,5.613-19.061l.065-.232a11.535,11.535,0,0,1,14.221-8.1,11.685,11.685,0,0,1,8.133,13.934" transform="translate(343.162 220.115)" fill="#263238"/>
          <path id="Path_3651" data-name="Path 3651" d="M230.443,233.772h18.878a1.205,1.205,0,0,1,1.244,1.159l.916,15.07a2.994,2.994,0,0,1-2.941,3.017c-6.571-.115-9.712-.505-18.013-.505-5.107,0-15.409.536-22.463.536-6.9,0-6.849-7.038-3.86-7.673,13.4-2.861,18.6-6.8,23.345-10.56a4.7,4.7,0,0,1,2.894-1.044" transform="translate(365.989 428.908)" fill="#263238"/>
          <path id="Path_3652" data-name="Path 3652" d="M286.219,162.184s-91.267,7.78-89.023,47.769c2.458,43.791,42.532,155.167,42.532,155.167h18.454s-15.8-101.994-21.35-146.583c25.724,0,85.388,4.885,93.945-18.528,7-19.154,3.217-37.825,3.217-37.825Z" transform="translate(356.707 297.564)" fill="#007cff"/>
          <path id="Path_3653" data-name="Path 3653" d="M200.276,143.442a31.108,31.108,0,0,0-5.133-6.355c-3.731,3.531-5.832,13.826-5.832,13.826l5.161.474s5.922-1.945,5.8-7.946" transform="translate(342.514 251.517)" fill="#007cff"/>
          <path id="Path_3654" data-name="Path 3654" d="M195.132,137.916l-5.869-2.57a3.411,3.411,0,0,0-4.3,1.381l-2.781,4.651a3.485,3.485,0,0,0,.461,4.183l8.06,8.482,13.437-.55a4.276,4.276,0,0,0,3.641-2.348l1.551-3.057a4.292,4.292,0,0,0-1.337-5.5c-4.36-2.907-12.858-4.668-12.858-4.668" transform="translate(328.718 247.792)" fill="#ffc3bd"/>
          <path id="Path_3655" data-name="Path 3655" d="M221.007,133.59c-2.694,17.085-6.175,54.135.936,109.925l74.811-.715c-.447-38.658,5.557-74.959,11.42-110.419a10.544,10.544,0,0,0-8.888-12.207c-17.971-2.613-46.982-2.514-64.585-.054a16.128,16.128,0,0,0-13.692,13.469" transform="translate(393.948 216.948)" fill="#263238"/>
          <path id="Path_3656" data-name="Path 3656" d="M282.793,126.256c2.194,5.5,3.961,10.778,5.77,16.223,1.789,5.411,3.365,10.905,4.849,16.452,1.43,5.565,2.8,11.181,3.84,16.949a138.768,138.768,0,0,1,2.3,17.851c.1,1.538.126,3.136.146,4.737l-.028,2.44a14.9,14.9,0,0,1-1.877,7.13,12.889,12.889,0,0,1-3.138,3.7A11.951,11.951,0,0,1,292.78,213a11.62,11.62,0,0,1-1.8.839,15.466,15.466,0,0,1-5.543.975,25.171,25.171,0,0,1-6.607-1.044,57.621,57.621,0,0,1-9.141-3.637c-2.733-1.36-5.3-2.8-7.813-4.271A207.517,207.517,0,0,1,234.2,185.875a5.84,5.84,0,0,1-.716-8.18,5.727,5.727,0,0,1,6.886-1.517l.132.065c9.757,4.691,19.671,9.5,29.34,13.538,2.41,1,4.818,1.943,7.158,2.728a39.63,39.63,0,0,0,6.447,1.776c.857.142,1.641.125,1.554.041a2.825,2.825,0,0,0-1.5.257,9.148,9.148,0,0,0-.871.4,9.836,9.836,0,0,0-1.023.681,8.162,8.162,0,0,0-1.823,2.12,6.966,6.966,0,0,0-.975,3.116l-.107-1.721c-.1-1.174-.205-2.351-.376-3.573-1.289-9.763-4.017-20.16-7.043-30.379s-6.5-20.653-10.035-30.572l-.034-.1a11.681,11.681,0,0,1,6.959-14.908,11.536,11.536,0,0,1,14.62,6.611" transform="translate(420.01 218.252)" fill="#263238"/>
          <path id="Path_3657" data-name="Path 3657" d="M261.928,105.42l-9.052,7.575-12.321,10.327a40.477,40.477,0,0,1,.784,5.023c.59,6-.714,11.523-7.945,14.321a9.6,9.6,0,0,0-5.97,5.887c-.975,3.192.177,6.739,10.1,6.736,14.577,0,22.193-6.543,25.059-9.765a2.614,2.614,0,0,0,.124-3.24c-5.776-8.267-3.138-26.542-.784-36.863" transform="translate(410.964 193.417)" fill="#ffc3bd"/>
          <path id="Path_3658" data-name="Path 3658" d="M233.207,121.87a5.852,5.852,0,0,1,1.261,2.587,10.482,10.482,0,0,1,2.736-2.587s4.329,1.941,5.228,6.18c-2.773-.179-7.846-2.943-7.846-2.943a13.3,13.3,0,0,1-5.25,1.646c.118-3.3,3.871-4.883,3.871-4.883" transform="translate(414.93 223.598)" fill="#007cff"/>
          <path id="Path_3659" data-name="Path 3659" d="M232.136,130.253a23.173,23.173,0,0,1,4.995,11.1s24.154-6.092,23.019-21.978c-2.031-1.293-6.695-2.075-6.695-2.075s-5.194,9.519-21.32,12.951" transform="translate(419.996 215.215)" fill="#007cff"/>
          <path id="Path_3660" data-name="Path 3660" d="M237.747,129.7a25.636,25.636,0,0,0-5.318,11.1s-12.389-11.378-.32-21.847a31.44,31.44,0,0,1,6.385-1.352s-8.018,6.568-.747,12.1" transform="translate(410.39 215.768)" fill="#007cff"/>
          <g id="Group_1340" data-name="Group 1340" transform="translate(651.52 306.412)" opacity="0.2">
            <g id="Group_1339" data-name="Group 1339">
              <g id="Group_1338" data-name="Group 1338" clip-path="url(#clip-path-10)">
                <path id="Path_3661" data-name="Path 3661" d="M231.918,118.419a40.487,40.487,0,0,1,.784,5.024c4.6-.933,10.734-5.874,11.377-10.611a21.707,21.707,0,0,0,.16-4.74Z" transform="translate(-231.918 -108.092)"/>
              </g>
            </g>
          </g>
          <path id="Path_3662" data-name="Path 3662" d="M231.118,94.735c-11.364,8.13-5.006,27.2,4.689,19.9s4.571-26.527-4.689-19.9" transform="translate(407.178 171.307)" fill="#263238"/>
          <path id="Path_3663" data-name="Path 3663" d="M269.24,115.454c-3.146,14.6-4.25,23.279-12.8,29.941-12.852,10.018-29.888,1.116-31.135-13.982-1.124-13.589,4.208-35.182,19.429-39.315,14.993-4.073,27.649,8.757,24.5,23.356" transform="translate(407.383 167.572)" fill="#ffc3bd"/>
          <path id="Path_3664" data-name="Path 3664" d="M263.423,113.527c-8.02-2.237-28.7,3.075-36.04-4.824-7.874-8.477,3.615-12.6,7-9.653-4.287-4.943-2.686-10.24,3.382-9.769,4.425.344,5.835,5.3,5.835,5.3s-.739-8.654,6.874-8.063c6.914.542,6.933,9.948,6.933,9.948s16.5-4.708,22,11.18c10.38-.235,10.147,21.813-10.731,29.66-8.473-4.238-8.863-19.277-5.248-23.775" transform="translate(406.503 158.678)" fill="#263238"/>
          <path id="Path_3665" data-name="Path 3665" d="M244.72,103.3a2.121,2.121,0,0,1-.376-4.2,3.072,3.072,0,0,0,1.214-1.545,5.056,5.056,0,0,0,.227-3.966,2.127,2.127,0,0,1,1.039-2.806,2.084,2.084,0,0,1,2.781,1.048,9.41,9.41,0,0,1-.455,7.947,6.142,6.142,0,0,1-4.057,3.492,2.071,2.071,0,0,1-.374.034" transform="translate(438.968 166.198)" fill="#263238"/>
          <path id="Path_3666" data-name="Path 3666" d="M249.6,110.227a13.17,13.17,0,0,1-7.945,4.967c-4.09.726-5.332-3.071-3.526-6.758,1.629-3.317,5.717-7.693,9.5-6.746,3.728.933,4.4,5.323,1.972,8.538" transform="translate(429.38 186.331)" fill="#ffc3bd"/>
          <path id="Path_3667" data-name="Path 3667" d="M233.876,101.831c-.183,1.2-.964,2.092-1.742,2s-1.261-1.14-1.079-2.336.964-2.095,1.742-2,1.261,1.142,1.079,2.339" transform="translate(417.972 182.529)" fill="#263238"/>
          <path id="Path_3668" data-name="Path 3668" d="M229.081,101.261c-.183,1.2-.964,2.092-1.742,2s-1.261-1.14-1.079-2.336.964-2.1,1.742-2,1.261,1.142,1.079,2.339" transform="translate(409.297 181.483)" fill="#263238"/>
          <path id="Path_3669" data-name="Path 3669" d="M232.324,99.912s-2.826,5.809-5.624,8.54c1.66,1.788,4.8,1.172,4.8,1.172Z" transform="translate(410.161 183.312)" fill="#ff847f"/>
          <path id="Path_3670" data-name="Path 3670" d="M231.468,107.906a10.285,10.285,0,0,0,7.489-3.112.358.358,0,0,0-.031-.5.35.35,0,0,0-.5.034,9.845,9.845,0,0,1-8.273,2.79.355.355,0,0,0-.084.706,11.437,11.437,0,0,0,1.4.085" transform="translate(415.698 191.184)" fill="#263238"/>
          <path id="Path_3671" data-name="Path 3671" d="M237.913,100.189a.732.732,0,0,0,.315-.162.716.716,0,0,0,.056-1,6.72,6.72,0,0,0-5.922-2.353.711.711,0,0,0,.239,1.4,5.336,5.336,0,0,1,4.63,1.9.7.7,0,0,0,.683.221" transform="translate(419.349 177.266)" fill="#263238"/>
          <path id="Path_3672" data-name="Path 3672" d="M225.857,99.575a.7.7,0,0,0,.646-.136,5.874,5.874,0,0,1,5.023-1.379.7.7,0,0,0,.868-.493.708.708,0,0,0-.486-.872l0,0a7.224,7.224,0,0,0-6.3,1.653.715.715,0,0,0-.09,1,.672.672,0,0,0,.346.229" transform="translate(407.715 177.1)" fill="#263238"/>
          <path id="Path_3673" data-name="Path 3673" d="M245.365,139.531l-8.257-5.18a5.209,5.209,0,0,0-7.245,1.758l-.972,1.626a5.321,5.321,0,0,0,.534,6.2l5.7,6.6s4.958,11.668,10.709,8.589l4.385-7.667Z" transform="translate(412.765 245.037)" fill="#ffc3bd"/>
          <path id="Path_3674" data-name="Path 3674" d="M244.912,145.948s-2.079-5.153-4.315-7.761c-4.146,3.583-7.506,15.012-7.506,15.012l5.071,1.1a9.494,9.494,0,0,0,6.751-8.355" transform="translate(421.724 253.536)" fill="#007cff"/>
          <path id="Path_3675" data-name="Path 3675" d="M329.029,170.972H231.073c-6.425,0-10.58,6.412-9.287,14.324l12.226,74.781c1.3,7.91,7.548,14.323,13.97,14.323H316.9Z" transform="translate(400.844 313.685)" fill="#007cff"/>
          <g id="Group_1343" data-name="Group 1343" transform="translate(622.393 484.657)" opacity="0.5">
            <g id="Group_1342" data-name="Group 1342">
              <g id="Group_1341" data-name="Group 1341" clip-path="url(#clip-path-11)">
                <path id="Path_3676" data-name="Path 3676" d="M329.029,170.972H231.073c-6.425,0-10.58,6.412-9.287,14.324l12.226,74.781c1.3,7.91,7.548,14.323,13.97,14.323H316.9Z" transform="translate(-221.55 -170.972)" fill="#fff"/>
              </g>
            </g>
          </g>
          <path id="Path_3677" data-name="Path 3677" d="M100.1,394.961h2.826a1.919,1.919,0,0,0,1.832-1.878L120.33,157.214H108.637L98.268,392.838a1.948,1.948,0,0,0,1.834,2.123" transform="translate(177.79 288.443)" fill="#007cff"/>
          <g id="Group_1346" data-name="Group 1346" transform="translate(276.058 445.658)" opacity="0.3">
            <g id="Group_1345" data-name="Group 1345">
              <g id="Group_1344" data-name="Group 1344" clip-path="url(#clip-path-12)">
                <path id="Path_3678" data-name="Path 3678" d="M100.1,394.961h2.826a1.919,1.919,0,0,0,1.832-1.878L120.33,157.214H108.637L98.268,392.838a1.948,1.948,0,0,0,1.834,2.123" transform="translate(-98.268 -157.215)" fill="#fff"/>
              </g>
            </g>
          </g>
          <path id="Path_3679" data-name="Path 3679" d="M88.683,394.961h2.826a1.919,1.919,0,0,0,1.832-1.878L108.91,157.214H97.217L86.848,392.838a1.948,1.948,0,0,0,1.834,2.123" transform="translate(157.128 288.443)" fill="#007cff"/>
          <g id="Group_1349" data-name="Group 1349" transform="translate(243.975 445.658)" opacity="0.3">
            <g id="Group_1348" data-name="Group 1348">
              <g id="Group_1347" data-name="Group 1347" clip-path="url(#clip-path-13)">
                <path id="Path_3680" data-name="Path 3680" d="M88.683,394.961h2.826a1.919,1.919,0,0,0,1.832-1.878L108.91,157.214H97.217L86.848,392.838a1.948,1.948,0,0,0,1.834,2.123" transform="translate(-86.846 -157.215)" fill="#fff"/>
              </g>
            </g>
          </g>
          <path id="Path_3681" data-name="Path 3681" d="M241.333,394.961h-2.826a1.919,1.919,0,0,1-1.832-1.878L221.106,157.214H232.8l10.369,235.624a1.948,1.948,0,0,1-1.834,2.123" transform="translate(400.04 288.443)" fill="#007cff"/>
          <g id="Group_1352" data-name="Group 1352" transform="translate(621.146 445.658)" opacity="0.3">
            <g id="Group_1351" data-name="Group 1351">
              <g id="Group_1350" data-name="Group 1350" clip-path="url(#clip-path-14)">
                <path id="Path_3682" data-name="Path 3682" d="M241.333,394.961h-2.826a1.919,1.919,0,0,1-1.832-1.878L221.106,157.214H232.8l10.369,235.624a1.948,1.948,0,0,1-1.834,2.123" transform="translate(-221.106 -157.215)" fill="#fff"/>
              </g>
            </g>
          </g>
          <path id="Path_3683" data-name="Path 3683" d="M252.754,394.961h-2.826a1.919,1.919,0,0,1-1.832-1.878L232.527,157.214h11.692l10.369,235.624a1.948,1.948,0,0,1-1.834,2.123" transform="translate(420.704 288.443)" fill="#007cff"/>
          <g id="Group_1355" data-name="Group 1355" transform="translate(653.231 445.658)" opacity="0.3">
            <g id="Group_1354" data-name="Group 1354">
              <g id="Group_1353" data-name="Group 1353" clip-path="url(#clip-path-15)">
                <path id="Path_3684" data-name="Path 3684" d="M252.754,394.961h-2.826a1.919,1.919,0,0,1-1.832-1.878L232.527,157.214h11.692l10.369,235.624a1.948,1.948,0,0,1-1.834,2.123" transform="translate(-232.527 -157.215)" fill="#fff"/>
              </g>
            </g>
          </g>
          <rect id="Rectangle_644" data-name="Rectangle 644" width="455.29" height="4.85" transform="translate(231.658 440.809)" fill="#007cff"/>
          <path id="Path_3685" data-name="Path 3685" d="M95.955,130.747l-4.3,31.928c-1.357,10.63-2.776,21.291-3.79,31.755-.143,1.315-.236,2.6-.343,3.895l-.157,1.939a4.1,4.1,0,0,0-.067-.953,3.963,3.963,0,0,0-.216-.906,4.01,4.01,0,0,0-.284-.667,2.547,2.547,0,0,0-.264-.427c-.331-.434-.368-.376-.281-.284a3.952,3.952,0,0,0,.643.544,19.437,19.437,0,0,0,2.5,1.476,99.5,99.5,0,0,0,13.855,5.187c9.9,3.03,20.289,5.655,30.548,8.206l-1.16,9.094a225.889,225.889,0,0,1-32.72-3.415A94.081,94.081,0,0,1,83.1,213.638a35.637,35.637,0,0,1-4.661-2.207,20.114,20.114,0,0,1-2.632-1.8,14.547,14.547,0,0,1-3.012-3.242,12.44,12.44,0,0,1-1.424-2.913,13.5,13.5,0,0,1-.45-1.893,14.344,14.344,0,0,1-.11-1.964l.048-2.112c.031-1.409.053-2.826.121-4.207.447-11.123,1.438-21.978,2.615-32.832,1.149-10.855,2.52-21.609,4.208-32.421Z" transform="translate(128.118 234.93)" fill="#903c38"/>
          <path id="Path_3686" data-name="Path 3686" d="M123.238,168.561l-6.919,6.382a5.318,5.318,0,0,1-5.936.878l-7.647-3.716s-11.341-.472-12.956-7.462l2.93-5.429,17.569-1.97a8.115,8.115,0,0,1,5.175,1.158l7.24,4.462a3.6,3.6,0,0,1,.545,5.7" transform="translate(162.436 288.405)" fill="#903c38"/>
          <path id="Path_3687" data-name="Path 3687" d="M89.807,105.857c1.8,10.951,3.318,30.965-4.447,38,0,0,18.949,10.009,31.374,27.483,13.288-10.624,2.16-26.476,2.16-26.476-11.945-3.26-11.369-12.258-9.023-20.657Z" transform="translate(154.439 194.219)" fill="#903c38"/>
          <path id="Path_3688" data-name="Path 3688" d="M130.115,132.421s-1-9.284-6.023-13.876c-4.22-3.857-26.359-1.715-33.335-.93a3.817,3.817,0,0,0-3.017,2.171l-5.06,10.663Z" transform="translate(149.59 213.399)" fill="#007cff"/>
          <g id="Group_1358" data-name="Group 1358" transform="translate(232.273 329.71)" opacity="0.8">
            <g id="Group_1357" data-name="Group 1357">
              <g id="Group_1356" data-name="Group 1356" clip-path="url(#clip-path-16)">
                <path id="Path_3689" data-name="Path 3689" d="M130.115,132.421s-1-9.284-6.023-13.876c-4.22-3.857-26.359-1.715-33.335-.93a3.817,3.817,0,0,0-3.017,2.171l-5.06,10.663Z" transform="translate(-82.682 -116.311)" fill="#fff"/>
              </g>
            </g>
          </g>
          <path id="Path_3690" data-name="Path 3690" d="M87.793,120.554c-13.664,4.486-16.6,22.969-15.372,37.355L100,175.025s6.7-21.007,6.644-32.225c-.065-11.936-9.574-25.292-18.847-22.246" transform="translate(130.569 220.377)" fill="#007cff"/>
          <path id="Path_3691" data-name="Path 3691" d="M81.281,141.323a2.625,2.625,0,0,1-1.812-.74,2.938,2.938,0,0,1-.3-.4,1.786,1.786,0,0,1-.247-.456,3.87,3.87,0,0,1-.149-.476,2.273,2.273,0,0,1-.056-.494,2.566,2.566,0,1,1,5.133,0,2.115,2.115,0,0,1-.059.494,2.071,2.071,0,0,1-.149.476,1.662,1.662,0,0,1-.228.456c-.1.133-.208.266-.32.4a2.555,2.555,0,0,1-1.812.74" transform="translate(142.418 249.886)" fill="#fff"/>
          <path id="Path_3692" data-name="Path 3692" d="M86.8,144.655h.02a2.6,2.6,0,0,1-1.643-2.324,2.5,2.5,0,0,1-2.773.419,2.61,2.61,0,0,1-1.492-2.4,2.5,2.5,0,0,1-2.792.246,2.579,2.579,0,0,1-1.34-2.475,2.546,2.546,0,0,1-2.809.1,2.6,2.6,0,0,1-.868-3.541,2.562,2.562,0,0,1,3.526-.876,2.659,2.659,0,0,1,1.228,2.42,2.519,2.519,0,0,1,2.68-.173,2.6,2.6,0,0,1,1.357,2.34,2.531,2.531,0,0,1,2.66-.322,2.586,2.586,0,0,1,1.492,2.244,2.561,2.561,0,0,1,4.076,2.877,2.537,2.537,0,0,1-2.377,1.635,2.78,2.78,0,0,1-.944-.168" transform="translate(131.6 244.803)" fill="#fff"/>
          <path id="Path_3693" data-name="Path 3693" d="M73.915,137.7a2.413,2.413,0,0,1-.511-.056,1.976,1.976,0,0,1-.472-.154,1.638,1.638,0,0,1-.449-.229,2.838,2.838,0,0,1-.379-.323,2.052,2.052,0,0,1-.32-.38c-.093-.154-.169-.3-.244-.457a4.357,4.357,0,0,1-.152-.475c-.017-.174-.039-.343-.039-.516a4.478,4.478,0,0,1,.039-.493,4.888,4.888,0,0,1,.152-.5,2.024,2.024,0,0,1,.244-.436,2.786,2.786,0,0,1,.32-.4,3.273,3.273,0,0,1,.379-.326,2.583,2.583,0,0,1,.449-.226,3.5,3.5,0,0,1,.472-.154,2.524,2.524,0,0,1,2.624,1.106,3.153,3.153,0,0,1,.247.436,2.527,2.527,0,0,1,.132.5,2.15,2.15,0,0,1,.056.493,2.49,2.49,0,0,1-.056.516,2.293,2.293,0,0,1-.132.475,5.048,5.048,0,0,1-.247.457,1.949,1.949,0,0,1-.32.38,2.565,2.565,0,0,1-1.792.762" transform="translate(129.086 243.169)" fill="#fff"/>
          <path id="Path_3694" data-name="Path 3694" d="M169.777,149.067c-1.155,15.835-4.647,42.5-13.246,87.4l-73.85-2.217c1.938-27.509-.986-48.017-7.666-96.16A15.62,15.62,0,0,1,88.8,120.354c4.742-.493,10.127-.9,15.549-1,12.445-.232,22.64-.325,33.534,1.007,3.6.442,7.315,1.015,10.863,1.625a25.529,25.529,0,0,1,21.027,27.082" transform="translate(135.447 218.725)" fill="#007cff"/>
          <path id="Path_3695" data-name="Path 3695" d="M100.563,100.61c.174,1.472,1.087,2.569,2.04,2.453s1.584-1.4,1.41-2.87-1.09-2.568-2.042-2.454-1.582,1.4-1.407,2.871" transform="translate(181.892 179.308)" fill="#263238"/>
          <path id="Path_3696" data-name="Path 3696" d="M100.9,98.713l3.38-1.441s-1.469,2.974-3.38,1.441" transform="translate(182.553 178.468)" fill="#263238"/>
          <path id="Path_3697" data-name="Path 3697" d="M100.723,99.55s3.225,6.029,6.307,8.753c-1.708,2.043-5.076,1.613-5.076,1.613Z" transform="translate(182.235 182.647)" fill="#740606"/>
          <path id="Path_3698" data-name="Path 3698" d="M104.471,95.076a.88.88,0,0,0,.065-.859.859.859,0,0,0-1.149-.411,8.632,8.632,0,0,0-4.908,6.2.862.862,0,1,0,1.708.236,6.873,6.873,0,0,1,3.939-4.867.881.881,0,0,0,.346-.3" transform="translate(178.161 171.952)" fill="#263238"/>
          <path id="Path_3699" data-name="Path 3699" d="M82.927,117.8c3.242,17.921,4.236,25.578,14.375,33.75,15.246,12.3,36.352,4.357,38.481-14.181,1.916-16.686-3.708-43.19-22.075-48.257-18.1-4.991-34.023,10.767-30.781,28.688" transform="translate(149.273 161.783)" fill="#903c38"/>
          <path id="Path_3700" data-name="Path 3700" d="M136.293,136.47c2.995,9.848,10.127,33.657-5.633,38.958-12.327,4.145-50.926,7.461-55.371-15.358-4.6-23.6,16.254-40.4,16.254-40.4S75.023,106,85.608,91.108c13.642-19.2,46.308-8.343,56,5.221,9.428,13.185-5.318,40.14-5.318,40.14" transform="translate(135.021 148.131)" fill="#263238"/>
          <path id="Path_3701" data-name="Path 3701" d="M108.936,154.016a54.583,54.583,0,0,1-20.617-4.1c-8.768-3.81-13.883-9.7-14.8-17.026C70.426,108,93.375,94.326,93.608,94.192l.913,1.6C94.3,95.918,72.39,109,75.337,132.656c1.045,8.394,8.029,13.1,13.7,15.56,11.206,4.867,25.68,4.842,29.191,2.242l1.079,1.488c-1.826,1.352-5.68,2.069-10.375,2.069" transform="translate(132.501 172.817)" fill="#263238"/>
          <path id="Path_3702" data-name="Path 3702" d="M78.391,94.765c-.208,3.183-2.826,7.554,8.113,9.2s26.135,1.488,29.253-1.168,6.192-9-.331-8.433-36.681-5.043-37.035.4" transform="translate(141.069 169.469)" fill="#007cff"/>
          <path id="Path_3703" data-name="Path 3703" d="M95.015,107.727a14.185,14.185,0,0,0,8.374,6.9c4.762,1.406,7.206-2.877,5.933-7.447-1.146-4.113-5-9.8-9.81-9.2-4.734.59-6.635,5.65-4.5,9.749" transform="translate(170.329 179.683)" fill="#903c38"/>
          <path id="Path_3704" data-name="Path 3704" d="M140.889,262.9l17.51-.335-8.478-44.105-17.51.336Z" transform="translate(239.567 400.814)" fill="#903c38"/>
          <path id="Path_3705" data-name="Path 3705" d="M148.645,227.362c4.633,17.6,21.654,36.235,21.654,36.235L146,257.366l-10.619-15.224,1.86-4.032Z" transform="translate(244.942 417.147)" fill="#903c38"/>
          <path id="Path_3706" data-name="Path 3706" d="M133.973,232.616a36.1,36.1,0,0,0,.354,6.16c1.023,7.28,4.208,26.578,4.208,26.578l1.649.012s-1.562-12.995-1.334-17.781,3.287,3.675,6.987,8.468,10.355,9.15,21.128,9.492c12.611.395,17.639-.138,13.6-3.315s-12.636-5.253-12.636-5.253a38.387,38.387,0,0,1-17.016-14.359c-4.6-6.976-12.307-12.025-15.653-13.661-1.011.178-1.225,2.1-1.284,3.658" transform="translate(242.359 420.074)" fill="#263238"/>
          <path id="Path_3707" data-name="Path 3707" d="M169.176,236.823l22.351.7-25-37.5-15.479,13.347Z" transform="translate(273.292 366.976)" fill="#903c38"/>
          <path id="Path_3708" data-name="Path 3708" d="M159.392,207.383c16.238,7.636,42.249,6.133,42.249,6.133L180.5,230.63l-18.128-1.357-1.916-4.063Z" transform="translate(288.383 380.492)" fill="#903c38"/>
          <path id="Path_3709" data-name="Path 3709" d="M159.445,225.16a35.362,35.362,0,0,0,4.7,3.934c5.93,4.167,21.94,14.847,21.94,14.847l1.025-1.3s-10.42-7.65-13.763-11.106,4.706-.094,10.476.245,13.052-1.959,19.951-10.275c8.079-9.739,10.793-14.093,5.987-13.059s-11.625,6.437-11.625,6.437a33.764,33.764,0,0,1-20.954,3.681c-7.917-1.125-16.35,1.541-19.609,3.073-.494.927.778,2.413,1.871,3.524" transform="translate(284.894 382.163)" fill="#263238"/>
          <path id="Path_3710" data-name="Path 3710" d="M128.48,163.433s119.557-17.845,131.934,13.079c21.536,53.8,51.946,115.453,51.946,115.453l-14.684,12.258s-52.126-48.692-70.67-102.748c-22.151,7.232-92.622,30.5-118.433,30.5-27.567,0-38.827-23.718-28.871-63.1a7.856,7.856,0,0,1,7.65-5.925c17.356.085,41.128.482,41.128.482" transform="translate(137.743 290.455)" fill="#263238"/>
          <path id="Path_3711" data-name="Path 3711" d="M133.885,176.418s98.122-2.98,98.951,32.1c1.371,58.009,17.572,141.133,17.572,141.133l-17.9,1.68S203.246,285.207,195.5,228.546c-34.953,2.286-67.175.708-92.987.708-28.927,0-31.318-32.056-3.163-69.46,17.212,0,34.532,16.624,34.532,16.624" transform="translate(143.799 293.179)" fill="#263238"/>
          <path id="Path_3712" data-name="Path 3712" d="M78.684,158.579,76.6,165.192c-.275.511.317,1.055,1.171,1.08l76,2.282c.666.02,1.228-.293,1.281-.715l.862-6.65c.062-.46-.506-.868-1.233-.89L79.9,158.054a1.341,1.341,0,0,0-1.219.526" transform="translate(138.466 289.986)" fill="#fff"/>
          <path id="Path_3713" data-name="Path 3713" d="M82.5,167.547l-2-.06c-.4-.011-.7-.228-.66-.481l1.194-8.637c.034-.253.39-.451.789-.44l2,.062c.4.011.7.228.663.479l-1.194,8.642c-.036.252-.39.448-.789.436" transform="translate(144.445 289.758)" fill="#263238"/>
          <path id="Path_3714" data-name="Path 3714" d="M103.734,168.178l-2-.06c-.4-.011-.7-.23-.66-.482L102.265,159c.034-.252.391-.451.789-.439l2,.062c.4.011.7.227.66.479l-1.194,8.642c-.037.251-.39.448-.789.436" transform="translate(182.859 290.916)" fill="#263238"/>
          <path id="Path_3715" data-name="Path 3715" d="M93.118,167.861l-2-.059c-.4-.012-.7-.23-.66-.482l1.194-8.638c.034-.252.39-.45.789-.438l2,.062c.4.011.7.224.66.479l-1.194,8.639c-.037.253-.391.448-.789.437" transform="translate(163.652 290.335)" fill="#263238"/>
          <path id="Path_3716" data-name="Path 3716" d="M136.761,132.081H184.5a2.3,2.3,0,0,1,2.194,2.954l-17.836,61.778a2.289,2.289,0,0,1-2.2,1.659H118.925a2.3,2.3,0,0,1-2.2-2.952l17.836-61.778a2.294,2.294,0,0,1,2.2-1.662" transform="translate(211.024 242.333)" fill="#007cff"/>
          <path id="Path_3717" data-name="Path 3717" d="M135.911,132.881l46.4,1.112-18.322,58.268-46.392-1.111Z" transform="translate(212.755 243.801)" fill="#e0e0e0"/>
          <path id="Path_3718" data-name="Path 3718" d="M134.662,132.68l46.406.2-17.187,58.616-46.406-.2Z" transform="translate(212.544 243.429)" fill="#fff"/>
          <path id="Path_3719" data-name="Path 3719" d="M120.515,133.107c.09,1.857.264,4.166.433,6.275q.282,3.238.705,6.461c.528,4.3,1.236,8.559,2.11,12.719a92.692,92.692,0,0,0,3.368,12,58.711,58.711,0,0,0,2.3,5.473c.41.888.868,1.709,1.326,2.528l.688,1.172c-.056-.079-.138-.082-.076-.014a8.463,8.463,0,0,0,3.006,1.775,35.829,35.829,0,0,0,5.436,1.641,103.677,103.677,0,0,0,12.622,1.967c8.711.857,17.814,1.283,26.736,1.467l.9,9.125a169.292,169.292,0,0,1-28.129,3.208,99.635,99.635,0,0,1-14.707-.611,51.393,51.393,0,0,1-7.9-1.609,23.444,23.444,0,0,1-9.026-4.7,15.732,15.732,0,0,1-2.365-2.583l-1.219-1.71c-.759-1.131-1.511-2.274-2.169-3.43A59.776,59.776,0,0,1,111,177.215a92.774,92.774,0,0,1-4.874-14.4,125.114,125.114,0,0,1-2.809-14.539c-.315-2.435-.573-4.867-.778-7.312-.214-2.492-.343-4.792-.368-7.554Z" transform="translate(184.853 244.215)" fill="#903c38"/>
          <path id="Path_3720" data-name="Path 3720" d="M121.893,124.3c11.878,11.288,9.018,40.708,9.018,40.708l-22.769,4.014s-14.055-21.09-9.11-29.935c5.141-9.208,16.431-20.893,22.862-14.787" transform="translate(177.266 224.947)" fill="#007cff"/>
          <path id="Path_3721" data-name="Path 3721" d="M111.339,141.823a2.612,2.612,0,0,1-1.812-.763,2.263,2.263,0,0,1-.32-.4,2.939,2.939,0,0,1-.228-.436,3.692,3.692,0,0,1-.149-.5,3.865,3.865,0,0,1-.039-.5,2.6,2.6,0,0,1,.736-1.825,3.325,3.325,0,0,1,.4-.326,1.907,1.907,0,0,1,.433-.227,2.555,2.555,0,0,1,.492-.154,2.571,2.571,0,0,1,3.057,2.532,2.148,2.148,0,0,1-.056.5,2.222,2.222,0,0,1-.149.5,2.026,2.026,0,0,1-.228.436,2.267,2.267,0,0,1-.32.4,2.582,2.582,0,0,1-1.812.763" transform="translate(196.832 250.719)" fill="#fff"/>
          <path id="Path_3722" data-name="Path 3722" d="M102.343,142.332a2.575,2.575,0,0,1,2.337-2.8,2.524,2.524,0,0,1,2.4,1.215,2.543,2.543,0,0,1,4.529-.662,2.541,2.541,0,0,1,4.47-.917,2.6,2.6,0,0,1,1.851-1.981v.022a2.542,2.542,0,0,1,3.132,1.827,2.593,2.593,0,0,1-1.832,3.16,2.565,2.565,0,0,1-2.66-.9,2.549,2.549,0,0,1-4.6.937,2.545,2.545,0,0,1-4.641.686,2.587,2.587,0,0,1-2.208,1.747h-.208a2.586,2.586,0,0,1-2.565-2.341" transform="translate(185.149 251.579)" fill="#fff"/>
          <path id="Path_3723" data-name="Path 3723" d="M103.25,143.242a2.3,2.3,0,0,1-.509-.058,3.88,3.88,0,0,1-.472-.151,3.306,3.306,0,0,1-.452-.232,3.225,3.225,0,0,1-.379-.322,1.882,1.882,0,0,1-.32-.4,3.52,3.52,0,0,1-.244-.44,2.473,2.473,0,0,1-.132-.493,2.164,2.164,0,0,1-.056-.5,2.448,2.448,0,0,1,.056-.512,2.283,2.283,0,0,1,.132-.476c.076-.154.152-.306.244-.457a2.12,2.12,0,0,1,.32-.38,3.268,3.268,0,0,1,.379-.326,2.2,2.2,0,0,1,.452-.227,1.976,1.976,0,0,1,.472-.154,2.513,2.513,0,0,1,2.3.707,1.915,1.915,0,0,1,.32.38,4.87,4.87,0,0,1,.247.457,4.274,4.274,0,0,1,.149.476,4.5,4.5,0,0,1,.039.512,3.9,3.9,0,0,1-.039.5,4.711,4.711,0,0,1-.149.493,3.2,3.2,0,0,1-.247.44,2.251,2.251,0,0,1-.32.4,2.565,2.565,0,0,1-1.792.762" transform="translate(182.166 253.316)" fill="#fff"/>
          <path id="Path_3724" data-name="Path 3724" d="M155.192,148.971l-7.877-.536a8.834,8.834,0,0,0-5.557,1.5l-14.473,9.811-.11,6.184c4.638,5.443,14.909.57,14.909.57l9.526-.307a3.815,3.815,0,0,0,3.458-2.529l3.447-9.541a3.842,3.842,0,0,0-3.323-5.153" transform="translate(230.094 272.3)" fill="#903c38"/>
          <path id="Path_3725" data-name="Path 3725" d="M80.082,304.931H82.22a1.863,1.863,0,0,0,1.691-1.753l13.133-92.22H87.071L78.377,302.57a2,2,0,0,0,1.705,2.361" transform="translate(141.783 387.049)" fill="#007cff"/>
          <g id="Group_1361" data-name="Group 1361" transform="translate(220.147 598.007)" opacity="0.3">
            <g id="Group_1360" data-name="Group 1360">
              <g id="Group_1359" data-name="Group 1359" clip-path="url(#clip-path-17)">
                <path id="Path_3726" data-name="Path 3726" d="M80.082,304.931H82.22a1.863,1.863,0,0,0,1.691-1.753l13.133-92.22H87.071L78.377,302.57a2,2,0,0,0,1.705,2.361" transform="translate(-78.364 -210.958)"/>
              </g>
            </g>
          </g>
          <path id="Path_3727" data-name="Path 3727" d="M70.343,304.931h2.138a1.863,1.863,0,0,0,1.691-1.753l13.133-92.22H77.333L68.638,302.57a2,2,0,0,0,1.705,2.361" transform="translate(124.162 387.049)" fill="#007cff"/>
          <g id="Group_1364" data-name="Group 1364" transform="translate(192.787 598.007)" opacity="0.3">
            <g id="Group_1363" data-name="Group 1363">
              <g id="Group_1362" data-name="Group 1362" clip-path="url(#clip-path-17)">
                <path id="Path_3728" data-name="Path 3728" d="M70.343,304.931h2.138a1.863,1.863,0,0,0,1.691-1.753l13.133-92.22H77.333L68.638,302.57a2,2,0,0,0,1.705,2.361" transform="translate(-68.625 -210.958)"/>
              </g>
            </g>
          </g>
          <path id="Path_3729" data-name="Path 3729" d="M134.428,304.931h-2.138a1.863,1.863,0,0,1-1.691-1.753l-13.133-92.22h9.973l8.695,91.612a2,2,0,0,1-1.705,2.361" transform="translate(212.527 387.049)" fill="#007cff"/>
          <g id="Group_1367" data-name="Group 1367" transform="translate(329.993 598.007)" opacity="0.3">
            <g id="Group_1366" data-name="Group 1366">
              <g id="Group_1365" data-name="Group 1365" clip-path="url(#clip-path-19)">
                <path id="Path_3730" data-name="Path 3730" d="M134.428,304.931h-2.138a1.863,1.863,0,0,1-1.691-1.753l-13.133-92.22h9.973l8.695,91.612a2,2,0,0,1-1.705,2.361" transform="translate(-117.466 -210.958)"/>
              </g>
            </g>
          </g>
          <path id="Path_3731" data-name="Path 3731" d="M144.167,304.931H142.03a1.863,1.863,0,0,1-1.691-1.753l-13.133-92.22h9.973l8.695,91.612a2,2,0,0,1-1.705,2.361" transform="translate(230.148 387.049)" fill="#007cff"/>
          <g id="Group_1370" data-name="Group 1370" transform="translate(357.353 598.007)" opacity="0.3">
            <g id="Group_1369" data-name="Group 1369">
              <g id="Group_1368" data-name="Group 1368" clip-path="url(#clip-path-20)">
                <path id="Path_3732" data-name="Path 3732" d="M144.167,304.931H142.03a1.863,1.863,0,0,1-1.691-1.753l-13.133-92.22h9.973l8.695,91.612a2,2,0,0,1-1.705,2.361" transform="translate(-127.205 -210.958)"/>
              </g>
            </g>
          </g>
          <path id="Path_3733" data-name="Path 3733" d="M310.536,220.745H243.363c-11.914-41.762-54.795-74.707-98.712-74.707H122.835c-45.965,0-75.625,36.092-66.257,80.612a90.93,90.93,0,0,0,8.549,23.489L75.72,314.927c1.368,8.362,7.978,15.14,14.766,15.14H292.66c6.787,0,13.4-6.778,14.765-15.14l12.923-79.042c1.368-8.361-3.026-15.14-9.813-15.14" transform="translate(99.238 267.94)" fill="#007cff"/>
          <g id="Group_1373" data-name="Group 1373" transform="translate(154.089 413.978)" opacity="0.5">
            <g id="Group_1372" data-name="Group 1372">
              <g id="Group_1371" data-name="Group 1371" clip-path="url(#clip-path-21)">
                <path id="Path_3734" data-name="Path 3734" d="M310.536,220.745H243.363c-11.914-41.762-54.795-74.707-98.712-74.707H122.835c-45.965,0-75.625,36.092-66.257,80.612a90.93,90.93,0,0,0,8.549,23.489L75.72,314.927c1.368,8.362,7.978,15.14,14.766,15.14H292.66c6.787,0,13.4-6.778,14.765-15.14l12.923-79.042c1.368-8.361-3.026-15.14-9.813-15.14" transform="translate(-54.851 -146.038)" fill="#fff"/>
              </g>
            </g>
          </g>
          <rect id="Rectangle_651" data-name="Rectangle 651" width="15.409" height="1.905" transform="translate(385.597 185.048)" fill="#007cff"/>
          <path id="Path_3735" data-name="Path 3735" d="M118.3,87.716h-1.888V78.35a13.027,13.027,0,0,1,12.954-13.071h34.4v1.9h-34.4A11.129,11.129,0,0,0,118.3,78.35Z" transform="translate(210.615 119.769)" fill="#007cff"/>
          <path id="Path_3736" data-name="Path 3736" d="M294.03,148.513H128.213a9.5,9.5,0,0,1-9.453-9.538V77.169a9.494,9.494,0,0,1,9.453-9.538H294.03a9.5,9.5,0,0,1,9.453,9.538v61.806a9.5,9.5,0,0,1-9.453,9.538" transform="translate(214.869 124.082)" fill="#007cff"/>
          <path id="Path_3737" data-name="Path 3737" d="M282.419,88.988H126.661a4.305,4.305,0,0,1,0-8.61H282.419a4.305,4.305,0,0,1,0,8.61" transform="translate(221.449 147.472)" fill="#fff"/>
          <path id="Path_3738" data-name="Path 3738" d="M249.087,95.294H126.664a4.305,4.305,0,0,1,0-8.61H249.087a4.305,4.305,0,0,1,0,8.61" transform="translate(221.449 159.042)" fill="#fff"/>
          <path id="Path_3739" data-name="Path 3739" d="M179.189,82.681H126.664a4.305,4.305,0,0,1,0-8.61h52.525a4.305,4.305,0,0,1,0,8.61" transform="translate(221.449 135.9)" fill="#fff"/>
          <path id="Path_3740" data-name="Path 3740" d="M203.974,82.681H151.449a4.305,4.305,0,0,1,0-8.61h52.525a4.305,4.305,0,0,1,0,8.61" transform="translate(266.292 135.9)" fill="#fff"/>
          <path id="Path_3741" data-name="Path 3741" d="M122.4,94.381V115a4.73,4.73,0,0,0,7.63,3.776l31.321-24.461Z" transform="translate(221.449 173.049)" fill="#007cff"/>
          <path id="Path_3742" data-name="Path 3742" d="M331.691,31.6H159.666a6.378,6.378,0,0,0-6.349,6.406v68.071a6.377,6.377,0,0,0,6.349,6.406h135.9l24.632,19.236a4.73,4.73,0,0,0,7.63-3.776v-15.46h3.868a6.377,6.377,0,0,0,6.349-6.406V38.008a6.378,6.378,0,0,0-6.349-6.406" transform="translate(277.392 57.979)" fill="#fff"/>
          <path id="Path_3743" data-name="Path 3743" d="M323.692,134.3a5.614,5.614,0,0,1-3.467-1.2l-24.379-19.035H160.274a7.336,7.336,0,0,1-7.293-7.359V38.624a7.336,7.336,0,0,1,7.293-7.359H332.3a7.336,7.336,0,0,1,7.293,7.359V106.7a7.336,7.336,0,0,1-7.293,7.359h-2.924v14.505A5.7,5.7,0,0,1,326.2,133.7a5.629,5.629,0,0,1-2.506.592M160.274,33.17a5.435,5.435,0,0,0-5.4,5.454V106.7a5.436,5.436,0,0,0,5.4,5.454H296.492l24.884,19.435a3.687,3.687,0,0,0,3.989.411,3.756,3.756,0,0,0,2.121-3.436v-16.41H332.3a5.436,5.436,0,0,0,5.4-5.454V38.624a5.435,5.435,0,0,0-5.4-5.454Z" transform="translate(276.784 57.363)" fill="#007cff"/>
          <path id="Path_3744" data-name="Path 3744" d="M187.634,52.958h81.553a4.3,4.3,0,0,0,0-8.609H187.634a4.3,4.3,0,0,0,0,8.609" transform="translate(331.76 81.368)" fill="#007cff"/>
          <path id="Path_3745" data-name="Path 3745" d="M167.364,52.958h40.378a4.3,4.3,0,0,0,0-8.609H167.364a4.3,4.3,0,0,0,0,8.609" transform="translate(295.092 81.368)" fill="#007cff"/>
          <path id="Path_3746" data-name="Path 3746" d="M173.084,59.265H295.507a4.3,4.3,0,0,0,0-8.609H173.084a4.283,4.283,0,0,0-4.264,4.3v0a4.284,4.284,0,0,0,4.264,4.3" transform="translate(305.441 92.94)" fill="#007cff"/>
          <path id="Path_3747" data-name="Path 3747" d="M161.22,46.652H316.977a4.3,4.3,0,0,0,0-8.609H161.22a4.3,4.3,0,0,0,0,8.609" transform="translate(283.974 69.799)" fill="#007cff"/>
        </g>
      </g>
    </g>
  </g>
</svg>
