<svg xmlns="http://www.w3.org/2000/svg" xmlns:xlink="http://www.w3.org/1999/xlink" width="699.997" height="502.463" viewBox="0 0 699.997 502.463">
  <defs>
    <clipPath id="clip-path">
      <rect id="Rectangle_566" data-name="Rectangle 566" width="699.997" height="499.756" fill="none"/>
    </clipPath>
  </defs>
  <g id="servicesImage4Big" transform="translate(0 -32.937)">
    <path id="Path_3483" data-name="Path 3483" d="M123.4,46.522l-5.352,1.642-3.592-8.318-8.12,1.436L102.623,35.5l-2.929,1.875,4.958,7.74,7.7-1.363,3.736,8.654,8.054-2.471Z" transform="translate(142.209 -2.56)" fill="#50bfa5"/>
    <path id="Path_3484" data-name="Path 3484" d="M268.691,173.2l-5.352,1.642-3.592-8.319-8.12,1.436-3.708-5.784-2.929,1.875,4.958,7.74,7.7-1.363,3.736,8.654,8.054-2.471Z" transform="translate(351.623 169.954)" fill="#50bfa5"/>
    <g id="Group_1290" data-name="Group 1290" transform="translate(0 35.643)">
      <g id="Group_1289" data-name="Group 1289" clip-path="url(#clip-path)">
        <path id="Path_3485" data-name="Path 3485" d="M114.5,337.849S85.2,241.064,82.845,219.715,96.883,204.98,96.883,204.98,83.094,164.3,93.065,154.644s18.962,8.342,18.962,8.342,3.018-49.382,13.648-49.4c19.8-.035,19.408,53.858,19.408,53.858s5.052-21.1,15.653-15.314c15.987,8.722-6.938,51-6.938,51s20.37.014,27.526,10.024C194.161,231.111,114.5,337.849,114.5,337.849" transform="translate(117.653 154.687)" fill="#50bfa5"/>
        <path id="Path_3486" data-name="Path 3486" d="M189.032,285.227s-84.488-13.765-102.866-28.352-.189-21.162-.189-21.162-42.444-21.2-41.952-35.615S65.6,193.013,65.6,193.013s-35.763-39.734-27.3-47.277C54.076,131.68,95.42,172.982,95.42,172.982s-12.276-19.641.652-22.749c19.5-4.688,33.889,43.744,33.889,43.744S126.3,174.85,139.75,177.4c24.12,4.57,49.283,107.829,49.283,107.829" transform="translate(52.707 194.499)" fill="#50bfa5"/>
        <path id="Path_3487" data-name="Path 3487" d="M138.987,177.4c-13.478-2.374-9.789,16.578-9.789,16.578s-14.39-48.432-33.887-43.744c-12.93,3.108-.652,22.749-.652,22.749s-41.346-41.3-57.115-27.247L187.986,285.25c-2.679-13.326-26.4-103.872-49-107.852" transform="translate(53.468 194.499)" fill="#3c8f7c"/>
        <path id="Path_3488" data-name="Path 3488" d="M216.722,247.056s-44.495-44.087-66.9-48.678-18.377,10.942-18.377,10.942-44.456-37.88-54.759-28.7.841,18.038.841,18.038S40.5,192.263,35.2,204.1C27.05,222.3,87.952,232.2,87.952,232.2s-25.521,1.724-19.6,13.132c8.926,17.2,148.374,1.727,148.374,1.727" transform="translate(49.055 244.025)" fill="#355389"/>
        <path id="Path_3489" data-name="Path 3489" d="M34.755,204.212c5.3-11.84,42.328-5.446,42.328-5.446s-11.144-8.862-.841-18.038,53.377,23.548,53.377,23.548-10.155-18.914,12.252-14.322,74.411,57.211,74.411,57.211Z" transform="translate(49.496 243.916)" fill="#466eb6"/>
        <path id="Path_3490" data-name="Path 3490" d="M147.208,15.542c-14.976,2.4-19.425,21.554-6.974,30.121a11.121,11.121,0,0,1,4.443,6.441l2.267,8.909a4.981,4.981,0,0,0,5.641,3.621l5.675-.909a4.876,4.876,0,0,0,4.153-5.191c-.785-9.2-1.76-12.534,1.309-16.637,8.974-12-1.532-28.756-16.513-26.354" transform="translate(189.405 20.85)" fill="#f7cc7f"/>
        <path id="Path_3491" data-name="Path 3491" d="M144.318,48.086c-.974-7.879-2.344-16.2-2.81-18.557-8.584.461-5.321-8.356-1.36-4.771a7.233,7.233,0,0,1,2.014,3.925,22.655,22.655,0,0,0,8.179-2.322c-.136-1.944-.335-3.415.223-4.66.841-1.878,3.285-2.39,4.279-.56a2.855,2.855,0,0,1,.167,2.3c-.575,1.554-2.308,2.579-3.818,3.385.451,6.264,1.079,12.577,1.864,18.793l-.81.1c-.776-6.117-1.394-12.327-1.842-18.491a23.5,23.5,0,0,1-8.077,2.244c.587,3.016,1.886,11.127,2.8,18.524ZM137.431,27.67c.764.8,2.041,1.153,3.908,1.07a6.416,6.416,0,0,0-1.745-3.4c-2.133-1.93-3.442.985-2.162,2.329m13.883-5.65c-.468,1.046-.291,2.383-.182,3.923,1.224-.68,2.65-1.53,3.113-2.778a1.789,1.789,0,0,0-.955-2.336c-.1-.024-1.648.458-1.976,1.19" transform="translate(193.821 27.241)" fill="#fae0b2"/>
        <path id="Path_3492" data-name="Path 3492" d="M137.788,32.367c.019.076.048.149.065.22L140.12,41.5a4.98,4.98,0,0,0,5.643,3.621l5.672-.912a4.88,4.88,0,0,0,4.155-5.191c-.352-4.088-.737-7.019-.788-9.377Z" transform="translate(196.228 40.364)" fill="#96d9c9"/>
        <path id="Path_3493" data-name="Path 3493" d="M137.028,18.542l-4.477-7.964a1.571,1.571,0,0,1,.647-2.161,1.657,1.657,0,0,1,2.218.631l4.477,7.967a1.569,1.569,0,0,1-.647,2.159,1.655,1.655,0,0,1-2.218-.631" transform="translate(188.482 11.196)" fill="#fae0b2"/>
        <path id="Path_3494" data-name="Path 3494" d="M136.853,23.061l-9.762-.831a1.606,1.606,0,0,1-1.486-1.724,1.625,1.625,0,0,1,1.77-1.448l9.762.831a1.593,1.593,0,1,1-.284,3.172" transform="translate(178.869 25.946)" fill="#fae0b2"/>
        <path id="Path_3495" data-name="Path 3495" d="M126.525,38.142a1.562,1.562,0,0,1,.015-2.251,53.029,53.029,0,0,1,7.845-6.233,1.657,1.657,0,0,1,2.264.439A1.563,1.563,0,0,1,136.2,32.3a49.778,49.778,0,0,0-7.362,5.853,1.665,1.665,0,0,1-2.31-.014" transform="translate(179.516 40.024)" fill="#fae0b2"/>
        <path id="Path_3496" data-name="Path 3496" d="M144.943,21.527a1.586,1.586,0,0,1-1.156-1.949A59.338,59.338,0,0,0,145.8,7.221a1.633,1.633,0,0,1,3.26.17A62.123,62.123,0,0,1,146.942,20.4a1.638,1.638,0,0,1-2,1.127" transform="translate(204.69 7.782)" fill="#fae0b2"/>
        <path id="Path_3497" data-name="Path 3497" d="M148.418,20.488a1.587,1.587,0,0,1,1.093-1.984l10.147-2.981a1.643,1.643,0,0,1,2.036,1.065,1.586,1.586,0,0,1-1.093,1.984l-10.147,2.981a1.643,1.643,0,0,1-2.036-1.065" transform="translate(211.267 21.048)" fill="#fae0b2"/>
        <path id="Path_3498" data-name="Path 3498" d="M161.995,32.778a1.7,1.7,0,0,1-.444-.059,52.161,52.161,0,0,1-10.162-3.97,1.57,1.57,0,0,1-.676-2.152,1.654,1.654,0,0,1,2.208-.659,48.639,48.639,0,0,0,9.515,3.715,1.587,1.587,0,0,1,1.13,1.963,1.626,1.626,0,0,1-1.571,1.162" transform="translate(214.361 35.069)" fill="#fae0b2"/>
        <path id="Path_3499" data-name="Path 3499" d="M228,81.871l-5.12-11.8L210,67.5a1.746,1.746,0,0,1-.819-3.054l9.932-8.392-1.462-12.728a1.8,1.8,0,0,1,2.727-1.7l11.26,6.611,11.973-5.288a1.793,1.793,0,0,1,2.507,2l-2.977,12.478L252,66.88a1.752,1.752,0,0,1-1.178,2.941l-13.1,1.1-6.5,11.136A1.827,1.827,0,0,1,228,81.871" transform="translate(297.013 56.331)" fill="#f7cc7f"/>
        <path id="Path_3500" data-name="Path 3500" d="M268.672,41.376l-2.1,8.259L252.554,47.8l-4.606,11.705-10.717.3.158,5.286,14.331-.4L256.086,53.6,270.663,55.5l3.168-12.426Z" transform="translate(337.848 56.349)" fill="#f48c7f"/>
        <path id="Path_3501" data-name="Path 3501" d="M353.416,234.751H107.1a17.125,17.125,0,0,1-17.034-17.216V207.3A17.127,17.127,0,0,1,107.1,190.083H353.416a33.339,33.339,0,0,0-.453,44.146Z" transform="translate(128.259 258.867)" fill="#b75742"/>
        <path id="Path_3502" data-name="Path 3502" d="M287.4,192.251H150.779a17.217,17.217,0,0,0,0,34.431H287.413a33.4,33.4,0,0,1-.012-34.431" transform="translate(190.47 261.82)" fill="#fae0b2"/>
        <path id="Path_3503" data-name="Path 3503" d="M251.037,177.764a1,1,0,0,0-1.018-1.412H119.683c-10.213,0-18.5,7.263-18.5,16.221s8.283,16.219,18.5,16.219H250.055a1,1,0,0,0,1.018-1.42,30.37,30.37,0,0,1-.036-29.608" transform="translate(144.104 240.168)" fill="#86b1f2"/>
        <path id="Path_3504" data-name="Path 3504" d="M213.365,177.63h-64.6c-11.99,0-21.708,6.084-21.708,13.593s9.718,13.59,21.708,13.59h65.02a30.3,30.3,0,0,1-.424-27.183" transform="translate(180.952 241.908)" fill="#f7cc7f"/>
        <path id="Path_3505" data-name="Path 3505" d="M162.649,180.358h-8.412c-1.811,0-3.277.593-3.277,1.323v.118h11.689Z" transform="translate(214.987 245.623)" fill="#b75742"/>
        <path id="Path_3506" data-name="Path 3506" d="M167.968,183.673c0-1.83-2.2-3.316-4.906-3.316h-10.8c2.056,0,3.723,1.127,3.723,2.515l-.053,35.537,5.966-4.57,6.08,4.57Z" transform="translate(216.844 245.622)" fill="#f47458"/>
        <path id="Path_3507" data-name="Path 3507" d="M204.823,192.095H128.986c-6.725,0-12.176-6.3-12.176-14.081s5.452-14.081,12.176-14.081h75.837a24.242,24.242,0,0,0-.541,27.362Z" transform="translate(166.353 223.253)" fill="#fae0b2"/>
        <path id="Path_3508" data-name="Path 3508" d="M144.092,178.855h0c0-7.778,5.58-14.081,12.465-14.081h76.986a.734.734,0,0,0,0-1.457H111.415c-7.6,0-13.757,6.956-13.757,15.539s6.16,15.541,13.757,15.541H233.543a.735.735,0,0,0,0-1.46H156.557c-6.885,0-12.465-6.3-12.465-14.081" transform="translate(139.078 222.414)" fill="#466eb6"/>
        <path id="Path_3509" data-name="Path 3509" d="M154.522,166.863H146.11c-1.811,0-3.277.581-3.277,1.3v.116h11.689Z" transform="translate(203.413 227.245)" fill="#184655"/>
        <path id="Path_3510" data-name="Path 3510" d="M159.841,170.114c0-1.8-2.2-3.252-4.906-3.252h-10.8c2.056,0,3.723,1.105,3.723,2.466l-.053,34.852,5.966-4.483,6.08,4.483Z" transform="translate(205.27 227.243)" fill="#3c8f7c"/>
        <path id="Path_3511" data-name="Path 3511" d="M208.734,77.375l11.195-2.87-7.588,98.608-13.432.435,6.775-92.59a4.027,4.027,0,0,1,3.05-3.583" transform="translate(283.272 101.466)" fill="#184655"/>
        <path id="Path_3512" data-name="Path 3512" d="M207.485,175.946a3.787,3.787,0,0,1-.766-.012,4.392,4.392,0,0,1-3.677-4.811L210.493,78.4a4.043,4.043,0,0,1,4.376-3.885,4.4,4.4,0,0,1,3.677,4.813l-7.452,92.72a4.115,4.115,0,0,1-3.61,3.9" transform="translate(289.135 101.446)" fill="#f7cc7f"/>
        <path id="Path_3513" data-name="Path 3513" d="M162.359,125.054c0,.069.007.137.014.205.352,3.772,3.35,6.592,6.7,6.3l94.548-8.245c3.35-.293,5.782-3.588,5.43-7.36-.014-.161-.036-.316-.061-.472Z" transform="translate(231.22 157.274)" fill="#f7cc7f"/>
        <path id="Path_3514" data-name="Path 3514" d="M216.723,163.464c-6.191,3.344-25.116-2.52-25.116-3.052-.271,5.04-21.189,54.363-21.189,54.363l.017,15.175s43.1,2,42.483-1.71-2.938-1.3-11.536-8.307c-.764-.621-12.836-3.351-9.568-10.314,6.579-14.022,20.554-37.4,24.91-46.156" transform="translate(242.696 218.459)" fill="#f7a491"/>
        <path id="Path_3515" data-name="Path 3515" d="M170.623,199.169l47.183.012c1.7-.168,2.1-1.516,1.5-2.338-1.239-1.689-10.281-5.673-16.36-8.316-10.589,1.2-29.2-2.763-30.9-5.116-4.482,5.85-2.371,15.567-1.421,15.758" transform="translate(241.089 249.781)" fill="#3c8f7c"/>
        <path id="Path_3516" data-name="Path 3516" d="M165.664,176.079c-.638-1.866,40.624-18.926,42.471-16.977,3.268,3.448-22.324,68.173-22.324,68.173l29.4,8.753s30.568-74.777,29.293-88.454-16.591-29.219-49.77-19.27-29.073,47.776-29.073,47.776" transform="translate(235.697 170.433)" fill="#355389"/>
        <path id="Path_3517" data-name="Path 3517" d="M217.759,166.292c-6.965-1.235-15.994-1.587-23.221-1.71.851,6.271,4.989,38.42,4.233,40.4a24.35,24.35,0,0,1-9.859,11.748s32.04,28.165,33.974,24.913-1.428-2.818-3.52-13.55c-.187-.952-4.817-15.933-5.105-24.011-.548-15.411,3.258-29.228,3.5-37.785" transform="translate(269.035 224.138)" fill="#f7a491"/>
        <path id="Path_3518" data-name="Path 3518" d="M296.823,121.963c-4.47-2.324-16.074-2.4-28.833-1.6A299.485,299.485,0,0,0,194.9,134.342l-15.837,5.111.053-15.82s-50.373-8.21-52.126,3.954c-2.64,18.319.635,55.506,17.42,63.806C196.54,217.175,269.6,150.32,269.86,159.066c.356,11.748,10.521,55.461,13.117,74.6,7.229.12,19.645.116,25.032-1.089,1.047-37.492,1.539-104-11.185-110.616" transform="translate(179.69 163.291)" fill="#466eb6"/>
        <path id="Path_3519" data-name="Path 3519" d="M188.53,194.137l36.015,28.031c1.428.921,2.613.125,2.681-.881.141-2.074-4.262-10.739-7.246-16.535-8.972-5.607-20.8-20.227-20.6-23.1-3.794,3.125-11.469,11.75-10.855,12.485" transform="translate(268.443 247.385)" fill="#3c8f7c"/>
        <path id="Path_3520" data-name="Path 3520" d="M225.841,76.481c-1.21-10.775-2.485-21.59-11.653-29.49-7.418-6.389-16.853-7.473-26.178-4.053C161.58,52.626,175.2,75.494,141.5,98.553c-10.472,7.164-22.014,12.067-29.9,21.715-11.035,13.505-6.868,29.745,3.19,40.591,48.121,51.89,101.845-18.189,105.7-35.01,2.87-12.513,6.126-42.429,5.348-49.368" transform="translate(149.608 55.88)" fill="#13375b"/>
        <path id="Path_3521" data-name="Path 3521" d="M186.534,95.13a143.071,143.071,0,0,0-7.98-12.664c-4.077-7.062-14.61-10.633-14.61-10.633s-3.525.071-7.571.265a3.092,3.092,0,0,1-.764,1.308c-1.52,1.11-10.232-.324-15.861,3.4-18.865,15.756-13.648,92.125-12.164,116.246l57.454.531s-7.243-51.9,4.429-65.235c8.131-9.287,2.9-22.745-2.933-33.217" transform="translate(179.144 97.827)" fill="#04b5ff"/>
        <path id="Path_3522" data-name="Path 3522" d="M143.45,62.451s-3.159,21.975-5.365,27.315,12.128,16.762,24.055,20.227-3.643-11.8-3.149-17.5,2.662-32.738,2.662-32.738Z" transform="translate(196.329 81.373)" fill="#f7a491"/>
        <path id="Path_3523" data-name="Path 3523" d="M158.333,67.5c.349-4.471.6-7.752.6-7.752l-18.2,2.7s-.461,2.582-.967,6.233c7.379,4.171,14.014,2.853,18.566-1.181" transform="translate(199.046 81.373)" fill="#f47458"/>
        <path id="Path_3524" data-name="Path 3524" d="M151.486,44.013a20.72,20.72,0,0,0-11.6,8.163c-4.431,6.59-7.471,25.978,7.122,35.029s25.936-3.751,26.125-16.238-2.557-29.155-21.643-26.954" transform="translate(194.001 59.671)" fill="#f7a491"/>
        <path id="Path_3525" data-name="Path 3525" d="M157.072,57.626c-1.246,3.014-3.714,4.884-5.517,4.178s-2.252-3.722-1.006-6.736,3.714-4.884,5.515-4.178,2.252,3.722,1.008,6.736" transform="translate(213.398 69.102)" fill="#f7a491"/>
        <path id="Path_3526" data-name="Path 3526" d="M158.155,43.727S149.009,63.716,140.973,65.5s-7.92,11.845-7.92,11.845.179-23.229,7.711-28.555,17.391-5.064,17.391-5.064" transform="translate(189.485 59.548)" fill="#13375b"/>
        <path id="Path_3527" data-name="Path 3527" d="M142.68,57.445c1.057,3.245.09,6.443-2.162,7.14s-4.936-1.37-5.992-4.617-.09-6.443,2.162-7.14,4.936,1.372,5.992,4.617" transform="translate(190.97 71.761)" fill="#f7a491"/>
        <path id="Path_3528" data-name="Path 3528" d="M249.288,151.39c-3.447-1.214-8.579-1.365-8.492-1.809.344-1.795,15.573,3.961,13.517,1.344-1.147-1.457-12.542-6.623-15.313-5.77-2.688.827-20.338,5.652-20.338,5.652l-48.235-11.013s-12.176-26.958-13.364-50.116A67.443,67.443,0,0,0,131.4,98.156c4.218,22.147,14.472,58.048,25.8,64.786,4.768,2.834,61.7-3.392,61.7-3.392s12.545-.864,14.6-1.632c1.554-.583,5.556-2.78,7.735-3.38,4.95-1.368,13.767,2.062,13.8,1.117.019-.687-2.218-3.026-5.74-4.266" transform="translate(187.128 122.128)" fill="#f7a491"/>
        <path id="Path_3529" data-name="Path 3529" d="M160.289,88.867c-.463-7.126-3.234-14.008-11.018-16.224a16.076,16.076,0,0,0-14.089,3.009c-4.584,3.649-5.864,9.5-5.845,15.043a209.713,209.713,0,0,0,3.287,38.009c8.749-4.731,18.959-7.572,29.024-8.9,0-.073-.747-21.519-1.36-30.938" transform="translate(184.194 98.192)" fill="#96d9c9"/>
        <path id="Path_3530" data-name="Path 3530" d="M125.715,124.061,50.933,110.495a2.7,2.7,0,0,1-2.213-3.144l9.367-49.016a2.761,2.761,0,0,1,3.227-2.156L136.1,69.745a2.7,2.7,0,0,1,2.213,3.144L128.942,121.9a2.763,2.763,0,0,1-3.227,2.156" transform="translate(69.316 76.445)" fill="#f7cc7f"/>
        <path id="Path_3531" data-name="Path 3531" d="M80.471,70.932,57.708,66.8A2.7,2.7,0,0,1,55.5,63.66L56.92,56.2a2.759,2.759,0,0,1,3.224-2.156L82.91,58.176a2.7,2.7,0,0,1,2.213,3.141L83.7,68.776a2.763,2.763,0,0,1-3.227,2.156" transform="translate(78.964 73.538)" fill="#f7cc7f"/>
        <path id="Path_3532" data-name="Path 3532" d="M129.269,119.284A2.768,2.768,0,0,1,126.1,121.2L50.829,107.548a2.713,2.713,0,0,1-2.25-2.884l3.939-43.94A2.663,2.663,0,0,1,53.6,58.815a2.8,2.8,0,0,1,2.179-.505L139.4,73.48a2.769,2.769,0,0,1,1.845,1.226,2.641,2.641,0,0,1,.313,2.154Z" transform="translate(69.168 79.347)" fill="#fae0b2"/>
        <path id="Path_3533" data-name="Path 3533" d="M232.5,23.3,219.69,26.705l-2.756-15.118,4.189-.727,1.944,10.65,8.307-2.211Z" transform="translate(308.942 14.789)" fill="#50bfa5"/>
        <path id="Path_3534" data-name="Path 3534" d="M55.056,104.062a20.183,20.183,0,0,1,10.337,2.582,14.762,14.762,0,0,1,5.508,5.546l-.594.4a13.5,13.5,0,0,0-6.887-4.129,17.006,17.006,0,0,0-7.687-.073Z" transform="translate(78.407 141.676)" fill="#355389"/>
        <path id="Path_3535" data-name="Path 3535" d="M71.949,114.065s-19.538,3.177-17.718,18.052,22.435,26.441,40.834,17.242c24.748-12.374,14.974-43.831-2.642-46.264s-20.474,10.971-20.474,10.971" transform="translate(77.062 139.998)" fill="#f47458"/>
        <path id="Path_3536" data-name="Path 3536" d="M66.138,106.186s5.1-5.1,16.266-.461S94.382,132,84.421,130.743s-26.248-21.434-18.283-24.556" transform="translate(91.164 141.33)" fill="#f48c7f"/>
        <path id="Path_3537" data-name="Path 3537" d="M180.175,49.937,99.813,77.868a5.015,5.015,0,0,1-6.363-2.941L78.616,34.415a4.818,4.818,0,0,1,3.016-6.2L162,.283a5.017,5.017,0,0,1,6.363,2.941l14.833,40.513a4.819,4.819,0,0,1-3.018,6.2" transform="translate(111.545 0)" fill="#86b1f2"/>
        <path id="Path_3538" data-name="Path 3538" d="M116.54,22.677a15.418,15.418,0,0,1-9.65,19.828,16.042,16.042,0,0,1-20.353-9.4,15.414,15.414,0,0,1,9.65-19.828,16.042,16.042,0,0,1,20.353,9.4" transform="translate(121.915 16.846)" fill="#fff"/>
        <path id="Path_3539" data-name="Path 3539" d="M98.478,17.565a4.549,4.549,0,0,1-2.846,5.85,4.728,4.728,0,0,1-6-2.773,4.546,4.546,0,0,1,2.843-5.848,4.732,4.732,0,0,1,6,2.77" transform="translate(127.257 19.785)" fill="#86b1f2"/>
        <path id="Path_3540" data-name="Path 3540" d="M105,24.082,90.863,28.995l-.347-.942a6.021,6.021,0,0,1,3.77-7.745l2.417-.841a6.266,6.266,0,0,1,7.949,3.67Z" transform="translate(128.39 26.03)" fill="#86b1f2"/>
        <path id="Path_3541" data-name="Path 3541" d="M100.377,22.47a2.036,2.036,0,0,1-1.913-1.313,1.968,1.968,0,0,1,1.229-2.53l35.13-12.211a2.105,2.105,0,0,1,.684-.113,2.032,2.032,0,0,1,1.913,1.313,1.969,1.969,0,0,1-1.231,2.53L101.058,22.354a2.022,2.022,0,0,1-.681.116" transform="translate(140.058 8.584)" fill="#fff"/>
        <path id="Path_3542" data-name="Path 3542" d="M104.289,24.541a2.035,2.035,0,0,1-1.913-1.316,1.966,1.966,0,0,1,1.229-2.527l27.439-9.537a2.1,2.1,0,0,1,.681-.113,2.033,2.033,0,0,1,1.915,1.313,1.928,1.928,0,0,1-.078,1.512,2,2,0,0,1-1.154,1.018L104.97,24.426a2.022,2.022,0,0,1-.681.116" transform="translate(145.629 15.046)" fill="#fff"/>
        <path id="Path_3543" data-name="Path 3543" d="M292.259,150.529H98.212A10.773,10.773,0,0,0,87.3,161.16V170.1A10.773,10.773,0,0,0,98.212,180.73H292.259l-.1-.1a21.252,21.252,0,0,1,.1-30.1" transform="translate(124.328 205)" fill="#f47458"/>
        <path id="Path_3544" data-name="Path 3544" d="M237.783,152.422H134.05a10.634,10.634,0,1,0,0,21.261H237.781a21.194,21.194,0,0,1,0-21.261" transform="translate(175.366 207.578)" fill="#fae0b2"/>
        <path id="Path_3545" data-name="Path 3545" d="M246.157,186.269l-14.71-35.955a3.5,3.5,0,0,1,2.022-4.582L286.4,125.177a3.653,3.653,0,0,1,4.7,1.97L305.81,163.1a3.5,3.5,0,0,1-2.022,4.58l-52.931,20.555a3.651,3.651,0,0,1-4.7-1.97" transform="translate(329.244 170.132)" fill="#fae0b2"/>
        <path id="Path_3546" data-name="Path 3546" d="M265.769,161.524l-13.216-32.31a1,1,0,0,1,.579-1.313,1.046,1.046,0,0,1,1.348.564l13.219,32.31a1,1,0,0,1-.582,1.313,1.045,1.045,0,0,1-1.348-.565" transform="translate(359.562 174.085)" fill="#466eb6"/>
        <path id="Path_3547" data-name="Path 3547" d="M261.782,156.388l-10.853-26.526a1.006,1.006,0,0,1,.582-1.316,1.049,1.049,0,0,1,1.348.565l10.853,26.528a1,1,0,0,1-.579,1.313,1.047,1.047,0,0,1-1.35-.565" transform="translate(357.251 174.965)" fill="#466eb6"/>
        <path id="Path_3548" data-name="Path 3548" d="M262.526,162.817l-13.219-32.31a1,1,0,0,1,.582-1.313,1.044,1.044,0,0,1,1.348.565l13.219,32.31a1,1,0,0,1-.582,1.313,1.046,1.046,0,0,1-1.348-.564" transform="translate(354.942 175.846)" fill="#466eb6"/>
        <path id="Path_3549" data-name="Path 3549" d="M257.888,156.091l-10.2-24.937a1,1,0,0,1,.579-1.316,1.047,1.047,0,0,1,1.348.567l10.2,24.937a1,1,0,0,1-.582,1.313,1.046,1.046,0,0,1-1.348-.564" transform="translate(352.632 176.726)" fill="#466eb6"/>
        <path id="Path_3550" data-name="Path 3550" d="M261.436,127.5l-.269-.647a.468.468,0,0,0-.6-.274l-5.02,1.953a.448.448,0,0,0-.24.6l.262.652a.476.476,0,0,0,.6.269l5.023-1.951a.454.454,0,0,0,.242-.6" transform="translate(363.542 172.349)" fill="#355389"/>
        <path id="Path_3551" data-name="Path 3551" d="M261.9,128.683l-.267-.65a.468.468,0,0,0-.6-.272l-5.023,1.951a.447.447,0,0,0-.24.6l.264.652a.47.47,0,0,0,.6.269l5.025-1.951a.45.45,0,0,0,.24-.6" transform="translate(364.21 173.954)" fill="#355389"/>
        <path id="Path_3552" data-name="Path 3552" d="M262.374,129.861l-.267-.65a.466.466,0,0,0-.594-.272l-5.025,1.951a.448.448,0,0,0-.24.6l.264.652a.47.47,0,0,0,.6.269l5.025-1.951a.446.446,0,0,0,.24-.6" transform="translate(364.879 175.559)" fill="#355389"/>
        <path id="Path_3553" data-name="Path 3553" d="M262.843,131.039l-.267-.65a.468.468,0,0,0-.6-.272l-5.023,1.951a.448.448,0,0,0-.24.6l.264.652a.47.47,0,0,0,.6.269l5.023-1.951a.449.449,0,0,0,.242-.6" transform="translate(365.547 177.163)" fill="#355389"/>
        <path id="Path_3554" data-name="Path 3554" d="M263.314,132.217l-.267-.647a.469.469,0,0,0-.6-.274l-5.023,1.951a.452.452,0,0,0-.242.6l.267.652a.47.47,0,0,0,.6.269l5.025-1.949a.452.452,0,0,0,.24-.6" transform="translate(366.216 178.768)" fill="#355389"/>
        <path id="Path_3555" data-name="Path 3555" d="M263.783,133.4l-.267-.65a.468.468,0,0,0-.6-.272l-5.023,1.951a.448.448,0,0,0-.24.6l.264.652a.47.47,0,0,0,.6.269l5.025-1.949a.452.452,0,0,0,.24-.6" transform="translate(366.886 180.373)" fill="#355389"/>
        <path id="Path_3556" data-name="Path 3556" d="M264.252,134.574l-.267-.649a.467.467,0,0,0-.6-.272l-5.023,1.951a.448.448,0,0,0-.24.6l.264.652a.47.47,0,0,0,.6.269l5.023-1.951a.448.448,0,0,0,.242-.6" transform="translate(367.554 181.977)" fill="#355389"/>
        <path id="Path_3557" data-name="Path 3557" d="M264.722,135.752l-.267-.65a.466.466,0,0,0-.594-.272l-5.025,1.951a.448.448,0,0,0-.24.6l.264.652a.47.47,0,0,0,.6.269l5.025-1.949a.451.451,0,0,0,.24-.6" transform="translate(368.223 183.581)" fill="#355389"/>
        <path id="Path_3558" data-name="Path 3558" d="M265.192,136.93l-.267-.65a.467.467,0,0,0-.6-.272l-5.023,1.951a.448.448,0,0,0-.24.6l.264.652a.471.471,0,0,0,.6.272l5.023-1.951a.45.45,0,0,0,.242-.6" transform="translate(368.892 185.186)" fill="#355389"/>
        <path id="Path_3559" data-name="Path 3559" d="M265.662,138.109l-.267-.65a.467.467,0,0,0-.6-.272l-5.023,1.951a.451.451,0,0,0-.242.6l.267.652a.47.47,0,0,0,.6.269l5.023-1.949a.451.451,0,0,0,.242-.6" transform="translate(369.56 186.791)" fill="#355389"/>
        <path id="Path_3560" data-name="Path 3560" d="M266.131,139.287l-.267-.652a.468.468,0,0,0-.6-.269l-5.023,1.951a.448.448,0,0,0-.24.6l.264.65a.469.469,0,0,0,.6.272l5.025-1.951a.449.449,0,0,0,.24-.6" transform="translate(370.23 188.395)" fill="#355389"/>
        <path id="Path_3561" data-name="Path 3561" d="M266.6,140.465l-.267-.65a.468.468,0,0,0-.6-.272l-5.023,1.951a.448.448,0,0,0-.24.6l.264.652a.47.47,0,0,0,.6.269l5.025-1.951a.448.448,0,0,0,.24-.6" transform="translate(370.898 190)" fill="#355389"/>
        <path id="Path_3562" data-name="Path 3562" d="M282.395,138.9l-21.008,29.145a.847.847,0,0,0-.109.213l-2.141,6.4a.817.817,0,0,0,1.278.888l5.622-4.128a.753.753,0,0,0,.179-.18l21.061-29.219a.792.792,0,0,0-.23-1.138l-3.534-2.2a.836.836,0,0,0-1.117.215" transform="translate(368.984 188.699)" fill="#b75742"/>
        <path id="Path_3563" data-name="Path 3563" d="M266.109,154.128l-.051.071-5.425,3.984-1.481-.964,2.031-6.07a25.412,25.412,0,0,1,4.926,2.978" transform="translate(369.066 205.846)" fill="#f7cc7f"/>
        <path id="Path_3564" data-name="Path 3564" d="M189.379,5.118c3.023,2.355,8.283,9.92,15,15.232,3.925,3.108,6.95,2.317,11.961,2.907,23.778,2.8,17.335,7.534,20.186,8-.81,1.816-8.218,17.159-9.6,20.26a5.823,5.823,0,0,1-6.683,3.708c-4.916-.661-9.878-1.155-14.717-2.178-12.409-2.622-19.316-8.668-28.21-16.013a5.571,5.571,0,0,1-1.716-7.13c5.694-12.818,13.168-23.6,13.786-24.785" transform="translate(249.18 6.97)" fill="#466eb6"/>
        <path id="Path_3565" data-name="Path 3565" d="M241.771,52.591c-.107,5.05.291,6.061-1.935,5.3a31.422,31.422,0,0,1-3.9-1.7c-.892-.449-.928-1.039-.2-1.75,1.055-1.032,2.138-2.038,3.2-3.04a4.416,4.416,0,0,1,2.012-5.369c.388-.222.1.248,3.416-7.178-10.95-1.316-18.675-2.2-32.035-3.8a18.192,18.192,0,0,1-9.51-4.032Q188.5,19.353,174.194,7.675a2.526,2.526,0,0,1-.431-3.793,3.04,3.04,0,0,1,2.945-.82c3.05.373,32.942,3.992,35.977,4.336a19.919,19.919,0,0,1,10.584,4.433q14.061,11.472,28.156,22.9c1.29,1.049,1.636,2.01,1.185,3.174a2.534,2.534,0,0,1-3.224,1.545,1.559,1.559,0,0,0-2.114,1.167c-1.842,4.83-3.127,5.9-2.684,7.662.344,1.36-1.316,3.718-2.817,4.308" transform="translate(246.507 4.092)" fill="#86b1f2"/>
        <path id="Path_3566" data-name="Path 3566" d="M221.881,176.928l5.447,5.061a141.207,141.207,0,0,1,31,41.85l.836,1.722s14.266,1.228,16.256-11.339A209.844,209.844,0,0,1,244.1,169.4l-2.579-5.876Z" transform="translate(315.988 222.702)" fill="#466eb6"/>
        <path id="Path_3567" data-name="Path 3567" d="M241.571,163.654c.7.978-3.125,4.757-8.547,8.439s-10.4,5.921-11.1,4.943,3.151-4.8,8.572-8.484,10.38-5.876,11.081-4.9" transform="translate(315.924 222.558)" fill="#86b1f2"/>
        <path id="Path_3568" data-name="Path 3568" d="M239.005,163.546l-.017-.019s-10.86,8.956-15.335,9.87l1.382,1.833a57.744,57.744,0,0,0,5.4-3.281c5.357-3.64,9.158-7.374,8.569-8.4" transform="translate(318.511 222.702)" fill="#355389"/>
        <path id="Path_3569" data-name="Path 3569" d="M243,174.544c.019,1.545-.587,8.207-11.965,10.987q1.123,1.492,2.208,3.007c7.2-2.074,10.441-5.676,11.9-8.42.23-.432.509-1.016.693-1.464q-1.44-2.041-2.831-4.11" transform="translate(329.024 237.705)" fill="#b75742"/>
        <path id="Path_3570" data-name="Path 3570" d="M241.294,178.7l-16.746-.583,3.968,3.281-2.371,4.192,15.849-3.935Z" transform="translate(319.786 242.569)" fill="#b75742"/>
        <path id="Path_3571" data-name="Path 3571" d="M235.581,179.969l-5.949,10.1,4.184-1.554,1.61,3.207,2.8-10.621Z" transform="translate(327.026 245.093)" fill="#b75742"/>
        <path id="Path_3572" data-name="Path 3572" d="M236.388,187.3a5.359,5.359,0,1,1,4.936-5.713,5.374,5.374,0,0,1-4.936,5.713" transform="translate(328.49 240.501)" fill="#f47458"/>
        <path id="Path_3573" data-name="Path 3573" d="M269.146,115.665,233.882,85.005c-2.293-1.993-1.338-6.091,1.823-7.837l28.144-15.527a4.5,4.5,0,0,1,5.137.234l35.266,30.662c2.291,1.991,1.338,6.091-1.825,7.834L274.283,115.9a4.49,4.49,0,0,1-5.137-.234" transform="translate(331.278 83.015)" fill="#9bc1f9"/>
        <path id="Path_3574" data-name="Path 3574" d="M248.732,88.664l-2.94-23.557a2.116,2.116,0,0,1,1.508-2.152,1.4,1.4,0,0,1,1.913,1.115l2.705,21.675,26.741,6.3a1.426,1.426,0,0,1,.9,2.045,2.08,2.08,0,0,1-2.264,1.3Z" transform="translate(350.021 85.625)" fill="#fff"/>
        <path id="Path_3575" data-name="Path 3575" d="M3.418,208.876A3.654,3.654,0,0,0,0,212.728c0,2.128,1.53,3.855,3.825,1.268H698.38c.89,0,1.61-1.136,1.617-2.544s-.72-2.577-1.617-2.577Z" transform="translate(0 284.461)" fill="#184655"/>
        <path id="Path_3576" data-name="Path 3576" d="M61.832,28.11l3.646,7.024,8.235-.257,3.513,8.156,8.686-2.912,4.39,9.055,8.337-1.722,5.687,8.037-3.122,2.1L96.951,51.58l-8.8,1.814-4.22-8.7L75.1,47.652l-3.876-9-8.041.253-3.379-6.512L54.56,33.637l-.9-3.592Z" transform="translate(76.423 38.283)" fill="#f7cc7f"/>
        <path id="Path_3577" data-name="Path 3577" d="M241.812,109.378l7.486,2.964,6.034-5.468,8.15,3.9,4.584-7.754,9.415,4.015,5.125-6.632,9.706,2.421-.941,3.578-7.258-1.809-5.408,7-9.049-3.859-4.662,7.884L256,111.312l-5.893,5.34-6.938-2.749-3.117,4.3-3.1-2.135Z" transform="translate(337.461 136.739)" fill="#50bfa5"/>
      </g>
    </g>
  </g>
</svg>
