<svg xmlns="http://www.w3.org/2000/svg" xmlns:xlink="http://www.w3.org/1999/xlink" width="275" height="206.025" viewBox="0 0 275 206.025">
  <defs>
    <clipPath id="clip-path">
      <rect id="Rectangle_653" data-name="Rectangle 653" width="275" height="206.025" fill="none"/>
    </clipPath>
    <clipPath id="clip-path-3">
      <rect id="Rectangle_625" data-name="Rectangle 625" width="135.853" height="30.115" fill="none"/>
    </clipPath>
    <clipPath id="clip-path-4">
      <rect id="Rectangle_632" data-name="Rectangle 632" width="5.152" height="25.82" fill="none"/>
    </clipPath>
    <clipPath id="clip-path-8">
      <rect id="Rectangle_636" data-name="Rectangle 636" width="73.289" height="50.564" fill="none"/>
    </clipPath>
    <clipPath id="clip-path-9">
      <rect id="Rectangle_637" data-name="Rectangle 637" width="47.114" height="58.652" fill="none"/>
    </clipPath>
    <clipPath id="clip-path-10">
      <rect id="Rectangle_638" data-name="Rectangle 638" width="3.611" height="4.458" fill="none"/>
    </clipPath>
    <clipPath id="clip-path-11">
      <rect id="Rectangle_639" data-name="Rectangle 639" width="31.33" height="30.037" fill="none"/>
    </clipPath>
    <clipPath id="clip-path-12">
      <rect id="Rectangle_640" data-name="Rectangle 640" width="6.431" height="69.046" fill="none"/>
    </clipPath>
    <clipPath id="clip-path-14">
      <rect id="Rectangle_642" data-name="Rectangle 642" width="6.432" height="69.046" fill="none"/>
    </clipPath>
    <clipPath id="clip-path-16">
      <rect id="Rectangle_645" data-name="Rectangle 645" width="13.827" height="4.679" fill="none"/>
    </clipPath>
    <clipPath id="clip-path-17">
      <rect id="Rectangle_646" data-name="Rectangle 646" width="5.445" height="27.292" fill="none"/>
    </clipPath>
    <clipPath id="clip-path-20">
      <rect id="Rectangle_649" data-name="Rectangle 649" width="5.446" height="27.292" fill="none"/>
    </clipPath>
    <clipPath id="clip-path-21">
      <rect id="Rectangle_650" data-name="Rectangle 650" width="77.466" height="53.445" fill="none"/>
    </clipPath>
  </defs>
  <g id="servicesImage2" transform="translate(-28 -36)">
    <g id="Group_1376" data-name="Group 1376" transform="translate(28 36)" clip-path="url(#clip-path)">
      <rect id="Rectangle_595" data-name="Rectangle 595" width="275" height="0.137" transform="translate(0 181.054)" fill="#ebebeb"/>
      <rect id="Rectangle_596" data-name="Rectangle 596" width="18.216" height="0.138" transform="translate(229.229 189.953)" fill="#ebebeb"/>
      <rect id="Rectangle_597" data-name="Rectangle 597" width="38.944" height="0.138" transform="translate(183.36 189.953)" fill="#ebebeb"/>
      <rect id="Rectangle_598" data-name="Rectangle 598" width="10.556" height="0.137" transform="translate(151.328 184.819)" fill="#ebebeb"/>
      <rect id="Rectangle_599" data-name="Rectangle 599" width="18.859" height="0.138" transform="translate(28.852 185.747)" fill="#ebebeb"/>
      <rect id="Rectangle_600" data-name="Rectangle 600" width="34.291" height="0.138" transform="translate(52.609 185.747)" fill="#ebebeb"/>
      <rect id="Rectangle_601" data-name="Rectangle 601" width="20.247" height="0.138" transform="translate(103.583 188.082)" fill="#ebebeb"/>
      <g id="Group_1375" data-name="Group 1375">
        <g id="Group_1374" data-name="Group 1374" clip-path="url(#clip-path)">
          <path id="Path_3629" data-name="Path 3629" d="M135.005,156.393H28.8a3.152,3.152,0,0,1-3.14-3.156V3.156A3.152,3.152,0,0,1,28.8,0h106.2a3.152,3.152,0,0,1,3.139,3.156V153.237a3.152,3.152,0,0,1-3.139,3.156M28.8.138a3.013,3.013,0,0,0-3,3.018V153.237a3.013,3.013,0,0,0,3,3.018h106.2a3.013,3.013,0,0,0,3-3.018V3.156a3.013,3.013,0,0,0-3-3.018Z" transform="translate(-4.647)" fill="#ebebeb"/>
          <path id="Path_3630" data-name="Path 3630" d="M280.277,156.393h-106.2a3.152,3.152,0,0,1-3.139-3.156V3.156A3.152,3.152,0,0,1,174.073,0h106.2a3.151,3.151,0,0,1,3.139,3.156V153.237a3.151,3.151,0,0,1-3.139,3.156M174.073.138a3.013,3.013,0,0,0-3,3.018V153.237a3.013,3.013,0,0,0,3,3.018h106.2a3.013,3.013,0,0,0,3-3.018V3.156a3.013,3.013,0,0,0-3-3.018Z" transform="translate(-30.956)" fill="#ebebeb"/>
          <rect id="Rectangle_602" data-name="Rectangle 602" width="53.181" height="147.464" transform="translate(34.129 19.309)" fill="#f5f5f5"/>
          <rect id="Rectangle_603" data-name="Rectangle 603" width="0.539" height="147.464" transform="translate(87.31 19.309)" fill="#ebebeb"/>
          <rect id="Rectangle_604" data-name="Rectangle 604" width="42.918" height="136.213" transform="translate(39.26 24.935)" fill="#fff"/>
          <rect id="Rectangle_605" data-name="Rectangle 605" width="125.451" height="93.704" transform="translate(110.099 12.892)" fill="#e7e7e7"/>
          <rect id="Rectangle_606" data-name="Rectangle 606" width="125.451" height="93.704" transform="translate(108.158 12.892)" fill="#f5f5f5"/>
          <rect id="Rectangle_607" data-name="Rectangle 607" width="118.481" height="85.833" transform="translate(111.644 16.827)" fill="#fff"/>
          <rect id="Rectangle_608" data-name="Rectangle 608" width="1.468" height="85.833" transform="translate(111.643 16.827)" fill="#e7e7e7"/>
          <rect id="Rectangle_609" data-name="Rectangle 609" width="122.568" height="5.284" transform="translate(109.6 79.041)" fill="#f5f5f5"/>
          <g id="Group_1319" data-name="Group 1319" transform="translate(104.268 8.75)" opacity="0.4">
            <g id="Group_1318" data-name="Group 1318">
              <g id="Group_1317" data-name="Group 1317" clip-path="url(#clip-path-3)">
                <rect id="Rectangle_610" data-name="Rectangle 610" width="11.844" height="30.115" transform="translate(0 0)" fill="#e7e7e7"/>
                <rect id="Rectangle_611" data-name="Rectangle 611" width="5.872" height="27.695" transform="translate(11.844 0.001)" fill="#f5f5f5"/>
                <rect id="Rectangle_612" data-name="Rectangle 612" width="11.844" height="30.115" transform="translate(17.716 0)" fill="#e7e7e7"/>
                <rect id="Rectangle_613" data-name="Rectangle 613" width="5.872" height="27.695" transform="translate(29.56 0.001)" fill="#f5f5f5"/>
                <rect id="Rectangle_614" data-name="Rectangle 614" width="11.844" height="30.115" transform="translate(35.431 0)" fill="#e7e7e7"/>
                <rect id="Rectangle_615" data-name="Rectangle 615" width="5.872" height="27.695" transform="translate(47.275 0.001)" fill="#f5f5f5"/>
                <rect id="Rectangle_616" data-name="Rectangle 616" width="11.844" height="30.115" transform="translate(53.147 0)" fill="#e7e7e7"/>
                <rect id="Rectangle_617" data-name="Rectangle 617" width="5.872" height="27.695" transform="translate(64.99 0.001)" fill="#f5f5f5"/>
                <rect id="Rectangle_618" data-name="Rectangle 618" width="11.844" height="30.115" transform="translate(70.863 0)" fill="#e7e7e7"/>
                <rect id="Rectangle_619" data-name="Rectangle 619" width="5.872" height="27.695" transform="translate(82.706 0.001)" fill="#f5f5f5"/>
                <rect id="Rectangle_620" data-name="Rectangle 620" width="11.844" height="30.115" transform="translate(88.578 0)" fill="#e7e7e7"/>
                <rect id="Rectangle_621" data-name="Rectangle 621" width="5.872" height="27.695" transform="translate(100.422 0.001)" fill="#f5f5f5"/>
                <rect id="Rectangle_622" data-name="Rectangle 622" width="11.844" height="30.115" transform="translate(106.293 0)" fill="#e7e7e7"/>
                <rect id="Rectangle_623" data-name="Rectangle 623" width="5.872" height="27.695" transform="translate(118.137 0.001)" fill="#f5f5f5"/>
                <rect id="Rectangle_624" data-name="Rectangle 624" width="11.844" height="30.115" transform="translate(124.009 0)" fill="#e7e7e7"/>
              </g>
            </g>
          </g>
          <rect id="Rectangle_626" data-name="Rectangle 626" width="14.678" height="54.96" transform="translate(112.045 126.094)" fill="#e7e7e7"/>
          <path id="Path_3631" data-name="Path 3631" d="M139.267,218.862h-2.443v-4.945h5Z" transform="translate(-24.779 -37.809)" fill="#f0f0f0"/>
          <rect id="Rectangle_627" data-name="Rectangle 627" width="14.679" height="54.96" transform="translate(217.665 126.094)" fill="#e7e7e7"/>
          <rect id="Rectangle_628" data-name="Rectangle 628" width="107.751" height="53.061" transform="translate(112.045 126.093)" fill="#f0f0f0"/>
          <rect id="Rectangle_629" data-name="Rectangle 629" width="103.962" height="14.551" transform="translate(113.94 128.446)" fill="#e7e7e7"/>
          <path id="Path_3632" data-name="Path 3632" d="M169.858,160.448h51.365c2.384,0,4.662-1.8,6.3-4.964H163.557c1.639,3.169,3.918,4.964,6.3,4.964" transform="translate(-29.62 -27.481)" fill="#f0f0f0"/>
          <path id="Path_3633" data-name="Path 3633" d="M264.855,218.862H267.3v-4.945h-5Z" transform="translate(-47.502 -37.809)" fill="#f0f0f0"/>
          <rect id="Rectangle_630" data-name="Rectangle 630" width="103.962" height="14.551" transform="translate(113.94 145.349)" fill="#e7e7e7"/>
          <path id="Path_3634" data-name="Path 3634" d="M169.858,180.98h51.365c2.384,0,4.662-1.8,6.3-4.964H163.557c1.639,3.169,3.918,4.964,6.3,4.964" transform="translate(-29.62 -31.11)" fill="#f0f0f0"/>
          <rect id="Rectangle_631" data-name="Rectangle 631" width="103.962" height="14.551" transform="translate(113.94 162.252)" fill="#e7e7e7"/>
          <path id="Path_3635" data-name="Path 3635" d="M169.858,201.512h51.365c2.384,0,4.662-1.8,6.3-4.964H163.557c1.639,3.169,3.918,4.964,6.3,4.964" transform="translate(-29.62 -34.739)" fill="#f0f0f0"/>
          <path id="Path_3636" data-name="Path 3636" d="M250.964,241.308c0,3.458-47.744,6.261-106.639,6.261s-106.639-2.8-106.639-6.261,47.743-6.261,106.639-6.261,106.639,2.8,106.639,6.261" transform="translate(-6.825 -41.544)" fill="#f5f5f5"/>
          <path id="Path_3637" data-name="Path 3637" d="M247.391,233.278h-.59a.513.513,0,0,1-.467-.481l-3.621-25.34h2.75l2.4,25.172a.551.551,0,0,1-.471.649" transform="translate(-43.956 -36.667)" fill="#007cff"/>
          <g id="Group_1322" data-name="Group 1322" transform="translate(198.757 170.79)" opacity="0.3">
            <g id="Group_1321" data-name="Group 1321">
              <g id="Group_1320" data-name="Group 1320" clip-path="url(#clip-path-4)">
                <path id="Path_3638" data-name="Path 3638" d="M247.391,233.278h-.59a.513.513,0,0,1-.467-.481l-3.621-25.34h2.75l2.4,25.172a.551.551,0,0,1-.471.649" transform="translate(-242.713 -207.457)"/>
              </g>
            </g>
          </g>
          <path id="Path_3639" data-name="Path 3639" d="M256.6,233.278h-.59a.513.513,0,0,1-.467-.481l-3.621-25.34h2.75l2.4,25.172a.551.551,0,0,1-.471.649" transform="translate(-45.624 -36.667)" fill="#007cff"/>
          <g id="Group_1325" data-name="Group 1325" transform="translate(206.303 170.79)" opacity="0.3">
            <g id="Group_1324" data-name="Group 1324">
              <g id="Group_1323" data-name="Group 1323" clip-path="url(#clip-path-4)">
                <path id="Path_3640" data-name="Path 3640" d="M256.6,233.278h-.59a.513.513,0,0,1-.467-.481l-3.621-25.34h2.75l2.4,25.172a.551.551,0,0,1-.471.649" transform="translate(-251.927 -207.457)"/>
              </g>
            </g>
          </g>
          <path id="Path_3641" data-name="Path 3641" d="M206.193,233.278h.59a.513.513,0,0,0,.467-.481l3.621-25.34h-2.75l-2.4,25.172a.551.551,0,0,0,.471.649" transform="translate(-37.256 -36.667)" fill="#007cff"/>
          <g id="Group_1328" data-name="Group 1328" transform="translate(168.463 170.79)" opacity="0.3">
            <g id="Group_1327" data-name="Group 1327">
              <g id="Group_1326" data-name="Group 1326" clip-path="url(#clip-path-4)">
                <path id="Path_3642" data-name="Path 3642" d="M206.193,233.278h.59a.513.513,0,0,0,.467-.481l3.621-25.34h-2.75l-2.4,25.172a.551.551,0,0,0,.471.649" transform="translate(-205.719 -207.457)"/>
              </g>
            </g>
          </g>
          <path id="Path_3643" data-name="Path 3643" d="M196.979,233.278h.59a.513.513,0,0,0,.467-.481l3.621-25.34h-2.75l-2.4,25.172a.551.551,0,0,0,.471.649" transform="translate(-35.587 -36.667)" fill="#007cff"/>
          <g id="Group_1331" data-name="Group 1331" transform="translate(160.918 170.79)" opacity="0.3">
            <g id="Group_1330" data-name="Group 1330">
              <g id="Group_1329" data-name="Group 1329" clip-path="url(#clip-path-4)">
                <path id="Path_3644" data-name="Path 3644" d="M196.979,233.278h.59a.513.513,0,0,0,.467-.481l3.621-25.34h-2.75l-2.4,25.172a.551.551,0,0,0,.471.649" transform="translate(-196.505 -207.457)"/>
              </g>
            </g>
          </g>
          <path id="Path_3645" data-name="Path 3645" d="M184.529,166.564h18.524c3.286-11.474,15.112-20.526,27.223-20.526h6.017c12.677,0,20.857,9.916,18.272,22.148a24.929,24.929,0,0,1-2.357,6.454l-2.922,17.8c-.377,2.3-2.2,4.16-4.072,4.16H189.458c-1.872,0-3.695-1.862-4.072-4.16l-3.564-21.717c-.377-2.3.835-4.16,2.707-4.16" transform="translate(-32.916 -25.812)" fill="#007cff"/>
          <g id="Group_1334" data-name="Group 1334" transform="translate(148.837 120.226)" opacity="0.5">
            <g id="Group_1333" data-name="Group 1333">
              <g id="Group_1332" data-name="Group 1332" clip-path="url(#clip-path-8)">
                <path id="Path_3646" data-name="Path 3646" d="M184.529,166.564h18.524c3.286-11.474,15.112-20.526,27.223-20.526h6.017c12.677,0,20.857,9.916,18.272,22.148a24.929,24.929,0,0,1-2.357,6.454l-2.922,17.8c-.377,2.3-2.2,4.16-4.072,4.16H189.458c-1.872,0-3.695-1.862-4.072-4.16l-3.564-21.717c-.377-2.3.835-4.16,2.707-4.16" transform="translate(-181.753 -146.038)" fill="#fff"/>
              </g>
            </g>
          </g>
          <path id="Path_3647" data-name="Path 3647" d="M177.5,230.565l4.588,2.117a.326.326,0,0,1,.174.421l-1.444,3.752a.794.794,0,0,1-1.048.4c-1.585-.765-2.3-1.211-4.322-2.142a53.689,53.689,0,0,1-6.171-3.594c-1.5-1.083-.4-2.6.349-2.266,3.352,1.486,5.486,1.619,7.055,1.241a1.264,1.264,0,0,1,.819.072" transform="translate(-30.521 -40.511)" fill="#263238"/>
          <path id="Path_3648" data-name="Path 3648" d="M211.931,162.184s-29.331.366-29.784,11.99c-.651,16.707-3.105,44.447-3.105,44.447l4.946,2.216s8.666-27.837,8.975-40.885c8.229-2.061,29.462.017,31.957-6.783a22.424,22.424,0,0,0,.938-10.985Z" transform="translate(-32.425 -28.665)" fill="#007cff"/>
          <g id="Group_1337" data-name="Group 1337" transform="translate(146.617 133.518)" opacity="0.2">
            <g id="Group_1336" data-name="Group 1336">
              <g id="Group_1335" data-name="Group 1335" clip-path="url(#clip-path-9)">
                <path id="Path_3649" data-name="Path 3649" d="M211.931,162.184s-29.331.366-29.784,11.99c-.651,16.707-3.105,44.447-3.105,44.447l4.946,2.216s8.666-27.837,8.975-40.885c8.229-2.061,29.462.017,31.957-6.783a22.424,22.424,0,0,0,.938-10.985Z" transform="translate(-179.042 -162.184)"/>
              </g>
            </g>
          </g>
          <path id="Path_3650" data-name="Path 3650" d="M220.1,124.142c-.255,1.073-.513,2.041-.808,3.044s-.591,1.984-.909,2.97c-.644,1.969-1.353,3.925-2.172,5.862a48.476,48.476,0,0,1-2.827,5.757,28.155,28.155,0,0,1-1.863,2.822,16.045,16.045,0,0,1-2.555,2.713l-.082.068a1.959,1.959,0,0,1-.179.132,4.152,4.152,0,0,1-1.846.666,5.2,5.2,0,0,1-1.252-.009,7.7,7.7,0,0,1-1.684-.41,17.552,17.552,0,0,1-2.461-1.125,40.25,40.25,0,0,1-4.085-2.609q-1.917-1.387-3.706-2.876c-1.188-1.011-2.354-2.01-3.487-3.109a1.694,1.694,0,0,1-.043-2.387,1.673,1.673,0,0,1,2.022-.306l.027.016c1.3.724,2.608,1.49,3.921,2.2s2.612,1.447,3.918,2.12,2.612,1.315,3.865,1.835a11.737,11.737,0,0,0,1.752.589,2.066,2.066,0,0,0,.536.072c.037,0,.011-.022-.118-.013a1.7,1.7,0,0,0-.78.295l-.26.2a10.3,10.3,0,0,0,1.424-1.763c.459-.7.908-1.464,1.325-2.266a52.523,52.523,0,0,0,2.258-5.128c.677-1.783,1.311-3.607,1.9-5.452.6-1.828,1.141-3.746,1.636-5.536l.019-.067a3.367,3.367,0,0,1,6.516,1.694" transform="translate(-34.349 -21.205)" fill="#263238"/>
          <path id="Path_3651" data-name="Path 3651" d="M210.494,233.772H216a.351.351,0,0,1,.363.337l.267,4.376a.87.87,0,0,1-.857.876c-1.915-.033-2.831-.147-5.251-.147-1.489,0-4.492.156-6.548.156-2.01,0-2-2.044-1.125-2.229a14.126,14.126,0,0,0,6.805-3.067,1.375,1.375,0,0,1,.843-.3" transform="translate(-36.634 -41.318)" fill="#263238"/>
          <path id="Path_3652" data-name="Path 3652" d="M223.117,162.184s-26.6,2.259-25.95,13.873c.717,12.718,12.4,45.063,12.4,45.063h5.379s-4.6-29.621-6.224-42.57c7.5,0,24.89,1.419,27.385-5.381a22.425,22.425,0,0,0,.938-10.985Z" transform="translate(-35.705 -28.665)" fill="#007cff"/>
          <path id="Path_3653" data-name="Path 3653" d="M192.507,138.933a9.044,9.044,0,0,0-1.5-1.846c-1.087,1.026-1.7,4.016-1.7,4.016l1.5.137a2.492,2.492,0,0,0,1.692-2.308" transform="translate(-34.285 -24.23)" fill="#007cff"/>
          <path id="Path_3654" data-name="Path 3654" d="M185.605,135.887l-1.711-.747a1,1,0,0,0-1.255.4l-.811,1.35a1.01,1.01,0,0,0,.134,1.215l2.349,2.463,3.917-.16a1.247,1.247,0,0,0,1.061-.682l.452-.888a1.243,1.243,0,0,0-.39-1.6,13.572,13.572,0,0,0-3.748-1.356" transform="translate(-32.904 -23.871)" fill="#ffc3bd"/>
          <path id="Path_3655" data-name="Path 3655" d="M218.691,122.7c-.785,4.962-1.8,15.722.273,31.924l21.807-.207c-.13-11.227,1.62-21.769,3.329-32.067a3.064,3.064,0,0,0-2.591-3.545,80.454,80.454,0,0,0-18.826-.016,4.692,4.692,0,0,0-3.991,3.911" transform="translate(-39.433 -20.899)" fill="#263238"/>
          <path id="Path_3656" data-name="Path 3656" d="M246.908,121.076c.64,1.6,1.155,3.13,1.682,4.711s.981,3.167,1.413,4.778c.417,1.616.816,3.247,1.119,4.922a40.159,40.159,0,0,1,.669,5.184c.029.447.037.911.043,1.376l-.008.709a4.312,4.312,0,0,1-.547,2.07,3.741,3.741,0,0,1-.915,1.074,3.489,3.489,0,0,1-.545.368,3.38,3.38,0,0,1-.526.244,4.517,4.517,0,0,1-1.616.283,7.372,7.372,0,0,1-1.926-.3,16.889,16.889,0,0,1-2.665-1.056c-.8-.4-1.545-.813-2.277-1.241a60.477,60.477,0,0,1-8.065-5.8,1.692,1.692,0,0,1-.209-2.376,1.674,1.674,0,0,1,2.007-.44l.038.019c2.844,1.363,5.734,2.758,8.553,3.932.7.291,1.4.564,2.087.792a11.574,11.574,0,0,0,1.879.516c.25.041.478.036.453.012a.834.834,0,0,0-.438.075,2.692,2.692,0,0,0-.254.115,2.83,2.83,0,0,0-.3.2,2.37,2.37,0,0,0-.531.616,2.017,2.017,0,0,0-.284.9l-.031-.5c-.03-.341-.06-.682-.11-1.037a59.154,59.154,0,0,0-2.053-8.823c-.884-2.966-1.895-6-2.925-8.879l-.01-.029a3.368,3.368,0,0,1,6.29-2.41" transform="translate(-42.042 -21.025)" fill="#263238"/>
          <path id="Path_3657" data-name="Path 3657" d="M237.284,105.42l-2.639,2.2-3.592,3a11.707,11.707,0,0,1,.228,1.459c.172,1.743-.208,3.347-2.316,4.159a2.794,2.794,0,0,0-1.74,1.71c-.284.927.052,1.957,2.946,1.956,4.249,0,6.469-1.9,7.3-2.836a.757.757,0,0,0,.036-.941c-1.684-2.4-.915-7.708-.228-10.706" transform="translate(-41.136 -18.633)" fill="#ffc3bd"/>
          <path id="Path_3658" data-name="Path 3658" d="M230.464,121.87a1.7,1.7,0,0,1,.368.752,3.05,3.05,0,0,1,.8-.752,2.853,2.853,0,0,1,1.524,1.795,8.05,8.05,0,0,1-2.287-.855,3.891,3.891,0,0,1-1.531.478c.034-.957,1.128-1.418,1.128-1.418" transform="translate(-41.533 -21.54)" fill="#007cff"/>
          <path id="Path_3659" data-name="Path 3659" d="M232.136,121.062a6.715,6.715,0,0,1,1.456,3.224s7.041-1.769,6.71-6.383a7.13,7.13,0,0,0-1.951-.6s-1.514,2.764-6.215,3.761" transform="translate(-42.04 -20.733)" fill="#007cff"/>
          <path id="Path_3660" data-name="Path 3660" d="M230.01,121.116a7.433,7.433,0,0,0-1.55,3.224s-3.611-3.3-.093-6.345a9.193,9.193,0,0,1,1.861-.393s-2.337,1.907-.218,3.514" transform="translate(-41.079 -20.786)" fill="#007cff"/>
          <g id="Group_1340" data-name="Group 1340" transform="translate(189.917 88.987)" opacity="0.2">
            <g id="Group_1339" data-name="Group 1339">
              <g id="Group_1338" data-name="Group 1338" clip-path="url(#clip-path-10)">
                <path id="Path_3661" data-name="Path 3661" d="M231.918,111.091a11.71,11.71,0,0,1,.228,1.459c1.34-.271,3.129-1.706,3.317-3.081a6.28,6.28,0,0,0,.047-1.376Z" transform="translate(-231.918 -108.092)"/>
              </g>
            </g>
          </g>
          <path id="Path_3662" data-name="Path 3662" d="M226.82,93.766c-3.312,2.361-1.459,7.9,1.367,5.78s1.332-7.7-1.367-5.78" transform="translate(-40.757 -16.503)" fill="#263238"/>
          <path id="Path_3663" data-name="Path 3663" d="M238.013,98.338c-.917,4.24-1.239,6.761-3.73,8.7a5.606,5.606,0,0,1-9.076-4.06c-.328-3.947,1.227-10.217,5.664-11.418a5.69,5.69,0,0,1,7.142,6.783" transform="translate(-40.778 -16.143)" fill="#ffc3bd"/>
          <path id="Path_3664" data-name="Path 3664" d="M235.972,94.339c-2.338-.65-8.366.893-10.506-1.4-2.3-2.462,1.054-3.658,2.04-2.8-1.25-1.436-.783-2.974.986-2.837,1.29.1,1.7,1.538,1.7,1.538s-.215-2.513,2-2.341c2.015.157,2.021,2.889,2.021,2.889s4.809-1.367,6.412,3.247c3.026-.068,2.958,6.335-3.128,8.614-2.47-1.231-2.584-5.6-1.53-6.9" transform="translate(-40.69 -15.286)" fill="#263238"/>
          <path id="Path_3665" data-name="Path 3665" d="M243.234,94.277a.616.616,0,0,1-.11-1.221.894.894,0,0,0,.354-.449,1.463,1.463,0,0,0,.066-1.152.617.617,0,0,1,.3-.815.609.609,0,0,1,.811.3,2.723,2.723,0,0,1-.133,2.308,1.789,1.789,0,0,1-1.182,1.014.609.609,0,0,1-.109.01" transform="translate(-43.939 -16.01)" fill="#263238"/>
          <path id="Path_3666" data-name="Path 3666" d="M240.9,104.075a3.842,3.842,0,0,1-2.316,1.442c-1.192.211-1.554-.892-1.028-1.963.475-.963,1.666-2.234,2.769-1.959,1.087.271,1.282,1.546.575,2.48" transform="translate(-42.979 -17.95)" fill="#ffc3bd"/>
          <path id="Path_3667" data-name="Path 3667" d="M231.851,100.167c-.053.347-.281.608-.508.58s-.368-.331-.314-.678.281-.608.508-.581.368.332.314.679" transform="translate(-41.838 -17.584)" fill="#263238"/>
          <path id="Path_3668" data-name="Path 3668" d="M227.056,99.6c-.053.347-.281.608-.508.58s-.368-.331-.314-.678.281-.608.508-.581.368.332.314.679" transform="translate(-40.969 -17.483)" fill="#263238"/>
          <path id="Path_3669" data-name="Path 3669" d="M228.339,99.912a11.216,11.216,0,0,1-1.639,2.48,1.688,1.688,0,0,0,1.4.341Z" transform="translate(-41.056 -17.659)" fill="#ff847f"/>
          <path id="Path_3670" data-name="Path 3670" d="M230.258,105.278a3,3,0,0,0,2.183-.9.1.1,0,0,0-.009-.146.1.1,0,0,0-.145.01,2.875,2.875,0,0,1-2.412.81.1.1,0,0,0-.025.2,3.338,3.338,0,0,0,.407.025" transform="translate(-41.61 -18.418)" fill="#263238"/>
          <path id="Path_3671" data-name="Path 3671" d="M233.567,97.654a.213.213,0,0,0,.092-.047.208.208,0,0,0,.016-.291,1.963,1.963,0,0,0-1.726-.683.206.206,0,0,0,.07.407,1.559,1.559,0,0,1,1.35.551.205.205,0,0,0,.2.064" transform="translate(-41.975 -17.077)" fill="#263238"/>
          <path id="Path_3672" data-name="Path 3672" d="M225.5,97.412a.206.206,0,0,0,.188-.04,1.717,1.717,0,0,1,1.464-.4.206.206,0,0,0,.111-.4h0a2.112,2.112,0,0,0-1.838.48.207.207,0,0,0-.026.291.2.2,0,0,0,.1.067" transform="translate(-40.811 -17.061)" fill="#263238"/>
          <path id="Path_3673" data-name="Path 3673" d="M233.161,135.29l-2.407-1.5a1.521,1.521,0,0,0-2.112.51l-.283.472a1.542,1.542,0,0,0,.156,1.8l1.661,1.917s1.445,3.389,3.122,2.494l1.278-2.227Z" transform="translate(-41.316 -23.605)" fill="#ffc3bd"/>
          <path id="Path_3674" data-name="Path 3674" d="M236.537,140.441a10.243,10.243,0,0,0-1.258-2.254c-1.209,1.041-2.188,4.36-2.188,4.36l1.478.32a2.761,2.761,0,0,0,1.968-2.426" transform="translate(-42.213 -24.424)" fill="#007cff"/>
          <path id="Path_3675" data-name="Path 3675" d="M252.88,170.971H224.326c-1.873,0-3.084,1.862-2.707,4.16l3.564,21.717c.378,2.3,2.2,4.16,4.072,4.16h20.09Z" transform="translate(-40.123 -30.219)" fill="#007cff"/>
          <g id="Group_1343" data-name="Group 1343" transform="translate(181.427 140.753)" opacity="0.5">
            <g id="Group_1342" data-name="Group 1342">
              <g id="Group_1341" data-name="Group 1341" clip-path="url(#clip-path-11)">
                <path id="Path_3676" data-name="Path 3676" d="M252.88,170.971H224.326c-1.873,0-3.084,1.862-2.707,4.16l3.564,21.717c.378,2.3,2.2,4.16,4.072,4.16h20.09Z" transform="translate(-221.55 -170.971)" fill="#fff"/>
              </g>
            </g>
          </g>
          <path id="Path_3677" data-name="Path 3677" d="M98.8,226.259h.824a.559.559,0,0,0,.534-.546l4.538-68.5h-3.408l-3.023,68.43a.567.567,0,0,0,.535.617" transform="translate(-17.796 -27.787)" fill="#007cff"/>
          <g id="Group_1346" data-name="Group 1346" transform="translate(80.471 129.427)" opacity="0.3">
            <g id="Group_1345" data-name="Group 1345">
              <g id="Group_1344" data-name="Group 1344" clip-path="url(#clip-path-12)">
                <path id="Path_3678" data-name="Path 3678" d="M98.8,226.259h.824a.559.559,0,0,0,.534-.546l4.538-68.5h-3.408l-3.023,68.43a.567.567,0,0,0,.535.617" transform="translate(-98.267 -157.213)" fill="#fff"/>
              </g>
            </g>
          </g>
          <path id="Path_3679" data-name="Path 3679" d="M87.382,226.259h.824a.559.559,0,0,0,.534-.546l4.538-68.5H89.869l-3.023,68.43a.567.567,0,0,0,.535.617" transform="translate(-15.728 -27.787)" fill="#007cff"/>
          <g id="Group_1349" data-name="Group 1349" transform="translate(71.118 129.427)" opacity="0.3">
            <g id="Group_1348" data-name="Group 1348">
              <g id="Group_1347" data-name="Group 1347" clip-path="url(#clip-path-12)">
                <path id="Path_3680" data-name="Path 3680" d="M87.382,226.259h.824a.559.559,0,0,0,.534-.546l4.538-68.5H89.869l-3.023,68.43a.567.567,0,0,0,.535.617" transform="translate(-86.846 -157.213)" fill="#fff"/>
              </g>
            </g>
          </g>
          <path id="Path_3681" data-name="Path 3681" d="M227,226.259h-.824a.559.559,0,0,1-.534-.546l-4.538-68.5h3.408l3.023,68.43a.567.567,0,0,1-.535.617" transform="translate(-40.043 -27.787)" fill="#007cff"/>
          <g id="Group_1352" data-name="Group 1352" transform="translate(181.063 129.427)" opacity="0.3">
            <g id="Group_1351" data-name="Group 1351">
              <g id="Group_1350" data-name="Group 1350" clip-path="url(#clip-path-14)">
                <path id="Path_3682" data-name="Path 3682" d="M227,226.259h-.824a.559.559,0,0,1-.534-.546l-4.538-68.5h3.408l3.023,68.43a.567.567,0,0,1-.535.617" transform="translate(-221.106 -157.213)" fill="#fff"/>
              </g>
            </g>
          </g>
          <path id="Path_3683" data-name="Path 3683" d="M238.423,226.259H237.6a.559.559,0,0,1-.534-.546l-4.538-68.5h3.408l3.023,68.43a.567.567,0,0,1-.535.617" transform="translate(-42.111 -27.787)" fill="#007cff"/>
          <g id="Group_1355" data-name="Group 1355" transform="translate(190.416 129.427)" opacity="0.3">
            <g id="Group_1354" data-name="Group 1354">
              <g id="Group_1353" data-name="Group 1353" clip-path="url(#clip-path-12)">
                <path id="Path_3684" data-name="Path 3684" d="M238.423,226.259H237.6a.559.559,0,0,1-.534-.546l-4.538-68.5h3.408l3.023,68.43a.567.567,0,0,1-.535.617" transform="translate(-232.527 -157.213)" fill="#fff"/>
              </g>
            </g>
          </g>
          <rect id="Rectangle_644" data-name="Rectangle 644" width="132.716" height="1.409" transform="translate(67.528 128.018)" fill="#007cff"/>
          <path id="Path_3685" data-name="Path 3685" d="M78.141,128.831,76.888,138.1c-.4,3.087-.809,6.183-1.1,9.222-.042.382-.069.756-.1,1.131l-.046.563a1.183,1.183,0,0,0-.02-.277,1.425,1.425,0,0,0-.146-.457.754.754,0,0,0-.077-.124c-.1-.126-.107-.109-.082-.082a1.136,1.136,0,0,0,.188.157,5.627,5.627,0,0,0,.728.429,29.06,29.06,0,0,0,4.039,1.507c2.886.88,5.914,1.642,8.9,2.383l-.338,2.641A66.122,66.122,0,0,1,79.3,154.2a27.512,27.512,0,0,1-4.9-1.3,10.463,10.463,0,0,1-1.359-.64,5.88,5.88,0,0,1-.767-.524,4.228,4.228,0,0,1-.878-.941,3.611,3.611,0,0,1-.415-.846,3.9,3.9,0,0,1-.131-.55,4.149,4.149,0,0,1-.032-.571l.014-.613c.009-.409.016-.821.035-1.222.13-3.23.419-6.383.762-9.535s.735-6.276,1.227-9.416Z" transform="translate(-12.824 -22.632)" fill="#903c38"/>
          <path id="Path_3686" data-name="Path 3686" d="M99.533,160.494l-2.017,1.853a1.555,1.555,0,0,1-1.73.255l-2.229-1.079s-3.306-.137-3.777-2.167l.854-1.577,5.121-.572a2.375,2.375,0,0,1,1.508.337l2.11,1.3a1.043,1.043,0,0,1,.159,1.655" transform="translate(-16.259 -27.783)" fill="#903c38"/>
          <path id="Path_3687" data-name="Path 3687" d="M86.656,105.857c.523,3.18.967,8.992-1.3,11.037a29.64,29.64,0,0,1,9.145,7.981c3.873-3.086.63-7.689.63-7.689-3.482-.947-3.314-3.56-2.63-6Z" transform="translate(-15.459 -18.71)" fill="#903c38"/>
          <path id="Path_3688" data-name="Path 3688" d="M96.507,120.99s-.292-2.7-1.756-4.03c-1.23-1.12-7.684-.5-9.717-.27a1.112,1.112,0,0,0-.879.631l-1.475,3.1Z" transform="translate(-14.973 -20.558)" fill="#007cff"/>
          <g id="Group_1358" data-name="Group 1358" transform="translate(67.707 95.753)" opacity="0.8">
            <g id="Group_1357" data-name="Group 1357">
              <g id="Group_1356" data-name="Group 1356" clip-path="url(#clip-path-16)">
                <path id="Path_3689" data-name="Path 3689" d="M96.507,120.99s-.292-2.7-1.756-4.03c-1.23-1.12-7.684-.5-9.717-.27a1.112,1.112,0,0,0-.879.631l-1.475,3.1Z" transform="translate(-82.681 -116.311)" fill="#fff"/>
              </g>
            </g>
          </g>
          <path id="Path_3690" data-name="Path 3690" d="M76.722,120.242c-3.983,1.3-4.839,6.671-4.481,10.849l8.038,4.971s1.952-6.1,1.937-9.359c-.019-3.467-2.791-7.345-5.494-6.461" transform="translate(-13.07 -21.23)" fill="#007cff"/>
          <path id="Path_3691" data-name="Path 3691" d="M79.464,137.686a.767.767,0,0,1-.528-.216.831.831,0,0,1-.088-.116.527.527,0,0,1-.072-.133,1.136,1.136,0,0,1-.043-.138.657.657,0,0,1-.016-.143.748.748,0,1,1,1.5,0,.611.611,0,0,1-.017.143.6.6,0,0,1-.043.138.489.489,0,0,1-.066.133c-.028.039-.061.077-.093.116a.747.747,0,0,1-.528.216" transform="translate(-14.256 -24.073)" fill="#fff"/>
          <path id="Path_3692" data-name="Path 3692" d="M76.836,136.688h.006a.755.755,0,0,1-.479-.674.731.731,0,0,1-.808.121.757.757,0,0,1-.435-.7.728.728,0,0,1-.814.072.749.749,0,0,1-.391-.719.744.744,0,0,1-.819.028.749.749,0,0,1,.775-1.283.77.77,0,0,1,.358.7.737.737,0,0,1,.781-.05.757.757,0,0,1,.4.68.741.741,0,0,1,.775-.094.753.753,0,0,1,.435.652.746.746,0,0,1,1.188.836.74.74,0,0,1-.693.475.81.81,0,0,1-.275-.049" transform="translate(-13.173 -23.583)" fill="#fff"/>
          <path id="Path_3693" data-name="Path 3693" d="M72.1,134.037a.713.713,0,0,1-.149-.016.561.561,0,0,1-.138-.044.468.468,0,0,1-.131-.067.8.8,0,0,1-.111-.094.589.589,0,0,1-.093-.11c-.027-.044-.049-.088-.071-.133a1.289,1.289,0,0,1-.044-.138c0-.05-.011-.1-.011-.15a1.3,1.3,0,0,1,.011-.143A1.449,1.449,0,0,1,71.4,133a.6.6,0,0,1,.071-.127.84.84,0,0,1,.093-.116.945.945,0,0,1,.111-.095.75.75,0,0,1,.131-.066,1,1,0,0,1,.138-.044.765.765,0,0,1,.672.2.784.784,0,0,1,.093.116.956.956,0,0,1,.072.127.738.738,0,0,1,.038.144.624.624,0,0,1,.016.143.718.718,0,0,1-.016.15.672.672,0,0,1-.038.138,1.506,1.506,0,0,1-.072.133.56.56,0,0,1-.093.11.749.749,0,0,1-.522.221" transform="translate(-12.921 -23.425)" fill="#fff"/>
          <path id="Path_3694" data-name="Path 3694" d="M102.53,127.884c-.337,4.6-1.354,12.344-3.861,25.381l-21.527-.644c.565-7.989-.287-13.945-2.235-27.926a4.54,4.54,0,0,1,4.019-5.149c1.382-.143,2.952-.262,4.533-.291a68.169,68.169,0,0,1,9.775.292c1.049.128,2.132.295,3.167.472a7.419,7.419,0,0,1,6.129,7.865" transform="translate(-13.558 -21.071)" fill="#007cff"/>
          <path id="Path_3695" data-name="Path 3695" d="M100.542,98.566c.051.427.317.746.595.712s.462-.407.411-.833-.318-.746-.6-.713-.461.407-.41.834" transform="translate(-18.207 -17.273)" fill="#263238"/>
          <path id="Path_3696" data-name="Path 3696" d="M100.9,97.69l.985-.418s-.428.864-.985.418" transform="translate(-18.273 -17.193)" fill="#263238"/>
          <path id="Path_3697" data-name="Path 3697" d="M100.723,99.55a11.5,11.5,0,0,0,1.838,2.542,1.834,1.834,0,0,1-1.48.468Z" transform="translate(-18.241 -17.595)" fill="#740606"/>
          <path id="Path_3698" data-name="Path 3698" d="M100.22,94.115a.255.255,0,0,0,.019-.249.251.251,0,0,0-.335-.119,2.507,2.507,0,0,0-1.431,1.8.251.251,0,1,0,.5.068,2,2,0,0,1,1.148-1.414.255.255,0,0,0,.1-.087" transform="translate(-17.833 -16.565)" fill="#263238"/>
          <path id="Path_3699" data-name="Path 3699" d="M82.628,96.781c.945,5.2,1.235,7.428,4.19,9.8,4.444,3.571,10.6,1.265,11.217-4.119.558-4.846-1.081-12.543-6.435-14.014a7.194,7.194,0,0,0-8.973,8.331" transform="translate(-14.942 -15.585)" fill="#903c38"/>
          <path id="Path_3700" data-name="Path 3700" d="M92.6,96.923c.873,2.86,2.952,9.774-1.642,11.314-3.593,1.2-14.845,2.167-16.14-4.46-1.341-6.854,4.738-11.731,4.738-11.731s-4.816-3.971-1.73-8.3c3.977-5.576,13.5-2.423,16.325,1.516C96.9,89.095,92.6,96.923,92.6,96.923" transform="translate(-13.515 -14.27)" fill="#263238"/>
          <path id="Path_3701" data-name="Path 3701" d="M83.642,111.566a15.962,15.962,0,0,1-6.01-1.192c-2.556-1.106-4.047-2.816-4.313-4.944-.9-7.227,5.787-11.2,5.855-11.237l.266.463c-.065.038-6.451,3.837-5.592,10.707.3,2.438,2.34,3.8,3.995,4.519,3.267,1.414,7.486,1.406,8.509.651l.314.432a5.7,5.7,0,0,1-3.024.6" transform="translate(-13.263 -16.648)" fill="#263238"/>
          <path id="Path_3702" data-name="Path 3702" d="M78.093,93.064c-.061.925-.824,2.194,2.365,2.672s7.618.432,8.527-.339,1.8-2.614-.1-2.449-10.692-1.465-10.8.116" transform="translate(-14.121 -16.326)" fill="#007cff"/>
          <path id="Path_3703" data-name="Path 3703" d="M94.4,100.778a4.132,4.132,0,0,0,2.441,2c1.388.408,2.1-.836,1.73-2.163-.334-1.195-1.458-2.846-2.86-2.673a1.866,1.866,0,0,0-1.311,2.831" transform="translate(-17.049 -17.31)" fill="#903c38"/>
          <path id="Path_3704" data-name="Path 3704" d="M134.883,231.365l5.1-.1-2.471-12.809-5.1.1Z" transform="translate(-23.98 -38.612)" fill="#903c38"/>
          <path id="Path_3705" data-name="Path 3705" d="M139.248,227.362c1.35,5.112,6.312,10.524,6.312,10.524l-7.083-1.81-3.1-4.422.542-1.171Z" transform="translate(-24.518 -40.185)" fill="#903c38"/>
          <path id="Path_3706" data-name="Path 3706" d="M133.96,230.02a10.442,10.442,0,0,0,.1,1.789c.3,2.114,1.227,7.72,1.227,7.72l.481,0a50.353,50.353,0,0,1-.389-5.164c.066-1.39.958,1.068,2.037,2.459a7.73,7.73,0,0,0,6.159,2.756c3.676.115,5.142-.04,3.963-.962a12.305,12.305,0,0,0-3.683-1.525,11.185,11.185,0,0,1-4.96-4.17,12.952,12.952,0,0,0-4.563-3.968c-.295.052-.357.612-.374,1.063" transform="translate(-24.259 -40.467)" fill="#263238"/>
          <path id="Path_3707" data-name="Path 3707" d="M156.334,210.706l6.515.2-7.287-10.892-4.512,3.877Z" transform="translate(-27.356 -35.352)" fill="#903c38"/>
          <path id="Path_3708" data-name="Path 3708" d="M159.392,207.383c4.733,2.217,12.315,1.781,12.315,1.781l-6.163,4.971-5.284-.394-.559-1.18Z" transform="translate(-28.866 -36.654)" fill="#903c38"/>
          <path id="Path_3709" data-name="Path 3709" d="M158.041,213.192a10.325,10.325,0,0,0,1.37,1.143c1.729,1.21,6.4,4.311,6.4,4.311l.3-.378a49.434,49.434,0,0,1-4.012-3.226c-.974-1,1.372-.027,3.054.072s3.8-.569,5.816-2.984c2.355-2.828,3.146-4.092,1.745-3.793a11.291,11.291,0,0,0-3.389,1.87,9.869,9.869,0,0,1-6.108,1.069,11.376,11.376,0,0,0-5.716.892c-.144.269.227.7.545,1.023" transform="translate(-28.517 -36.815)" fill="#263238"/>
          <path id="Path_3710" data-name="Path 3710" d="M91.391,159.8s34.851-5.182,38.459,3.8c6.278,15.625,15.142,33.529,15.142,33.529l-4.28,3.56s-15.195-14.141-20.6-29.84c-6.457,2.1-27,8.858-34.523,8.858-8.036,0-11.318-6.888-8.416-18.326a2.289,2.289,0,0,1,2.23-1.721c5.059.025,11.989.14,11.989.14" transform="translate(-13.788 -27.981)" fill="#263238"/>
          <path id="Path_3711" data-name="Path 3711" d="M95.339,164.622s28.6-.866,28.844,9.322c.4,16.847,5.122,40.987,5.122,40.987l-5.217.488s-8.53-19.2-10.787-35.659c-10.189.664-19.581.206-27.106.206-8.432,0-9.129-9.309-.922-20.172,5.017,0,10.066,4.828,10.066,4.828" transform="translate(-14.394 -28.243)" fill="#263238"/>
          <path id="Path_3712" data-name="Path 3712" d="M77.159,158.206l-.608,1.921c-.08.148.093.306.341.314l22.155.663c.194.006.358-.085.373-.207l.251-1.931c.018-.133-.147-.252-.359-.259l-21.8-.652a.391.391,0,0,0-.355.152" transform="translate(-13.86 -27.935)" fill="#fff"/>
          <path id="Path_3713" data-name="Path 3713" d="M80.613,160.722l-.584-.017c-.116,0-.2-.067-.192-.14l.348-2.508c.01-.073.114-.131.23-.128l.583.018c.116,0,.2.066.193.139l-.348,2.509c-.011.073-.114.13-.23.127" transform="translate(-14.458 -27.913)" fill="#263238"/>
          <path id="Path_3714" data-name="Path 3714" d="M101.845,161.353l-.584-.017c-.116,0-.2-.067-.192-.14l.348-2.508c.01-.073.114-.131.23-.128l.584.018c.116,0,.2.066.192.139l-.348,2.509c-.011.073-.114.13-.23.127" transform="translate(-18.304 -28.025)" fill="#263238"/>
          <path id="Path_3715" data-name="Path 3715" d="M91.229,161.037l-.584-.017c-.116,0-.2-.067-.192-.14l.348-2.508c.01-.073.114-.131.23-.128l.584.018c.116,0,.2.066.192.139l-.348,2.509c-.011.073-.114.13-.23.127" transform="translate(-16.381 -27.969)" fill="#263238"/>
          <path id="Path_3716" data-name="Path 3716" d="M122.5,132.081h13.915a.67.67,0,0,1,.64.858l-5.2,17.941a.668.668,0,0,1-.64.482H117.3a.669.669,0,0,1-.64-.857l5.2-17.942a.668.668,0,0,1,.64-.482" transform="translate(-21.123 -23.345)" fill="#007cff"/>
          <path id="Path_3717" data-name="Path 3717" d="M122.932,132.881l13.524.323-5.341,16.922-13.523-.323Z" transform="translate(-21.296 -23.486)" fill="#e0e0e0"/>
          <path id="Path_3718" data-name="Path 3718" d="M122.485,132.679l13.527.057L131,149.759l-13.527-.057Z" transform="translate(-21.275 -23.451)" fill="#fff"/>
          <path id="Path_3719" data-name="Path 3719" d="M107.517,133.107c.026.539.077,1.21.126,1.823s.123,1.254.206,1.877c.154,1.249.36,2.485.615,3.693a26.853,26.853,0,0,0,.982,3.486,17.083,17.083,0,0,0,.671,1.59c.12.258.253.5.387.734l.2.34c-.016-.023-.04-.024-.022,0a2.466,2.466,0,0,0,.876.515,10.554,10.554,0,0,0,1.585.477,30.407,30.407,0,0,0,3.679.571c2.539.249,5.193.372,7.793.426l.262,2.649a49.46,49.46,0,0,1-8.2.932,29.072,29.072,0,0,1-4.287-.177,15.094,15.094,0,0,1-2.3-.468,6.845,6.845,0,0,1-2.631-1.366,4.612,4.612,0,0,1-.69-.75l-.355-.5c-.221-.328-.441-.66-.632-1a17.33,17.33,0,0,1-1.037-2.047,26.875,26.875,0,0,1-1.421-4.182,36.223,36.223,0,0,1-.819-4.222c-.092-.706-.167-1.413-.227-2.123s-.1-1.392-.107-2.194Z" transform="translate(-18.503 -23.526)" fill="#903c38"/>
          <path id="Path_3720" data-name="Path 3720" d="M104.948,123.1c3.462,3.278,2.629,11.822,2.629,11.822l-6.637,1.166s-4.1-6.125-2.656-8.694c1.5-2.674,4.79-6.067,6.664-4.294" transform="translate(-17.744 -21.67)" fill="#007cff"/>
          <path id="Path_3721" data-name="Path 3721" d="M109.534,138.154a.763.763,0,0,1-.528-.221.67.67,0,0,1-.093-.116.84.84,0,0,1-.066-.127,1.056,1.056,0,0,1-.043-.144,1.115,1.115,0,0,1-.011-.144.755.755,0,0,1,.215-.53,1,1,0,0,1,.115-.095.575.575,0,0,1,.126-.066.753.753,0,0,1,.143-.044.748.748,0,0,1,.891.735.621.621,0,0,1-.016.144.638.638,0,0,1-.043.144.582.582,0,0,1-.066.127.671.671,0,0,1-.093.116.754.754,0,0,1-.528.221" transform="translate(-19.702 -24.153)" fill="#fff"/>
          <path id="Path_3722" data-name="Path 3722" d="M102.336,138.634a.749.749,0,0,1,.681-.813.736.736,0,0,1,.7.353.743.743,0,0,1,1.32-.193.742.742,0,0,1,1.3-.266.756.756,0,0,1,.54-.575v.007a.741.741,0,0,1,.913.53.748.748,0,0,1-1.309.658.744.744,0,0,1-1.342.272.743.743,0,0,1-1.353.2.754.754,0,0,1-.644.508h-.061a.753.753,0,0,1-.748-.68" transform="translate(-18.533 -24.236)" fill="#fff"/>
          <path id="Path_3723" data-name="Path 3723" d="M101.433,139.57a.7.7,0,0,1-.148-.016,1.125,1.125,0,0,1-.138-.044.941.941,0,0,1-.132-.067.925.925,0,0,1-.111-.094.517.517,0,0,1-.093-.116,1,1,0,0,1-.071-.128.716.716,0,0,1-.038-.143.627.627,0,0,1-.016-.144.716.716,0,0,1,.016-.149.672.672,0,0,1,.038-.138c.022-.044.044-.088.071-.133a.62.62,0,0,1,.093-.11.931.931,0,0,1,.111-.095.6.6,0,0,1,.132-.066.561.561,0,0,1,.138-.044.733.733,0,0,1,.671.205.56.56,0,0,1,.093.11,1.5,1.5,0,0,1,.072.133,1.284,1.284,0,0,1,.043.138,1.32,1.32,0,0,1,.011.149,1.131,1.131,0,0,1-.011.144,1.364,1.364,0,0,1-.043.143.914.914,0,0,1-.072.128.617.617,0,0,1-.093.116.749.749,0,0,1-.522.221" transform="translate(-18.234 -24.403)" fill="#fff"/>
          <path id="Path_3724" data-name="Path 3724" d="M135.342,148.575l-2.3-.156a2.583,2.583,0,0,0-1.62.436l-4.219,2.849-.032,1.8c1.352,1.581,4.346.165,4.346.165l2.777-.09a1.112,1.112,0,0,0,1.008-.734l1-2.771a1.116,1.116,0,0,0-.969-1.5" transform="translate(-23.032 -26.232)" fill="#903c38"/>
          <path id="Path_3725" data-name="Path 3725" d="M78.865,238.249h.623a.542.542,0,0,0,.493-.509l3.828-26.783H80.9l-2.534,26.606a.581.581,0,0,0,.5.686" transform="translate(-14.192 -37.286)" fill="#007cff"/>
          <g id="Group_1361" data-name="Group 1361" transform="translate(64.173 173.671)" opacity="0.3">
            <g id="Group_1360" data-name="Group 1360">
              <g id="Group_1359" data-name="Group 1359" clip-path="url(#clip-path-17)">
                <path id="Path_3726" data-name="Path 3726" d="M78.865,238.249h.623a.542.542,0,0,0,.493-.509l3.828-26.783H80.9l-2.534,26.606a.581.581,0,0,0,.5.686" transform="translate(-78.365 -210.957)"/>
              </g>
            </g>
          </g>
          <path id="Path_3727" data-name="Path 3727" d="M69.126,238.249h.623a.542.542,0,0,0,.493-.509l3.828-26.783H71.164l-2.534,26.606a.581.581,0,0,0,.5.686" transform="translate(-12.428 -37.286)" fill="#007cff"/>
          <g id="Group_1364" data-name="Group 1364" transform="translate(56.197 173.671)" opacity="0.3">
            <g id="Group_1363" data-name="Group 1363">
              <g id="Group_1362" data-name="Group 1362" clip-path="url(#clip-path-17)">
                <path id="Path_3728" data-name="Path 3728" d="M69.126,238.249h.623a.542.542,0,0,0,.493-.509l3.828-26.783H71.164l-2.534,26.606a.581.581,0,0,0,.5.686" transform="translate(-68.625 -210.957)"/>
              </g>
            </g>
          </g>
          <path id="Path_3729" data-name="Path 3729" d="M122.411,238.249h-.623a.542.542,0,0,1-.493-.509l-3.828-26.783h2.907l2.535,26.606a.581.581,0,0,1-.5.686" transform="translate(-21.273 -37.286)" fill="#007cff"/>
          <g id="Group_1367" data-name="Group 1367" transform="translate(96.193 173.671)" opacity="0.3">
            <g id="Group_1366" data-name="Group 1366">
              <g id="Group_1365" data-name="Group 1365" clip-path="url(#clip-path-17)">
                <path id="Path_3730" data-name="Path 3730" d="M122.411,238.249h-.623a.542.542,0,0,1-.493-.509l-3.828-26.783h2.907l2.535,26.606a.581.581,0,0,1-.5.686" transform="translate(-117.466 -210.957)"/>
              </g>
            </g>
          </g>
          <path id="Path_3731" data-name="Path 3731" d="M132.15,238.249h-.623a.542.542,0,0,1-.493-.509L127.2,210.957h2.907l2.535,26.606a.581.581,0,0,1-.5.686" transform="translate(-23.037 -37.286)" fill="#007cff"/>
          <g id="Group_1370" data-name="Group 1370" transform="translate(104.168 173.671)" opacity="0.3">
            <g id="Group_1369" data-name="Group 1369">
              <g id="Group_1368" data-name="Group 1368" clip-path="url(#clip-path-20)">
                <path id="Path_3732" data-name="Path 3732" d="M132.15,238.249h-.623a.542.542,0,0,1-.493-.509L127.2,210.957h2.907l2.535,26.606a.581.581,0,0,1-.5.686" transform="translate(-127.205 -210.957)"/>
              </g>
            </g>
          </g>
          <path id="Path_3733" data-name="Path 3733" d="M129.382,167.734H109.8c-3.473-12.128-15.973-21.7-28.774-21.7h-6.36c-13.4,0-22.045,10.482-19.314,23.411a26.341,26.341,0,0,0,2.492,6.821l3.088,18.815c.4,2.429,2.326,4.4,4.3,4.4h58.934c1.978,0,3.905-1.968,4.3-4.4l3.767-22.955c.4-2.429-.882-4.4-2.86-4.4" transform="translate(-9.933 -25.812)" fill="#007cff"/>
          <g id="Group_1373" data-name="Group 1373" transform="translate(44.917 120.226)" opacity="0.5">
            <g id="Group_1372" data-name="Group 1372">
              <g id="Group_1371" data-name="Group 1371" clip-path="url(#clip-path-21)">
                <path id="Path_3734" data-name="Path 3734" d="M129.382,167.734H109.8c-3.473-12.128-15.973-21.7-28.774-21.7h-6.36c-13.4,0-22.045,10.482-19.314,23.411a26.341,26.341,0,0,0,2.492,6.821l3.088,18.815c.4,2.429,2.326,4.4,4.3,4.4h58.934c1.978,0,3.905-1.968,4.3-4.4l3.767-22.955c.4-2.429-.882-4.4-2.86-4.4" transform="translate(-54.85 -146.038)" fill="#fff"/>
              </g>
            </g>
          </g>
          <rect id="Rectangle_651" data-name="Rectangle 651" width="4.492" height="0.553" transform="translate(112.401 53.741)" fill="#007cff"/>
          <path id="Path_3735" data-name="Path 3735" d="M116.959,71.8h-.55v-2.72a3.79,3.79,0,0,1,3.776-3.8h10.027v.553H120.185a3.238,3.238,0,0,0-3.226,3.243Z" transform="translate(-21.082 -11.538)" fill="#007cff"/>
          <path id="Path_3736" data-name="Path 3736" d="M169.851,91.12H121.516a2.763,2.763,0,0,1-2.756-2.77V70.4a2.762,2.762,0,0,1,2.756-2.77h48.335a2.763,2.763,0,0,1,2.756,2.77V88.35a2.763,2.763,0,0,1-2.756,2.77" transform="translate(-21.508 -11.953)" fill="#007cff"/>
          <path id="Path_3737" data-name="Path 3737" d="M169.043,82.878h-45.4a1.25,1.25,0,0,1,0-2.5h45.4a1.25,1.25,0,0,1,0,2.5" transform="translate(-22.166 -14.207)" fill="#fff"/>
          <path id="Path_3738" data-name="Path 3738" d="M159.327,89.184H123.641a1.25,1.25,0,0,1,0-2.5h35.686a1.25,1.25,0,0,1,0,2.5" transform="translate(-22.166 -15.321)" fill="#fff"/>
          <path id="Path_3739" data-name="Path 3739" d="M138.952,76.571H123.641a1.25,1.25,0,0,1,0-2.5h15.311a1.25,1.25,0,0,1,0,2.5" transform="translate(-22.166 -13.092)" fill="#fff"/>
          <path id="Path_3740" data-name="Path 3740" d="M163.737,76.571H148.426a1.25,1.25,0,0,1,0-2.5h15.311a1.25,1.25,0,0,1,0,2.5" transform="translate(-26.655 -13.092)" fill="#fff"/>
          <path id="Path_3741" data-name="Path 3741" d="M122.4,94.337v5.989a1.379,1.379,0,0,0,2.224,1.1l9.13-7.1Z" transform="translate(-22.166 -16.671)" fill="#007cff"/>
          <path id="Path_3742" data-name="Path 3742" d="M205.313,31.6H155.168a1.856,1.856,0,0,0-1.851,1.861V53.23a1.855,1.855,0,0,0,1.851,1.861h39.613l7.18,5.587a1.379,1.379,0,0,0,2.224-1.1v-4.49h1.128a1.855,1.855,0,0,0,1.851-1.861V33.462a1.856,1.856,0,0,0-1.851-1.861" transform="translate(-27.766 -5.585)" fill="#fff"/>
          <path id="Path_3743" data-name="Path 3743" d="M202.743,61.187a1.64,1.64,0,0,1-1.011-.35l-7.106-5.528H155.107a2.134,2.134,0,0,1-2.126-2.137V33.4a2.134,2.134,0,0,1,2.126-2.137h50.145a2.134,2.134,0,0,1,2.126,2.137v19.77a2.134,2.134,0,0,1-2.126,2.137H204.4v4.213a1.663,1.663,0,0,1-1.657,1.665M155.107,31.818a1.581,1.581,0,0,0-1.576,1.584v19.77a1.581,1.581,0,0,0,1.576,1.584h39.708l7.254,5.644a1.078,1.078,0,0,0,1.163.119,1.09,1.09,0,0,0,.618-1V54.756h1.4a1.581,1.581,0,0,0,1.576-1.584V33.4a1.581,1.581,0,0,0-1.576-1.584Z" transform="translate(-27.705 -5.526)" fill="#007cff"/>
          <path id="Path_3744" data-name="Path 3744" d="M184.611,46.849h23.773a1.25,1.25,0,0,0,0-2.5H184.611a1.25,1.25,0,0,0,0,2.5" transform="translate(-33.208 -7.839)" fill="#007cff"/>
          <path id="Path_3745" data-name="Path 3745" d="M164.343,46.849h11.77a1.25,1.25,0,0,0,0-2.5h-11.77a1.25,1.25,0,0,0,0,2.5" transform="translate(-29.538 -7.839)" fill="#007cff"/>
          <path id="Path_3746" data-name="Path 3746" d="M170.063,53.156h35.686a1.25,1.25,0,0,0,0-2.5H170.063a1.246,1.246,0,0,0-1.243,1.25h0a1.246,1.246,0,0,0,1.243,1.25" transform="translate(-30.574 -8.953)" fill="#007cff"/>
          <path id="Path_3747" data-name="Path 3747" d="M158.2,40.543h45.4a1.25,1.25,0,0,0,0-2.5H158.2a1.25,1.25,0,0,0,0,2.5" transform="translate(-28.425 -6.724)" fill="#007cff"/>
        </g>
      </g>
    </g>
  </g>
</svg>
