<svg id="servicesImage4" xmlns="http://www.w3.org/2000/svg" xmlns:xlink="http://www.w3.org/1999/xlink" width="275" height="196.334" viewBox="0 0 275 196.334">
  <defs>
    <clipPath id="clip-path">
      <rect id="Rectangle_566" data-name="Rectangle 566" width="275" height="196.334" fill="none"/>
    </clipPath>
  </defs>
  <path id="Path_3483" data-name="Path 3483" d="M109.006,39.828l-2.1.645L105.492,37.2l-3.19.564L100.845,35.5l-1.151.737,1.948,3.041,3.024-.535,1.468,3.4,3.164-.971Z" transform="translate(-4.661 -2.56)" fill="#50bfa5"/>
  <path id="Path_3484" data-name="Path 3484" d="M254.3,166.5l-2.1.645-1.411-3.268-3.19.564-1.457-2.272-1.151.737,1.948,3.041,3.024-.535,1.468,3.4,3.164-.971Z" transform="translate(-10.605 -11.696)" fill="#50bfa5"/>
  <g id="Group_1290" data-name="Group 1290">
    <g id="Group_1289" data-name="Group 1289" clip-path="url(#clip-path)">
      <path id="Path_3485" data-name="Path 3485" d="M95.142,201.689S83.628,163.666,82.7,155.279s5.515-5.789,5.515-5.789-5.417-15.981-1.5-19.775,7.449,3.277,7.449,3.277,1.186-19.4,5.362-19.408c7.778-.014,7.624,21.158,7.624,21.158s1.985-8.289,6.149-6.016c6.281,3.427-2.726,20.038-2.726,20.038s8,.006,10.814,3.938c5.044,7.054-26.25,48.986-26.25,48.986" transform="translate(-3.937 -8.192)" fill="#50bfa5"/>
      <path id="Path_3486" data-name="Path 3486" d="M96.733,198.765s-33.192-5.408-40.412-11.138-.074-8.314-.074-8.314-16.675-8.329-16.481-13.992,8.477-2.784,8.477-2.784-14.05-15.61-10.723-18.573c6.195-5.522,22.437,10.7,22.437,10.7s-4.823-7.716.256-8.937c7.661-1.842,13.314,17.185,13.314,17.185S72.09,155.4,77.372,156.4c9.476,1.8,19.361,42.361,19.361,42.361" transform="translate(-1.764 -10.3)" fill="#50bfa5"/>
      <path id="Path_3487" data-name="Path 3487" d="M77.4,156.4c-5.3-.933-3.846,6.513-3.846,6.513S67.9,143.889,60.238,145.731c-5.08,1.221-.256,8.937-.256,8.937s-16.243-16.226-22.438-10.7l59.1,54.81c-1.052-5.235-10.373-40.807-19.25-42.371" transform="translate(-1.789 -10.3)" fill="#3c8f7c"/>
      <path id="Path_3488" data-name="Path 3488" d="M106.054,205.849s-17.48-17.32-26.283-19.124-7.22,4.3-7.22,4.3S55.087,176.142,51.04,179.748s.33,7.086.33,7.086-14.547-2.512-16.63,2.14c-3.2,7.147,20.726,11.037,20.726,11.037s-10.026.677-7.7,5.159c3.507,6.759,58.29.678,58.29.678" transform="translate(-1.642 -12.923)" fill="#355389"/>
      <path id="Path_3489" data-name="Path 3489" d="M34.755,188.968c2.082-4.651,16.629-2.14,16.629-2.14s-4.378-3.481-.33-7.086,20.97,9.251,20.97,9.251-3.989-7.43,4.813-5.627,29.233,22.476,29.233,22.476Z" transform="translate(-1.656 -12.917)" fill="#466eb6"/>
      <path id="Path_3490" data-name="Path 3490" d="M138.58,15.4a6.524,6.524,0,0,0-2.74,11.833,4.369,4.369,0,0,1,1.746,2.53l.89,3.5a1.957,1.957,0,0,0,2.216,1.422l2.229-.357a1.916,1.916,0,0,0,1.631-2.039c-.309-3.613-.691-4.924.514-6.536,3.526-4.715-.6-11.3-6.487-10.353" transform="translate(-6.338 -1.104)" fill="#f7cc7f"/>
      <path id="Path_3491" data-name="Path 3491" d="M139.327,31.035c-.383-3.1-.921-6.363-1.1-7.29-3.372.181-2.09-3.283-.534-1.874a2.842,2.842,0,0,1,.791,1.542,8.9,8.9,0,0,0,3.213-.912,3.936,3.936,0,0,1,.088-1.831.931.931,0,0,1,1.681-.22,1.122,1.122,0,0,1,.066.9,2.971,2.971,0,0,1-1.5,1.33c.177,2.461.424,4.941.732,7.383l-.318.039c-.3-2.4-.548-4.843-.724-7.264a9.231,9.231,0,0,1-3.173.881c.23,1.185.741,4.371,1.1,7.277Zm-2.706-8.021a1.924,1.924,0,0,0,1.535.42,2.521,2.521,0,0,0-.686-1.335c-.838-.758-1.352.387-.849.915m5.454-2.219A3.389,3.389,0,0,0,142,22.337a2.517,2.517,0,0,0,1.223-1.091.7.7,0,0,0-.375-.918c-.038-.009-.648.18-.776.468" transform="translate(-6.486 -1.443)" fill="#fae0b2"/>
      <path id="Path_3492" data-name="Path 3492" d="M137.788,30.711c.008.03.019.058.026.086l.89,3.5a1.957,1.957,0,0,0,2.217,1.422l2.228-.358a1.917,1.917,0,0,0,1.632-2.039c-.138-1.606-.29-2.758-.31-3.684Z" transform="translate(-6.567 -2.138)" fill="#96d9c9"/>
      <path id="Path_3493" data-name="Path 3493" d="M134.187,12.276l-1.759-3.129a.617.617,0,0,1,.254-.849.651.651,0,0,1,.871.248l1.759,3.13a.616.616,0,0,1-.254.848.65.65,0,0,1-.871-.248" transform="translate(-6.308 -0.593)" fill="#fae0b2"/>
      <path id="Path_3494" data-name="Path 3494" d="M130.02,20.627l-3.835-.327a.631.631,0,0,1-.584-.677.638.638,0,0,1,.7-.569l3.835.327a.626.626,0,1,1-.111,1.246" transform="translate(-5.986 -1.374)" fill="#fae0b2"/>
      <path id="Path_3495" data-name="Path 3495" d="M126.239,32.828a.613.613,0,0,1,.006-.884,20.833,20.833,0,0,1,3.082-2.449.651.651,0,0,1,.889.173.614.614,0,0,1-.177.867,19.556,19.556,0,0,0-2.892,2.3.654.654,0,0,1-.908-.006" transform="translate(-6.008 -2.12)" fill="#fae0b2"/>
      <path id="Path_3496" data-name="Path 3496" d="M144.206,11.926a.623.623,0,0,1-.454-.766,23.312,23.312,0,0,0,.79-4.855.642.642,0,0,1,1.281.067,24.4,24.4,0,0,1-.831,5.111.643.643,0,0,1-.786.443" transform="translate(-6.85 -0.412)" fill="#fae0b2"/>
      <path id="Path_3497" data-name="Path 3497" d="M148.376,17.432a.623.623,0,0,1,.43-.779l3.986-1.171a.645.645,0,0,1,.8.418.623.623,0,0,1-.43.779l-3.987,1.171a.645.645,0,0,1-.8-.418" transform="translate(-7.07 -1.115)" fill="#fae0b2"/>
      <path id="Path_3498" data-name="Path 3498" d="M155.028,28.511a.667.667,0,0,1-.174-.023,20.492,20.492,0,0,1-3.992-1.56.617.617,0,0,1-.266-.845.65.65,0,0,1,.868-.259,19.108,19.108,0,0,0,3.738,1.46.623.623,0,0,1,.444.771.639.639,0,0,1-.617.457" transform="translate(-7.174 -1.857)" fill="#fae0b2"/>
      <path id="Path_3499" data-name="Path 3499" d="M216.195,57.277l-2.011-4.635-5.059-1.012a.686.686,0,0,1-.322-1.2l3.9-3.3-.574-5a.708.708,0,0,1,1.071-.669l4.424,2.6,4.7-2.078a.7.7,0,0,1,.985.786l-1.169,4.9,3.482,3.716a.688.688,0,0,1-.463,1.155l-5.146.431-2.552,4.375a.718.718,0,0,1-1.27-.072" transform="translate(-9.94 -2.983)" fill="#f7cc7f"/>
      <path id="Path_3500" data-name="Path 3500" d="M249.583,41.376l-.827,3.245-5.505-.72-1.809,4.6-4.21.118.062,2.077,5.63-.158,1.715-4.358,5.726.749,1.245-4.882Z" transform="translate(-11.306 -2.984)" fill="#f48c7f"/>
      <path id="Path_3501" data-name="Path 3501" d="M193.522,207.631H96.753a6.728,6.728,0,0,1-6.692-6.763v-4.021a6.728,6.728,0,0,1,6.692-6.763h96.769a13.1,13.1,0,0,0-.178,17.343Z" transform="translate(-4.292 -13.709)" fill="#b75742"/>
      <path id="Path_3502" data-name="Path 3502" d="M194.11,192.251H140.437a6.764,6.764,0,0,0,0,13.527h53.678a13.121,13.121,0,0,1,0-13.527" transform="translate(-6.374 -13.865)" fill="#fae0b2"/>
      <path id="Path_3503" data-name="Path 3503" d="M160.057,176.907a.394.394,0,0,0-.4-.555h-51.2c-4.012,0-7.266,2.853-7.266,6.373s3.254,6.372,7.266,6.372h51.218a.394.394,0,0,0,.4-.558,11.931,11.931,0,0,1-.014-11.632" transform="translate(-4.822 -12.719)" fill="#86b1f2"/>
      <path id="Path_3504" data-name="Path 3504" d="M160.966,177.63H135.589c-4.71,0-8.528,2.39-8.528,5.34s3.818,5.339,8.528,5.339h25.544a11.9,11.9,0,0,1-.167-10.679" transform="translate(-6.056 -12.811)" fill="#f7cc7f"/>
      <path id="Path_3505" data-name="Path 3505" d="M155.552,180.358h-3.3c-.711,0-1.288.233-1.288.52v.046h4.592Z" transform="translate(-7.195 -13.007)" fill="#b75742"/>
      <path id="Path_3506" data-name="Path 3506" d="M158.433,181.66c0-.719-.863-1.3-1.928-1.3h-4.242c.808,0,1.463.443,1.463.988l-.021,13.961,2.344-1.8,2.388,1.8Z" transform="translate(-7.257 -13.007)" fill="#f47458"/>
      <path id="Path_3507" data-name="Path 3507" d="M151.387,175H121.594c-2.642,0-4.784-2.477-4.784-5.532s2.142-5.532,4.784-5.532h29.793a9.524,9.524,0,0,0-.212,10.749Z" transform="translate(-5.567 -11.823)" fill="#fae0b2"/>
      <path id="Path_3508" data-name="Path 3508" d="M115.9,169.421h0c0-3.056,2.192-5.532,4.9-5.532h30.244a.288.288,0,0,0,0-.572H103.063c-2.985,0-5.4,2.733-5.4,6.1s2.42,6.105,5.4,6.105h47.979a.289.289,0,0,0,0-.573H120.8c-2.7,0-4.9-2.477-4.9-5.532" transform="translate(-4.654 -11.778)" fill="#466eb6"/>
      <path id="Path_3509" data-name="Path 3509" d="M147.425,166.863h-3.3c-.711,0-1.288.228-1.288.509v.045h4.592Z" transform="translate(-6.807 -12.034)" fill="#184655"/>
      <path id="Path_3510" data-name="Path 3510" d="M150.306,168.14c0-.705-.863-1.278-1.928-1.278h-4.242c.808,0,1.463.434,1.463.969l-.021,13.692,2.344-1.761,2.388,1.761Z" transform="translate(-6.869 -12.034)" fill="#3c8f7c"/>
      <path id="Path_3511" data-name="Path 3511" d="M202.769,75.632l4.4-1.127-2.981,38.739-5.277.171,2.662-36.375a1.582,1.582,0,0,1,1.2-1.408" transform="translate(-9.48 -5.373)" fill="#184655"/>
      <path id="Path_3512" data-name="Path 3512" d="M204.777,114.348a1.487,1.487,0,0,1-.3,0,1.725,1.725,0,0,1-1.445-1.89l2.928-36.427a1.588,1.588,0,0,1,1.719-1.526,1.727,1.727,0,0,1,1.445,1.891L206.2,112.817a1.617,1.617,0,0,1-1.418,1.531" transform="translate(-9.676 -5.372)" fill="#f7cc7f"/>
      <path id="Path_3513" data-name="Path 3513" d="M162.359,119.244c0,.027,0,.054.006.081A2.575,2.575,0,0,0,165,121.8l37.144-3.239a2.539,2.539,0,0,0,2.133-2.891c-.006-.063-.014-.124-.024-.186Z" transform="translate(-7.738 -8.329)" fill="#f7cc7f"/>
      <path id="Path_3514" data-name="Path 3514" d="M188.609,161.611c-2.432,1.314-9.867-.99-9.867-1.2-.107,1.98-8.324,21.357-8.324,21.357l.007,5.962s16.934.786,16.69-.672-1.154-.509-4.532-3.263c-.3-.244-5.043-1.317-3.759-4.052,2.585-5.509,8.075-14.694,9.786-18.133" transform="translate(-8.122 -11.569)" fill="#f7a491"/>
      <path id="Path_3515" data-name="Path 3515" d="M169.813,189.6l18.536,0c.67-.066.826-.6.59-.919-.487-.663-4.039-2.229-6.427-3.267-4.16.473-11.471-1.086-12.14-2.01-1.761,2.3-.931,6.116-.558,6.191" transform="translate(-8.068 -13.228)" fill="#3c8f7c"/>
      <path id="Path_3516" data-name="Path 3516" d="M165.566,145.156c-.25-.733,15.959-7.435,16.685-6.67,1.284,1.355-8.77,26.782-8.77,26.782l11.551,3.439s12.009-29.377,11.508-34.75-6.518-11.479-19.553-7.571-11.421,18.769-11.421,18.769" transform="translate(-7.888 -9.026)" fill="#355389"/>
      <path id="Path_3517" data-name="Path 3517" d="M200.245,165.254a62.984,62.984,0,0,0-9.122-.672c.334,2.464,1.96,15.094,1.663,15.87a9.566,9.566,0,0,1-3.873,4.615s12.587,11.065,13.347,9.787-.561-1.107-1.383-5.323c-.073-.374-1.892-6.259-2.006-9.433-.215-6.054,1.28-11.482,1.374-14.844" transform="translate(-9.003 -11.87)" fill="#f7a491"/>
      <path id="Path_3518" data-name="Path 3518" d="M193.216,120.712c-1.756-.913-6.315-.945-11.327-.628a117.655,117.655,0,0,0-28.715,5.491l-6.222,2.008.021-6.215s-19.79-3.225-20.478,1.553c-1.037,7.2.25,21.806,6.844,25.067,20.48,10.129,49.181-16.136,49.285-12.7.14,4.615,4.133,21.788,5.153,29.308,2.84.047,7.718.045,9.834-.428.411-14.729.6-40.858-4.394-43.456" transform="translate(-6.013 -8.647)" fill="#466eb6"/>
      <path id="Path_3519" data-name="Path 3519" d="M188.509,186.557l14.149,11.012c.561.362,1.027.049,1.053-.346.055-.815-1.674-4.219-2.847-6.5-3.525-2.2-8.173-7.946-8.091-9.075-1.49,1.228-4.506,4.616-4.265,4.9" transform="translate(-8.983 -13.101)" fill="#3c8f7c"/>
      <path id="Path_3520" data-name="Path 3520" d="M152.505,54.959c-.475-4.233-.976-8.482-4.578-11.586a9.937,9.937,0,0,0-10.284-1.592c-10.383,3.806-5.033,12.79-18.273,21.849-4.114,2.814-8.648,4.741-11.745,8.531-4.335,5.306-2.7,11.686,1.253,15.947,18.9,20.386,40.011-7.146,41.526-13.754,1.128-4.916,2.407-16.668,2.1-19.395" transform="translate(-5.007 -2.959)" fill="#13375b"/>
      <path id="Path_3521" data-name="Path 3521" d="M149.655,80.986a56.208,56.208,0,0,0-3.135-4.975c-1.6-2.774-5.74-4.177-5.74-4.177s-1.385.028-2.974.1a1.215,1.215,0,0,1-.3.514c-.6.436-4.02-.127-6.231,1.335-7.411,6.19-5.362,36.192-4.779,45.668l22.571.209s-2.846-20.39,1.74-25.628c3.194-3.648,1.139-8.935-1.152-13.05" transform="translate(-5.995 -5.181)" fill="#04b5ff"/>
      <path id="Path_3522" data-name="Path 3522" d="M140.055,60.812s-1.241,8.633-2.108,10.731,4.765,6.585,9.45,7.946-1.431-4.634-1.237-6.877,1.046-12.861,1.046-12.861Z" transform="translate(-6.57 -4.309)" fill="#f7a491"/>
      <path id="Path_3523" data-name="Path 3523" d="M147.061,62.8c.137-1.756.236-3.045.236-3.045l-7.15,1.061s-.181,1.014-.38,2.449c2.9,1.639,5.506,1.121,7.294-.464" transform="translate(-6.661 -4.309)" fill="#f47458"/>
      <path id="Path_3524" data-name="Path 3524" d="M142.22,43.893a8.14,8.14,0,0,0-4.559,3.207c-1.741,2.589-2.935,10.206,2.8,13.761s10.189-1.473,10.263-6.379-1-11.454-8.5-10.589" transform="translate(-6.492 -3.16)" fill="#f7a491"/>
      <path id="Path_3525" data-name="Path 3525" d="M152.684,53.446c-.49,1.184-1.459,1.919-2.168,1.641s-.885-1.462-.4-2.646,1.459-1.919,2.167-1.641.885,1.462.4,2.646" transform="translate(-7.141 -3.659)" fill="#f7a491"/>
      <path id="Path_3526" data-name="Path 3526" d="M142.915,43.726s-3.593,7.853-6.75,8.554-3.111,4.653-3.111,4.653.07-9.126,3.029-11.218a12.7,12.7,0,0,1,6.832-1.989" transform="translate(-6.341 -3.153)" fill="#13375b"/>
      <path id="Path_3527" data-name="Path 3527" d="M137.468,54.56c.415,1.275.035,2.531-.849,2.8s-1.939-.538-2.354-1.814-.035-2.531.849-2.8,1.939.539,2.354,1.814" transform="translate(-6.391 -3.8)" fill="#f7a491"/>
      <path id="Path_3528" data-name="Path 3528" d="M177.712,113.922c-1.354-.477-3.37-.536-3.336-.711.135-.705,6.118,1.556,5.31.528-.45-.573-4.927-2.6-6.016-2.267-1.056.325-7.99,2.22-7.99,2.22l-18.95-4.327s-4.784-10.591-5.25-19.689A26.5,26.5,0,0,0,131.4,93.008c1.657,8.7,5.685,22.8,10.138,25.452,1.873,1.113,24.239-1.332,24.239-1.332a52.221,52.221,0,0,0,5.734-.641c.61-.229,2.183-1.092,3.039-1.328,1.945-.537,5.408.81,5.42.439a3.722,3.722,0,0,0-2.255-1.676" transform="translate(-6.262 -6.468)" fill="#f7a491"/>
      <path id="Path_3529" data-name="Path 3529" d="M141.5,78.688c-.182-2.8-1.27-5.5-4.328-6.374a6.316,6.316,0,0,0-5.535,1.182c-1.8,1.434-2.3,3.733-2.3,5.91a82.388,82.388,0,0,0,1.291,14.932,33.424,33.424,0,0,1,11.4-3.5c0-.029-.293-8.454-.534-12.154" transform="translate(-6.164 -5.2)" fill="#96d9c9"/>
      <path id="Path_3530" data-name="Path 3530" d="M78.939,82.819l-29.379-5.33a1.061,1.061,0,0,1-.869-1.235L52.371,57a1.085,1.085,0,0,1,1.268-.847l29.379,5.33a1.061,1.061,0,0,1,.869,1.235l-3.68,19.256a1.086,1.086,0,0,1-1.268.847" transform="translate(-2.32 -4.048)" fill="#f7cc7f"/>
      <path id="Path_3531" data-name="Path 3531" d="M65.278,60.651l-8.942-1.623a1.06,1.06,0,0,1-.869-1.234l.56-2.93a1.084,1.084,0,0,1,1.267-.847l8.943,1.623a1.061,1.061,0,0,1,.869,1.234l-.56,2.93a1.086,1.086,0,0,1-1.268.847" transform="translate(-2.643 -3.894)" fill="#f7cc7f"/>
      <path id="Path_3532" data-name="Path 3532" d="M80.272,82.236a1.087,1.087,0,0,1-1.245.753L49.457,77.625a1.066,1.066,0,0,1-.884-1.133L50.12,59.23a1.046,1.046,0,0,1,.426-.75,1.1,1.1,0,0,1,.856-.2l32.85,5.96a1.088,1.088,0,0,1,.725.482,1.038,1.038,0,0,1,.123.846Z" transform="translate(-2.315 -4.202)" fill="#fae0b2"/>
      <path id="Path_3533" data-name="Path 3533" d="M223.048,15.747l-5.031,1.338-1.083-5.939,1.646-.286.764,4.184,3.264-.868Z" transform="translate(-10.339 -0.783)" fill="#50bfa5"/>
      <path id="Path_3534" data-name="Path 3534" d="M55.056,104.043a7.929,7.929,0,0,1,4.061,1.014,5.8,5.8,0,0,1,2.164,2.179l-.233.158a5.3,5.3,0,0,0-2.706-1.622,6.681,6.681,0,0,0-3.02-.029Z" transform="translate(-2.624 -7.503)" fill="#355389"/>
      <path id="Path_3535" data-name="Path 3535" d="M61.119,107.225s-7.676,1.248-6.961,7.092S62.973,124.7,70.2,121.09c9.722-4.861,5.883-17.22-1.038-18.175s-8.043,4.31-8.043,4.31" transform="translate(-2.579 -7.414)" fill="#f47458"/>
      <path id="Path_3536" data-name="Path 3536" d="M64.848,104.723s2-2,6.39-.181,4.706,10.322.792,9.828-10.312-8.421-7.183-9.647" transform="translate(-3.051 -7.484)" fill="#f48c7f"/>
      <path id="Path_3537" data-name="Path 3537" d="M118.338,19.618,86.767,30.591a1.97,1.97,0,0,1-2.5-1.155L78.439,13.52a1.893,1.893,0,0,1,1.185-2.436L111.2.111a1.971,1.971,0,0,1,2.5,1.155l5.827,15.916a1.893,1.893,0,0,1-1.186,2.436" transform="translate(-3.733 0)" fill="#86b1f2"/>
      <path id="Path_3538" data-name="Path 3538" d="M97.759,16.419a6.057,6.057,0,0,1-3.791,7.79,6.3,6.3,0,0,1-8-3.693,6.055,6.055,0,0,1,3.791-7.79,6.3,6.3,0,0,1,8,3.693" transform="translate(-4.08 -0.892)" fill="#fff"/>
      <path id="Path_3539" data-name="Path 3539" d="M92.941,15.721a1.787,1.787,0,0,1-1.118,2.3,1.858,1.858,0,0,1-2.357-1.089,1.786,1.786,0,0,1,1.117-2.3,1.859,1.859,0,0,1,2.358,1.088" transform="translate(-4.259 -1.048)" fill="#86b1f2"/>
      <path id="Path_3540" data-name="Path 3540" d="M95.985,21.065,90.432,23l-.136-.37a2.365,2.365,0,0,1,1.481-3.043l.949-.33a2.462,2.462,0,0,1,3.123,1.442Z" transform="translate(-4.297 -1.378)" fill="#86b1f2"/>
      <path id="Path_3541" data-name="Path 3541" d="M99.144,12.654a.8.8,0,0,1-.751-.516.773.773,0,0,1,.483-.994l13.8-4.8a.827.827,0,0,1,.269-.045.8.8,0,0,1,.751.516.774.774,0,0,1-.484.994l-13.8,4.8a.794.794,0,0,1-.268.045" transform="translate(-4.687 -0.455)" fill="#fff"/>
      <path id="Path_3542" data-name="Path 3542" d="M103.056,16.349a.8.8,0,0,1-.751-.517.772.772,0,0,1,.483-.993l10.78-3.747a.826.826,0,0,1,.268-.045.8.8,0,0,1,.752.516.757.757,0,0,1-.03.594.788.788,0,0,1-.453.4L103.324,16.3a.794.794,0,0,1-.268.045" transform="translate(-4.873 -0.797)" fill="#fff"/>
      <path id="Path_3543" data-name="Path 3543" d="M167.821,150.529H91.588a4.232,4.232,0,0,0-4.286,4.176v3.513a4.232,4.232,0,0,0,4.286,4.175h76.233l-.04-.04a8.349,8.349,0,0,1,.04-11.825" transform="translate(-4.161 -10.856)" fill="#f47458"/>
      <path id="Path_3544" data-name="Path 3544" d="M168.178,152.422H127.425a4.178,4.178,0,1,0,0,8.353h40.752a8.326,8.326,0,0,1,0-8.353" transform="translate(-5.869 -10.993)" fill="#fae0b2"/>
      <path id="Path_3545" data-name="Path 3545" d="M237.07,149.025,231.291,134.9a1.374,1.374,0,0,1,.794-1.8l20.794-8.075a1.435,1.435,0,0,1,1.847.774l5.779,14.126a1.374,1.374,0,0,1-.794,1.8L238.916,149.8a1.434,1.434,0,0,1-1.847-.774" transform="translate(-11.018 -9.01)" fill="#fae0b2"/>
      <path id="Path_3546" data-name="Path 3546" d="M257.7,141.066l-5.192-12.693a.393.393,0,0,1,.228-.516.411.411,0,0,1,.53.222l5.193,12.693a.394.394,0,0,1-.229.516.41.41,0,0,1-.53-.222" transform="translate(-12.033 -9.219)" fill="#466eb6"/>
      <path id="Path_3547" data-name="Path 3547" d="M255.148,139.441l-4.264-10.421a.4.4,0,0,1,.229-.517.412.412,0,0,1,.53.222l4.264,10.422a.394.394,0,0,1-.228.516.412.412,0,0,1-.53-.222" transform="translate(-11.955 -9.266)" fill="#466eb6"/>
      <path id="Path_3548" data-name="Path 3548" d="M254.456,142.359l-5.193-12.693a.394.394,0,0,1,.229-.516.41.41,0,0,1,.53.222l5.193,12.693a.394.394,0,0,1-.229.516.411.411,0,0,1-.529-.222" transform="translate(-11.878 -9.312)" fill="#466eb6"/>
      <path id="Path_3549" data-name="Path 3549" d="M251.649,140.109l-4.007-9.8a.394.394,0,0,1,.228-.517.411.411,0,0,1,.529.223l4.008,9.8a.394.394,0,0,1-.229.516.411.411,0,0,1-.529-.222" transform="translate(-11.801 -9.359)" fill="#466eb6"/>
      <path id="Path_3550" data-name="Path 3550" d="M257.694,126.927l-.106-.254a.184.184,0,0,0-.234-.108l-1.972.767a.176.176,0,0,0-.094.234l.1.256a.187.187,0,0,0,.235.106l1.973-.766a.178.178,0,0,0,.1-.235" transform="translate(-12.166 -9.127)" fill="#355389"/>
      <path id="Path_3551" data-name="Path 3551" d="M258.163,128.106l-.1-.255a.184.184,0,0,0-.234-.107l-1.973.766a.176.176,0,0,0-.094.234l.1.256a.185.185,0,0,0,.234.106l1.974-.766a.177.177,0,0,0,.094-.234" transform="translate(-12.188 -9.212)" fill="#355389"/>
      <path id="Path_3552" data-name="Path 3552" d="M258.633,129.284l-.1-.255a.183.183,0,0,0-.233-.107l-1.974.766a.176.176,0,0,0-.094.234l.1.256a.185.185,0,0,0,.234.106l1.974-.766a.175.175,0,0,0,.094-.234" transform="translate(-12.211 -9.297)" fill="#355389"/>
      <path id="Path_3553" data-name="Path 3553" d="M259.1,130.462l-.1-.255a.184.184,0,0,0-.234-.107l-1.973.766a.176.176,0,0,0-.094.234l.1.256a.185.185,0,0,0,.234.106l1.973-.766a.176.176,0,0,0,.1-.234" transform="translate(-12.233 -9.382)" fill="#355389"/>
      <path id="Path_3554" data-name="Path 3554" d="M259.572,131.64l-.1-.254a.184.184,0,0,0-.234-.108l-1.973.766a.178.178,0,0,0-.1.234l.1.256a.185.185,0,0,0,.234.106l1.974-.766a.178.178,0,0,0,.094-.235" transform="translate(-12.255 -9.467)" fill="#355389"/>
      <path id="Path_3555" data-name="Path 3555" d="M260.042,132.819l-.1-.255a.184.184,0,0,0-.234-.107l-1.973.766a.176.176,0,0,0-.094.234l.1.256a.185.185,0,0,0,.234.106l1.974-.766a.178.178,0,0,0,.094-.235" transform="translate(-12.278 -9.552)" fill="#355389"/>
      <path id="Path_3556" data-name="Path 3556" d="M260.511,134l-.1-.255a.184.184,0,0,0-.234-.107l-1.973.766a.176.176,0,0,0-.094.234l.1.256a.185.185,0,0,0,.234.106l1.973-.766a.176.176,0,0,0,.1-.234" transform="translate(-12.3 -9.637)" fill="#355389"/>
      <path id="Path_3557" data-name="Path 3557" d="M260.981,135.175l-.1-.255a.183.183,0,0,0-.233-.107l-1.974.766a.176.176,0,0,0-.094.234l.1.256a.185.185,0,0,0,.234.106l1.974-.766a.177.177,0,0,0,.094-.235" transform="translate(-12.323 -9.722)" fill="#355389"/>
      <path id="Path_3558" data-name="Path 3558" d="M261.451,136.353l-.1-.255a.184.184,0,0,0-.234-.107l-1.973.766a.176.176,0,0,0-.094.234l.1.256a.185.185,0,0,0,.234.107l1.973-.766a.177.177,0,0,0,.1-.235" transform="translate(-12.345 -9.807)" fill="#355389"/>
      <path id="Path_3559" data-name="Path 3559" d="M261.92,137.532l-.1-.255a.184.184,0,0,0-.234-.107l-1.973.766a.177.177,0,0,0-.1.234l.1.256a.185.185,0,0,0,.234.106l1.973-.766a.177.177,0,0,0,.1-.235" transform="translate(-12.367 -9.892)" fill="#355389"/>
      <path id="Path_3560" data-name="Path 3560" d="M262.39,138.71l-.1-.256a.184.184,0,0,0-.234-.106l-1.973.766a.176.176,0,0,0-.094.234l.1.255a.184.184,0,0,0,.234.107l1.974-.766a.177.177,0,0,0,.094-.234" transform="translate(-12.39 -9.977)" fill="#355389"/>
      <path id="Path_3561" data-name="Path 3561" d="M262.859,139.888l-.1-.255a.184.184,0,0,0-.234-.107l-1.973.766a.176.176,0,0,0-.094.234l.1.256a.185.185,0,0,0,.234.106l1.974-.766a.176.176,0,0,0,.094-.234" transform="translate(-12.412 -10.062)" fill="#355389"/>
      <path id="Path_3562" data-name="Path 3562" d="M268.248,138.694l-8.253,11.45a.333.333,0,0,0-.043.083l-.841,2.515a.321.321,0,0,0,.5.349l2.208-1.622a.3.3,0,0,0,.07-.071l8.274-11.479a.311.311,0,0,0-.09-.447l-1.389-.864a.329.329,0,0,0-.439.084" transform="translate(-12.348 -9.993)" fill="#b75742"/>
      <path id="Path_3563" data-name="Path 3563" d="M261.885,152.32l-.02.028-2.131,1.565-.582-.379.8-2.385a9.984,9.984,0,0,1,1.935,1.17" transform="translate(-12.351 -10.901)" fill="#f7cc7f"/>
      <path id="Path_3564" data-name="Path 3564" d="M180.631,5.118c1.188.925,3.254,3.9,5.891,5.984,1.542,1.221,2.73.91,4.7,1.142,9.342,1.1,6.81,2.96,7.93,3.143-.318.714-3.228,6.741-3.772,7.959a2.288,2.288,0,0,1-2.626,1.457c-1.931-.26-3.881-.454-5.782-.856-4.875-1.03-7.588-3.405-11.082-6.291a2.189,2.189,0,0,1-.674-2.8,76.784,76.784,0,0,1,5.416-9.737" transform="translate(-8.339 -0.369)" fill="#466eb6"/>
      <path id="Path_3565" data-name="Path 3565" d="M200.074,22.485c-.042,1.984.114,2.381-.76,2.08a12.343,12.343,0,0,1-1.533-.667c-.35-.176-.365-.408-.079-.688.414-.405.84-.8,1.255-1.194a1.735,1.735,0,0,1,.79-2.109c.152-.087.041.1,1.342-2.82-4.3-.517-7.337-.864-12.585-1.493a7.147,7.147,0,0,1-3.736-1.584q-5.623-4.583-11.242-9.171a.992.992,0,0,1-.17-1.49,1.194,1.194,0,0,1,1.157-.322c1.2.147,12.941,1.568,14.134,1.7A7.825,7.825,0,0,1,192.8,6.472q5.524,4.507,11.061,9c.507.412.643.79.466,1.247a1,1,0,0,1-1.267.607.612.612,0,0,0-.83.458c-.724,1.9-1.229,2.318-1.054,3.01.135.534-.517,1.46-1.107,1.692" transform="translate(-8.249 -0.217)" fill="#86b1f2"/>
      <path id="Path_3566" data-name="Path 3566" d="M221.881,168.792l2.14,1.988A55.474,55.474,0,0,1,236.2,187.221l.329.676s5.6.482,6.386-4.455a82.439,82.439,0,0,1-12.3-17.607l-1.013-2.309Z" transform="translate(-10.575 -11.794)" fill="#466eb6"/>
      <path id="Path_3567" data-name="Path 3567" d="M229.589,163.513c.275.384-1.228,1.869-3.358,3.315s-4.087,2.326-4.363,1.942,1.238-1.886,3.367-3.333,4.078-2.309,4.353-1.924" transform="translate(-10.572 -11.786)" fill="#86b1f2"/>
      <path id="Path_3568" data-name="Path 3568" d="M229.684,163.534l-.007-.007s-4.266,3.519-6.025,3.878l.543.72a22.684,22.684,0,0,0,2.122-1.289c2.1-1.43,3.6-2.9,3.367-3.3" transform="translate(-10.659 -11.794)" fill="#355389"/>
      <path id="Path_3569" data-name="Path 3569" d="M235.736,174.544c.008.607-.23,3.224-4.7,4.316q.441.586.868,1.181c2.829-.815,4.1-2.23,4.673-3.308.09-.17.2-.4.272-.575q-.566-.8-1.112-1.615" transform="translate(-11.011 -12.588)" fill="#b75742"/>
      <path id="Path_3570" data-name="Path 3570" d="M231.127,178.344l-6.579-.229,1.559,1.289-.931,1.647,6.226-1.546Z" transform="translate(-10.702 -12.846)" fill="#b75742"/>
      <path id="Path_3571" data-name="Path 3571" d="M231.969,179.969l-2.337,3.968,1.644-.611.632,1.26,1.1-4.173Z" transform="translate(-10.944 -12.979)" fill="#b75742"/>
      <path id="Path_3572" data-name="Path 3572" d="M232.91,180.8a2.105,2.105,0,1,1,1.939-2.245,2.111,2.111,0,0,1-1.939,2.245" transform="translate(-10.993 -12.736)" fill="#f47458"/>
      <path id="Path_3573" data-name="Path 3573" d="M246.968,82.449,233.114,70.4c-.9-.783-.526-2.393.716-3.079l11.057-6.1a1.767,1.767,0,0,1,2.018.092L260.76,73.364c.9.782.526,2.393-.717,3.078l-11.057,6.1a1.764,1.764,0,0,1-2.018-.092" transform="translate(-11.086 -4.396)" fill="#9bc1f9"/>
      <path id="Path_3574" data-name="Path 3574" d="M246.939,73.005l-1.155-9.255a.831.831,0,0,1,.592-.845.55.55,0,0,1,.751.438l1.063,8.515L258.7,74.334a.56.56,0,0,1,.352.8.817.817,0,0,1-.889.511Z" transform="translate(-11.713 -4.534)" fill="#fff"/>
      <path id="Path_3575" data-name="Path 3575" d="M1.343,208.876A1.435,1.435,0,0,0,0,210.389c0,.836.6,1.514,1.5.5H274.365c.349,0,.632-.446.635-1s-.283-1.012-.635-1.012Z" transform="translate(0 -15.064)" fill="#184655"/>
      <path id="Path_3576" data-name="Path 3576" d="M56.872,28.11,58.3,30.87l3.235-.1,1.38,3.2,3.412-1.144,1.725,3.557,3.275-.676,2.234,3.158-1.227.824-1.67-2.361-3.456.713-1.658-3.418-3.469,1.163-1.523-3.536-3.159.1-1.328-2.558-2.061.489-.352-1.411Z" transform="translate(-2.558 -2.027)" fill="#f7cc7f"/>
      <path id="Path_3577" data-name="Path 3577" d="M238.866,103.93l2.941,1.164,2.37-2.148,3.2,1.533,1.8-3.046,3.7,1.577,2.013-2.605,3.813.951-.37,1.406-2.851-.711L253.36,104.8l-3.555-1.516-1.831,3.1-3.532-1.692-2.315,2.1-2.726-1.08-1.225,1.688-1.216-.839Z" transform="translate(-11.293 -7.241)" fill="#50bfa5"/>
    </g>
  </g>
</svg>
