<svg xmlns="http://www.w3.org/2000/svg" xmlns:xlink="http://www.w3.org/1999/xlink" width="149.699" height="138" viewBox="0 0 149.699 138">
  <defs>
    <clipPath id="clip-path">
      <rect id="Rectangle_772" data-name="Rectangle 772" width="149.699" height="138" fill="none"/>
    </clipPath>
    <clipPath id="clip-path-3">
      <rect id="Rectangle_761" data-name="Rectangle 761" width="105.656" height="105.656" fill="none"/>
    </clipPath>
    <clipPath id="clip-path-4">
      <rect id="Rectangle_762" data-name="Rectangle 762" width="15.469" height="17.716" fill="none"/>
    </clipPath>
    <clipPath id="clip-path-5">
      <rect id="Rectangle_763" data-name="Rectangle 763" width="19.128" height="20.998" fill="none"/>
    </clipPath>
    <clipPath id="clip-path-6">
      <rect id="Rectangle_764" data-name="Rectangle 764" width="22.094" height="13.878" fill="none"/>
    </clipPath>
    <clipPath id="clip-path-7">
      <rect id="Rectangle_765" data-name="Rectangle 765" width="31.396" height="31.397" fill="none"/>
    </clipPath>
    <clipPath id="clip-path-8">
      <rect id="Rectangle_766" data-name="Rectangle 766" width="15.511" height="15.991" fill="none"/>
    </clipPath>
    <clipPath id="clip-path-9">
      <rect id="Rectangle_767" data-name="Rectangle 767" width="10.763" height="14.745" fill="none"/>
    </clipPath>
    <clipPath id="clip-path-10">
      <rect id="Rectangle_768" data-name="Rectangle 768" width="20.484" height="13.574" fill="none"/>
    </clipPath>
    <clipPath id="clip-path-11">
      <rect id="Rectangle_769" data-name="Rectangle 769" width="16.319" height="11.695" fill="none"/>
    </clipPath>
    <clipPath id="clip-path-12">
      <rect id="Rectangle_770" data-name="Rectangle 770" width="58.166" height="19.4" fill="none"/>
    </clipPath>
  </defs>
  <g id="servicesIcon" transform="translate(-89.864 9)">
    <g id="Group_1558" data-name="Group 1558" transform="translate(89.864 -9)" clip-path="url(#clip-path)">
      <g id="Group_1557" data-name="Group 1557">
        <g id="Group_1556" data-name="Group 1556" clip-path="url(#clip-path)">
          <g id="Group_1528" data-name="Group 1528" transform="translate(24.207 30.072)" opacity="0.2">
            <g id="Group_1527" data-name="Group 1527">
              <g id="Group_1526" data-name="Group 1526" clip-path="url(#clip-path-3)">
                <path id="Path_4030" data-name="Path 4030" d="M143.931,100.377A52.828,52.828,0,1,0,91.1,153.205a52.828,52.828,0,0,0,52.828-52.828" transform="translate(-38.275 -47.549)" fill="#719dfc"/>
              </g>
            </g>
          </g>
          <g id="Group_1531" data-name="Group 1531" transform="translate(70.898 7.107)" opacity="0.5">
            <g id="Group_1530" data-name="Group 1530">
              <g id="Group_1529" data-name="Group 1529" clip-path="url(#clip-path-4)">
                <path id="Path_4031" data-name="Path 4031" d="M127.527,26.7a1.109,1.109,0,0,1-.526.666,1.083,1.083,0,0,1-.884.1l-13.181-3.8a1.082,1.082,0,0,1-.7-.554,1.105,1.105,0,0,1-.091-.844,1.169,1.169,0,0,1,.531-.683l.142-.108a6.6,6.6,0,0,0,1.632-1.277,9.021,9.021,0,0,0,1.637-3.358,5.448,5.448,0,0,1,2.236-3.111,5.558,5.558,0,0,1,3.692-.943l.207-.721a1.143,1.143,0,0,1,2.2.633l-.208.721a5.557,5.557,0,0,1,2.624,2.764,5.443,5.443,0,0,1,.237,3.823,9.027,9.027,0,0,0-.4,3.714,6.608,6.608,0,0,0,.7,1.95,1.137,1.137,0,0,0,.063.167,1.173,1.173,0,0,1,.087.861m-2.171-1.24a9.289,9.289,0,0,1,.063-5.893l.009-.034a4,4,0,1,0-7.689-2.217l-.01.035a9.292,9.292,0,0,1-3.083,5.022Zm-8.142,2.32a2.181,2.181,0,0,1-.2-1.75l4.394,1.267a2.183,2.183,0,0,1-1.1,1.374,2.286,2.286,0,0,1-3.089-.89" transform="translate(-112.103 -11.237)" fill="#719dfc"/>
              </g>
            </g>
          </g>
          <g id="Group_1534" data-name="Group 1534" transform="translate(115.629 48.984)" opacity="0.5">
            <g id="Group_1533" data-name="Group 1533">
              <g id="Group_1532" data-name="Group 1532" clip-path="url(#clip-path-5)">
                <path id="Path_4032" data-name="Path 4032" d="M198.293,82.5l.67,2.186.683-.209a.427.427,0,0,1,.536.285l.418,1.366a.427.427,0,0,1-.285.536l-.682.209.668,2.186.684-.209a.427.427,0,0,1,.535.285l.419,1.367a.426.426,0,0,1-.285.535l-.683.209.5,1.64a1.707,1.707,0,0,1-1.138,2.141L189.4,98.37a1.706,1.706,0,0,1-2.141-1.137l-4.351-14.211a1.707,1.707,0,0,1,1.138-2.141l10.931-3.347a1.708,1.708,0,0,1,2.141,1.137l.5,1.64.683-.209a.415.415,0,0,1,.327.031.409.409,0,0,1,.208.254l.419,1.366a.427.427,0,0,1-.285.536Zm-2.811-3.323L184.551,82.52,188.9,96.731l10.93-3.347ZM189.87,93.24a.609.609,0,0,1-.364-.393l-.2-.65a1.878,1.878,0,0,1,.238-1.6,2.489,2.489,0,0,1,1.444-1.077,1.379,1.379,0,0,1,.475-.034,3.756,3.756,0,0,0,2.187-.67,1.691,1.691,0,0,1,.412-.238,2.5,2.5,0,0,1,1.8.084,1.877,1.877,0,0,1,1.095,1.2l.2.649a.606.606,0,0,1-.081.529.824.824,0,0,1-.472.35l-6.149,1.883a.828.828,0,0,1-.587-.026m.587-5.466a2.244,2.244,0,1,1,1.735.178,2.2,2.2,0,0,1-1.735-.178" transform="translate(-182.831 -77.453)" fill="#719dfc"/>
              </g>
            </g>
          </g>
          <g id="Group_1537" data-name="Group 1537" transform="translate(8.952 50.084)" opacity="0.5">
            <g id="Group_1536" data-name="Group 1536">
              <g id="Group_1535" data-name="Group 1535" clip-path="url(#clip-path-6)">
                <path id="Path_4033" data-name="Path 4033" d="M35.311,90.817a3.76,3.76,0,0,0,.6.467.74.74,0,0,1,.292.381.772.772,0,0,1,.017.47.974.974,0,0,1-.231.408.742.742,0,0,1-.411.225,8.078,8.078,0,0,1-4.648-.527,9.408,9.408,0,0,1-2.058.65,8.745,8.745,0,0,1-4.234-.169,6.272,6.272,0,0,1-3.127-1.983q-.54.031-1.051.02a7.965,7.965,0,0,1-4.123,2.21.738.738,0,0,1-.465-.056.986.986,0,0,1-.366-.293.693.693,0,0,1-.14-.447.806.806,0,0,1,.133-.443,6.192,6.192,0,0,0,.363-.67,13.114,13.114,0,0,0,.579-1.53,4.774,4.774,0,0,1-2.2-3.143,4.643,4.643,0,0,1,.444-3,6.84,6.84,0,0,1,2.255-2.561,8.951,8.951,0,0,1,3.522-1.458,8.853,8.853,0,0,1,4.251.166,6.254,6.254,0,0,1,3.144,1.979,8.687,8.687,0,0,1,3.332.4,6.456,6.456,0,0,1,2.608,1.555,4.562,4.562,0,0,1,1.3,2.406,4.773,4.773,0,0,1-.884,3.735,13.106,13.106,0,0,0,1.1,1.207M20.528,89.034a7.444,7.444,0,0,0,4.444-1.2A5.586,5.586,0,0,0,26.749,86,2.895,2.895,0,0,0,26,82.109a5.585,5.585,0,0,0-2.329-1.045,7.563,7.563,0,0,0-5.578,1.071,5.588,5.588,0,0,0-1.777,1.833,2.972,2.972,0,0,0-.4,2.095A3.132,3.132,0,0,0,17.4,88.107l1.038.674L18.1,90.01l-.185.545a6.092,6.092,0,0,0,1.366-1.026l.522-.5ZM33.4,86.181a3.119,3.119,0,0,0-1.56-2.065,6.171,6.171,0,0,0-3.115-.876l.1.345A4.553,4.553,0,0,1,28.5,86.34a6.591,6.591,0,0,1-1.883,2.417,8.42,8.42,0,0,1-3.007,1.577,5.533,5.533,0,0,0,2.228.9,7.459,7.459,0,0,0,4.383-.569l.675-.275.67.271a6.109,6.109,0,0,0,1.65.448l-.381-.473L32.1,89.65l.681-1a3.148,3.148,0,0,0,.618-2.465" transform="translate(-14.154 -79.192)" fill="#719dfc"/>
              </g>
            </g>
          </g>
          <path id="Path_4034" data-name="Path 4034" d="M58.449,32.6a15.7,15.7,0,1,1-15.7-15.7,15.7,15.7,0,0,1,15.7,15.7" transform="translate(-9.943 -6.211)" fill="#01063d"/>
          <path id="Path_4035" data-name="Path 4035" d="M54.585,38.3a3.384,3.384,0,0,1-.087,1.225,3.264,3.264,0,0,1-.507,1.119,3.115,3.115,0,0,1-.98,2.379,4.215,4.215,0,0,1-2.974.945h-.77a10.808,10.808,0,0,1-2.694-.315,14.078,14.078,0,0,1-1.749-.6q-.631-.245-.909-.35a2.99,2.99,0,0,0-.876-.14,1.205,1.205,0,0,1-.4.6,1.044,1.044,0,0,1-.682.245H39.716a1.135,1.135,0,0,1-1.12-1.119v-8.4a1.134,1.134,0,0,1,1.12-1.12h3.463a12.357,12.357,0,0,0,1.19-1.417,17.089,17.089,0,0,1,1.224-1.487,2.751,2.751,0,0,0,.316-1.014,7.86,7.86,0,0,1,.629-1.82,1.711,1.711,0,0,1,1.54-.98,3.31,3.31,0,0,1,2.449.875,3.887,3.887,0,0,1,.91,2.8,4.4,4.4,0,0,1-.315,1.61h1.259a2.846,2.846,0,0,1,2.134.909,2.941,2.941,0,0,1,.875,2.1A3.42,3.42,0,0,1,54.9,36.1a3.15,3.15,0,0,1-.315,2.2M41.429,40.574a.843.843,0,1,0,.246.6.809.809,0,0,0-.246-.6m11.88-3.8a1.508,1.508,0,0,0-.368-1.1q.246,0,.507-.42a1.684,1.684,0,0,0,.263-.909,1.328,1.328,0,0,0-.385-.91,1.236,1.236,0,0,0-.945-.42H48.742a2.43,2.43,0,0,1,.176-.875,4.775,4.775,0,0,1,.314-.735,8.262,8.262,0,0,0,.35-.77,2.5,2.5,0,0,0,.175-.909,3.146,3.146,0,0,0-.21-1.33,1.551,1.551,0,0,0-1.469-.665,2,2,0,0,0-.316.594,6.928,6.928,0,0,0-.175.736q-.139.7-.245,1.049a2.617,2.617,0,0,1-.594.945,14.36,14.36,0,0,0-1.014,1.26,14.047,14.047,0,0,1-1.155,1.434,1.8,1.8,0,0,1-1.12.7h-.384v6.508a5.343,5.343,0,0,1,1.294.175,12.73,12.73,0,0,1,1.259.42q1.05.349,1.61.49a7.382,7.382,0,0,0,1.855.245h1.295a1.966,1.966,0,0,0,1.5-.525,2.019,2.019,0,0,0,.385-1.785,1.372,1.372,0,0,0,.594-.857,1.472,1.472,0,0,0-.1-1.138,1.724,1.724,0,0,0,.543-1.207" transform="translate(-14.186 -9.576)" fill="#fff"/>
          <g id="Group_1540" data-name="Group 1540" transform="translate(107.203 10.688)" opacity="0.5">
            <g id="Group_1539" data-name="Group 1539">
              <g id="Group_1538" data-name="Group 1538" clip-path="url(#clip-path-7)">
                <path id="Path_4036" data-name="Path 4036" d="M200.9,32.6a15.7,15.7,0,1,1-15.7-15.7,15.7,15.7,0,0,1,15.7,15.7" transform="translate(-169.508 -16.899)" fill="#719dfc"/>
              </g>
            </g>
          </g>
          <path id="Path_4037" data-name="Path 4037" d="M193.81,39.871l.99-.99a.25.25,0,0,1,.433.185v4.488a1.479,1.479,0,0,1-1.485,1.485H182.855a1.48,1.48,0,0,1-1.486-1.485V32.66a1.48,1.48,0,0,1,1.486-1.486h8.479a.219.219,0,0,1,.216.155.239.239,0,0,1-.061.278l-.99.99a.212.212,0,0,1-.155.062h-7.489V43.554h10.893V40.025a.209.209,0,0,1,.061-.154m4.859-6.252-8.139,8.139-2.785.309a1.293,1.293,0,0,1-1.424-1.424l.309-2.785,8.139-8.139a1.831,1.831,0,0,1,2.569,0l1.331,1.331a1.83,1.83,0,0,1,0,2.568m-3.064.959-1.795-1.794-5.755,5.756-.217,2.011,2.011-.216Zm2.012-2.475-1.331-1.331a.336.336,0,0,0-.464,0l-.959.959,1.795,1.795.959-.959a.336.336,0,0,0,0-.464" transform="translate(-66.664 -10.731)" fill="#fff"/>
          <path id="Path_4038" data-name="Path 4038" d="M42.908,149.476a15.7,15.7,0,1,1-15.7-15.7,15.7,15.7,0,0,1,15.7,15.7" transform="translate(-4.231 -49.172)" fill="#719dfc"/>
          <path id="Path_4039" data-name="Path 4039" d="M35.561,144.84a9.618,9.618,0,0,1,3.471,3.473,9.442,9.442,0,0,1,0,9.514,9.606,9.606,0,0,1-3.471,3.472,9.448,9.448,0,0,1-9.514,0,9.613,9.613,0,0,1-3.472-3.472,9.446,9.446,0,0,1,0-9.514,9.625,9.625,0,0,1,3.472-3.473,9.452,9.452,0,0,1,9.514,0m-8.429,1.878a7.407,7.407,0,0,0-2.68,2.68,7.3,7.3,0,0,0,0,7.343,7.412,7.412,0,0,0,2.68,2.68,7.3,7.3,0,0,0,7.343,0,7.412,7.412,0,0,0,2.68-2.68,7.3,7.3,0,0,0,0-7.343,7.407,7.407,0,0,0-2.68-2.68,7.292,7.292,0,0,0-7.343,0m8.958,4.111a.349.349,0,0,1-.147.294L29.628,157.4a.457.457,0,0,1-.33.147A.348.348,0,0,1,29,157.4l-3.341-3.341a.456.456,0,0,1-.147-.331.348.348,0,0,1,.147-.293l.844-.844a.4.4,0,0,1,.294-.11.537.537,0,0,1,.33.11l2.166,2.239,5.213-5.177a.4.4,0,0,1,.293-.11.456.456,0,0,1,.331.147l.808.808a.456.456,0,0,1,.147.33" transform="translate(-7.825 -52.766)" fill="#fff"/>
          <path id="Path_4040" data-name="Path 4040" d="M212.883,141.382a15.7,15.7,0,1,1-15.7-15.7,15.7,15.7,0,0,1,15.7,15.7" transform="translate(-66.708 -46.197)" fill="#04b5ff"/>
          <path id="Path_4041" data-name="Path 4041" d="M209.9,139.335a1.785,1.785,0,0,1,.54,1.312v11.109a1.844,1.844,0,0,1-1.851,1.852H192.546a1.845,1.845,0,0,1-1.852-1.852V140.647a1.845,1.845,0,0,1,1.852-1.852h16.047a1.785,1.785,0,0,1,1.311.54m-17.358,1.312v1.581q1.35,1.081,5.208,4.089l.347.309a9.383,9.383,0,0,0,1.234.926,1.77,1.77,0,0,0,2.469,0,9.335,9.335,0,0,0,1.235-.926l.347-.309q3.857-2.969,5.207-4.089v-1.581Zm16.047,11.109v-7.174l-4.475,3.549a11.186,11.186,0,0,1-1.582,1.157,3.884,3.884,0,0,1-1.967.617,4.085,4.085,0,0,1-2.005-.617,15.216,15.216,0,0,1-1.582-1.157l-4.436-3.549v7.174Z" transform="translate(-70.092 -51.016)" fill="#fff"/>
          <path id="Path_4042" data-name="Path 4042" d="M91.047,43.6H85.475a.684.684,0,0,1-.685-.684V37.339a.684.684,0,0,1,.685-.685h5.572a.685.685,0,0,1,.685.685v5.572a.684.684,0,0,1-.685.684m-4.887-1.37h4.2v-4.2h-4.2Z" transform="translate(-31.166 -13.473)" fill="#719dfc"/>
          <path id="Path_4043" data-name="Path 4043" d="M94.648,37.034a.233.233,0,0,1-.1.2l-4.226,4.2a.3.3,0,0,1-.221.1.234.234,0,0,1-.2-.1L87.671,39.2a.3.3,0,0,1-.1-.221.233.233,0,0,1,.1-.2l.565-.565a.266.266,0,0,1,.2-.074.359.359,0,0,1,.221.074l1.45,1.5,3.489-3.464a.265.265,0,0,1,.2-.074.3.3,0,0,1,.221.1l.541.54a.307.307,0,0,1,.1.221" transform="translate(-32.188 -13.296)" fill="#1d262d"/>
          <path id="Path_4044" data-name="Path 4044" d="M61.908,83.958H56.336a.685.685,0,0,1-.685-.685V77.7a.685.685,0,0,1,.685-.686h5.572a.685.685,0,0,1,.685.686v5.572a.685.685,0,0,1-.685.685m-4.887-1.37h4.2v-4.2h-4.2Z" transform="translate(-20.455 -28.308)" fill="#719dfc"/>
          <path id="Path_4045" data-name="Path 4045" d="M65.51,77.4a.234.234,0,0,1-.1.2l-4.226,4.2a.305.305,0,0,1-.221.1.232.232,0,0,1-.2-.1l-2.236-2.236a.3.3,0,0,1-.1-.221.233.233,0,0,1,.1-.2l.565-.565a.264.264,0,0,1,.2-.074.36.36,0,0,1,.221.074l1.45,1.5,3.488-3.464a.266.266,0,0,1,.2-.074.305.305,0,0,1,.221.1l.541.54a.307.307,0,0,1,.1.221" transform="translate(-21.478 -28.132)" fill="#1d262d"/>
          <path id="Path_4046" data-name="Path 4046" d="M176.844,123.134h-5.572a.685.685,0,0,1-.685-.685v-5.572a.685.685,0,0,1,.685-.686h5.572a.685.685,0,0,1,.685.686v5.572a.685.685,0,0,1-.685.685m-4.887-1.37h4.2v-4.2h-4.2Z" transform="translate(-62.701 -42.707)" fill="#719dfc"/>
          <path id="Path_4047" data-name="Path 4047" d="M180.446,116.572a.233.233,0,0,1-.1.2l-4.225,4.2a.3.3,0,0,1-.221.1.232.232,0,0,1-.2-.1l-2.236-2.236a.3.3,0,0,1-.1-.221.233.233,0,0,1,.1-.2l.565-.565a.266.266,0,0,1,.2-.074.359.359,0,0,1,.221.074l1.45,1.5,3.489-3.464a.264.264,0,0,1,.2-.074.305.305,0,0,1,.221.1l.54.54a.306.306,0,0,1,.1.221" transform="translate(-63.724 -42.531)" fill="#1d262d"/>
          <path id="Path_4048" data-name="Path 4048" d="M147.259,64.232a1.162,1.162,0,0,1-.291-.847,2.083,2.083,0,0,0-1.949-2.208,1.171,1.171,0,0,1,.146-2.338,4.427,4.427,0,0,1,4.141,4.693,1.171,1.171,0,0,1-2.047.7" transform="translate(-52.9 -21.626)" fill="#1d262d"/>
          <path id="Path_4049" data-name="Path 4049" d="M151.162,62.279a1.167,1.167,0,0,1-.29-.848,5.853,5.853,0,0,0-5.479-6.209,1.171,1.171,0,0,1,.146-2.338,8.2,8.2,0,0,1,7.67,8.694,1.171,1.171,0,0,1-2.047.7" transform="translate(-53.037 -19.437)" fill="#1d262d"/>
          <path id="Path_4050" data-name="Path 4050" d="M155.064,60.326a1.166,1.166,0,0,1-.29-.849,9.623,9.623,0,0,0-9.007-10.209,1.171,1.171,0,1,1,.144-2.338,11.966,11.966,0,0,1,11.2,12.7,1.171,1.171,0,0,1-2.047.7" transform="translate(-53.174 -17.249)" fill="#1d262d"/>
          <g id="Group_1543" data-name="Group 1543" transform="translate(122.106 116.593)" opacity="0.2">
            <g id="Group_1542" data-name="Group 1542">
              <g id="Group_1541" data-name="Group 1541" clip-path="url(#clip-path-8)">
                <path id="Path_4051" data-name="Path 4051" d="M193.45,189.184a1.39,1.39,0,0,1,.973-.436,2.478,2.478,0,0,0,2.4-2.547,1.392,1.392,0,0,1,2.783-.082,5.261,5.261,0,0,1-5.1,5.412,1.392,1.392,0,0,1-1.054-2.347" transform="translate(-193.071 -184.507)" fill="#719dfc"/>
                <path id="Path_4052" data-name="Path 4052" d="M193.657,193.591a1.39,1.39,0,0,1,.973-.436,6.958,6.958,0,0,0,6.754-7.16,1.392,1.392,0,0,1,2.783-.082,9.744,9.744,0,0,1-9.457,10.025,1.393,1.393,0,0,1-1.053-2.347" transform="translate(-193.147 -184.431)" fill="#719dfc"/>
                <path id="Path_4053" data-name="Path 4053" d="M193.863,198a1.389,1.389,0,0,1,.974-.436,11.44,11.44,0,0,0,11.106-11.773,1.392,1.392,0,1,1,2.783-.084,14.226,14.226,0,0,1-13.812,14.64A1.392,1.392,0,0,1,193.863,198" transform="translate(-193.222 -184.355)" fill="#719dfc"/>
              </g>
            </g>
          </g>
          <g id="Group_1546" data-name="Group 1546" transform="translate(86.392 0.869)" opacity="0.2">
            <g id="Group_1545" data-name="Group 1545">
              <g id="Group_1544" data-name="Group 1544" clip-path="url(#clip-path-9)">
                <path id="Path_4054" data-name="Path 4054" d="M138.329,16.639a1.053,1.053,0,0,1-.011-.808,1.877,1.877,0,0,0-1.05-2.436,1.055,1.055,0,0,1,.78-1.961,3.986,3.986,0,0,1,2.231,5.177,1.055,1.055,0,0,1-1.949.027" transform="translate(-136.602 -5.044)" fill="#719dfc"/>
                <path id="Path_4055" data-name="Path 4055" d="M142.215,16.06a1.053,1.053,0,0,1-.011-.808,5.273,5.273,0,0,0-2.951-6.85,1.055,1.055,0,1,1,.779-1.961,7.382,7.382,0,0,1,4.132,9.591,1.055,1.055,0,0,1-1.949.027" transform="translate(-137.332 -3.209)" fill="#719dfc"/>
                <path id="Path_4056" data-name="Path 4056" d="M146.1,15.48a1.053,1.053,0,0,1-.011-.809A8.669,8.669,0,0,0,141.24,3.41a1.055,1.055,0,1,1,.777-1.962,10.779,10.779,0,0,1,6.035,14.006,1.055,1.055,0,0,1-1.949.027" transform="translate(-138.062 -1.374)" fill="#719dfc"/>
              </g>
            </g>
          </g>
          <g id="Group_1549" data-name="Group 1549" transform="translate(11.499 118.141)" opacity="0.2">
            <g id="Group_1548" data-name="Group 1548">
              <g id="Group_1547" data-name="Group 1547" clip-path="url(#clip-path-10)">
                <path id="Path_4057" data-name="Path 4057" d="M31.9,186.837a1.388,1.388,0,0,1,.869.617,2.476,2.476,0,0,0,3.413.78,1.392,1.392,0,0,1,1.481,2.358,5.262,5.262,0,0,1-7.252-1.658,1.393,1.393,0,0,1,1.489-2.1" transform="translate(-22.597 -186.802)" fill="#719dfc"/>
                <path id="Path_4058" data-name="Path 4058" d="M25.891,190.608a1.388,1.388,0,0,1,.868.617,6.959,6.959,0,0,0,9.6,2.194,1.392,1.392,0,0,1,1.481,2.358A9.743,9.743,0,0,1,24.4,192.705a1.393,1.393,0,0,1,1.491-2.1" transform="translate(-20.389 -188.188)" fill="#719dfc"/>
                <path id="Path_4059" data-name="Path 4059" d="M19.884,194.378a1.391,1.391,0,0,1,.87.619,11.44,11.44,0,0,0,15.776,3.608,1.392,1.392,0,1,1,1.484,2.356,14.225,14.225,0,0,1-19.621-4.487,1.392,1.392,0,0,1,1.491-2.1" transform="translate(-18.181 -189.574)" fill="#719dfc"/>
              </g>
            </g>
          </g>
          <path id="Path_4060" data-name="Path 4060" d="M52.2,123.851H46.081v-1.5l2.06-2.083q.882-.923,1.154-1.26a2.783,2.783,0,0,0,.378-.579,1.253,1.253,0,0,0,.107-.508.66.66,0,0,0-.214-.519.87.87,0,0,0-.6-.19,1.637,1.637,0,0,0-.8.228,5.763,5.763,0,0,0-.92.672l-1.252-1.466a6.752,6.752,0,0,1,1.1-.834,3.927,3.927,0,0,1,.966-.383,4.776,4.776,0,0,1,1.174-.133,3.539,3.539,0,0,1,1.462.288,2.292,2.292,0,0,1,1,.822,2.116,2.116,0,0,1,.355,1.2,3.093,3.093,0,0,1-.508,1.746,5.749,5.749,0,0,1-.689.856q-.43.45-1.832,1.708v.058H52.2Z" transform="translate(-16.904 -42.378)" fill="#1d262d"/>
          <path id="Path_4061" data-name="Path 4061" d="M63.387,122.289h-.928v1.633h-2.25v-1.633H56.845v-1.673l3.508-5.129h2.106v5.1h.928Zm-3.179-1.7v-.981q0-.277.02-.747a4.831,4.831,0,0,1,.032-.493H60.2a6.059,6.059,0,0,1-.445.83l-.934,1.391Z" transform="translate(-20.894 -42.449)" fill="#1d262d"/>
          <path id="Path_4062" data-name="Path 4062" d="M72.817,123.606v-3.566q0-1.316-.779-1.315a.873.873,0,0,0-.816.464,3.324,3.324,0,0,0-.262,1.543v2.874H68.7v-8.977H70.96V115.9q0,.866-.092,1.973h.1a1.853,1.853,0,0,1,.767-.715,2.412,2.412,0,0,1,1.033-.207,2.257,2.257,0,0,1,1.705.631,2.446,2.446,0,0,1,.608,1.768v4.253Z" transform="translate(-25.253 -42.133)" fill="#1d262d"/>
          <path id="Path_4063" data-name="Path 4063" d="M136.675,9.076a.623.623,0,1,1,.163.021.721.721,0,0,1-.163-.021m-2.367-.663a.606.606,0,1,1,.168.025.592.592,0,0,1-.168-.025M64.185,7.851a.614.614,0,1,1,.7.508.854.854,0,0,1-.1.008.614.614,0,0,1-.606-.516m2.424-.4a.614.614,0,1,1,.7.508.4.4,0,0,1-.1.008.615.615,0,0,1-.607-.516m65.331.3A.621.621,0,0,1,131.515,7a.611.611,0,0,1,.758-.426v0a.616.616,0,0,1-.164,1.208.8.8,0,0,1-.168-.02M69.034,7.061a.614.614,0,1,1,1.212-.2.61.61,0,0,1-.5.7h0a.393.393,0,0,1-.1.008.614.614,0,0,1-.606-.512m2.424-.4a.614.614,0,1,1,.708.508.8.8,0,0,1-.1.008.618.618,0,0,1-.606-.516m58.115.426a.626.626,0,1,1,.168.02.589.589,0,0,1-.168-.02M73.887,6.266a.614.614,0,0,1,1.212-.2.619.619,0,0,1-.508.708.851.851,0,0,1-.1.008.61.61,0,0,1-.6-.516m53.323.16a.6.6,0,1,1,.164.025.569.569,0,0,1-.164-.025m-50.9-.557a.614.614,0,0,1,1.212-.2.617.617,0,0,1-.508.7.866.866,0,0,1-.1.008.612.612,0,0,1-.607-.516m2.424-.4a.61.61,0,0,1,.508-.7.614.614,0,0,1,.2,1.212.842.842,0,0,1-.1.008.615.615,0,0,1-.607-.516m46.108.291a.613.613,0,1,1,.332-1.179h0a.612.612,0,0,1-.163,1.2.572.572,0,0,1-.164-.024M81.16,5.075a.614.614,0,1,1,.7.508.865.865,0,0,1-.1.008.615.615,0,0,1-.606-.516m2.424-.4a.614.614,0,1,1,.7.508.4.4,0,0,1-.1.008.615.615,0,0,1-.606-.516m38.892.426a.624.624,0,1,1,.164.021.587.587,0,0,1-.164-.021M86.009,4.284a.614.614,0,1,1,1.212-.2.61.61,0,0,1-.5.7h0a.4.4,0,0,1-.1.008.614.614,0,0,1-.606-.512m34.1.156a.614.614,0,1,1,.758-.426.621.621,0,0,1-.594.45.589.589,0,0,1-.164-.025M88.433,3.887a.614.614,0,1,1,.708.508.857.857,0,0,1-.1.008.618.618,0,0,1-.606-.516m2.424-.4a.616.616,0,0,1,1.216-.2A.622.622,0,0,1,91.566,4a.932.932,0,0,1-.1.008.615.615,0,0,1-.607-.516m26.885.291a.62.62,0,0,1-.426-.758.614.614,0,1,1,.594.778.841.841,0,0,1-.168-.02M93.286,3.093a.614.614,0,1,1,.7.508.865.865,0,0,1-.1.008.612.612,0,0,1-.606-.516m2.424-.4a.614.614,0,1,1,.7.507.733.733,0,0,1-.1.009A.612.612,0,0,1,95.71,2.7m19.67.421a.6.6,0,1,1,.163.025.559.559,0,0,1-.163-.025M98.135,2.3a.614.614,0,1,1,.7.508.4.4,0,0,1-.1.008.615.615,0,0,1-.606-.516m14.878.156a.609.609,0,1,1,.163.024.557.557,0,0,1-.163-.024M100.559,1.9a.614.614,0,1,1,1.212-.2.612.612,0,0,1-.508.7.4.4,0,0,1-.1.008.614.614,0,0,1-.606-.512m2.425-.4a.614.614,0,0,1,1.212-.2.619.619,0,0,1-.508.708.727.727,0,0,1-.1,0,.614.614,0,0,1-.606-.512m7.662.286a.622.622,0,1,1,.168.021.57.57,0,0,1-.168-.021m-5.238-.684a.614.614,0,0,1,1.212-.2.62.62,0,0,1-.5.708h-.005a.843.843,0,0,1-.1.008.615.615,0,0,1-.607-.516m2.424-.4a.614.614,0,1,1,.708.508h0a.866.866,0,0,1-.1.008.615.615,0,0,1-.607-.516" transform="translate(-23.589 0)" fill="#719dfc"/>
          <path id="Path_4064" data-name="Path 4064" d="M11.417,104.13a.613.613,0,1,1,.815.3.646.646,0,0,1-.258.058.612.612,0,0,1-.557-.361M10.382,101.9h0a.618.618,0,0,1,.3-.815A.614.614,0,0,1,11.2,102.2a.586.586,0,0,1-.259.058.617.617,0,0,1-.557-.357M9.349,99.675a.614.614,0,1,1,.815.3.643.643,0,0,1-.258.058.62.62,0,0,1-.557-.357M8.317,97.443a.614.614,0,1,1,.815.3.576.576,0,0,1-.258.057.613.613,0,0,1-.557-.356M7.286,95.215a.614.614,0,1,1,.815.3.64.64,0,0,1-.258.057.612.612,0,0,1-.557-.356M6.254,92.984a.614.614,0,1,1,.815.3.588.588,0,0,1-.258.058.608.608,0,0,1-.557-.356M5.221,90.755a.614.614,0,1,1,.815.3.657.657,0,0,1-.258.058.609.609,0,0,1-.557-.357M4.186,88.528a.617.617,0,1,1,1.118-.52h0a.613.613,0,0,1-.3.818.606.606,0,0,1-.254.054.621.621,0,0,1-.561-.352M3.153,86.3a.614.614,0,1,1,.815.3.577.577,0,0,1-.258.058.614.614,0,0,1-.557-.356M2.121,84.068a.614.614,0,1,1,.815.3.643.643,0,0,1-.258.058.62.62,0,0,1-.557-.357M1.09,81.836a.614.614,0,1,1,.815.3.574.574,0,0,1-.258.057.608.608,0,0,1-.557-.356M.058,79.608a.614.614,0,1,1,.815.3.651.651,0,0,1-.259.058.615.615,0,0,1-.557-.357m1.3-1.756a.615.615,0,1,1,.86-.107.6.6,0,0,1-.483.233.615.615,0,0,1-.377-.126m1.512-1.937a.615.615,0,1,1,.377.127.614.614,0,0,1-.377-.127m1.507-1.941a.614.614,0,1,1,.381.131.606.606,0,0,1-.381-.131m1.511-1.937a.614.614,0,1,1,.381.131.632.632,0,0,1-.381-.131M7.4,70.1a.624.624,0,1,1,.376.127A.618.618,0,0,1,7.4,70.1m1.511-1.941a.613.613,0,1,1,.86-.107.606.606,0,0,1-.483.238.6.6,0,0,1-.377-.131m1.511-1.937a.61.61,0,1,1,.377.131.62.62,0,0,1-.377-.131m1.512-1.937a.618.618,0,1,1,.377.127.607.607,0,0,1-.377-.127m1.506-1.937a.62.62,0,1,1,.377.127.625.625,0,0,1-.377-.127m1.512-1.941a.614.614,0,1,1,.377.131.6.6,0,0,1-.377-.131m1.511-1.937a.61.61,0,1,1,.377.131.62.62,0,0,1-.377-.131" transform="translate(0 -21.087)" fill="#719dfc"/>
          <path id="Path_4065" data-name="Path 4065" d="M213.247,99.351a.617.617,0,1,1,.364.119.634.634,0,0,1-.364-.119m1.466-1.974a.615.615,0,0,1,.733-.987.612.612,0,0,1-.368,1.105.605.605,0,0,1-.365-.119m1.462-1.974a.614.614,0,0,1-.123-.86h0a.619.619,0,0,1,.86-.126.611.611,0,0,1,.127.859.6.6,0,0,1-.491.25.62.62,0,0,1-.369-.123m1.466-1.974a.613.613,0,1,1,.86-.123v0a.612.612,0,0,1-.492.25.621.621,0,0,1-.368-.123m1.466-1.969a.622.622,0,1,1,.365.118.609.609,0,0,1-.365-.118m1.467-1.974a.61.61,0,0,1-.128-.859.615.615,0,1,1,.491.983.606.606,0,0,1-.364-.123m1.466-1.969a.613.613,0,1,1,.86-.127.625.625,0,0,1-.5.246.632.632,0,0,1-.364-.119m1.462-1.974a.614.614,0,0,1-.123-.86h0a.62.62,0,0,1,.86-.127.612.612,0,0,1,.127.86.6.6,0,0,1-.491.25.625.625,0,0,1-.369-.123m1.466-1.974a.615.615,0,1,1,.861-.127.611.611,0,0,1-.491.25.625.625,0,0,1-.369-.123m1.467-1.97a.618.618,0,0,1-.127-.86.61.61,0,0,1,.859-.126.617.617,0,0,1,.127.859.623.623,0,0,1-.5.246.6.6,0,0,1-.364-.119m.434-2.129h0a.616.616,0,1,1,.507.262.616.616,0,0,1-.507-.262m-1.4-2.019h0a.615.615,0,1,1,.507.262.6.6,0,0,1-.5-.262m-1.4-2.023h0a.612.612,0,1,1,.508.266.611.611,0,0,1-.508-.266m-1.4-2.015,0,0a.613.613,0,1,1,.508.266.615.615,0,0,1-.508-.266m-1.4-2.023a.606.606,0,0,1,.151-.852.613.613,0,1,1,.7,1.007.6.6,0,0,1-.348.111.614.614,0,0,1-.5-.266m-1.4-2.019a.613.613,0,1,1,.851.156.6.6,0,0,1-.348.111.614.614,0,0,1-.5-.266m-1.4-2.019a.614.614,0,1,1,.852.155.594.594,0,0,1-.348.111.616.616,0,0,1-.5-.266m-1.4-2.019a.613.613,0,1,1,.856.156.612.612,0,0,1-.856-.156m-1.4-2.019h0a.612.612,0,1,1,.5.266.615.615,0,0,1-.5-.266" transform="translate(-78.29 -22.917)" fill="#719dfc"/>
          <path id="Path_4066" data-name="Path 4066" d="M135.75,142.968a.615.615,0,0,1,.209-1.212.615.615,0,0,1-.1,1.22,1,1,0,0,1-.106-.008m-2.42-.418h0a.617.617,0,1,1,.1.008.934.934,0,0,1-.1-.008m-2.42-.417a.621.621,0,1,1,.1.008.929.929,0,0,1-.1-.008m-2.424-.418h0a.621.621,0,1,1,.106.008,1,1,0,0,1-.106-.008m-2.42-.417a.621.621,0,1,1,.106.008,1,1,0,0,1-.106-.008m-2.42-.418a.617.617,0,1,1,.1.008.931.931,0,0,1-.1-.008m-2.42-.417h0a.617.617,0,1,1,.1.008.934.934,0,0,1-.1-.008m-2.424-.418a.622.622,0,1,1,.106.008c-.033,0-.07,0-.106-.008m-2.42-.417a.622.622,0,1,1,.106.008.5.5,0,0,1-.106-.008m-2.42-.418h0a.615.615,0,1,1,.209-1.212h-.005a.614.614,0,0,1-.1,1.221.431.431,0,0,1-.1-.008m-2.425-.417h0a.627.627,0,1,1,.107.008.507.507,0,0,1-.107-.008m-2.42-.418a.615.615,0,0,1,.209-1.212.615.615,0,0,1-.1,1.221.471.471,0,0,1-.107-.008m-2.42-.417h0a.618.618,0,1,1,.1.008.432.432,0,0,1-.1-.008m-2.42-.418a.618.618,0,1,1,.1.008.431.431,0,0,1-.1-.008m-2.424-.417h0a.626.626,0,1,1,.106.008.5.5,0,0,1-.106-.008m-2.42-.418h0a.59.59,0,1,1,.1.013.462.462,0,0,1-.1-.013m-2.42-.417a.594.594,0,1,1,.1.012.471.471,0,0,1-.1-.012m-2.425-.418h0a.6.6,0,1,1,.107.013.478.478,0,0,1-.107-.013m-2.42-.417a.6.6,0,1,1,.106.012.468.468,0,0,1-.106-.012m-2.42-.414a.621.621,0,1,1,.106.008,1,1,0,0,1-.106-.008m-2.42-.418a.613.613,0,1,1,.1.009.936.936,0,0,1-.1-.009M84.9,134.2h0a.621.621,0,1,1,.107.008,1.025,1.025,0,0,1-.107-.008m-2.42-.418a.618.618,0,1,1,.107.008.882.882,0,0,1-.107-.008m-2.42-.417h0a.617.617,0,1,1,.1.008.918.918,0,0,1-.1-.008m-2.42-.418a.617.617,0,1,1,.1.008.793.793,0,0,1-.1-.008" transform="translate(-28.349 -48.417)" fill="#fff"/>
          <path id="Path_4067" data-name="Path 4067" d="M151.405,80.63a.614.614,0,1,1,.3.078.605.605,0,0,1-.3-.078m-2.146-1.192h0a.613.613,0,1,1,.295.078.6.6,0,0,1-.295-.078m-2.15-1.192h0a.612.612,0,0,1-.238-.835.615.615,0,1,1,.238.835m-2.15-1.192v0a.614.614,0,1,1,.835-.237.6.6,0,0,1-.536.315.655.655,0,0,1-.3-.073m-2.146-1.2a.613.613,0,1,1,.835-.238.616.616,0,0,1-.537.316.6.6,0,0,1-.3-.078m-2.15-1.192h0a.614.614,0,1,1,.3.078.605.605,0,0,1-.3-.078m-2.146-1.192h0a.613.613,0,1,1,.835-.238.622.622,0,0,1-.541.315.6.6,0,0,1-.295-.077m-2.15-1.192h0a.616.616,0,0,1-.238-.835.615.615,0,1,1,.238.835m-2.146-1.192v0a.613.613,0,1,1,.831-.237.6.6,0,0,1-.536.315.622.622,0,0,1-.295-.073m-2.15-1.2h0a.613.613,0,1,1,.835-.237.622.622,0,0,1-.536.315.605.605,0,0,1-.3-.078m-2.15-1.192h0a.614.614,0,1,1,.3.078.609.609,0,0,1-.3-.078m-2.146-1.192a.613.613,0,1,1,.594-1.073.609.609,0,0,1,.242.832.618.618,0,0,1-.54.319.6.6,0,0,1-.3-.078m-2.15-1.192a.611.611,0,1,1,.3.078.649.649,0,0,1-.3-.078m-2.15-1.2a.614.614,0,1,1,.3.078.63.63,0,0,1-.3-.078m-2.146-1.192h0a.615.615,0,1,1,.3.078.605.605,0,0,1-.3-.078m-2.15-1.192h0a.614.614,0,1,1,.3.078.605.605,0,0,1-.3-.078m-2.146-1.192a.611.611,0,1,1,.295.078.6.6,0,0,1-.295-.078m-2.15-1.192v0a.614.614,0,1,1,.835-.238.6.6,0,0,1-.536.316.64.64,0,0,1-.3-.074m-2.15-1.2a.614.614,0,1,1,.6-1.073.614.614,0,0,1-.3,1.15.619.619,0,0,1-.3-.078m-2.146-1.192a.614.614,0,1,1,.835-.238.62.62,0,0,1-.536.316.605.605,0,0,1-.3-.078m-2.15-1.192a.614.614,0,1,1,.3.078.605.605,0,0,1-.3-.078m-2.146-1.192a.614.614,0,1,1,.6-1.073h0a.609.609,0,0,1,.242.831.615.615,0,0,1-.536.319.6.6,0,0,1-.3-.078m-2.15-1.192v0a.614.614,0,1,1,.835-.238.6.6,0,0,1-.537.315.643.643,0,0,1-.3-.073M102,53.2a.609.609,0,1,1,.295.078A.591.591,0,0,1,102,53.2m-2.15-1.192h0a.614.614,0,1,1,.3.078.605.605,0,0,1-.3-.078" transform="translate(-36.583 -18.694)" fill="#fff"/>
          <path id="Path_4068" data-name="Path 4068" d="M68.482,63.293a.614.614,0,1,1,.865-.058.606.606,0,0,1-.463.209.6.6,0,0,1-.4-.151M70.1,61.441a.615.615,0,1,1,.868-.058.617.617,0,0,1-.868.058m1.618-1.851a.617.617,0,1,1,.405.152.608.608,0,0,1-.405-.152m1.618-1.851a.614.614,0,1,1,.864-.057.605.605,0,0,1-.463.209.6.6,0,0,1-.4-.152m1.613-1.851a.618.618,0,1,1,.405.152.614.614,0,0,1-.405-.152m1.618-1.851a.614.614,0,1,1,.868-.058.622.622,0,0,1-.467.209.6.6,0,0,1-.4-.151m1.613-1.851a.615.615,0,0,1-.058-.864v0a.615.615,0,1,1,.058.868" transform="translate(-25.093 -18.785)" fill="#fff"/>
          <path id="Path_4069" data-name="Path 4069" d="M122.268,158.664a94.477,94.477,0,0,1-15.622-6.256l-6.623.62-6.624-.62a94.477,94.477,0,0,1-15.623,6.256c-9.7,3.025-13.5,15.006-12.171,26.417,0,0,9.226,8.43,33.326,8.915v.023c.367,0,.73,0,1.092-.006s.724.006,1.092.006V194c24.1-.486,33.325-8.915,33.325-8.915,1.331-11.411-2.472-23.392-12.171-26.417" transform="translate(-24.02 -56.019)" fill="#04b5ff"/>
          <path id="Path_4070" data-name="Path 4070" d="M123.654,134.732l-8.16-.816-8.16.816s1.36,7.752-.816,13.735c0,0,2.72,3.4,8.976,3.4s8.976-3.4,8.976-3.4c-2.176-5.984-.816-13.735-.816-13.735" transform="translate(-39.152 -49.222)" fill="#fdb2b6"/>
          <g id="Group_1552" data-name="Group 1552" transform="translate(68.183 84.694)" style="mix-blend-mode: multiply;isolation: isolate">
            <g id="Group_1551" data-name="Group 1551">
              <g id="Group_1550" data-name="Group 1550" clip-path="url(#clip-path-11)">
                <path id="Path_4071" data-name="Path 4071" d="M124.128,134.732l-8.16-.816-8.16.816a35.628,35.628,0,0,1,.419,5.6,16.644,16.644,0,0,0,3.208,3.611c1.668,1.36,4.8,1.67,5.62,1.67s3.952-.31,5.621-1.67a13.855,13.855,0,0,0,1.135-1.044,36.154,36.154,0,0,1,.316-8.166" transform="translate(-107.81 -133.916)" fill="#fdb2b6"/>
              </g>
            </g>
          </g>
          <path id="Path_4072" data-name="Path 4072" d="M112.124,88.008c-8.262,0-13.667,6.7-13.667,14.959,0,6.2,3.041,15.127,8.046,19.205,1.669,1.359,4.8,1.67,5.621,1.67s3.952-.311,5.621-1.67c5.005-4.078,8.046-13.009,8.046-19.205,0-8.262-5.405-14.959-13.667-14.959" transform="translate(-36.189 -32.348)" fill="#fdb2b6"/>
          <path id="Path_4073" data-name="Path 4073" d="M124.082,91.4c0-2.647-4.292-4.794-9.587-4.794s-9.588,2.146-9.588,4.794S109.2,96.2,114.495,96.2s9.587-2.146,9.587-4.794" transform="translate(-38.56 -31.834)" fill="#719dfc"/>
          <path id="Path_4074" data-name="Path 4074" d="M105.216,94.231s-6.842,3-6.532,14.812a24.77,24.77,0,0,1-1.22-9.508c.306-5.61,6.176-9.395,6.176-9.395Z" transform="translate(-35.809 -33.132)" fill="#719dfc"/>
          <path id="Path_4075" data-name="Path 4075" d="M130.388,94.231s6.842,3,6.532,14.812a24.763,24.763,0,0,0,1.219-9.508c-.305-5.61-6.176-9.395-6.176-9.395Z" transform="translate(-47.926 -33.132)" fill="#719dfc"/>
          <path id="Path_4076" data-name="Path 4076" d="M102.64,88.65s-.562-3.423,4.332-5.813c7.307-3.57,18.622.713,20.4,12.351,0,0-12.121-8.68-24.73-6.538" transform="translate(-37.719 -29.998)" fill="#719dfc"/>
          <path id="Path_4077" data-name="Path 4077" d="M102.81,89.965s-1.672-1.344-4.488,1.644-1.1,11.027-1.1,11.027S100.77,91.8,104.952,91.3s-2.713-1.332-2.713-1.332" transform="translate(-35.544 -32.957)" fill="#719dfc"/>
          <path id="Path_4078" data-name="Path 4078" d="M131.478,89.965s1.673-1.344,4.488,1.644,1.1,11.027,1.1,11.027S133.517,91.8,129.336,91.3s2.712-1.332,2.712-1.332" transform="translate(-47.044 -32.957)" fill="#719dfc"/>
          <path id="Path_4079" data-name="Path 4079" d="M145.478,117.059c-.419,3.807-3.993,6.538-5.9,6.328s-1.417-3.28-1-7.087.613-6.91,2.517-6.7,4.8,3.653,4.376,7.46" transform="translate(-50.797 -40.281)" fill="#01063d"/>
          <path id="Path_4080" data-name="Path 4080" d="M140.216,116.3c.341-3.093.533-5.721,1.613-6.486a2.4,2.4,0,0,0-.728-.214c-1.9-.21-2.1,2.893-2.517,6.7s-.906,6.878,1,7.087a2.743,2.743,0,0,0,1.126-.151c-1.3-.689-.868-3.514-.491-6.936" transform="translate(-50.797 -40.281)" fill="#fff"/>
          <path id="Path_4081" data-name="Path 4081" d="M90.617,117.059c.419,3.807,3.993,6.538,5.9,6.328s1.417-3.28,1-7.087-.613-6.91-2.517-6.7-4.8,3.653-4.376,7.46" transform="translate(-33.292 -40.281)" fill="#01063d"/>
          <path id="Path_4082" data-name="Path 4082" d="M99.655,116.3c-.419-3.807-.613-6.91-2.517-6.7a2.412,2.412,0,0,0-.728.214c1.08.765,1.272,3.392,1.613,6.486.377,3.421.807,6.247-.491,6.936a2.739,2.739,0,0,0,1.125.151c1.9-.209,1.417-3.28,1-7.087" transform="translate(-35.437 -40.281)" fill="#fff"/>
          <path id="Path_4083" data-name="Path 4083" d="M125.878,98.825l-1.164-.379c.036-.112,3.578-11.266-1.368-18.074-2.57-3.537-7.015-5.331-13.213-5.331s-10.646,1.795-13.216,5.335c-4.949,6.818-1.4,17.959-1.365,18.07l-1.164.379c-.156-.481-3.773-11.851,1.539-19.169,2.812-3.875,7.592-5.839,14.206-5.839s11.393,1.964,14.206,5.839c5.312,7.317,1.695,18.688,1.539,19.169" transform="translate(-34.198 -27.132)" fill="#01063d"/>
          <path id="Path_4084" data-name="Path 4084" d="M99.62,79.486a1.836,1.836,0,0,1-1.259-3.172c3.122-2.941,7.67-4.433,13.516-4.433,5.728,0,10.212,1.432,13.327,4.258a1.836,1.836,0,0,1-2.467,2.72c-2.419-2.194-6.073-3.306-10.86-3.306-4.879,0-8.58,1.155-11,3.434a1.83,1.83,0,0,1-1.259.5" transform="translate(-35.941 -26.421)" fill="#719dfc"/>
          <path id="Path_4085" data-name="Path 4085" d="M122.432,135.634v-.816c5.768,0,10.045-1.477,12.367-4.272a7.386,7.386,0,0,0,1.776-4.165l.816.013a8.131,8.131,0,0,1-1.964,4.674c-1.73,2.083-5.39,4.567-12.995,4.567" transform="translate(-45.001 -46.452)" fill="#01063d"/>
          <path id="Path_4086" data-name="Path 4086" d="M122.575,139.2c0,.9-1.188,1.632-2.652,1.632s-2.652-.73-2.652-1.632,1.187-1.632,2.652-1.632,2.652.731,2.652,1.632" transform="translate(-43.104 -50.566)" fill="#01063d"/>
          <g id="Group_1555" data-name="Group 1555" transform="translate(47.736 115.166)" opacity="0.5">
            <g id="Group_1554" data-name="Group 1554">
              <g id="Group_1553" data-name="Group 1553" clip-path="url(#clip-path-12)">
                <path id="Path_4087" data-name="Path 4087" d="M131.835,191.394c-.987,1.481-.082-5.594-.493-9.295a142.719,142.719,0,0,1-2.406,18.79q.942-.345,1.779-.693a96.226,96.226,0,0,0,2.931-14.232s-.823,3.949-1.81,5.429m-54.546,0c-.987-1.481-1.81-5.429-1.81-5.429a98.365,98.365,0,0,0,3.131,14.943q.816.3,1.71.591a141.05,141.05,0,0,1-2.537-19.4c-.411,3.7.494,10.775-.493,9.295" transform="translate(-75.479 -182.098)" fill="#719dfc"/>
              </g>
            </g>
          </g>
        </g>
      </g>
    </g>
  </g>
</svg>
