<svg xmlns="http://www.w3.org/2000/svg" xmlns:xlink="http://www.w3.org/1999/xlink" width="767.817" height="577.379" viewBox="0 0 767.817 577.379">
  <defs>
    <clipPath id="clip-path">
      <rect id="Rectangle_565" data-name="Rectangle 565" width="767.817" height="577.379" fill="none"/>
    </clipPath>
    <clipPath id="clip-path-3">
      <rect id="Rectangle_548" data-name="Rectangle 548" width="52.566" height="63.264" fill="none"/>
    </clipPath>
    <clipPath id="clip-path-4">
      <rect id="Rectangle_549" data-name="Rectangle 549" width="49.927" height="66.944" fill="none"/>
    </clipPath>
    <clipPath id="clip-path-5">
      <rect id="Rectangle_550" data-name="Rectangle 550" width="36.721" height="52.172" fill="none"/>
    </clipPath>
    <clipPath id="clip-path-6">
      <rect id="Rectangle_551" data-name="Rectangle 551" width="20.076" height="32.226" fill="none"/>
    </clipPath>
    <clipPath id="clip-path-7">
      <rect id="Rectangle_552" data-name="Rectangle 552" width="17.348" height="62.525" fill="none"/>
    </clipPath>
    <clipPath id="clip-path-8">
      <rect id="Rectangle_553" data-name="Rectangle 553" width="11.12" height="7.667" fill="none"/>
    </clipPath>
    <clipPath id="clip-path-9">
      <rect id="Rectangle_554" data-name="Rectangle 554" width="35.722" height="50.628" fill="none"/>
    </clipPath>
    <clipPath id="clip-path-10">
      <rect id="Rectangle_557" data-name="Rectangle 557" width="60.575" height="23.828" fill="none"/>
    </clipPath>
    <clipPath id="clip-path-11">
      <rect id="Rectangle_560" data-name="Rectangle 560" width="60.576" height="23.828" fill="none"/>
    </clipPath>
    <clipPath id="clip-path-12">
      <rect id="Rectangle_563" data-name="Rectangle 563" width="60.573" height="23.828" fill="none"/>
    </clipPath>
  </defs>
  <g id="servicesImage1Big" transform="translate(0 -34)">
    <g id="Group_1287" data-name="Group 1287" transform="translate(0 34)" clip-path="url(#clip-path)">
      <g id="Group_1286" data-name="Group 1286">
        <g id="Group_1285" data-name="Group 1285" clip-path="url(#clip-path)">
          <path id="Path_3402" data-name="Path 3402" d="M108.334,85.587S102.745,81,93.965,94.613s-12.395,21.6-12.395,21.6-2.24,2.809-4.1.631-4.119-8.044-7.731-7.4c-3.746.67-5.361,4.612-5.277,10.657s-.22,19.3-.254,20.5c-.031,1.175-.876,2.826-2.382,1.547s-9.767-12.631-14.908-8.385-2.15,21.049-1.86,22.892-.139,2.574-1.035,2.932-3.313-3.722-5.793-6.852-5.907-6.327-8.674-3.63-4.8,14.868,4.806,35.956l5.093,9.482,10.788.5c23.152-.329,33.265-7.382,34.52-11.04s-3.1-5.386-6.987-6.29-8.6-1.349-8.666-2.312.413-1.664,2.2-2.189,18.241-5.006,19.872-11.478-12.149-9.088-13.951-9.9-.669-2.287.377-2.817c1.068-.542,12.9-6.489,18.4-9s8.362-5.659,7.363-9.334c-.965-3.543-7.229-3.074-9.99-3.828s-1.185-3.982-1.185-3.982,5.67-6.7,14.2-20.463S108.214,85.5,108.214,85.5" transform="translate(48.765 152.046)" fill="#ebebeb"/>
          <path id="Path_3403" data-name="Path 3403" d="M30.947,188c6.3-10.085,17.811-27.823,27.609-43.1s18.651-29.11,25.007-39.164c3.163-5.02,5.732-9.088,7.514-11.911.879-1.4,1.57-2.488,2.042-3.239.231-.36.41-.637.538-.838s.2-.279.2-.279-.047.1-.162.3-.293.489-.513.857c-.463.759-1.132,1.86-1.994,3.269-1.729,2.84-4.267,6.93-7.422,11.972-6.3,10.085-15.131,23.942-24.926,39.217s-21.336,33-27.69,43.048" transform="translate(55.366 160.336)" fill="#e0e0e0"/>
          <path id="Path_3404" data-name="Path 3404" d="M43.507,96.642a3.488,3.488,0,0,1,.2.754c.106.489.24,1.2.4,2.08.31,1.762.675,4.208,1.029,6.91.34,2.669.647,5.082.881,6.927.112.829.206,1.53.282,2.094a3.413,3.413,0,0,1,.073.776,3.588,3.588,0,0,1-.2-.754c-.106-.489-.237-1.2-.385-2.083-.293-1.765-.628-4.213-.982-6.916-.357-2.664-.681-5.073-.932-6.916-.114-.832-.212-1.533-.29-2.1a3.574,3.574,0,0,1-.067-.776" transform="translate(77.823 173.188)" fill="#e0e0e0"/>
          <path id="Path_3405" data-name="Path 3405" d="M44.871,106.335c-.017-.092,4.984-1.067,11.167-2.181s11.209-1.94,11.226-1.848-4.984,1.067-11.167,2.178-11.209,1.943-11.226,1.851" transform="translate(80.277 183.327)" fill="#e0e0e0"/>
          <path id="Path_3406" data-name="Path 3406" d="M39.1,111.911a3.679,3.679,0,0,1,.792.045l2.148.226c1.81.19,4.315.441,7.084.617s5.288.26,7.109.3l2.156.05a3.664,3.664,0,0,1,.792.056,3.336,3.336,0,0,1-.789.075c-.51.022-1.249.047-2.162.053-1.824.02-4.345-.02-7.126-.2s-5.288-.466-7.1-.715c-.9-.131-1.632-.243-2.134-.335a3.646,3.646,0,0,1-.775-.173" transform="translate(69.949 200.534)" fill="#e0e0e0"/>
          <path id="Path_3407" data-name="Path 3407" d="M36.447,105.752a3.066,3.066,0,0,1,.357.642c.234.489.522,1.092.862,1.8.714,1.527,1.679,3.646,2.728,5.995s1.98,4.484,2.638,6.036q.452,1.093.764,1.846a3.288,3.288,0,0,1,.24.7,3.135,3.135,0,0,1-.36-.642q-.351-.737-.859-1.8c-.717-1.527-1.682-3.646-2.728-6s-1.98-4.481-2.638-6.034c-.3-.729-.558-1.343-.764-1.846a2.966,2.966,0,0,1-.24-.7" transform="translate(65.2 189.514)" fill="#e0e0e0"/>
          <path id="Path_3408" data-name="Path 3408" d="M30.435,112.308a4.86,4.86,0,0,1,.449.826l1.113,2.3c.926,1.952,2.184,4.66,3.556,7.656s2.6,5.721,3.467,7.7c.41.949.753,1.737,1.018,2.351a4.847,4.847,0,0,1,.329.88,5.407,5.407,0,0,1-.449-.826l-1.113-2.3c-.926-1.954-2.184-4.66-3.556-7.659s-2.6-5.718-3.467-7.7c-.41-.947-.75-1.737-1.015-2.348a4.847,4.847,0,0,1-.332-.88" transform="translate(54.445 201.263)" fill="#e0e0e0"/>
          <path id="Path_3409" data-name="Path 3409" d="M33.962,119.882a5.849,5.849,0,0,1,1.007.031c.7.05,1.623.114,2.73.19,2.307.159,5.492.366,9.014.491s6.716.17,9.025.181l2.739.014a5.37,5.37,0,0,1,1,.045,5.812,5.812,0,0,1-1,.087c-.647.034-1.581.067-2.739.092-2.312.05-5.511.05-9.042-.084s-6.716-.371-9.02-.589c-1.152-.114-2.083-.212-2.725-.3a6.026,6.026,0,0,1-.993-.162" transform="translate(60.76 214.816)" fill="#e0e0e0"/>
          <path id="Path_3410" data-name="Path 3410" d="M69.066,121.7a28.916,28.916,0,0,1-.279,4.931,35.887,35.887,0,0,1-4.49,13.234l-.106-.182H64.2l.206,0-.1.181c-6.515,11.562-16.288,28.915-27.986,49.682l-.176.313-.19-.3c-8.906-14.22-18.966-30.288-29.581-47.239-.5-.8-1-1.591-1.456-2.326l-.226-.36.427,0-.2.352A36.33,36.33,0,0,1,.461,127.509a34.421,34.421,0,0,1-.443-6.494Q.105,119.4.193,117.8q.238-1.583.477-3.155A36.442,36.442,0,0,1,12.744,93.973a35.038,35.038,0,0,1,9.734-5.724l1.286-.48.641-.24.655-.173c.876-.229,1.746-.458,2.608-.681a36.622,36.622,0,0,1,5.213-.634,35.212,35.212,0,0,1,5.073.092c.826.067,1.634.243,2.44.36l1.2.193c.4.084.778.2,1.166.3.773.209,1.534.416,2.29.623l2.173.829c.354.14.717.262,1.063.416.337.17.675.338,1.01.508.667.338,1.328.67,1.98,1a35.857,35.857,0,0,1,11.491,10.618,36.462,36.462,0,0,1,5.006,10.724,31.89,31.89,0,0,1,.881,4.236,22.817,22.817,0,0,1,.335,3.149c.031.846.053,1.494.067,1.949.014.438.008.662.008.662s-.025-.223-.056-.662-.061-1.1-.112-1.941a24,24,0,0,0-.379-3.135,33.067,33.067,0,0,0-.918-4.21,36.652,36.652,0,0,0-5.048-10.624A35.682,35.682,0,0,0,51.116,90.651l-1.966-.986-1-.5c-.34-.154-.7-.271-1.054-.41l-2.15-.812c-.747-.2-1.5-.4-2.268-.609-.382-.095-.764-.215-1.155-.3-.393-.061-.789-.123-1.188-.187-.8-.112-1.6-.285-2.415-.349a34.442,34.442,0,0,0-5.015-.075,35.838,35.838,0,0,0-5.154.637q-1.276.335-2.574.678l-.647.173-.633.237-1.269.477A34.622,34.622,0,0,0,13.02,94.3a36.022,36.022,0,0,0-11.9,20.43q-.234,1.55-.469,3.116c-.056,1.053-.114,2.111-.17,3.175a34.236,34.236,0,0,0,.441,6.411,35.908,35.908,0,0,0,4.4,12.316l.206.355H5.119l.2-.36c.457.734.957,1.527,1.453,2.326,10.6,16.959,20.653,33.036,29.545,47.261l-.365.008c11.767-20.731,21.6-38.05,28.145-49.59l.106.179h-.22l.106-.181a36.185,36.185,0,0,0,4.571-13.128c.231-1.594.3-2.828.349-3.658.017-.4.028-.715.036-.938s.022-.318.022-.318" transform="translate(-0.001 154.074)" fill="#e0e0e0"/>
          <path id="Path_3411" data-name="Path 3411" d="M48.465,112.83a1.969,1.969,0,0,1-.042-.355c-.017-.257-.042-.6-.073-1.039-.014-.229-.031-.483-.047-.762s-.092-.584-.139-.913a16.266,16.266,0,0,0-.457-2.256,20.889,20.889,0,0,0-2.418-5.8A21.662,21.662,0,0,0,19.274,92.4a22.648,22.648,0,0,0-2.825,1.237,22.768,22.768,0,0,0-2.658,1.7,24.656,24.656,0,0,0-2.46,2.083,25.2,25.2,0,0,0-2.125,2.507A21,21,0,0,0,6.1,105.886a21.512,21.512,0,0,0-.036,13.667,21,21,0,0,0,3.076,5.978,24.918,24.918,0,0,0,2.114,2.518,24.739,24.739,0,0,0,2.449,2.1,22.786,22.786,0,0,0,2.65,1.714,22.492,22.492,0,0,0,2.82,1.251,21.73,21.73,0,0,0,11.374.983,21.826,21.826,0,0,0,14.69-10.163,20.871,20.871,0,0,0,2.443-5.782,15.967,15.967,0,0,0,.469-2.25c.05-.329.114-.634.145-.913s.036-.533.053-.765c.031-.436.059-.779.078-1.036a1.969,1.969,0,0,1,.042-.355,2.135,2.135,0,0,1,.006.355c-.008.257-.02.6-.033,1.044-.008.232-.017.489-.028.768s-.081.589-.123.921a15.826,15.826,0,0,1-.43,2.276,20.77,20.77,0,0,1-2.4,5.875,22.023,22.023,0,0,1-14.843,10.412,22.077,22.077,0,0,1-11.591-.96,20.386,20.386,0,0,1-5.589-3.013,25,25,0,0,1-2.5-2.136A24.956,24.956,0,0,1,8.768,125.8a21.45,21.45,0,0,1-3.149-6.1,21.96,21.96,0,0,1,.036-13.963,21.333,21.333,0,0,1,3.182-6.084A24.911,24.911,0,0,1,11.01,97.1a24.633,24.633,0,0,1,2.516-2.122,20.218,20.218,0,0,1,5.6-2.985,22.055,22.055,0,0,1,11.594-.9,22.011,22.011,0,0,1,14.79,10.487,20.663,20.663,0,0,1,2.368,5.883,15.357,15.357,0,0,1,.418,2.281c.042.332.1.639.12.921s.017.536.025.768c.011.441.02.787.028,1.044a1.9,1.9,0,0,1-.008.355" transform="translate(8.047 162.551)" fill="#e0e0e0"/>
          <path id="Path_3412" data-name="Path 3412" d="M20.419,116.009l-12.71-8.879,3.093-4.439,8.523,5.953L30.353,94.619,34.6,97.967Z" transform="translate(13.792 169.564)" fill="#e0e0e0"/>
          <path id="Path_3413" data-name="Path 3413" d="M176.325,49.638a42.18,42.18,0,0,1,10.81,2.859l7.949-6.667,13.65,10.4-4.3,9.443a42.172,42.172,0,0,1,5.634,9.672l10.325.91,2.3,17.018-9.709,3.632a41.946,41.946,0,0,1-2.856,10.825l6.66,7.955L206.4,129.352l-9.435-4.305a42.014,42.014,0,0,1-9.664,5.637L186.4,141.02l-17,2.309-3.629-9.719a41.832,41.832,0,0,1-10.813-2.859l-7.949,6.667-13.65-10.4,4.3-9.443a42.231,42.231,0,0,1-5.634-9.672l-10.322-.913L119.4,89.975l9.706-3.632a42.064,42.064,0,0,1,2.859-10.825l-6.66-7.955L135.691,53.9l9.435,4.305a42,42,0,0,1,9.661-5.64l.909-10.333,17-2.309Zm-5.1,23.467A18.425,18.425,0,1,0,189.71,87.2a18.425,18.425,0,0,0-18.483-14.092" transform="translate(213.615 71.543)" fill="#f5f5f5" fill-rule="evenodd"/>
          <path id="Path_3414" data-name="Path 3414" d="M108.013,66.936a27.305,27.305,0,0,1,7.017,1.857l5.157-4.328,8.861,6.751-2.792,6.131a27.348,27.348,0,0,1,3.659,6.277l6.7.592,1.495,11.045-6.3,2.359a27.321,27.321,0,0,1-1.855,7.025l4.323,5.165-6.744,8.87-6.125-2.795a27.254,27.254,0,0,1-6.273,3.66l-.588,6.709-11.034,1.5-2.357-6.31a27.135,27.135,0,0,1-7.017-1.857l-5.16,4.328-8.861-6.751,2.792-6.131a27.336,27.336,0,0,1-3.656-6.277l-6.7-.592-1.5-11.045,6.3-2.357a27.229,27.229,0,0,1,1.855-7.028l-4.323-5.165,6.741-8.87,6.125,2.8a27.323,27.323,0,0,1,6.273-3.663l.591-6.707,11.034-1.5ZM104.7,82.17a11.961,11.961,0,1,0,12,9.147,11.958,11.958,0,0,0-12-9.147" transform="translate(127.133 108.651)" fill="#ebebeb" fill-rule="evenodd"/>
          <path id="Path_3415" data-name="Path 3415" d="M136.175,93.518a14.566,14.566,0,0,1,3.986,2.641,19.243,19.243,0,0,1,6.186,11.38,19.565,19.565,0,0,1-.681,9.066,19.789,19.789,0,0,1-5.706,8.739,19.74,19.74,0,0,1-10.473,4.791,19.687,19.687,0,0,1-20.569-11.294,19.806,19.806,0,0,1-1.593-11.417,19.8,19.8,0,0,1,4.3-9.513,19.454,19.454,0,0,1,7.271-5.45A19.2,19.2,0,0,1,131.8,91.57a14.623,14.623,0,0,1,4.37,1.949c-.061.126-1.531-.79-4.479-1.53a19.223,19.223,0,0,0-12.484,1.192,18.873,18.873,0,0,0-10.877,14.4,18.87,18.87,0,0,0,1.567,10.8,18.7,18.7,0,0,0,19.443,10.677,18.86,18.86,0,0,0,9.94-4.484,18.886,18.886,0,0,0,6.287-16.92,19.269,19.269,0,0,0-5.7-11.182c-2.206-2.091-3.768-2.842-3.693-2.957" transform="translate(191.558 162.807)" fill="#ebebeb"/>
          <path id="Path_3416" data-name="Path 3416" d="M179.472,100.5a4.517,4.517,0,0,1,.148-.662l.524-1.994c.5-1.823,1.216-4.448,2.15-7.857l.084.2C178.326,88,173,85.114,166.553,81.624l.343-.061c-2.173,2.479-4.585,5.232-7.171,8.181l-.128.145-.192-.045a43.961,43.961,0,0,0-11.575-1.229l-.22.008-.109-.2c-1.654-2.962-3.442-6.17-5.3-9.507l.455.187c-5.436,1.6-11.2,3.3-17.262,5.082l.312-.444c.212,3.364.443,7.069.683,10.867l.017.276-.237.142a43.771,43.771,0,0,0-9.042,7.287l-.2.209-.282-.081c-3.241-.924-6.814-1.943-10.453-2.979l.569-.24c-2.714,4.967-5.637,10.319-8.635,15.806l-.112-.634,8.147,7.2.24.212-.078.31a44,44,0,0,0-1.247,11.534l.008.324-.284.159c-2.979,1.656-6.228,3.462-9.508,5.288l.257-.628c1.6,5.475,3.308,11.344,5.043,17.291l-.561-.394c3.428-.212,7.129-.438,10.858-.667l.335-.02.173.288a43.641,43.641,0,0,0,7.24,9.038l0,0,0,0c.067.248-.148-.553.151.556l0,.011-.006.022-.011.039-.022.084-.047.165-.095.329-.19.659-.377,1.315-.75,2.625q-.749,2.618-1.492,5.216l-.268-.639q8,4.393,15.778,8.669l-.675.117q3.64-4.117,7.207-8.147l.22-.249.318.081a43.573,43.573,0,0,0,11.519,1.265l.326-.006.156.282q2.673,4.833,5.271,9.527l-.611-.251,17.278-5.023-.365.519q-.33-5.532-.65-10.869l-.017-.3.257-.154a43.556,43.556,0,0,0,9.062-7.254l.2-.209.279.081,10.445,3.013-.53.221c3.057-5.548,5.941-10.786,8.688-15.775l.092.522-8.125-7.231-.181-.162.059-.232a43.943,43.943,0,0,0,1.294-11.57l-.006-.223.192-.106c3.464-1.907,6.582-3.627,9.527-5.249l-.153.377c-1.922-6.707-3.559-12.422-4.962-17.316l.254.179-10.861.595-.109.006-.053-.092a45.771,45.771,0,0,0-5.218-7.114c-.636-.69-1.124-1.215-1.484-1.6a4.709,4.709,0,0,1-.485-.536,5.535,5.535,0,0,1,.552.472c.351.329.881.832,1.553,1.544a42.652,42.652,0,0,1,5.386,7.053l-.162-.087,10.849-.734.2-.011.056.193c1.445,4.878,3.132,10.579,5.112,17.272l.075.249-.231.128c-2.934,1.645-6.041,3.384-9.491,5.313l.187-.327a44.61,44.61,0,0,1-1.249,11.78l-.123-.394c2.6,2.289,5.288,4.666,8.158,7.2l.254.223-.162.3c-2.728,5-5.589,10.247-8.624,15.809l-.176.324-.357-.1c-3.394-.969-6.869-1.957-10.456-2.979l.48-.131a44.444,44.444,0,0,1-9.243,7.444l.24-.455q.33,5.336.675,10.867l.025.408-.393.114q-8.417,2.467-17.267,5.056l-.4.12-.2-.371q-2.606-4.691-5.285-9.515l.482.276a44.563,44.563,0,0,1-11.806-1.284l.536-.168-7.2,8.153-.29.329-.385-.209L115,175.7l-.388-.212.12-.424q.745-2.6,1.492-5.218l.75-2.625.377-1.315.19-.659.095-.329.047-.165.022-.081.011-.042.006-.02.006-.011c.3,1.108.081.307.148.553l0,0,0,0a44.724,44.724,0,0,1-7.425-9.27l.508.265c-3.729.226-7.43.452-10.858.662l-.441.025-.123-.422c-1.729-5.95-3.436-11.822-5.029-17.3l-.12-.416.379-.212,9.516-5.274-.276.483a44.96,44.96,0,0,1,1.3-11.813l.162.519-8.133-7.22-.31-.274.2-.363c3.009-5.478,5.946-10.825,8.671-15.783l.192-.346.377.109c3.637,1.05,7.21,2.08,10.448,3.013l-.477.131a44.577,44.577,0,0,1,9.263-7.413l-.22.422c-.226-3.8-.443-7.505-.641-10.869l-.022-.349.335-.1c6.066-1.756,11.842-3.426,17.287-5l.3-.089.151.276c1.844,3.348,3.615,6.564,5.249,9.538l-.326-.19a44.539,44.539,0,0,1,11.75,1.323l-.321.1c2.608-2.926,5.043-5.66,7.238-8.119l.151-.17.2.109,15.725,8.756.126.07-.042.134c-1,3.356-1.771,5.941-2.307,7.734-.262.852-.466,1.508-.616,2a5.358,5.358,0,0,1-.237.684" transform="translate(168.863 140.25)" fill="#ebebeb"/>
          <path id="Path_3417" data-name="Path 3417" d="M150.117,133.441,134.439,71.027l63.789-1.053Z" transform="translate(240.521 125.398)" fill="#ebebeb"/>
          <path id="Path_3766" data-name="Path 3766" d="M.076.019,36.348,0l-.076,146.643L0,146.661Z" transform="translate(397.541 236.452) rotate(-52.808)" fill="#ebebeb"/>
          <path id="Path_3418" data-name="Path 3418" d="M184.331,157.508l11.75,26.673s-23.135,20.915-21.442,26.056l52.479-20.952-16.606-42.311Z" transform="translate(312.283 263.386)" fill="#e8505b"/>
          <g id="Group_1257" data-name="Group 1257" transform="translate(486.835 410.359)" opacity="0.5">
            <g id="Group_1256" data-name="Group 1256">
              <g id="Group_1255" data-name="Group 1255" clip-path="url(#clip-path-3)">
                <path id="Path_3419" data-name="Path 3419" d="M184.331,157.508l11.75,26.673s-23.135,20.915-21.442,26.056l52.479-20.952-16.606-42.311Z" transform="translate(-174.552 -146.973)"/>
              </g>
            </g>
          </g>
          <path id="Path_3420" data-name="Path 3420" d="M227.221,164.823l-1.841-4.2-49.629,21.658s-1.93,1.952-1.01,3.493Z" transform="translate(312.18 287.848)" fill="#263238"/>
          <path id="Path_3421" data-name="Path 3421" d="M213.631,172.913l14.71,25.159S207.738,221.489,210,226.4l49.754-26.8-21.314-40.141Z" transform="translate(375.398 285.764)" fill="#e8505b"/>
          <g id="Group_1260" data-name="Group 1260" transform="translate(585.228 445.225)" opacity="0.5">
            <g id="Group_1259" data-name="Group 1259">
              <g id="Group_1258" data-name="Group 1258" clip-path="url(#clip-path-4)">
                <path id="Path_3422" data-name="Path 3422" d="M213.631,172.913l14.71,25.159S207.738,221.489,210,226.4l49.754-26.8-21.314-40.141Z" transform="translate(-209.83 -159.461)"/>
              </g>
            </g>
          </g>
          <path id="Path_3423" data-name="Path 3423" d="M259.879,176.381l-2.307-3.962L210.733,199.6s-1.7,2.158-.608,3.585Z" transform="translate(375.276 308.985)" fill="#263238"/>
          <path id="Path_3424" data-name="Path 3424" d="M221.61,87.465,189.36,89.98,188.289,71.9S175.281,71.715,173.334,59s-3.849-42.289-3.849-42.289a44.632,44.632,0,0,1,45.233-.665l2.092,1.189Z" transform="translate(303.22 18.307)" fill="#ffbe9d"/>
          <path id="Path_3425" data-name="Path 3425" d="M176.211,36.775a29.88,29.88,0,0,0,15.931-7.056s-2.82,10-15.683,10.643Z" transform="translate(315.254 53.258)" fill="#eb996e"/>
          <path id="Path_3426" data-name="Path 3426" d="M186.555,18.1c.2-.126,8.381-3.82,9.327,4.931s-8.024,7.893-8.066,7.645S186.555,18.1,186.555,18.1" transform="translate(333.76 30.859)" fill="#ffbe9d"/>
          <path id="Path_3427" data-name="Path 3427" d="M187.882,25.312c.036-.034.165.089.435.181a1.535,1.535,0,0,0,1.141-.1c.887-.438,1.5-1.991,1.378-3.574a5.05,5.05,0,0,0-.664-2.136,1.771,1.771,0,0,0-1.272-1.047.783.783,0,0,0-.854.517c-.089.257-.017.424-.061.447-.022.022-.2-.128-.17-.5a.975.975,0,0,1,.284-.584,1.141,1.141,0,0,1,.817-.316,2.162,2.162,0,0,1,1.738,1.184,5.234,5.234,0,0,1,.792,2.382c.134,1.77-.591,3.518-1.813,4.021a1.643,1.643,0,0,1-1.42-.081c-.293-.187-.36-.377-.332-.4" transform="translate(336.006 32.62)" fill="#eb996e"/>
          <path id="Path_3428" data-name="Path 3428" d="M171.46,20.941a1.836,1.836,0,0,0,2.011,1.589,1.757,1.757,0,0,0,1.643-1.9,1.837,1.837,0,0,0-2.008-1.591,1.761,1.761,0,0,0-1.646,1.907" transform="translate(306.737 34.097)" fill="#263238"/>
          <path id="Path_3429" data-name="Path 3429" d="M171.278,20.418c.259.207,1.492-1.005,3.45-1.276,1.95-.3,3.525.508,3.7.237.089-.12-.2-.519-.887-.885a5.01,5.01,0,0,0-3.009-.483,4.825,4.825,0,0,0-2.7,1.312c-.538.547-.681,1.005-.555,1.094" transform="translate(306.353 32.181)" fill="#263238"/>
          <path id="Path_3430" data-name="Path 3430" d="M178.281,20.152a1.836,1.836,0,0,0,2.011,1.589,1.757,1.757,0,0,0,1.643-1.9,1.837,1.837,0,0,0-2.008-1.591,1.761,1.761,0,0,0-1.646,1.907" transform="translate(318.94 32.683)" fill="#263238"/>
          <path id="Path_3431" data-name="Path 3431" d="M178.19,19.581c.259.207,1.495-1.008,3.45-1.279,1.95-.3,3.528.508,3.707.237.089-.12-.2-.517-.89-.882a5.03,5.03,0,0,0-3.009-.486,4.826,4.826,0,0,0-2.7,1.315c-.536.547-.681,1.005-.555,1.094" transform="translate(318.719 30.679)" fill="#263238"/>
          <path id="Path_3432" data-name="Path 3432" d="M179.686,34.112a13.149,13.149,0,0,0-3.258-.126c-.508.017-.993-.014-1.124-.343a2.57,2.57,0,0,1,.123-1.53q.452-1.914.943-4.015c1.291-5.71,2.15-10.375,1.919-10.426s-1.461,4.537-2.753,10.247c-.3,1.407-.6,2.747-.876,4.029a2.931,2.931,0,0,0,.017,2,1.258,1.258,0,0,0,.923.614,3.427,3.427,0,0,0,.865,0,12.883,12.883,0,0,0,3.221-.45" transform="translate(312.164 31.669)" fill="#263238"/>
          <path id="Path_3433" data-name="Path 3433" d="M182.013,23.756c-.321.025-.025,2.153-1.632,3.917s-3.9,1.848-3.874,2.147c-.011.137.563.343,1.523.235a5.34,5.34,0,0,0,3.249-1.675,4.654,4.654,0,0,0,1.233-3.264c-.045-.9-.354-1.393-.5-1.36" transform="translate(315.783 42.569)" fill="#263238"/>
          <path id="Path_3434" data-name="Path 3434" d="M177.61,16.612c.268.505,2.187-.022,4.518-.067,2.334-.095,4.278.318,4.515-.2.1-.246-.29-.7-1.11-1.111a7.851,7.851,0,0,0-6.881.2c-.795.458-1.16.938-1.043,1.178" transform="translate(317.718 26.045)" fill="#263238"/>
          <path id="Path_3435" data-name="Path 3435" d="M171.275,18.416c.407.4,1.69-.254,3.305-.505,1.609-.307,3.034-.123,3.286-.631.106-.246-.17-.662-.831-1a4.829,4.829,0,0,0-5.31.916c-.508.536-.63,1.022-.449,1.217" transform="translate(306.281 28.418)" fill="#263238"/>
          <path id="Path_3436" data-name="Path 3436" d="M166.943,19.915a4.763,4.763,0,0,1,1.144-4.448,3.363,3.363,0,0,1,4.365-.282,3.933,3.933,0,0,1,2.68-5.193c2.056-.424,4.047.9,6.13,1.164a9.547,9.547,0,0,0,5.846-1.522c1.777-1.025,3.391-2.323,5.2-3.286a16.425,16.425,0,0,1,22.159,6.637c2.661-1.262,6.024-.293,8.072,1.826a11.994,11.994,0,0,1,2.99,8.1,26.854,26.854,0,0,1-.653,5.922c.022.165.061.324.081.489.853,7.025,1.219,15.365-1.763,15.831-5.193.812-5.33-9.18-5.33-9.18-6.736-1.569-5.7-11.484-7.5-12.712s-5.614-4.135-18.026,4.587c-4.82,3.39-11.736,4.277-15.624,3.951-.114-.008-.229-.008-.343-.02l-.078-.006c-.045,0-.075-.022-.117-.028a12.137,12.137,0,0,1-3.634-.974,6.852,6.852,0,0,1-3.269-2.747,3.747,3.747,0,0,1,.17-4.09,8.237,8.237,0,0,1-2.5-4.021" transform="translate(298.433 7.93)" fill="#263238"/>
          <path id="Path_3437" data-name="Path 3437" d="M176.211,51.324l1.439,50.584,31.438-67.755-.786-6.271Z" transform="translate(315.253 49.965)" fill="#ebebeb"/>
          <path id="Path_3438" data-name="Path 3438" d="M225.488,91.348C224.336,91.725,158.88,158,160.35,169.9s48.067,100.062,48.067,100.062l33.246-16.409-31.187-77.287.41-4.794L249,140.206l-2.036-50.279Z" transform="translate(286.833 161.155)" fill="#263238"/>
          <path id="Path_3439" data-name="Path 3439" d="M188.75,111.133c.761,1.156,12.1,105.269,15.133,110.658s48.572,94.271,48.572,94.271l33.8-13.636-41.27-97.686,4.705-92.456-2.546-26.109L196.11,96.651Z" transform="translate(337.687 154.431)" fill="#263238"/>
          <path id="Path_3440" data-name="Path 3440" d="M203.315,200.525a5.761,5.761,0,0,1-.22-1.041c-.125-.757-.287-1.756-.494-3.007-.407-2.692-.976-6.458-1.673-11.076-1.355-9.429-3.21-22.325-5.257-36.576-1.966-14.265-3.746-27.175-5.045-36.612-.6-4.632-1.1-8.407-1.447-11.107-.148-1.259-.265-2.264-.357-3.027a5.919,5.919,0,0,1-.075-1.061,5.767,5.767,0,0,1,.22,1.041c.126.757.287,1.756.494,3.007.407,2.692.976,6.455,1.673,11.073,1.355,9.429,3.21,22.328,5.257,36.584,1.966,14.262,3.746,27.17,5.045,36.607.605,4.632,1.1,8.407,1.448,11.107.148,1.259.268,2.264.357,3.027a5.92,5.92,0,0,1,.075,1.061" transform="translate(337.661 173.862)" fill="#455a64"/>
          <path id="Path_3441" data-name="Path 3441" d="M211.593,127.569c.192.056-.686,3.75-1.964,8.251s-2.474,8.105-2.666,8.052.686-3.75,1.966-8.251,2.471-8.108,2.664-8.052" transform="translate(370.224 228.611)" fill="#455a64"/>
          <path id="Path_3442" data-name="Path 3442" d="M213.716,149.14a9.4,9.4,0,0,1-1.846-2.569,25.355,25.355,0,0,1-3.146-14.781,9.456,9.456,0,0,1,.639-3.1c.243.017-.747,4.819.516,10.579,1.194,5.774,4.053,9.755,3.838,9.87" transform="translate(373.216 230.622)" fill="#455a64"/>
          <path id="Path_3443" data-name="Path 3443" d="M174.4,116.845c.067-.17,2.8.969,5.458,3.409,2.675,2.424,4.055,5.045,3.894,5.129-.184.12-1.8-2.248-4.384-4.59-2.566-2.365-5.071-3.755-4.967-3.948" transform="translate(312.006 209.363)" fill="#455a64"/>
          <path id="Path_3444" data-name="Path 3444" d="M176.245,115.738c.131-.137,1.8,1.34,3.224,3.66s2.008,4.467,1.827,4.523c-.2.073-1.057-1.9-2.446-4.141s-2.758-3.9-2.6-4.043" transform="translate(315.293 207.393)" fill="#455a64"/>
          <path id="Path_3445" data-name="Path 3445" d="M179.9,119.427l8.367,41.56,6.811,57.994s28.075-3.926,40.04-7.717c13.878-4.4,44.076-8.142,44.076-8.142l-5.09,5.042c10.8-3.029,17.683-13.352,17.683-13.352-18.623-17.288-34.506-52.859-34.506-52.859l-14.16-70.382s-2.15-9.929-3.447-14.343-22.8-18.657-25.779-20.457l-1.874-.888-.594-5.64-2.217-1.326L185.936,50.078a25.261,25.261,0,0,0-8.1,15.817,183.032,183.032,0,0,0-1.015,26.477c.279,8.245,3.076,27.055,3.076,27.055" transform="translate(316.16 51.821)" fill="#04b5ff"/>
          <path id="Path_3446" data-name="Path 3446" d="M218.547,36.091s-12.294,6.6-14.425,12.2,4.206,66.99,4.206,66.99l-44.148.829-.137,26.335s70.123,5.545,72.85,1.751c3.69-5.132,7.977-53.1,7.977-53.1l1.593-34.515S242.4,30.256,218.547,36.091" transform="translate(293.484 63.164)" fill="#04b5ff"/>
          <g id="Group_1263" data-name="Group 1263" transform="translate(503.597 162.548)" opacity="0.3">
            <g id="Group_1262" data-name="Group 1262">
              <g id="Group_1261" data-name="Group 1261" clip-path="url(#clip-path-5)">
                <path id="Path_3447" data-name="Path 3447" d="M181.389,108.477a42.2,42.2,0,0,0,17.672,1.653c6.217-.578,12.542-3.984,14.894-9.778,1.8-4.434,1.051-9.432,1.322-14.212.237-4.152,1.266-8.211,1.891-12.324s-1.5-11.668-2.856-15.6c0,0-1.576,28.5-6.027,40.463a9.821,9.821,0,0,1-2.73,4.37c-1.576,1.27-3.76,1.379-5.771,1.591-5.631.589-19.222-.388-19.222-.388" transform="translate(-180.561 -58.22)"/>
              </g>
            </g>
          </g>
          <path id="Path_3448" data-name="Path 3448" d="M246.614,44.221a3.543,3.543,0,0,1,0,.625c-.017.447-.039,1.055-.07,1.834-.078,1.65-.192,4.018-.337,7.05-.162,3.074-.357,6.815-.586,11.154-.265,4.344-.407,9.306-.94,14.762-.477,5.458-1.046,11.436-1.732,17.844-.711,6.408-1.47,13.254-2.686,20.413a44.126,44.126,0,0,1-1.213,5.414,10.572,10.572,0,0,1-3.182,4.774,8.055,8.055,0,0,1-5.494,1.963c-1.947.045-3.9-.006-5.871-.031-7.879-.193-16.026-.6-24.365-1.05-12.531-.7-24.608-1.477-35.893-2.27l-.326-.022,0-.327c.056-9.353.109-18.165.159-26.29v-.3l.3-.006c17.627-.38,32.3-.7,42.611-.919l11.92-.207c1.347-.014,2.393-.022,3.138-.031.711,0,1.077.022,1.077.022s-.365.042-1.074.075c-.745.031-1.791.07-3.138.123L207,99.2c-10.306.285-24.982.69-42.606,1.178l.3-.31c-.028,8.128-.056,16.939-.086,26.29l-.323-.346c11.285.771,23.358,1.541,35.884,2.234,8.337.452,16.481.863,24.343,1.067,1.964.025,3.916.078,5.835.039a7.363,7.363,0,0,0,5.07-1.8,9.891,9.891,0,0,0,2.982-4.462,44.228,44.228,0,0,0,1.2-5.308c1.23-7.123,2.011-13.966,2.747-20.36.711-6.4,1.311-12.372,1.818-17.827.566-5.447.745-10.4,1.049-14.745.273-4.333.51-8.072.706-11.14.206-3.029.365-5.394.477-7.042q.088-1.164.142-1.829a3.876,3.876,0,0,1,.072-.623" transform="translate(293.261 79.247)" fill="#263238"/>
          <path id="Path_3449" data-name="Path 3449" d="M167.344,89.892c-.2,0-.335-5.718-.3-12.771s.229-12.768.43-12.768.335,5.718.3,12.774-.229,12.765-.43,12.765" transform="translate(298.849 115.325)" fill="#263238"/>
          <path id="Path_3450" data-name="Path 3450" d="M166.143,66.008c-.084-.047.357-.539,1.194-.26a1.353,1.353,0,0,1,.9,1.17,1.6,1.6,0,0,1-.9,1.575,1.64,1.64,0,0,1-1.777-.327,1.479,1.479,0,0,1-.43-1.39c.2-.835.778-1.011.8-.927.07.081-.276.391-.287.991a1.007,1.007,0,0,0,.365.826,1.037,1.037,0,0,0,1.029.165.99.99,0,0,0,.53-.877.854.854,0,0,0-.443-.74c-.508-.3-.934-.112-.979-.207" transform="translate(295.37 117.673)" fill="#263238"/>
          <path id="Path_3451" data-name="Path 3451" d="M200.594,46.354s22.968,30.062,25.765,38.257.636,19.955-4.041,25.578-8.448,3.339-8.448,3.339Z" transform="translate(358.877 83.069)" fill="#04b5ff"/>
          <path id="Path_3452" data-name="Path 3452" d="M212.523,69.588c.033.2-2.544.807-5.757,1.357s-5.843.84-5.879.642,2.544-.807,5.757-1.36,5.846-.838,5.879-.639" transform="translate(359.4 124.594)" fill="#263238"/>
          <path id="Path_3453" data-name="Path 3453" d="M206.648,77.487a7.824,7.824,0,0,1,.625,1.586c.346,1.036.876,2.527,1.556,4.356A128.964,128.964,0,0,0,215,97.361a147.654,147.654,0,0,0,7.715,13.148c1.074,1.631,1.958,2.94,2.577,3.842a7.531,7.531,0,0,1,.9,1.449,7.694,7.694,0,0,1-1.124-1.282c-.689-.852-1.64-2.119-2.772-3.722a112.959,112.959,0,0,1-7.938-13.1A102.943,102.943,0,0,1,208.344,83.6c-.622-1.86-1.077-3.381-1.344-4.445a7.9,7.9,0,0,1-.352-1.67" transform="translate(369.691 138.861)" fill="#263238"/>
          <g id="Group_1266" data-name="Group 1266" transform="translate(577.901 219.911)" opacity="0.3">
            <g id="Group_1265" data-name="Group 1265">
              <g id="Group_1264" data-name="Group 1264" clip-path="url(#clip-path-6)">
                <path id="Path_3454" data-name="Path 3454" d="M207.2,78.763c3.64,6.494,7.38,13.114,12.927,18.079,1.955,1.751,4.147,3.306,5.639,5.47s2.139,5.188.72,7.4a2.324,2.324,0,0,1-2.29,1.24,2.932,2.932,0,0,1-1.5-1.217A89.629,89.629,0,0,1,207.45,79.757" transform="translate(-207.202 -78.763)"/>
              </g>
            </g>
          </g>
          <g id="Group_1269" data-name="Group 1269" transform="translate(561.401 133.958)" opacity="0.3">
            <g id="Group_1268" data-name="Group 1268">
              <g id="Group_1267" data-name="Group 1267" clip-path="url(#clip-path-7)">
                <path id="Path_3455" data-name="Path 3455" d="M214.753,110.505c3.146-2.262,4.245-6.564,3.779-10.412s-2.223-7.4-3.815-10.934a180.043,180.043,0,0,1-11.184-32.843l-2.245-8.34,11.36,59.5Z" transform="translate(-201.284 -47.98)"/>
              </g>
            </g>
          </g>
          <path id="Path_3456" data-name="Path 3456" d="M185.733,40.094c-.128-.168,1.933-1.924,4.281-4.28s4.108-4.414,4.276-4.286c.153.112-1.367,2.41-3.762,4.8s-4.683,3.92-4.794,3.766" transform="translate(332.278 56.489)" fill="#263238"/>
          <path id="Path_3457" data-name="Path 3457" d="M195.841,36.426c.036.123-1.325.533-3.358,1.538a26.713,26.713,0,0,0-12.191,12.349c-.982,2.047-1.375,3.415-1.5,3.381a2.759,2.759,0,0,1,.159-.994,16.383,16.383,0,0,1,.87-2.6A23.983,23.983,0,0,1,192.266,37.5a16.437,16.437,0,0,1,2.585-.9,2.705,2.705,0,0,1,.99-.17" transform="translate(319.847 65.25)" fill="#263238"/>
          <path id="Path_3458" data-name="Path 3458" d="M218.24,118.984a2.414,2.414,0,0,1-.36-.578c-.248-.463-.552-1.03-.92-1.725-.823-1.608-1.936-3.789-3.305-6.472l-.014-.025-.008-.034c-1.434-6.589-3.467-16.2-5.676-26.885-2.039-10.071-3.885-19.184-5.246-25.908-.622-3.244-1.132-5.908-1.509-7.868-.151-.866-.273-1.575-.374-2.147a3.083,3.083,0,0,1-.081-.759,3.174,3.174,0,0,1,.226.729c.134.564.3,1.265.508,2.119.432,1.949,1.018,4.6,1.735,7.823,1.414,6.709,3.333,15.809,5.453,25.863,2.209,10.688,4.153,20.315,5.447,26.932l-.019-.059c1.286,2.725,2.332,4.939,3.1,6.573.323.718.588,1.3.8,1.781a2.535,2.535,0,0,1,.237.639" transform="translate(359.134 83.48)" fill="#263238"/>
          <path id="Path_3459" data-name="Path 3459" d="M182.853,99.7a12.752,12.752,0,0,1-.337-2.178c-.165-1.538-.385-3.546-.647-5.967-.513-5.04-1.177-12.009-1.863-19.706s-1.266-14.678-1.651-19.731c-.167-2.426-.31-4.442-.416-5.983a12.713,12.713,0,0,1-.056-2.2,12.886,12.886,0,0,1,.337,2.181c.167,1.538.385,3.546.647,5.967.516,5.04,1.177,12.006,1.863,19.706S182,86.454,182.382,91.5c.17,2.429.31,4.445.416,5.986a12.741,12.741,0,0,1,.056,2.206" transform="translate(318.198 78.722)" fill="#263238"/>
          <path id="Path_3460" data-name="Path 3460" d="M185.37,70.356s-9.522-7.231-11.845-7.667c-1.777-.332-12.4-.156-17.292-.056a3.5,3.5,0,0,0-3.506,3.4,1.7,1.7,0,0,0,.033.346,3.187,3.187,0,0,0,2.323,2.418,3.709,3.709,0,0,0-2.574,3.49c-.042,2.761,3.3,3.342,3.3,3.342a4.684,4.684,0,0,0-.477.424,3.3,3.3,0,0,0,1.615,5.531l1.506.343s-2.036.849-2.008,2.745c.056,3.635,8.222,4.33,8.222,4.33s20.187,3.2,20.622,3.055.081-21.7.081-21.7" transform="translate(272.849 111.996)" fill="#ffbe9d"/>
          <path id="Path_3461" data-name="Path 3461" d="M154.521,62.112c.089,1.2.371,3.747,2.407,4.906l11.248-.441s-8.376-2.9-9.569-4.325a9.545,9.545,0,0,0-1.6-1.572,1.59,1.59,0,0,0-2.482,1.432" transform="translate(276.441 108.218)" fill="#ffbe9d"/>
          <path id="Path_3462" data-name="Path 3462" d="M164.1,62.8c.006.2-2.3.416-5.138.363-2.825-.05-5.121-.156-5.123-.363s2.3-.416,5.135-.363,5.121.156,5.126.363" transform="translate(275.225 111.88)" fill="#eb996e"/>
          <path id="Path_3463" data-name="Path 3463" d="M162.271,65.082c.02.193-1.963.544-4.435.452s-4.423-.575-4.39-.768,2-.042,4.415.042,4.39.067,4.41.274" transform="translate(274.525 115.888)" fill="#eb996e"/>
          <path id="Path_3464" data-name="Path 3464" d="M159.941,64.544c.167.1-.047.718-.683,1.128s-1.283.357-1.308.162.418-.447.912-.773.909-.631,1.079-.517" transform="translate(282.579 115.624)" fill="#eb996e"/>
          <path id="Path_3465" data-name="Path 3465" d="M163.257,67.728c-.014.2-2.187.293-4.847.2s-4.822-.321-4.822-.522,2.167-.293,4.847-.2,4.836.321,4.822.522" transform="translate(274.778 120.376)" fill="#eb996e"/>
          <path id="Path_3466" data-name="Path 3466" d="M160.865,66.294c.089-.025.265.2.318.645a2.316,2.316,0,0,1-1.966,2.5c-.443.05-.706-.064-.7-.159-.006-.2.968-.324,1.609-1.15s.547-1.8.739-1.84" transform="translate(283.598 118.8)" fill="#eb996e"/>
          <path id="Path_3467" data-name="Path 3467" d="M163.216,70.631c-.025.2-1.983.12-4.373-.173s-4.309-.7-4.284-.9,1.983-.12,4.373.176,4.309.7,4.284.9" transform="translate(276.517 124.458)" fill="#eb996e"/>
          <path id="Path_3468" data-name="Path 3468" d="M161.359,68.6c.095-.014.231.235.22.67a2.744,2.744,0,0,1-.6,1.53c-.826,1-1.749,1.36-1.852,1.223-.145-.173.6-.832,1.275-1.67.694-.84.773-1.72.959-1.753" transform="translate(284.652 122.937)" fill="#eb996e"/>
          <path id="Path_3469" data-name="Path 3469" d="M210.96,98.253a12.857,12.857,0,0,0,9.753-6.151c.232-.391.43-.921.128-1.259a1.109,1.109,0,0,0-.851-.254,26.355,26.355,0,0,0-9.243,1.586,1.254,1.254,0,0,0-.828.62,1.3,1.3,0,0,0,.039.762q.594,2.287,1.185,4.576" transform="translate(375.481 162.338)" fill="#e8505b"/>
          <g id="Group_1272" data-name="Group 1272" transform="translate(585.356 252.924)" opacity="0.4">
            <g id="Group_1271" data-name="Group 1271">
              <g id="Group_1270" data-name="Group 1270" clip-path="url(#clip-path-8)">
                <path id="Path_3470" data-name="Path 3470" d="M210.96,98.253a12.857,12.857,0,0,0,9.753-6.151c.232-.391.43-.921.128-1.259a1.109,1.109,0,0,0-.851-.254,26.355,26.355,0,0,0-9.243,1.586,1.254,1.254,0,0,0-.828.62,1.3,1.3,0,0,0,.039.762q.594,2.287,1.185,4.576" transform="translate(-209.875 -90.586)"/>
              </g>
            </g>
          </g>
          <path id="Path_3471" data-name="Path 3471" d="M178.506,36.277s-4.63,15.563-3.355,14.678,4.044-3.342,4.044-3.342Z" transform="translate(312.959 65.011)" fill="#ebebeb"/>
          <path id="Path_3472" data-name="Path 3472" d="M178.366,38.847l-2.532,6.059a8.287,8.287,0,0,0-.491,1.957c-.209,1.7-.452,4.808.558,5.026,1.395.3,2.708-1.122,2.708-1.122Z" transform="translate(313.367 69.616)" fill="#263238"/>
          <path id="Path_3473" data-name="Path 3473" d="M257.1,42.177s-24.773-9.674-38.489-1.131-16.213,22.175-24.382,22.175c-15.931,0-15.421-11.249-15.421-11.249L175.418,53c-.064,2.3-3.693,18.832,13.095,20.882S212.357,53.019,227.459,53a50.1,50.1,0,0,1,26.566,8.175L264.875,54.3Z" transform="translate(313.168 67.241)" fill="#263238"/>
          <path id="Path_3474" data-name="Path 3474" d="M181.674,72.778A23.281,23.281,0,0,0,191.229,61.8c3.849-8.887,12.11-19.036,19.008-21.585s22.856-4.328,33.882,2.862l7.059,9.549-9.165,5.95a85.062,85.062,0,0,0-16.152-6.472c-11.393-3.186-18.316.41-24.94,6.687-.413.391-.789.776-1.118,1.15a75.386,75.386,0,0,1-10.487,9.292c-3.238,2.315-6.167,3.568-7.642,3.543" transform="translate(325.027 68.07)" fill="#455a64"/>
          <path id="Path_3475" data-name="Path 3475" d="M152.982,70.109c-14.693,2.267-25.464-10.088-28.9-21.088-3.171-10.152-4.68-20.717-9.134-30.375C108.725,5.146,92.236-1.092,77.438.156S47.726,8.828,34.631,15.845L38.243,97.1S66.756,66.7,80.458,66.147c22.859-.921,21.615,36.693,43.813,42.249,0,0,31.12,8.446,52.161-18.76,13.354-17.266,14.537-38.243,14.537-38.243s-10.228,14.435-37.987,18.715" transform="translate(61.957 0)" fill="#04b5ff"/>
          <path id="Path_3476" data-name="Path 3476" d="M34.421.846c.2-.008,4.2,86.275,8.931,192.694,4.73,106.456,8.4,192.733,8.2,192.742s-4.2-86.255-8.931-192.711C37.893,87.151,34.22.854,34.421.846" transform="translate(61.568 1.516)" fill="#263238"/>
          <g id="Group_1275" data-name="Group 1275" transform="translate(174.465 43.4)" opacity="0.2">
            <g id="Group_1274" data-name="Group 1274">
              <g id="Group_1273" data-name="Group 1273" clip-path="url(#clip-path-9)">
                <path id="Path_3477" data-name="Path 3477" d="M62.553,15.544a98.993,98.993,0,0,0,10.8,24.389C77.589,46.567,84.009,52.151,91.7,53.756a17.821,17.821,0,0,1,4.119,1.072,3.981,3.981,0,0,1,2.452,3.23c.059,2.13-2.139,3.521-4.047,4.462a33.289,33.289,0,0,1-8.445,3.25c-2.973.556-5.3.866-7.346-1.368a42.676,42.676,0,0,1-5.313-6.374c-6.708-11.439-10.024-27.8-10.571-40.75" transform="translate(-62.553 -15.544)"/>
              </g>
            </g>
          </g>
          <path id="Path_3478" data-name="Path 3478" d="M83.3,78.577a3.067,3.067,0,0,1-.661-.377c-.418-.271-1.015-.7-1.754-1.29a30.309,30.309,0,0,1-5.419-5.894,45.292,45.292,0,0,1-5.425-10.565,116.549,116.549,0,0,1-4.019-13.96A155.9,155.9,0,0,1,62.28,20.4c-.187-3.37-.218-6.1-.218-7.988.02-.874.036-1.591.05-2.169a2.983,2.983,0,0,1,.067-.757,3.049,3.049,0,0,1,.078.754c.025.578.053,1.3.089,2.169.084,1.882.192,4.6.446,7.957a174.362,174.362,0,0,0,3.938,25.961A123.893,123.893,0,0,0,70.669,60.22a46.626,46.626,0,0,0,5.218,10.5A32.982,32.982,0,0,0,81.069,76.7c1.406,1.24,2.268,1.829,2.231,1.882" transform="translate(111.033 16.998)" fill="#263238"/>
          <path id="Path_3479" data-name="Path 3479" d="M2.652,145.038l194.119,31.813V145.038Z" transform="translate(4.744 259.917)" fill="#e0e0e0"/>
          <path id="Path_3480" data-name="Path 3480" d="M83.741,170.777,277.86,202.59V170.777Z" transform="translate(149.818 306.043)" fill="#e0e0e0"/>
          <path id="Path_3481" data-name="Path 3481" d="M164.271,195.4l194.119,31.813V195.4Z" transform="translate(293.893 350.167)" fill="#e0e0e0"/>
          <rect id="Rectangle_555" data-name="Rectangle 555" width="194.119" height="23.827" transform="translate(7.394 381.128)" fill="#04b5ff"/>
          <g id="Group_1278" data-name="Group 1278" transform="translate(140.939 381.127)" opacity="0.3">
            <g id="Group_1277" data-name="Group 1277">
              <g id="Group_1276" data-name="Group 1276" clip-path="url(#clip-path-10)">
                <rect id="Rectangle_556" data-name="Rectangle 556" width="60.576" height="23.827" transform="translate(-0.002 0.001)"/>
              </g>
            </g>
          </g>
          <rect id="Rectangle_558" data-name="Rectangle 558" width="194.119" height="23.827" transform="translate(233.559 452.992)" fill="#04b5ff"/>
          <g id="Group_1281" data-name="Group 1281" transform="translate(367.103 452.992)" opacity="0.3">
            <g id="Group_1280" data-name="Group 1280">
              <g id="Group_1279" data-name="Group 1279" clip-path="url(#clip-path-11)">
                <rect id="Rectangle_559" data-name="Rectangle 559" width="60.576" height="23.827" transform="translate(0)"/>
              </g>
            </g>
          </g>
          <rect id="Rectangle_561" data-name="Rectangle 561" width="194.119" height="23.827" transform="translate(458.163 521.739)" fill="#04b5ff"/>
          <g id="Group_1284" data-name="Group 1284" transform="translate(591.709 521.738)" opacity="0.3">
            <g id="Group_1283" data-name="Group 1283">
              <g id="Group_1282" data-name="Group 1282" clip-path="url(#clip-path-12)">
                <rect id="Rectangle_562" data-name="Rectangle 562" width="60.576" height="23.827" transform="translate(-0.003 0)"/>
              </g>
            </g>
          </g>
          <path id="Path_3482" data-name="Path 3482" d="M271.509,178.787a5.278,5.278,0,1,0,5.28-5.285,5.282,5.282,0,0,0-5.28,5.285" transform="translate(485.748 310.926)" fill="#ebebeb"/>
        </g>
      </g>
    </g>
  </g>
</svg>
