<svg id="servicesImage3" xmlns="http://www.w3.org/2000/svg" xmlns:xlink="http://www.w3.org/1999/xlink" width="275" height="199.534" viewBox="0 0 275 199.534">
  <defs>
    <clipPath id="clip-path">
      <rect id="Rectangle_594" data-name="Rectangle 594" width="275" height="199.534" fill="none"/>
    </clipPath>
    <clipPath id="clip-path-3">
      <rect id="Rectangle_583" data-name="Rectangle 583" width="23.776" height="9.228" fill="none"/>
    </clipPath>
    <clipPath id="clip-path-4">
      <rect id="Rectangle_584" data-name="Rectangle 584" width="8.419" height="37.654" fill="none"/>
    </clipPath>
    <clipPath id="clip-path-5">
      <rect id="Rectangle_585" data-name="Rectangle 585" width="8.36" height="32.325" fill="none"/>
    </clipPath>
    <clipPath id="clip-path-6">
      <rect id="Rectangle_586" data-name="Rectangle 586" width="5.96" height="7.341" fill="none"/>
    </clipPath>
    <clipPath id="clip-path-7">
      <rect id="Rectangle_590" data-name="Rectangle 590" width="1.1" height="3.28" fill="none"/>
    </clipPath>
    <clipPath id="clip-path-8">
      <rect id="Rectangle_591" data-name="Rectangle 591" width="2.744" height="3.246" fill="none"/>
    </clipPath>
    <clipPath id="clip-path-9">
      <rect id="Rectangle_592" data-name="Rectangle 592" width="2.382" height="7.098" fill="none"/>
    </clipPath>
  </defs>
  <g id="Group_1315" data-name="Group 1315" clip-path="url(#clip-path)">
    <g id="Group_1314" data-name="Group 1314">
      <g id="Group_1313" data-name="Group 1313" clip-path="url(#clip-path)">
        <path id="Path_3578" data-name="Path 3578" d="M265.537,133.752c13.323,28.205-5.956,83.544-128.216,45.085-61.3-19.283-107.089,24.156-116.525-6.165C-1.182,102.045,88.576,20.346,138.488,77.385,184.11,129.521,241.289,82.417,265.537,133.752Z" transform="translate(-2.692)" fill="none" stroke="#e4e4e4" stroke-miterlimit="10" stroke-width="4" stroke-dasharray="32.088 32.088"/>
        <path id="Path_3579" data-name="Path 3579" d="M264.5,195.837H15.211c7.8-68.194,60.626-120.943,124.643-120.943S256.7,127.643,264.5,195.837" transform="translate(-2.354)" fill="#f6f5f5"/>
        <path id="Path_3580" data-name="Path 3580" d="M212.262,195.237H200.138c-26.91,0-48.724-25.809-48.724-57.646V75.056c0-31.839,21.815-57.646,48.724-57.646h12.124c26.91,0,48.724,25.807,48.724,57.646v62.535c0,31.837-21.815,57.646-48.724,57.646" transform="translate(-23.434)" fill="#04b5ff"/>
        <rect id="Rectangle_567" data-name="Rectangle 567" width="90.186" height="154.995" transform="translate(137.883 24.576)" fill="#f6f5f5"/>
        <path id="Path_3581" data-name="Path 3581" d="M253.316,24.576c.028,60.44,1.677,133.333-4.06,149.472-25.276,2.914-54.871,3.849-86.128,4.023L175.009,25.043Z" transform="translate(-25.247)" fill="#e4e4e4"/>
        <path id="Path_3582" data-name="Path 3582" d="M244.3,169.165c-39.4,7.459-65.725,7.853-87.08,5.977,2.767-34.853,3.877-92.752,4.993-150.558l47.472.125,42.965,3.355c.625,60,.694,115.417-8.349,141.1" transform="translate(-24.333)" fill="#fff"/>
        <path id="Path_3751" data-name="Path 3751" d="M.145.021,8.7-.01l-.2,47.462-8.552.031Z" transform="matrix(0.024, -1, 1, 0.024, 158.411, 47.564)" fill="#04b5ff"/>
        <path id="Path_3752" data-name="Path 3752" d="M.131.009,4.045,0l-.184,42.81-3.914.014Z" transform="translate(172.311 63.965) rotate(-88.651)" fill="#04b5ff"/>
        <path id="Path_3753" data-name="Path 3753" d="M.089.01,4,0l-.125,29.1-3.914.014Z" transform="matrix(0.024, -1, 1, 0.024, 172.142, 72.456)" fill="#d3dfff"/>
        <path id="Path_3754" data-name="Path 3754" d="M.031.029,12.019-.014l-.044,10.135-11.988.044Z" transform="translate(148.518 71.51) rotate(-88.652)" fill="#04b5ff"/>
        <path id="Path_3583" data-name="Path 3583" d="M177.979,62.648c.313,1.417.89,7.351,3.4,5.692a8.7,8.7,0,0,0,1.5-1.977l2.337-3.138,4.673-6.278c.4-.536-1.363-1.881-1.865-1.208l-4.154,5.58-2.077,2.79c-.481.645-1.592,2.727-2.3,2.912l1.163.444c.274.266-.235-1.619-.246-1.67q-.29-1.314-.58-2.626c-.16-.723-2.089-1.592-1.852-.521" transform="translate(-27.542)" fill="#ee6f57"/>
        <path id="Path_3755" data-name="Path 3755" d="M.108.009,4.022,0,3.87,35.249l-3.914.014Z" transform="translate(171.878 85.733) rotate(-88.652)" fill="#04b5ff"/>
        <path id="Path_3756" data-name="Path 3756" d="M.131.009,4.045,0l-.184,42.81-3.914.014Z" transform="translate(171.708 94.289) rotate(-88.651)" fill="#d3dfff"/>
        <path id="Path_3757" data-name="Path 3757" d="M.031.029,12.019-.014l-.044,10.135-11.988.044Z" transform="translate(148.084 93.301) rotate(-88.652)" fill="#04b5ff"/>
        <path id="Path_3584" data-name="Path 3584" d="M177.458,84.777c.313,1.417.891,7.351,3.4,5.692a8.7,8.7,0,0,0,1.5-1.977l2.337-3.138,4.673-6.278c.4-.536-1.363-1.881-1.865-1.208l-4.154,5.58-2.077,2.79c-.481.646-1.592,2.727-2.3,2.912l1.163.444c.274.266-.235-1.619-.246-1.67q-.29-1.314-.58-2.626c-.16-.723-2.089-1.592-1.852-.521" transform="translate(-27.462)" fill="#ee6f57"/>
        <path id="Path_3758" data-name="Path 3758" d="M.131.009,4.045,0l-.184,42.81-3.914.014Z" transform="translate(171.444 107.547) rotate(-88.651)" fill="#04b5ff"/>
        <path id="Path_3759" data-name="Path 3759" d="M.059.01,3.973,0,3.89,19.141l-3.914.014Z" transform="translate(171.276 116.008) rotate(-88.651)" fill="#d3dfff"/>
        <path id="Path_3760" data-name="Path 3760" d="M.031.029,12.019-.014l-.044,10.135-11.988.044Z" transform="translate(147.651 115.092) rotate(-88.652)" fill="#04b5ff"/>
        <path id="Path_3585" data-name="Path 3585" d="M177.108,106.723c.313,1.417.891,7.351,3.4,5.692a8.7,8.7,0,0,0,1.5-1.977l2.337-3.138,4.673-6.278c.4-.536-1.363-1.881-1.865-1.208L183,105.394l-2.077,2.79c-.481.645-1.592,2.727-2.3,2.912l1.163.444c.274.266-.235-1.619-.246-1.67q-.29-1.314-.58-2.626c-.16-.723-2.089-1.592-1.852-.521" transform="translate(-27.407)" fill="#ee6f57"/>
        <path id="Path_3761" data-name="Path 3761" d="M.131.009,4.045,0l-.184,42.81-3.914.014Z" transform="translate(171.01 129.338) rotate(-88.651)" fill="#04b5ff"/>
        <path id="Path_3762" data-name="Path 3762" d="M.1.009,4.017,0,3.872,33.814l-3.914.014Z" transform="translate(170.841 137.843) rotate(-88.652)" fill="#d3dfff"/>
        <path id="Path_3763" data-name="Path 3763" d="M.031.029,12.019-.014l-.044,10.135-11.988.044Z" transform="translate(147.217 136.883) rotate(-88.652)" fill="#04b5ff"/>
        <path id="Path_3586" data-name="Path 3586" d="M176.6,128.371c.313,1.417.89,7.351,3.4,5.692a8.7,8.7,0,0,0,1.5-1.977l2.337-3.138,4.673-6.278c.4-.536-1.363-1.881-1.865-1.208l-4.154,5.58-2.077,2.79c-.481.645-1.592,2.727-2.3,2.912l1.163.444c.274.266-.235-1.619-.246-1.67q-.29-1.314-.58-2.626c-.16-.723-2.089-1.592-1.852-.521" transform="translate(-27.329)" fill="#ee6f57"/>
        <path id="Path_3764" data-name="Path 3764" d="M.052.01,3.966,0l-.073,16.97-3.914.014Z" transform="translate(170.582 150.885) rotate(-88.653)" fill="#04b5ff"/>
        <path id="Path_3587" data-name="Path 3587" d="M244.5,156.644l-42.794-1.192-.078,3.914c16.556.46,37.637,1.377,41.939.6a4.918,4.918,0,0,0,.933-3.318" transform="translate(-31.205)" fill="#d3dfff"/>
        <path id="Path_3765" data-name="Path 3765" d="M.031.029,12.019-.014l-.044,10.135-11.988.044Z" transform="translate(146.929 158.513) rotate(-88.652)" fill="#04b5ff"/>
        <path id="Path_3588" data-name="Path 3588" d="M176.094,149.829c.313,1.417.89,7.351,3.4,5.692a8.7,8.7,0,0,0,1.5-1.977l2.337-3.138,4.673-6.278c.4-.536-1.363-1.881-1.865-1.208l-4.154,5.58-2.077,2.79c-.481.645-1.592,2.727-2.3,2.912l1.163.444c.274.266-.235-1.619-.246-1.67q-.29-1.314-.58-2.626c-.16-.723-2.089-1.592-1.852-.521" transform="translate(-27.25)" fill="#ee6f57"/>
        <path id="Path_3589" data-name="Path 3589" d="M232.824,18.486V30.449H192.2V18.486a7.591,7.591,0,0,1,1.71-4.887,5.737,5.737,0,0,1,4.131-2.023,6.018,6.018,0,0,0,2.986-.805,7.04,7.04,0,0,0,1.122-.8,8.259,8.259,0,0,0,2.493-4.183,8.25,8.25,0,0,1,2.569-4.247A6.21,6.21,0,0,1,211.245,0h2.535a6.208,6.208,0,0,1,4.033,1.54,8.252,8.252,0,0,1,2.57,4.247,8.252,8.252,0,0,0,2.493,4.183,7.086,7.086,0,0,0,1.123.8,6.018,6.018,0,0,0,2.986.805,5.29,5.29,0,0,1,3.718,1.585,7.428,7.428,0,0,1,2.122,5.325" transform="translate(-29.746)" fill="#04b5ff"/>
        <path id="Path_3590" data-name="Path 3590" d="M235.517,24.576v8.893H188.3V24.576h3.3v5.873h40.625V24.576Z" transform="translate(-29.142)" fill="#e4e4e4"/>
        <path id="Path_3591" data-name="Path 3591" d="M219.175,7.171a3.628,3.628,0,1,1-7.206,0,3.628,3.628,0,1,1,7.206,0" transform="translate(-32.806)" fill="#fff"/>
        <path id="Path_3592" data-name="Path 3592" d="M123.5,63.178c-1.441-.323-2.788-3.171-3.256-4.263a1.576,1.576,0,0,1-.1-.867l.573-3.6s1.324.267,1.221,2.351a1.771,1.771,0,0,0,.092.635l.506,1.568,1.5-1.372-.822-2.743a3.4,3.4,0,0,1-1.667.142c-1.165-.439.363-1.514.845-1.628s1.546-.572,2.029.4.773,1.543.773,1.543a25.352,25.352,0,0,0,.169-7.03c-.016-.219.447-.214.577-.058.389.469,1.008,1.9,1.041,6.23,0,0,.065-5.052.8-5.572.6-.429.909,2.044.483,6.238,0,0,.789-3.631,1.352-3.638.952-.01.013,9.7-2.38,12.592Z" transform="translate(-18.591)" fill="#f9b384"/>
        <path id="Path_3593" data-name="Path 3593" d="M128.2,61.692q-.063.724-.14,1.4V63.1c-.17,1.61-.383,3.05-.63,4.282-.013.061-.021.117-.034.171-.728,3.528-.86,5.254-3.344,4.791L121.5,68.9l-.025-.035-.187-.252.519-1.812.068-.235.383-1.319.047-.172.655-2.27.264-.92Z" transform="translate(-18.771)" fill="#f9b384"/>
        <path id="Path_3594" data-name="Path 3594" d="M71.83,187.042l-.651,2.406c-4.462,1.735-7.064,3.722-7.232,6.04h12.9l1.035-8.057a8.567,8.567,0,0,1-6.055-.389" transform="translate(-9.897)" fill="#1f3c88"/>
        <path id="Path_3595" data-name="Path 3595" d="M74.891,181.06l-1.618,5.982a8.566,8.566,0,0,0,6.055.389l.667-5.2Z" transform="translate(-11.34)" fill="#f9b384"/>
        <path id="Path_3596" data-name="Path 3596" d="M100.186,186.775l.379-6.093-6.062.378-.331,5.616a8.466,8.466,0,0,0,6.015.1" transform="translate(-14.575)" fill="#f9b384"/>
        <path id="Path_3597" data-name="Path 3597" d="M107.382,195.488c-.167-2.318-2.446-5.494-7.444-6.249l.153-2.463a8.466,8.466,0,0,1-6.015-.1l-.52,8.811Z" transform="translate(-14.48)" fill="#1f3c88"/>
        <path id="Path_3598" data-name="Path 3598" d="M94.136,64.742l-7.312.06V51.717h7.091l0,.8.035,4.147L94,63.323Z" transform="translate(-13.437)" fill="#f9b384"/>
        <path id="Path_3599" data-name="Path 3599" d="M94.125,57.294c-1.314,1.636-4.743-.211-6.19-2.013l6.156-2.134Z" transform="translate(-13.609)" fill="#e28b6d"/>
        <path id="Path_3600" data-name="Path 3600" d="M95.147,48.7a22.074,22.074,0,0,1-.191,2.944c-.358,2.637-1.3,4.917-3.48,4.988-5.147.176-6.615-3.307-7.585-6.155s.6-9.714.6-9.714l6.661-.78,3.658,3.548a38.06,38.06,0,0,1,.332,5.169" transform="translate(-12.935)" fill="#f9b384"/>
        <path id="Path_3601" data-name="Path 3601" d="M83.507,48.843s1.468-.08,1.719-4.564c2.626,1.039,4.545.091,6.065-1.978,1.3,2.027,4.929,2.662,6.155-1.488.886-3-1.559-7.465-5.122-4.76-3.492-2.087-8.788-1.944-10.312,3.175,0,0-5.3,2.89.312,9.253a5.669,5.669,0,0,0,1.182.362" transform="translate(-12.342)" fill="#102048"/>
        <path id="Path_3602" data-name="Path 3602" d="M105.673,111.771l-4.042,72.309h-9.5l2.375-70.166,1.454-.8Z" transform="translate(-14.259)" fill="#102048"/>
        <path id="Path_3603" data-name="Path 3603" d="M77.658,101.878l-6.665,82.2H81.345L91.2,115.8l11.2-4.026.5-14.6L77.942,96.51Z" transform="translate(-10.987)" fill="#1f3c88"/>
        <g id="Group_1294" data-name="Group 1294" transform="translate(66.054 93.739)" opacity="0.6">
          <g id="Group_1293" data-name="Group 1293">
            <g id="Group_1292" data-name="Group 1292" clip-path="url(#clip-path-3)">
              <path id="Path_3604" data-name="Path 3604" d="M80.251,102.057c5.654,2.4,18.919-.343,21.673-3.688l-1.958-4.631L78.149,97.169Z" transform="translate(-78.149 -93.739)" fill="#102048"/>
            </g>
          </g>
        </g>
        <path id="Path_3605" data-name="Path 3605" d="M102.039,97.254c-.183.091-.37.186-.561.272a34.146,34.146,0,0,1-7.087,2.5,27.823,27.823,0,0,1-4.752.69A23.344,23.344,0,0,1,82.178,100l3.169-34.958.387-4.263s4.148,6.04,8.721-.629Z" transform="translate(-12.718)" fill="#fff"/>
        <g id="Group_1297" data-name="Group 1297" transform="translate(69.459 63.104)" opacity="0.3">
          <g id="Group_1296" data-name="Group 1296">
            <g id="Group_1295" data-name="Group 1295" clip-path="url(#clip-path-4)">
              <path id="Path_3606" data-name="Path 3606" d="M89.639,100.712A23.323,23.323,0,0,1,82.177,100l3.17-34.957L86.478,63.1c2.794,8.043,5.657,25.851,3.16,37.608" transform="translate(-82.178 -63.104)" fill="#1f3c88"/>
            </g>
          </g>
        </g>
        <path id="Path_3607" data-name="Path 3607" d="M80.384,59.393c3.151,15.828,4.448,32.116-.2,50.2a14.848,14.848,0,0,1-11.2.168l.993-32.881-23.361,19L45.2,85.522c8.98-10.159,24.506-25.506,35.183-26.129" transform="translate(-6.996)" fill="#708cd5"/>
        <g id="Group_1300" data-name="Group 1300" transform="translate(80.4 67.697)" opacity="0.3">
          <g id="Group_1299" data-name="Group 1299">
            <g id="Group_1298" data-name="Group 1298" clip-path="url(#clip-path-5)">
              <path id="Path_3608" data-name="Path 3608" d="M103.481,97.526a34.07,34.07,0,0,1-7.087,2.5C94.986,90.47,94.676,74.778,95.82,67.7Z" transform="translate(-95.121 -67.697)" fill="#1f3c88"/>
            </g>
          </g>
        </g>
        <g id="Group_1303" data-name="Group 1303" transform="translate(102.699 65.08)" opacity="0.6">
          <g id="Group_1302" data-name="Group 1302">
            <g id="Group_1301" data-name="Group 1301" clip-path="url(#clip-path-6)">
              <path id="Path_3609" data-name="Path 3609" d="M127.464,67.385c-.013.06-.021.116-.034.171-.728,3.528-.86,5.254-3.344,4.791L121.529,68.9l-.025-.035.332-2.064.068-.236.383-1.319.046-.171Z" transform="translate(-121.504 -65.08)" fill="#e28b6d"/>
            </g>
          </g>
        </g>
        <path id="Path_3610" data-name="Path 3610" d="M122.954,70.59s-6.274,15.728-10,16.106c-3.608.366-5.317-3.775-5.317-3.775l2.553,22.985a14.069,14.069,0,0,1-10.069,1.676c-3.373-12.959-4.649-29.716-4.9-48.378,2.731.2,8.14.478,10.077,1.95,3.474,2.643,7.763,12.079,7.763,12.079l5-8.052Z" transform="translate(-14.738)" fill="#708cd5"/>
        <path id="Path_3611" data-name="Path 3611" d="M37.535,48.43s.379-7.524,1.026-7.169,1.945,6.9,1.945,6.9l-1.388,2.65Z" transform="translate(-5.809)" fill="#6f3428"/>
        <path id="Path_3612" data-name="Path 3612" d="M57.578,184.29l.188,2.476c.332,4.371-2.394,8.234-6.088,8.626l-.538.057c-3.695.393-6.959-2.832-7.291-7.2l-.188-2.477Z" transform="translate(-6.757)" fill="#ee6f57"/>
        <path id="Path_3748" data-name="Path 3748" d="M1.119.157,15.113-.071l-1.66,120.236-13.994.228Z" transform="translate(26.669 65.812) rotate(-5.134)" fill="#fbc343"/>
        <path id="Path_3749" data-name="Path 3749" d="M.981.053l4.97-.081L4.5,105.362l-4.97.081Z" transform="translate(31.123 63.021) rotate(-5.13)" fill="#04b5ff"/>
        <path id="Path_3613" data-name="Path 3613" d="M57.318,184.291,43.4,185.771l-.366-4.832-.255-3.357L42,167.265l13.918-1.48L56.7,176.1l.255,3.357Z" transform="translate(-6.5)" fill="#102048"/>
        <path id="Path_3750" data-name="Path 3750" d="M.031.162,14.022-.066,13.975,3.3-.016,3.528Z" transform="translate(36.239 177.425) rotate(-5.137)" fill="#fbc343"/>
        <path id="Path_3614" data-name="Path 3614" d="M32.885,65.868l3.866-18.331a2.882,2.882,0,0,0,2.953-.482l7.1,17.333Z" transform="translate(-5.09)" fill="#ee6f57"/>
        <path id="Path_3615" data-name="Path 3615" d="M84.492,48.084c-.063-.27-1.1-.642-1.33-.717a1.369,1.369,0,0,0-1.085.012c-1.256.671-1.088,2.8-.437,3.918a2.92,2.92,0,0,0,1.536,1.334c.228.077,2.389.107,2.294-.3,0,0-.975-4.235-.978-4.244" transform="translate(-12.558)" fill="#f9b384"/>
        <path id="Path_3616" data-name="Path 3616" d="M37.293,90.847a1.853,1.853,0,0,0-2.417-1.477A4.548,4.548,0,0,0,31.7,92.98c-.194,1.7.524,7.13,3.733,7.829l-.262-2.79s1.965-.543,2.358-1.551a13.752,13.752,0,0,0-.237-5.621" transform="translate(-4.902)" fill="#f9b384"/>
        <path id="Path_3617" data-name="Path 3617" d="M108.723,72.173c.169,1.188.313,2.38.451,3.573s.256,2.387.385,3.581l.33,3.589c.1,1.2.19,2.4.253,3.6l-.166.023c-.174-1.187-.316-2.379-.456-3.571l-.38-3.583c-.106-1.2-.23-2.391-.323-3.59s-.191-2.4-.259-3.6Z" transform="translate(-16.801)" fill="#1f3c88"/>
        <path id="Path_3618" data-name="Path 3618" d="M74.761,71.979c0,1.334-.03,2.667-.063,4s-.086,2.664-.128,4l-.184,3.993c-.075,1.33-.153,2.661-.262,3.989l-.166-.009c0-1.335.025-2.668.057-4l.134-4c.065-1.331.113-2.663.191-3.993s.151-2.661.255-3.989Z" transform="translate(-11.446)" fill="#1f3c88"/>
        <path id="Path_3619" data-name="Path 3619" d="M91.015,47.959c.09.475-.075.923-.369,1s-.6-.243-.694-.718.075-.923.369-1,.605.243.695.718" transform="translate(-13.918)" fill="#102048"/>
        <path id="Path_3620" data-name="Path 3620" d="M96.03,47.372c-.018.487-.276.869-.576.854s-.53-.422-.512-.908.275-.867.576-.853.531.422.513.907" transform="translate(-14.694)" fill="#102048"/>
        <path id="Path_3621" data-name="Path 3621" d="M93.4,47.771c.145.416.123.864.217,1.205a.991.991,0,0,0,.205.419,1.29,1.29,0,0,0,.4.232,1.153,1.153,0,0,1,.5.449.9.9,0,0,1,.052.824,1.469,1.469,0,0,1-.416.5c-.146.116-.287.24-.438.349l-.109-.148c.112-.163.234-.311.352-.466a1.477,1.477,0,0,0,.275-.424c.09-.233-.1-.487-.382-.619a1.437,1.437,0,0,1-.519-.348,1.331,1.331,0,0,1-.273-.666c-.07-.466.01-.865-.028-1.253Z" transform="translate(-14.431)" fill="#e28b6d"/>
        <path id="Path_3622" data-name="Path 3622" d="M88.813,46.685a1.5,1.5,0,0,1,.434-.785,1.209,1.209,0,0,1,.771-.341,1.4,1.4,0,0,1,1.341.892l-.13.122a1.665,1.665,0,0,0-1.191-.514,1.353,1.353,0,0,0-1.075.709Z" transform="translate(-13.745)" fill="#102048"/>
        <path id="Path_3623" data-name="Path 3623" d="M94.007,46.068a1.58,1.58,0,0,1,.334-.635,1.068,1.068,0,0,1,.6-.354,1.025,1.025,0,0,1,1.128.666l-.133.118a1.2,1.2,0,0,0-.933-.288,1.082,1.082,0,0,0-.444.192,3.155,3.155,0,0,0-.413.4Z" transform="translate(-14.549)" fill="#102048"/>
        <path id="Path_3624" data-name="Path 3624" d="M91.223,52.645c.743,1.375,1.733,1.525,2.5.077Z" transform="translate(-14.118)" fill="#fff"/>
        <g id="Group_1306" data-name="Group 1306" transform="translate(81.132 48.362)" opacity="0.4">
          <g id="Group_1305" data-name="Group 1305">
            <g id="Group_1304" data-name="Group 1304" clip-path="url(#clip-path-7)">
              <path id="Path_3625" data-name="Path 3625" d="M97.089,48.362a27.406,27.406,0,0,1-.211,3.28,1.513,1.513,0,0,1-.889-1.445c0-.76.492-1.719,1.1-1.835" transform="translate(-95.988 -48.362)" fill="#fc8879"/>
            </g>
          </g>
        </g>
        <g id="Group_1309" data-name="Group 1309" transform="translate(73.92 49.474)" opacity="0.4">
          <g id="Group_1308" data-name="Group 1308">
            <g id="Group_1307" data-name="Group 1307" clip-path="url(#clip-path-8)">
              <path id="Path_3626" data-name="Path 3626" d="M90.2,51.1a1.391,1.391,0,1,1-1.372-1.623A1.514,1.514,0,0,1,90.2,51.1" transform="translate(-87.455 -49.474)" fill="#fc8879"/>
            </g>
          </g>
        </g>
        <path id="Path_3627" data-name="Path 3627" d="M83.749,49.7a6.8,6.8,0,0,0-.767-.6.578.578,0,0,0-.338-.1.7.7,0,0,0-.353.192l-.14-.107a.747.747,0,0,1,.4-.514.682.682,0,0,1,.616.084,1.8,1.8,0,0,1,.712.927Z" transform="translate(-12.714)" fill="#e28b6d"/>
        <g id="Group_1312" data-name="Group 1312" transform="translate(30.246 96.468)" opacity="0.6">
          <g id="Group_1311" data-name="Group 1311">
            <g id="Group_1310" data-name="Group 1310" clip-path="url(#clip-path-9)">
              <path id="Path_3628" data-name="Path 3628" d="M38.167,96.468l-1.975,7.1-.407-5.546a4,4,0,0,0,2.382-1.551" transform="translate(-35.784 -96.468)" fill="#6f3428"/>
            </g>
          </g>
        </g>
        <line id="Line_1" data-name="Line 1" x2="275" transform="translate(0 195.534)" fill="none" stroke="#102048" stroke-miterlimit="10" stroke-width="8"/>
      </g>
    </g>
  </g>
</svg>
