<svg xmlns="http://www.w3.org/2000/svg" xmlns:xlink="http://www.w3.org/1999/xlink" width="693.323" height="503.06" viewBox="0 0 693.323 503.06">
  <defs>
    <clipPath id="clip-path">
      <rect id="Rectangle_594" data-name="Rectangle 594" width="693.323" height="503.06" fill="none"/>
    </clipPath>
    <clipPath id="clip-path-3">
      <rect id="Rectangle_583" data-name="Rectangle 583" width="59.942" height="23.265" fill="none"/>
    </clipPath>
    <clipPath id="clip-path-4">
      <rect id="Rectangle_584" data-name="Rectangle 584" width="21.225" height="94.932" fill="none"/>
    </clipPath>
    <clipPath id="clip-path-5">
      <rect id="Rectangle_585" data-name="Rectangle 585" width="21.077" height="81.498" fill="none"/>
    </clipPath>
    <clipPath id="clip-path-6">
      <rect id="Rectangle_586" data-name="Rectangle 586" width="15.026" height="18.508" fill="none"/>
    </clipPath>
    <clipPath id="clip-path-7">
      <rect id="Rectangle_590" data-name="Rectangle 590" width="2.774" height="8.269" fill="none"/>
    </clipPath>
    <clipPath id="clip-path-8">
      <rect id="Rectangle_591" data-name="Rectangle 591" width="6.917" height="8.184" fill="none"/>
    </clipPath>
    <clipPath id="clip-path-9">
      <rect id="Rectangle_592" data-name="Rectangle 592" width="6.006" height="17.895" fill="none"/>
    </clipPath>
  </defs>
  <g id="servicesImage3Big" transform="translate(0 -34)">
    <g id="Group_1315" data-name="Group 1315" transform="translate(0 34)" clip-path="url(#clip-path)">
      <g id="Group_1314" data-name="Group 1314">
        <g id="Group_1313" data-name="Group 1313" clip-path="url(#clip-path)">
          <path id="Path_3578" data-name="Path 3578" d="M643.008,248.659c33.589,71.11-15.017,210.629-323.255,113.667-154.547-48.616-269.991,60.9-293.779-15.543C-29.438,168.72,196.857-37.257,322.694,106.548,437.716,237.992,581.875,119.235,643.008,248.659Z" transform="translate(19.672 88.553)" fill="none" stroke="#e4e4e4" stroke-miterlimit="10" stroke-width="4" stroke-dasharray="32.088 32.088"/>
          <path id="Path_3579" data-name="Path 3579" d="M643.705,379.813H15.211C34.88,207.883,168.06,74.894,329.458,74.894s294.578,132.99,314.247,304.919" transform="translate(17.203 113.927)" fill="#f6f5f5"/>
          <path id="Path_3580" data-name="Path 3580" d="M304.823,465.743H274.257c-67.844,0-122.843-65.069-122.843-145.336V162.746c0-80.272,55-145.336,122.843-145.336h30.567c67.844,0,122.842,65.064,122.842,145.336V320.407c0,80.267-55,145.336-122.842,145.336" transform="translate(171.246 26.484)" fill="#04b5ff"/>
          <rect id="Rectangle_567" data-name="Rectangle 567" width="227.376" height="390.77" transform="translate(347.627 61.96)" fill="#f6f5f5"/>
          <path id="Path_3581" data-name="Path 3581" d="M390.508,24.576c.07,152.38,4.228,336.156-10.237,376.845-63.725,7.347-138.339,9.7-217.143,10.143l29.955-385.81Z" transform="translate(184.495 37.384)" fill="#e4e4e4"/>
          <path id="Path_3582" data-name="Path 3582" d="M376.766,389.1c-99.323,18.805-165.7,19.8-219.544,15.069C164.2,316.3,167,170.323,169.81,24.584l119.684.315,108.322,8.459c1.577,151.263,1.75,290.987-21.05,355.74" transform="translate(177.815 37.397)" fill="#fff"/>
          <path id="Path_3751" data-name="Path 3751" d="M.515.078,22.075,0,21.56,119.659,0,119.738Z" transform="matrix(0.024, -1, 1, 0.024, 399.353, 120.066)" fill="#04b5ff"/>
          <path id="Path_3752" data-name="Path 3752" d="M.465.036,10.333,0,9.868,107.932,0,107.968Z" transform="translate(434.411 161.402) rotate(-88.651)" fill="#04b5ff"/>
          <path id="Path_3753" data-name="Path 3753" d="M.316.036,10.184,0,9.869,73.363,0,73.4Z" transform="matrix(0.024, -1, 1, 0.024, 433.987, 182.767)" fill="#d3dfff"/>
          <path id="Path_3754" data-name="Path 3754" d="M.11.11,30.335,0l-.11,25.552L0,25.662Z" transform="translate(374.402 180.322) rotate(-88.652)" fill="#04b5ff"/>
          <path id="Path_3583" data-name="Path 3583" d="M178.01,73.438c.788,3.573,2.244,18.533,8.577,14.351,1.462-.966,2.7-3.517,3.789-4.984q2.947-3.956,5.892-7.911,5.891-7.915,11.782-15.828c1.008-1.351-3.437-4.742-4.7-3.046q-5.236,7.034-10.474,14.068l-5.236,7.034c-1.213,1.626-4.013,6.875-5.811,7.342l2.932,1.119c.69.671-.592-4.082-.62-4.21q-.732-3.313-1.462-6.621c-.4-1.823-5.266-4.014-4.669-1.314" transform="translate(201.269 84.508)" fill="#ee6f57"/>
          <path id="Path_3755" data-name="Path 3755" d="M.383.036,10.25,0,9.867,88.881,0,88.917Z" transform="translate(433.32 216.259) rotate(-88.652)" fill="#04b5ff"/>
          <path id="Path_3756" data-name="Path 3756" d="M.465.036,10.333,0,9.868,107.932,0,107.968Z" transform="translate(432.89 237.853) rotate(-88.651)" fill="#d3dfff"/>
          <path id="Path_3757" data-name="Path 3757" d="M.11.11,30.335,0l-.11,25.552L0,25.662Z" transform="translate(373.309 235.26) rotate(-88.652)" fill="#04b5ff"/>
          <path id="Path_3584" data-name="Path 3584" d="M177.489,95.567c.788,3.573,2.246,18.533,8.577,14.351,1.462-.966,2.7-3.517,3.789-4.984q2.947-3.956,5.892-7.911,5.891-7.915,11.782-15.828c1.008-1.351-3.437-4.742-4.7-3.046q-5.236,7.034-10.474,14.068l-5.236,7.034c-1.213,1.629-4.013,6.875-5.811,7.342l2.932,1.119c.69.671-.592-4.082-.62-4.21q-.732-3.313-1.462-6.621c-.4-1.823-5.266-4.014-4.669-1.314" transform="translate(200.679 118.17)" fill="#ee6f57"/>
          <path id="Path_3758" data-name="Path 3758" d="M.465.036,10.333,0,9.868,107.932,0,107.968Z" transform="translate(432.225 271.279) rotate(-88.651)" fill="#04b5ff"/>
          <path id="Path_3759" data-name="Path 3759" d="M.208.036,10.076,0,9.869,48.269,0,48.3Z" transform="translate(431.803 292.536) rotate(-88.651)" fill="#d3dfff"/>
          <path id="Path_3760" data-name="Path 3760" d="M.11.11,30.335,0l-.11,25.552L0,25.662Z" transform="translate(372.216 290.199) rotate(-88.652)" fill="#04b5ff"/>
          <path id="Path_3585" data-name="Path 3585" d="M177.139,117.513c.788,3.573,2.246,18.533,8.577,14.351,1.462-.966,2.7-3.517,3.789-4.984q2.947-3.956,5.892-7.911,5.891-7.915,11.782-15.828c1.008-1.351-3.437-4.742-4.7-3.046L192,114.163l-5.236,7.034c-1.213,1.626-4.013,6.875-5.811,7.342l2.932,1.119c.69.671-.592-4.082-.62-4.21q-.732-3.313-1.462-6.621c-.4-1.823-5.266-4.014-4.669-1.314" transform="translate(200.283 151.554)" fill="#ee6f57"/>
          <path id="Path_3761" data-name="Path 3761" d="M.465.036,10.333,0,9.868,107.932,0,107.968Z" transform="translate(431.132 326.218) rotate(-88.651)" fill="#04b5ff"/>
          <path id="Path_3762" data-name="Path 3762" d="M.367.036,10.234,0,9.867,85.263,0,85.3Z" transform="translate(430.706 347.633) rotate(-88.652)" fill="#d3dfff"/>
          <path id="Path_3763" data-name="Path 3763" d="M.11.11,30.335,0l-.11,25.552L0,25.662Z" transform="translate(371.123 345.137) rotate(-88.652)" fill="#04b5ff"/>
          <path id="Path_3586" data-name="Path 3586" d="M176.63,139.161c.788,3.572,2.244,18.533,8.577,14.351,1.462-.966,2.7-3.517,3.789-4.984q2.947-3.956,5.892-7.911,5.891-7.915,11.782-15.828c1.008-1.351-3.437-4.742-4.7-3.046q-5.236,7.034-10.474,14.068l-5.236,7.034c-1.213,1.626-4.013,6.875-5.811,7.342l2.932,1.119c.69.671-.592-4.082-.62-4.21q-.732-3.313-1.462-6.621c-.4-1.823-5.266-4.014-4.669-1.314" transform="translate(199.708 184.484)" fill="#ee6f57"/>
          <path id="Path_3764" data-name="Path 3764" d="M.184.036,10.051,0,9.867,42.785,0,42.821Z" transform="translate(430.054 380.461) rotate(-88.653)" fill="#04b5ff"/>
          <path id="Path_3587" data-name="Path 3587" d="M309.716,158.457l-107.892-3.005-.2,9.868c41.742,1.16,94.89,3.472,105.735,1.5a12.4,12.4,0,0,0,2.353-8.365" transform="translate(228.038 236.47)" fill="#d3dfff"/>
          <path id="Path_3765" data-name="Path 3765" d="M.11.11,30.335,0l-.11,25.552L0,25.662Z" transform="translate(370.396 399.67) rotate(-88.652)" fill="#04b5ff"/>
          <path id="Path_3588" data-name="Path 3588" d="M176.125,160.619c.788,3.573,2.244,18.533,8.577,14.351,1.462-.966,2.7-3.517,3.789-4.984q2.947-3.956,5.892-7.911,5.891-7.915,11.782-15.828c1.008-1.351-3.437-4.742-4.7-3.046l-10.474,14.068-5.236,7.034c-1.213,1.626-4.013,6.875-5.811,7.342l2.932,1.119c.69.671-.592-4.082-.62-4.21q-.732-3.313-1.462-6.621c-.4-1.823-5.266-4.014-4.669-1.314" transform="translate(199.137 217.126)" fill="#ee6f57"/>
          <path id="Path_3589" data-name="Path 3589" d="M294.621,46.6V76.766H192.2V46.6a19.139,19.139,0,0,1,4.311-12.321,14.462,14.462,0,0,1,10.414-5.1,15.173,15.173,0,0,0,7.529-2.03,17.748,17.748,0,0,0,2.83-2.017,20.822,20.822,0,0,0,6.286-10.546,20.8,20.8,0,0,1,6.476-10.707A15.656,15.656,0,0,1,240.215,0h6.391a15.651,15.651,0,0,1,10.167,3.883,20.8,20.8,0,0,1,6.478,10.707,20.805,20.805,0,0,0,6.284,10.546,17.866,17.866,0,0,0,2.832,2.017,15.173,15.173,0,0,0,7.529,2.03,13.337,13.337,0,0,1,9.374,4A18.728,18.728,0,0,1,294.621,46.6" transform="translate(217.375 0.002)" fill="#04b5ff"/>
          <path id="Path_3590" data-name="Path 3590" d="M307.344,24.576V47H188.3V24.576h8.311V39.382H299.033V24.576Z" transform="translate(212.963 37.384)" fill="#e4e4e4"/>
          <path id="Path_3591" data-name="Path 3591" d="M230.138,13.335c0,5.642-4.068,10.216-9.084,10.216s-9.084-4.573-9.084-10.216,4.066-10.216,9.084-10.216,9.084,4.573,9.084,10.216" transform="translate(239.733 4.745)" fill="#fff"/>
          <path id="Path_3592" data-name="Path 3592" d="M128.643,86.042c-3.633-.814-7.028-7.995-8.209-10.748a3.973,3.973,0,0,1-.26-2.186l1.445-9.066s3.337.673,3.079,5.927a4.466,4.466,0,0,0,.232,1.6l1.276,3.953,3.776-3.459-2.071-6.916s-2.77.9-4.2.358c-2.936-1.107.914-3.817,2.131-4.1s3.9-1.442,5.117,1.008S132.9,66.3,132.9,66.3s1.34-5.476.426-17.724c-.04-.552,1.127-.54,1.455-.146.98,1.182,2.542,4.778,2.625,15.707,0,0,.164-12.737,2.01-14.048,1.524-1.082,2.291,5.153,1.219,15.727,0,0,1.988-9.154,3.41-9.172,2.4-.025.032,24.453-6,31.747Z" transform="translate(135.857 73.241)" fill="#f9b384"/>
          <path id="Path_3593" data-name="Path 3593" d="M138.721,61.692q-.16,1.827-.354,3.54v.015c-.428,4.059-.965,7.69-1.588,10.8-.032.154-.053.295-.085.431-1.835,8.895-2.167,13.246-8.43,12.079l-6.446-8.678-.064-.088-.471-.635,1.308-4.568.17-.592.965-3.325.119-.434,1.652-5.723.665-2.319Z" transform="translate(137.169 93.844)" fill="#f9b384"/>
          <path id="Path_3594" data-name="Path 3594" d="M83.821,187.042l-1.641,6.066c-11.249,4.374-17.811,9.384-18.233,15.228H96.479l2.608-20.313a21.6,21.6,0,0,1-15.266-.981" transform="translate(72.323 284.524)" fill="#1f3c88"/>
          <path id="Path_3595" data-name="Path 3595" d="M77.352,181.06l-4.079,15.082a21.6,21.6,0,0,0,15.266.981l1.681-13.1Z" transform="translate(82.87 275.424)" fill="#f9b384"/>
          <path id="Path_3596" data-name="Path 3596" d="M109.335,196.043l.955-15.361-15.283.953-.835,14.159a21.344,21.344,0,0,0,15.164.25" transform="translate(106.506 274.849)" fill="#f9b384"/>
          <path id="Path_3597" data-name="Path 3597" d="M128.413,208.891c-.42-5.844-6.167-13.851-18.768-15.755l.386-6.21a21.344,21.344,0,0,1-15.164-.25l-1.311,22.214Z" transform="translate(105.811 283.968)" fill="#1f3c88"/>
          <path id="Path_3598" data-name="Path 3598" d="M105.259,84.556l-18.435.151V51.717H104.7l.011,2.017L104.8,64.19l.128,16.788Z" transform="translate(98.196 78.671)" fill="#f9b384"/>
          <path id="Path_3599" data-name="Path 3599" d="M103.54,63.6c-3.314,4.125-11.959-.532-15.605-5.075l15.52-5.38Z" transform="translate(99.453 80.846)" fill="#e28b6d"/>
          <path id="Path_3600" data-name="Path 3600" d="M112.75,61.958a55.652,55.652,0,0,1-.482,7.422c-.9,6.648-3.284,12.4-8.773,12.576-12.978.444-16.677-8.338-19.123-15.518-2.444-7.2,1.524-24.491,1.524-24.491l16.794-1.967,9.223,8.945a95.958,95.958,0,0,1,.837,13.032" transform="translate(94.523 60.818)" fill="#f9b384"/>
          <path id="Path_3601" data-name="Path 3601" d="M89.225,70.219s3.7-.2,4.334-11.507c6.621,2.62,11.458.229,15.292-4.987,3.271,5.11,12.426,6.711,15.518-3.752,2.233-7.561-3.932-18.821-12.914-12-8.8-5.262-22.156-4.9-26,8,0,0-13.357,7.286.786,23.328a14.293,14.293,0,0,0,2.981.913" transform="translate(90.193 52.923)" fill="#102048"/>
          <path id="Path_3602" data-name="Path 3602" d="M126.273,111.771l-10.19,182.3H92.131l5.988-176.9,3.665-2.009Z" transform="translate(104.198 170.024)" fill="#102048"/>
          <path id="Path_3603" data-name="Path 3603" d="M87.8,110.043l-16.8,207.246h26.1l24.845-172.141L150.178,135l1.251-36.8L88.512,96.51Z" transform="translate(80.292 146.808)" fill="#1f3c88"/>
          <g id="Group_1294" data-name="Group 1294" transform="translate(166.534 236.332)" opacity="0.6">
            <g id="Group_1293" data-name="Group 1293">
              <g id="Group_1292" data-name="Group 1292" clip-path="url(#clip-path-3)">
                <path id="Path_3604" data-name="Path 3604" d="M83.449,114.712c14.254,6.053,47.7-.865,54.643-9.3l-4.935-11.676-55.007,8.65Z" transform="translate(-78.149 -93.741)" fill="#102048"/>
              </g>
            </g>
          </g>
          <path id="Path_3605" data-name="Path 3605" d="M132.252,153.7c-.46.229-.933.469-1.415.686a86.088,86.088,0,0,1-17.868,6.293,70.145,70.145,0,0,1-11.98,1.74,58.856,58.856,0,0,1-18.81-1.8l7.989-88.135.976-10.748s10.457,15.228,21.987-1.586Z" transform="translate(92.942 91.494)" fill="#fff"/>
          <g id="Group_1297" data-name="Group 1297" transform="translate(175.119 159.096)" opacity="0.3">
            <g id="Group_1296" data-name="Group 1296">
              <g id="Group_1295" data-name="Group 1295" clip-path="url(#clip-path-4)">
                <path id="Path_3606" data-name="Path 3606" d="M100.989,157.92a58.8,58.8,0,0,1-18.812-1.8l7.991-88.133L93.022,63.1c7.045,20.278,14.263,65.175,7.968,94.816" transform="translate(-82.179 -63.104)" fill="#1f3c88"/>
              </g>
            </g>
          </g>
          <path id="Path_3607" data-name="Path 3607" d="M133.9,59.393c7.944,39.905,11.213,80.97-.492,126.568-8.679,3.908-18.128,3.862-28.242.424l2.5-82.9-58.9,47.9L45.2,125.269c22.64-25.613,61.784-64.305,88.7-65.876" transform="translate(51.121 90.347)" fill="#708cd5"/>
          <g id="Group_1300" data-name="Group 1300" transform="translate(202.701 170.676)" opacity="0.3">
            <g id="Group_1299" data-name="Group 1299">
              <g id="Group_1298" data-name="Group 1298" clip-path="url(#clip-path-5)">
                <path id="Path_3608" data-name="Path 3608" d="M116.2,142.9a85.9,85.9,0,0,1-17.868,6.293C94.78,125.112,94,85.549,96.883,67.7Z" transform="translate(-95.121 -67.697)" fill="#1f3c88"/>
              </g>
            </g>
          </g>
          <g id="Group_1303" data-name="Group 1303" transform="translate(258.923 164.078)" opacity="0.6">
            <g id="Group_1302" data-name="Group 1302">
              <g id="Group_1301" data-name="Group 1301" clip-path="url(#clip-path-6)">
                <path id="Path_3609" data-name="Path 3609" d="M136.53,70.891c-.032.151-.053.292-.085.431-1.835,8.895-2.167,13.246-8.43,12.079l-6.446-8.678-.064-.088.838-5.2.17-.6.965-3.325.117-.431Z" transform="translate(-121.504 -65.08)" fill="#e28b6d"/>
              </g>
            </g>
          </g>
          <path id="Path_3610" data-name="Path 3610" d="M165.137,87.91s-15.818,39.653-25.2,40.606c-9.1.923-13.406-9.517-13.406-9.517l6.436,57.949c-7.563,4.188-15.81,6.23-25.386,4.226C99.073,148.5,95.857,106.254,95.224,59.2c6.885.509,20.523,1.205,25.406,4.916,8.758,6.663,19.573,30.453,19.573,30.453l12.6-20.3Z" transform="translate(107.697 90.06)" fill="#708cd5"/>
          <path id="Path_3611" data-name="Path 3611" d="M37.535,59.354s.955-18.969,2.587-18.074,4.9,17.389,4.9,17.389l-3.5,6.681Z" transform="translate(42.451 62.747)" fill="#6f3428"/>
          <path id="Path_3612" data-name="Path 3612" d="M78.749,184.29l.473,6.242c.837,11.02-6.035,20.759-15.349,21.748l-1.357.144c-9.315.991-17.544-7.14-18.382-18.16l-.473-6.245Z" transform="translate(49.379 280.337)" fill="#ee6f57"/>
          <path id="Path_3748" data-name="Path 3748" d="M4.186.575,39.468,0,35.282,303.135,0,303.71Z" transform="translate(65.863 165.865) rotate(-5.134)" fill="#fbc343"/>
          <path id="Path_3749" data-name="Path 3749" d="M3.667.2,16.2,0,12.531,265.707,0,265.911Z" transform="translate(77.271 158.923) rotate(-5.13)" fill="#04b5ff"/>
          <path id="Path_3613" data-name="Path 3613" d="M80.627,212.442l-35.08,3.731-.923-12.182-.644-8.464L42,169.517l35.091-3.731L79.06,191.8l.644,8.464Z" transform="translate(47.497 252.189)" fill="#102048"/>
          <path id="Path_3750" data-name="Path 3750" d="M.117.575,35.391,0l-.117,8.487L0,9.062Z" transform="translate(91.309 447.156) rotate(-5.137)" fill="#fbc343"/>
          <path id="Path_3614" data-name="Path 3614" d="M32.885,94.486,42.632,48.27S46,50.035,50.078,47.055l17.9,43.7Z" transform="translate(37.192 71.579)" fill="#ee6f57"/>
          <path id="Path_3615" data-name="Path 3615" d="M89.591,49.337c-.158-.681-2.775-1.619-3.352-1.808a3.451,3.451,0,0,0-2.736.03c-3.167,1.692-2.743,7.059-1.1,9.878A7.362,7.362,0,0,0,86.273,60.8c.575.194,6.022.27,5.783-.764,0-.005-2.459-10.677-2.466-10.7" transform="translate(91.768 71.891)" fill="#f9b384"/>
          <path id="Path_3616" data-name="Path 3616" d="M45.845,93.28c-.823-3.056-3.531-4.773-6.095-3.724-3.991,1.631-7.467,4.4-8.006,9.1-.49,4.286,1.321,17.976,9.413,19.738l-.661-7.034s4.955-1.369,5.945-3.91c.695-1.777.742-9.2-.6-14.172" transform="translate(35.818 135.761)" fill="#f9b384"/>
          <path id="Path_3617" data-name="Path 3617" d="M108.974,72.173c.426,3,.788,6,1.136,9.008s.646,6.018.972,9.028l.831,9.048c.243,3.023.479,6.043.637,9.076l-.418.058c-.439-2.993-.8-6-1.151-9l-.957-9.033c-.269-3.018-.58-6.028-.814-9.051s-.482-6.043-.652-9.074Z" transform="translate(122.777 109.788)" fill="#1f3c88"/>
          <path id="Path_3618" data-name="Path 3618" d="M75.984,71.993c-.006,3.363-.075,6.724-.16,10.085s-.217,6.716-.324,10.077l-.465,10.067c-.19,3.353-.386,6.709-.661,10.057l-.418-.023c-.009-3.366.064-6.726.143-10.087l.339-10.075c.164-3.356.286-6.714.482-10.067s.381-6.709.644-10.057Z" transform="translate(83.644 109.479)" fill="#1f3c88"/>
          <path id="Path_3619" data-name="Path 3619" d="M92.67,49.069c.226,1.2-.19,2.327-.931,2.521s-1.524-.613-1.75-1.81.19-2.327.929-2.521,1.526.613,1.752,1.81" transform="translate(101.705 71.844)" fill="#102048"/>
          <path id="Path_3620" data-name="Path 3620" d="M97.688,48.752c-.045,1.228-.695,2.191-1.453,2.153s-1.336-1.064-1.291-2.289.693-2.186,1.451-2.151,1.338,1.064,1.294,2.287" transform="translate(107.376 70.681)" fill="#102048"/>
          <path id="Path_3621" data-name="Path 3621" d="M93.651,47.771c.367,1.049.309,2.178.548,3.038a2.5,2.5,0,0,0,.518,1.056,3.251,3.251,0,0,0,1.008.585,2.906,2.906,0,0,1,1.27,1.132,2.28,2.28,0,0,1,.13,2.077,3.7,3.7,0,0,1-1.048,1.253c-.369.292-.722.605-1.1.88L94.7,57.42c.281-.411.59-.784.886-1.175a3.725,3.725,0,0,0,.693-1.069c.226-.587-.26-1.228-.963-1.561A3.622,3.622,0,0,1,94,52.738a3.355,3.355,0,0,1-.688-1.679c-.177-1.175.026-2.181-.07-3.159Z" transform="translate(105.453 72.668)" fill="#e28b6d"/>
          <path id="Path_3622" data-name="Path 3622" d="M88.813,48.4a3.783,3.783,0,0,1,1.093-1.979,3.048,3.048,0,0,1,1.943-.86,3.534,3.534,0,0,1,3.382,2.249l-.328.308a4.2,4.2,0,0,0-3-1.3,3.412,3.412,0,0,0-2.711,1.788Z" transform="translate(100.446 69.299)" fill="#102048"/>
          <path id="Path_3623" data-name="Path 3623" d="M94.007,47.6a3.983,3.983,0,0,1,.842-1.6A2.692,2.692,0,0,1,96.37,45.1a2.584,2.584,0,0,1,2.845,1.679l-.335.3a3.018,3.018,0,0,0-2.353-.726,2.728,2.728,0,0,0-1.119.484,7.954,7.954,0,0,0-1.042,1.014Z" transform="translate(106.32 68.548)" fill="#102048"/>
          <path id="Path_3624" data-name="Path 3624" d="M91.223,52.645c1.873,3.467,4.368,3.845,6.295.194Z" transform="translate(103.171 80.082)" fill="#fff"/>
          <g id="Group_1306" data-name="Group 1306" transform="translate(204.548 121.929)" opacity="0.4">
            <g id="Group_1305" data-name="Group 1305">
              <g id="Group_1304" data-name="Group 1304" clip-path="url(#clip-path-7)">
                <path id="Path_3625" data-name="Path 3625" d="M98.763,48.362a69.093,69.093,0,0,1-.533,8.269,3.814,3.814,0,0,1-2.242-3.643c0-1.916,1.24-4.334,2.775-4.626" transform="translate(-95.988 -48.362)" fill="#fc8879"/>
              </g>
            </g>
          </g>
          <g id="Group_1309" data-name="Group 1309" transform="translate(186.364 124.733)" opacity="0.4">
            <g id="Group_1308" data-name="Group 1308">
              <g id="Group_1307" data-name="Group 1307" clip-path="url(#clip-path-8)">
                <path id="Path_3626" data-name="Path 3626" d="M94.372,53.566c0,2.259-1.549,4.092-3.459,4.092s-3.459-1.833-3.459-4.092S89,49.474,90.914,49.474s3.459,1.833,3.459,4.092" transform="translate(-87.454 -49.474)" fill="#fc8879"/>
              </g>
            </g>
          </g>
          <path id="Path_3627" data-name="Path 3627" d="M86.182,51.484a17.155,17.155,0,0,0-1.935-1.505,1.456,1.456,0,0,0-.852-.262,1.77,1.77,0,0,0-.891.484l-.354-.27a1.884,1.884,0,0,1,1.019-1.3,1.72,1.72,0,0,1,1.553.212,4.551,4.551,0,0,1,1.794,2.337Z" transform="translate(92.91 73.821)" fill="#e28b6d"/>
          <g id="Group_1312" data-name="Group 1312" transform="translate(76.256 243.213)" opacity="0.6">
            <g id="Group_1311" data-name="Group 1311">
              <g id="Group_1310" data-name="Group 1310" clip-path="url(#clip-path-9)">
                <path id="Path_3628" data-name="Path 3628" d="M41.79,96.468l-4.98,17.893-1.025-13.982a10.081,10.081,0,0,0,6.005-3.91" transform="translate(-35.784 -96.468)" fill="#6f3428"/>
              </g>
            </g>
          </g>
          <line id="Line_1" data-name="Line 1" x2="693.323" transform="translate(0 492.976)" fill="none" stroke="#102048" stroke-miterlimit="10" stroke-width="8"/>
        </g>
      </g>
    </g>
  </g>
</svg>
