<svg xmlns="http://www.w3.org/2000/svg" xmlns:xlink="http://www.w3.org/1999/xlink" width="488.561" height="489.429" viewBox="0 0 488.561 489.429">
  <defs>
    <clipPath id="clip-path">
      <path id="Path_3399" data-name="Path 3399" d="M323.369,485.79a10.439,10.439,0,0,0-5.4,2.833c-1.383,1.488-3.689,5.973-1.528,8.059,2.474,2.388,6.68,2.156,9.353,1.421,4.158-1.142,8.708-5.266,8.589-13.735h-.2a42.2,42.2,0,0,0-10.81,1.423" fill="none"/>
    </clipPath>
    <clipPath id="clip-path-2">
      <rect id="Rectangle_509" data-name="Rectangle 509" width="8.464" height="5.005" transform="translate(318.51 485.022)" fill="none"/>
    </clipPath>
    <clipPath id="clip-path-3">
      <path id="Path_3394" data-name="Path 3394" d="M271.464,484.368c-.185,8.469,6.836,12.593,13.25,13.735,4.124.735,10.611.967,14.428-1.421,3.334-2.086-.224-6.571-2.358-8.059-2.493-1.74-5.5-2.347-8.333-2.833a98.723,98.723,0,0,0-16.677-1.423h-.31" fill="none"/>
    </clipPath>
    <clipPath id="clip-path-4">
      <rect id="Rectangle_508" data-name="Rectangle 508" width="10.591" height="4.991" transform="translate(279.155 488.065)" fill="none"/>
    </clipPath>
  </defs>
  <g id="teacher" transform="translate(-150.107 -411.283)">
    <path id="Path_3348" data-name="Path 3348" d="M522.318,817.3v19.833H597.8c5.054,0,9.152-4.439,9.152-9.916s-4.1-9.917-9.152-9.917Z" fill="#ff9e36"/>
    <path id="Path_3349" data-name="Path 3349" d="M593.021,817.3h-6.026c5.055,0,9.152,4.44,9.152,9.917s-4.1,9.916-9.152,9.916h6.026c5.055,0,9.152-4.439,9.152-9.916s-4.1-9.917-9.152-9.917" fill="#ab3c5a"/>
    <path id="Path_3350" data-name="Path 3350" d="M563.688,817.3H488.21v19.833h75.478c5.055,0,9.152-4.439,9.152-9.916s-4.1-9.917-9.152-9.917" fill="#ffc545"/>
    <path id="Path_3351" data-name="Path 3351" d="M562.005,821.266h-73.8v11.9h73.8a5.969,5.969,0,0,0,0-11.9" fill="#fff"/>
    <path id="Path_3352" data-name="Path 3352" d="M522.318,798.354v19.833H597.8c5.054,0,9.152-4.439,9.152-9.916s-4.1-9.917-9.152-9.917Z" fill="#4a97d4"/>
    <path id="Path_3353" data-name="Path 3353" d="M595.887,798.354h-6.026c5.055,0,9.153,4.44,9.153,9.917s-4.1,9.916-9.153,9.916h6.026c5.055,0,9.152-4.439,9.152-9.916s-4.1-9.917-9.152-9.917" fill="#b8e1ff"/>
    <path id="Path_3354" data-name="Path 3354" d="M572.957,798.354h-6.026c5.055,0,9.153,4.44,9.153,9.917s-4.1,9.916-9.153,9.916h6.026c5.055,0,9.152-4.439,9.152-9.916s-4.1-9.917-9.152-9.917" fill="#b8e1ff"/>
    <path id="Path_3355" data-name="Path 3355" d="M563.688,798.354H505.849v19.833h57.839c5.055,0,9.152-4.439,9.152-9.916s-4.1-9.917-9.152-9.917" fill="#74cded"/>
    <path id="Path_3356" data-name="Path 3356" d="M562.005,802.321H505.848v11.9h56.157a5.969,5.969,0,0,0,0-11.9" fill="#fff"/>
    <rect id="Rectangle_505" data-name="Rectangle 505" width="320.218" height="51.592" transform="translate(308.428 849.12)" fill="#a31a32"/>
    <path id="Path_3357" data-name="Path 3357" d="M628.646,866.2,308.428,882.3V849.119H628.646Z" fill="#660b2b"/>
    <rect id="Rectangle_506" data-name="Rectangle 506" width="330.239" height="20.601" transform="translate(308.429 835.133)" fill="#a31a32"/>
    <path id="Path_3358" data-name="Path 3358" d="M277.292,900.712c6.538-20.74,12.894-40.272,15.667-46.936l3.581,46.936h56.97c-1.158-47.187-2.84-107.593-4.328-130.018l-126.008,4.067s-5.208,92.959-9.895,115.037c-.664,3.13-1.507,6.845-2.463,10.914Z" fill="#2a2981"/>
    <path id="Path_3359" data-name="Path 3359" d="M311.2,900.712l-2.872-33.863,15.363-60.714-30.727,47.641,3.581,46.936Z" fill="#22134d"/>
    <path id="Path_3360" data-name="Path 3360" d="M540.491,627.868c.074-2.641-1.249-5.481-3.708-6.448a4.8,4.8,0,0,0-4.864-7.29,3.142,3.142,0,0,0,.914-4.388,5.116,5.116,0,0,0-4.391-2.043,15.115,15.115,0,0,0-4.893,1.17l-10.836,3.916c2.064-3.926,4.287-8.027,8.024-10.414,2.8-1.788,6.156-2.417,9.315-3.442s6.4-2.674,7.894-5.638a7.639,7.639,0,0,0,.819-3.478c-6.318.734-12.64,1.469-18.9,2.6a16.691,16.691,0,0,0-4.577,1.31,16.039,16.039,0,0,0-4.23,3.443c-7.471,7.817-12.808,16.862-17.481,26.526-4.249,8.788-3.5,20.148-6.113,29.58a6.222,6.222,0,0,1-2.306,2.891c-22.017,10.72-67.154,21.68-76.28,28.56,0,0-28.652-38.635-41.169-76.448l-61.446,1.295c1.327,5.829,3.445,11.842,6.839,16.343,9.328,12.371,72.494,102.945,86.189,103.741,12.735.741,68.648-38.33,93.273-53.763a13.7,13.7,0,0,1,6.888-2.181q.412-.011.828.005a34.442,34.442,0,0,0,3.913.192,10.093,10.093,0,0,0,7.219-4.685,29.9,29.9,0,0,0,3.439-8.173c.848-2.751,5.22-21.523,7.538-21.138,1.072.179,1.836,1.1,2.731,1.716,2.208,1.526,5.326,1.141,7.592-.3a16.852,16.852,0,0,0,5.183-6.058,16.047,16.047,0,0,0,2.6-7.4" fill="#f4a574"/>
    <path id="Path_3361" data-name="Path 3361" d="M451.76,702.333c-2.056.559-4.107,1.138-6.147,1.753-5.025,1.515-10.8,3.113-15.225.292-6.363-4.056-5.031-12.553-2.6-18.419,1.756-4.235,2.9-6.827,2.433-10.137-9.969,3.365-18.032,6.4-21.343,8.9,0,0-28.652-38.636-41.169-76.449l-61.445,1.295c1.326,5.829,3.444,11.842,6.838,16.343,9.328,12.372,72.494,102.945,86.189,103.742,7.528.437,30.145-13.037,52.468-27.317" fill="#e76553"/>
    <path id="Path_3362" data-name="Path 3362" d="M540.388,583.233l-5.363-8.482a1.292,1.292,0,0,0-2.33.318l-14.2,47.236a1.293,1.293,0,0,0,.865,1.61l7.258,2.182a1.292,1.292,0,0,0,1.609-.866l12.307-40.936a1.29,1.29,0,0,0-.145-1.062" fill="#fff"/>
    <path id="Path_3363" data-name="Path 3363" d="M511.626,615.178a30.06,30.06,0,0,1,5.082-1.467,63.907,63.907,0,0,0,14.264-5.3,5.713,5.713,0,0,1-.933,5.607,16.837,16.837,0,0,1-4.553,3.8c-3.65,2.377-10.174,4.666-10.152,9.734a26.74,26.74,0,0,0,.873,5.175,28.164,28.164,0,0,1-1.858,16.96c-2,4.484-5.724,8.72-10.609,9.206a4.992,4.992,0,0,1-3.183-.584c-6.823-4.346-5.735-16.459-4.5-23.1a26.587,26.587,0,0,1,15.565-20.034" fill="#ef875b"/>
    <path id="Path_3364" data-name="Path 3364" d="M419.75,689.283c.711-3.834,2.937-8.525-.334-11.44-2.04-1.818-10.2-1.849-10.656,1.627.4-3.038.123-7.125-2.856-7.841a8.263,8.263,0,0,1-1.94-.417,3.593,3.593,0,0,1-1.365-1.729c-5.035-10.2-12.427-21.113-15.679-32-2.913-9.75-3.791-20.179-7.18-29.906-3.684-10.577-6.441-20.9-16.676-27.142a42.718,42.718,0,0,0-9.668-4.2,74.925,74.925,0,0,0-28.621-2.657c-2.7.31-8.483.7-10.554,2.654-1.95,1.837-2.345,7.309-2.765,9.862-1.588,9.66-.67,20.675-.026,30.43.81,12.275,3.792,24.282,6.754,36.179s5.993,23.965,12.2,34.527c6.977,11.868,17.627,21.239,24.649,33.08,2.821,4.758,5.151,10.025,9.426,13.536,6.665,5.474,15.813,5.374,23.755,7.562a30.078,30.078,0,0,1,10.839,5.7c3.34,2.525,5.712,3.88,8.314-.328,2.281-3.688,8.793-38.141,12.382-57.494" fill="#4b82ef"/>
    <path id="Path_3365" data-name="Path 3365" d="M404.875,697.678a40.6,40.6,0,0,1-9.253,15.083c-1.177,1.212-2.64,2.429-4.326,2.306-1.823-.132-3.2-1.875-3.532-3.673a12.59,12.59,0,0,1,.589-5.406q2.521-9.7,5.044-19.407-5.838,6.171-12.048,11.978c-1.834,1.714-3.834,3.476-6.306,3.907-5,.872-9.074-3.9-11.55-8.332-4.586-8.212-8.7-18.166-10.024-27.489q-1.932-13.6-3.863-27.191c-1.464-10.3-2.868-47.089-22.2-38.11-2.69,1.249-4.717,3.57-6.507,5.936a75.747,75.747,0,0,0-8.889,15.275c1.224,10.187,3.7,20.208,6.17,30.15,2.959,11.888,5.993,23.964,12.2,34.526,6.977,11.869,17.627,21.239,24.649,33.08,2.821,4.758,5.151,10.026,9.427,13.536,6.664,5.474,15.812,5.374,23.754,7.562a30.078,30.078,0,0,1,10.839,5.7c3.34,2.525,5.712,3.88,8.314-.327.775-1.255,2.041-6.071,3.514-12.637-2.788-12.074-5.706-24.114-6.007-36.463" fill="#4156bf"/>
    <path id="Path_3366" data-name="Path 3366" d="M229.354,780.5c-.578,1.734,41.146,39.877,41.146,39.877l49.544-35.832L342.628,814.6l1.156-43.907-78.02-9.841Z" fill="#fff"/>
    <path id="Path_3367" data-name="Path 3367" d="M271.125,803.122c-9.808-1.415-58.56-11.073-50.1-28.381,1.085-2.22,3-3.942,4.134-6.139,2.228-4.326,1.044-9.545-.188-14.252,2.1-1.934,5.975-1.633,7.286-4.172a6.309,6.309,0,0,0,.476-2.862c.1-10.394,1.569-21.291-.244-31.483-3.534-19.86-12.089-37.8-17.974-56.851-6.2-19.986-12.464-40.824-9.282-61.5.979-6.37,2.571-14.717,6.2-20.177,2.342-3.523,5.1-3.616,9.091-4.393,7.434-1.446,14.86-2.94,22.289-4.41l36.308-7.182,78.525,16.178s7.852,59.6,0,89.4c-4.639,17.607-6.517,35.793-7.363,53.94-.418,8.981-.587,17.972-.728,26.961-.061,3.894.461,7.481.627,11.335,0,10.232,4.164,20.289,6.974,30.115a4.386,4.386,0,0,1,.2,2.58c-.436,1.287-1.9,1.856-3.2,2.257-22.444,6.919-45.882,11.383-69.344,10.324-4.57-.206-9.144-.632-13.686-1.287" fill="#4b82ef"/>
    <path id="Path_3368" data-name="Path 3368" d="M357.358,791.828a4.4,4.4,0,0,0-.2-2.581c-.352-1.229-.725-2.463-1.108-3.7-16.868.093-33.711,2.862-50.535,4.64-20.254,2.14-41.287,2.74-60.394-4.311-3.43-1.266-6.9-2.868-9.212-5.7s-3.09-7.212-.9-10.142c1.916-2.567,5.555-3.332,8.694-2.7s5.908,2.416,8.594,4.162L239.486,758.79c-1.733-1.72-3.616-4.024-2.8-6.325,1.032-2.907,5.129-2.85,8.135-2.154a160.008,160.008,0,0,1,27.2,8.94c-8.771-6.125-17.862-12.6-22.867-22.06-4.435-8.379-5.151-18.431-3.079-27.683a28.284,28.284,0,0,1,4.655-10.94c4.111-5.459,10.808-8.42,17.509-9.761s13.593-1.28,20.395-1.947c13.789-1.351,27.091-5.67,40.265-9.962,2.369-.772,4.82-1.591,6.644-3.288a17.253,17.253,0,0,0,3.233-4.755q4.593-8.706,9.184-17.412c-1.33,2.522-13.744,4.517-16.579,5.291q-8.731,2.383-17.649,4a211.328,211.328,0,0,1-72.749.479c-11.089-1.873-20.831-8.416-23.762,5.8-.007.039-.018.076-.026.114,5.561,16.094,12.266,31.7,15.291,48.705,1.814,10.192.34,21.089.244,31.482a6.317,6.317,0,0,1-.475,2.862c-1.311,2.54-5.182,2.239-7.287,4.173,1.232,4.707,2.417,9.926.188,14.252-1.131,2.2-3.048,3.919-4.133,6.139-8.459,17.307,40.291,26.966,50.1,28.381,4.542.655,9.115,1.081,13.685,1.287,23.463,1.059,46.9-3.4,69.344-10.324,1.3-.4,2.767-.97,3.2-2.257" fill="#4156bf"/>
    <path id="Path_3369" data-name="Path 3369" d="M270.5,521.693v58.663l13.555-2.1,8.094,6.378,5.017-7.97,4.3,4.9-4.3-50.617Z" fill="#f4a574"/>
    <path id="Path_3370" data-name="Path 3370" d="M300.364,568.582c-.233.107-.466.219-.7.311a18.141,18.141,0,0,1-9.027.89c-7.737-.991-14.408-5.076-20.137-10.188v-37.9l26.666,9.261Z" fill="#e76553"/>
    <path id="Path_3371" data-name="Path 3371" d="M294.261,572.252l-2.973,11.3-6.8-16.134S271.26,553.827,267.5,548.424l-16.534,18.462L278.3,599.1l3.542-17.511,9.838,5.706,6.916-5.629Z" fill="#e3c9b8"/>
    <path id="Path_3372" data-name="Path 3372" d="M299.191,557.144s5.576,4.716,11.971,10.57c2.946,2.7-4.526,31.382-4.526,31.382l-10.254-22.242-5.093,6.7,2.972-11.3Z" fill="#fff4ee"/>
    <path id="Path_3373" data-name="Path 3373" d="M250.967,566.886,267.5,548.424l16.982,18.994,6.8,16.135-8.045-9.776L278.3,599.1Z" fill="#fff4ee"/>
    <path id="Path_3374" data-name="Path 3374" d="M271.343,537.057a35.388,35.388,0,0,1-7.2-6.784c-6-7.751-8.535-18.557-10.535-27.969a113.172,113.172,0,0,1-2.13-31.747c.031-.414.063-.829.1-1.242.613-7.282,2.549-15.252,7.895-20.956,7.858-8.383,20.707-11.265,32.208-11.736a87.266,87.266,0,0,1,11.828.223c4,.381,7.653,1.536,11.524,2.392a31.994,31.994,0,0,1,14.317,7.475c4.314,4.034,6.551,9.812,7.312,15.6,1.5,11.4-1.672,22.845-.745,34.262.436,5.375.995,10.275.386,15.692-1.043,9.263-4.407,17.952-8.7,26.162-2.315,4.426-4.863,9.1-9.236,11.511a23.26,23.26,0,0,1-13.051,2.551,35.777,35.777,0,0,1-9.658-2.071c-6.2-2.171-11.9-5.536-17.5-8.92-2.312-1.4-4.627-2.841-6.81-4.44" fill="#f4a574"/>
    <path id="Path_3375" data-name="Path 3375" d="M319.311,524.988c-1.926-.288-3.762-1.147-5.737-1.086-2.867.087-5.44,2.149-8.226,3.039-5.158,1.65-10.443-.815-15.25-3.235.746.376,1.563,1.841,2.214,2.471a18.286,18.286,0,0,0,2.714,2.243,20.4,20.4,0,0,0,5.935,2.278,24.958,24.958,0,0,0,9.054.662,26.279,26.279,0,0,0,3.617-.653,22.931,22.931,0,0,0,6.108-2.374,15.553,15.553,0,0,0,4.313-4.737c-1.805.854-2.654,1.7-4.742,1.392" fill="#c76044"/>
    <path id="Path_3376" data-name="Path 3376" d="M305.644,538.933a5,5,0,0,0,2.857,2.6,8.164,8.164,0,0,0,3.914.36,8.022,8.022,0,0,0,4.535-1.952,2.6,2.6,0,0,0,.764-1.116c.928-3.159-3.139-1.239-4.245-.952a36.1,36.1,0,0,1-7.825,1.06" fill="#e76553"/>
    <path id="Path_3377" data-name="Path 3377" d="M380.53,652.094,301.139,731.8a6.533,6.533,0,0,1-5.3,1.888l-87.067-8.94a.633.633,0,0,1-.423-1.033l68.834-83.108a6.534,6.534,0,0,1,5.88-2.31l97.1,12.719a.633.633,0,0,1,.366,1.074" fill="#30297d"/>
    <path id="Path_3378" data-name="Path 3378" d="M314.27,688.353c7.043-3.475,14.009-7.208,21.154-10.466,3.582-1.633,10.611-6.2,14.582-2.663,2.951,2.63-.591,7.035-2.115,9.743a56.912,56.912,0,0,1-8.782,11.571c-13.913,14.378-31.649,25.6-50.26,32.826-17.584,6.83-36.364,10.035-55.066,11.876-18.349,1.807-37.26,3.643-55.381-.766a18.978,18.978,0,0,1-6.838-2.731c-4.5-3.286-3.469-11.86-3.6-16.9-.148-5.971.427-12.53,4.589-16.813a24.288,24.288,0,0,1,7.1-4.552,57.753,57.753,0,0,1,11.2-4.4c12.394-3.042,25.179,1.618,37.557,4.727a156.643,156.643,0,0,0,56.066,3.665q-.256-7.668-.514-15.336a16.151,16.151,0,0,0-.778-5.321c-.993-2.571-3.287-5.415-1.7-7.669,8.828.387,7.9,10.511,13.649,14.943,2.682,2.066,6.349,2.483,9.68,1.88a36.436,36.436,0,0,0,9.454-3.614" fill="#f4a574"/>
    <path id="Path_3379" data-name="Path 3379" d="M233.783,741.24c14.507-1.428,29.058-3.686,43.065-7.811-4.955-.043-9.908.032-14.856.311-9.515.536-19.054,1.81-28.541.912s-19.184-4.277-25.425-11.479a8.963,8.963,0,0,1-2.116-3.616,8.286,8.286,0,0,1,.262-4.163c3.266-11.683,12.881-14.091,22.822-15.45-.194-.048-.388-.091-.582-.139-12.377-3.109-25.162-7.769-37.556-4.727a57.786,57.786,0,0,0-11.2,4.4,24.3,24.3,0,0,0-7.1,4.553c-4.162,4.283-4.737,10.842-4.589,16.813.125,5.041-.906,13.615,3.594,16.9a18.99,18.99,0,0,0,6.839,2.731c18.121,4.409,37.032,2.573,55.381.766" fill="#e76553"/>
    <path id="Path_3380" data-name="Path 3380" d="M189.192,705.987c-3.606,2.312-7.035,5.2-8.828,9.095-3.229,7-.429,15.219,2.888,22.181a10.484,10.484,0,0,1,1.406,4.68c-.1,3.308-3.374,5.677-6.586,6.478-5.366,1.34-11.134-.219-15.869-3.079-3.159-2.368-8.956-5.424-10.7-9.16-1.7-3.628,1.463-9.487,2.547-13.154.839-2.839,1.651-6.023.28-8.647-.825-1.578-2.33-2.7-3.26-4.214a6.959,6.959,0,0,1,.511-7.8c1.4-1.734,3.579-2.683,5.075-4.338,2.325-2.571,2.625-6.323,2.886-9.779,2.835-37.6,15.339-75.1,39.408-104.136,5.8-6.995,15.715-12.673,25.1-9.4,10.354,3.612,16.607,15.422,18.044,25.658,1.621,11.548-1.182,23.225-4.319,34.456s-6.663,22.579-6.516,34.24a7.9,7.9,0,0,0,.895,4.2c.568.891,1.447,1.537,2.093,2.373a5.715,5.715,0,0,1,.144,6.6c-1.631,2.313-5.164,3.888-4.679,6.676.315,1.819,2.243,2.784,3.7,3.919,1.547,1.207,2.192,3.959.347,5.2a6.351,6.351,0,0,1-2.866.82c-8.988,1.032-17.953.716-26.966,1.7a33.107,33.107,0,0,0-14.728,5.434" fill="#4b82ef"/>
    <path id="Path_3381" data-name="Path 3381" d="M201.252,685.295c-12.649,3.31-25.866,6.983-36.565,14.821a58.538,58.538,0,0,0-12.048,12.024,11.288,11.288,0,0,1,1.688,2.241c1.372,2.624.559,5.808-.28,8.647-1.083,3.666-4.242,9.526-2.546,13.153,1.747,3.737,7.544,6.793,10.7,9.161,4.735,2.86,10.5,4.419,15.87,3.079,3.211-.8,6.488-3.17,6.586-6.478a10.485,10.485,0,0,0-1.407-4.68c-3.316-6.962-6.117-15.178-2.888-22.182,1.794-3.89,5.223-6.782,8.829-9.094a36.017,36.017,0,0,1,8.7-4.172,57.788,57.788,0,0,0-12.449-.659c9.608-9.938,25.789-9.408,37.553-16.666-6.826-2.83-14.6-1.066-21.744.8" fill="#4156bf"/>
    <path id="Path_3382" data-name="Path 3382" d="M262.31,466.956c-.013,4.214,2.217,8.841,3.107,12.888.548,2.491.531,5.307-1,7.347-1.691,2.25-5.2,3.235-7.649,4.446a2.63,2.63,0,0,0-1.078.786,2.552,2.552,0,0,0-.3,1.478c.059,6.473,1.673,12.786,3.388,18.986.866,3.128,1.772,6.246,2.537,9.4.191.787,1.807,8.229,1.586,8.151-8.091-2.856-12.361-10.68-16.573-17.593-6.079-9.977-8.138-22.37-9.328-33.846-.831-8.023-1.643-15.861-1.138-23.937.18-2.873.666-6.139,3.064-7.732,1.481-.985,3.556-1.209,4.513-2.709.828-1.3.448-2.986.638-4.512.459-3.684,4.1-5.994,7.353-7.773,4.139-2.262,8.139-4.834,12.635-6.163,19.363-5.726,36.554-15.462,57.4-14.865,4.625.133,9.453.732,13.274,3.342a22.913,22.913,0,0,1,5.682,6.085c3.662,5.3,6.462,11.411,6.717,17.85s-2.381,13.214-7.722,16.819a32.928,32.928,0,0,0-1.091-10.517c.93,4.822-.758,9.915-3.812,13.761a29.237,29.237,0,0,1-11.889,8.428c-6.8,2.823-14.658,3.895-21.53,1.242a11.544,11.544,0,0,0,4.748-10.827,68.822,68.822,0,0,1-10.94,3.389,14.1,14.1,0,0,0,3.191-5c.557-1.914.115-4.272-1.558-5.356a6.492,6.492,0,0,0-3.337-.781,39.637,39.637,0,0,0-22.843,6.325c-3.512,2.282-7.945,6.1-8.048,10.659q0,.114,0,.228" fill="#11111d"/>
    <path id="Path_3383" data-name="Path 3383" d="M319.015,426.03a16.568,16.568,0,0,0,6.9-10.126l8.492,14.42a20.336,20.336,0,0,0-19.36,13.1q-5.148-4.582-10.067-9.412c-1.4-1.377-4.86-3.436-2.97-4.918,1.2-.939,5.857.186,7.348.118a18.949,18.949,0,0,0,9.658-3.181" fill="#19192e"/>
    <path id="Path_3384" data-name="Path 3384" d="M251.18,519.591c11.1,3.248,12.89-9.772,11.474-17.691-1.28-7.155-6.04-16.391-13.734-17.923-3.869-.77-8.249.549-10.55,3.753-1.989,2.769-2.207,6.44-1.813,9.827a32.552,32.552,0,0,0,5.681,14.9c2.238,3.18,5.211,6.047,8.942,7.139" fill="#f4a574"/>
    <path id="Path_3385" data-name="Path 3385" d="M245.492,492.2a9.831,9.831,0,0,1,5.921,1.456,12.942,12.942,0,0,1,3.673,4.959,17.236,17.236,0,0,1,1.92,7.608c-.04,2.152-.936,4.571-2.966,5.288-1.946.686-4.078-.491-5.5-1.986a12.423,12.423,0,0,1-2.644-4.248c-.615-1.668-.792-3.736.406-5.051,1.11-1.219,2.954-1.335,4.6-1.367a3.3,3.3,0,0,0-.975-3.1,4.255,4.255,0,0,0-4.059-1.146c-1.892.714-1.425,2.715-1.745,4.332-2.134-.319-2-4.615-.841-5.83a3.488,3.488,0,0,1,2.207-.918" fill="#e76553"/>
    <path id="Path_3386" data-name="Path 3386" d="M334.38,484.368c.12,8.47-4.431,12.593-8.589,13.736-2.673.734-6.878.967-9.352-1.422-2.161-2.086.145-6.57,1.528-8.059a10.432,10.432,0,0,1,5.4-2.833,42.2,42.2,0,0,1,11.011-1.422" fill="#fff"/>
    <path id="Path_3387" data-name="Path 3387" d="M290.307,476.461a46.861,46.861,0,0,0-10.192,1.489,44.04,44.04,0,0,0-5.652,1.934,27.872,27.872,0,0,0-3.944,1.952c.495-3.716,7.1-7.068,10.079-8.462a30.876,30.876,0,0,1,17.638-2.435,1.67,1.67,0,0,1,.953.353c1.346,1.294,1.854,5.481-.764,5.3a72.019,72.019,0,0,0-8.118-.13" fill="#11111d"/>
    <path id="Path_3388" data-name="Path 3388" d="M323.865,474.942A18.029,18.029,0,0,1,330,476.431a20.548,20.548,0,0,1,3.4,1.934,15.816,15.816,0,0,1,2.376,1.952c-.3-3.716-4.274-7.068-6.072-8.462a12.141,12.141,0,0,0-10.624-2.435.822.822,0,0,0-.574.353c-.811,1.294-1.117,5.481.46,5.3a26.183,26.183,0,0,1,4.89-.13" fill="#11111d"/>
    <path id="Path_3389" data-name="Path 3389" d="M271.464,484.368c-.185,8.47,6.835,12.593,13.25,13.736,4.124.734,10.611.967,14.428-1.422,3.333-2.086-.224-6.57-2.358-8.059-2.493-1.74-5.5-2.347-8.334-2.833a98.739,98.739,0,0,0-16.986-1.422" fill="#fff"/>
    <g id="Group_1210" data-name="Group 1210" clip-path="url(#clip-path)">
      <path id="Path_3395" data-name="Path 3395" d="M320.564,491.057c-.448,6.428,2.437,11.831,6.444,12.068s7.62-4.78,8.068-11.208-2.437-11.83-6.444-12.068-7.62,4.781-8.068,11.208" fill="#a62929"/>
      <path id="Path_3396" data-name="Path 3396" d="M322.892,491.2c-.3,4.365,1.655,8.034,4.377,8.2s5.174-3.247,5.478-7.612-1.655-8.034-4.376-8.195-5.175,3.246-5.479,7.611" fill="#4a101a"/>
      <path id="Path_3397" data-name="Path 3397" d="M324.471,496.933a3.135,3.135,0,0,0,3.091,3.212,3.216,3.216,0,0,0,3.512-2.821,3.135,3.135,0,0,0-3.091-3.212,3.215,3.215,0,0,0-3.512,2.821" fill="#fff"/>
      <g id="Group_1209" data-name="Group 1209" style="mix-blend-mode: overlay;isolation: isolate">
        <g id="Group_1208" data-name="Group 1208">
          <g id="Group_1207" data-name="Group 1207" clip-path="url(#clip-path-2)">
            <path id="Path_3398" data-name="Path 3398" d="M318.514,487.274c-.1,1.375,1.72,2.6,4.055,2.74s4.3-.864,4.4-2.239-1.719-2.6-4.054-2.74-4.306.864-4.4,2.239" fill="#fff"/>
          </g>
        </g>
      </g>
    </g>
    <path id="Path_3400" data-name="Path 3400" d="M316.107,485.73c.191-1.3.341-2.907-.929-3.609a2.837,2.837,0,0,0-2.789.259,5.744,5.744,0,0,0-1.734,2.081c-4.44,7.807-4.884,16.806-5.244,25.506-.119,2.9-.175,6.007,1.658,8.431a2.914,2.914,0,0,0,1.211,1.015,3.781,3.781,0,0,0,1.316.2,15.334,15.334,0,0,0,11.008-4.293c3.688-3.753-.762-9.113-2.166-13.108-1.869-5.316-3.157-10.91-2.331-16.48" fill="#f4a574"/>
    <path id="Path_3401" data-name="Path 3401" d="M311.565,519.99c4.573-.275,9.331-1.585,12.077-5.493a6.264,6.264,0,0,0,1.29-4.268c-.41-3.171-4.02-5.64-6.09-8.068.369,1.682.9,3.565,1,4.073.474,2.5.883,5.347-.51,7.394a7.356,7.356,0,0,1-2.6,2.147,25.906,25.906,0,0,1-8.283,2.965,5.042,5.042,0,0,0,3.115,1.25" fill="#e76553"/>
    <g id="Group_1205" data-name="Group 1205" clip-path="url(#clip-path-3)">
      <path id="Path_3390" data-name="Path 3390" d="M282.021,494.228c-.034,6.443,4.008,11.647,9.027,11.622s9.116-5.267,9.149-11.71-4.007-11.646-9.027-11.622-9.115,5.267-9.149,11.71" fill="#a62929"/>
      <path id="Path_3391" data-name="Path 3391" d="M284.938,494.214c-.023,4.376,2.722,7.909,6.13,7.893s6.191-3.577,6.214-7.953-2.722-7.909-6.131-7.892-6.19,3.577-6.213,7.952" fill="#4a101a"/>
      <path id="Path_3392" data-name="Path 3392" d="M287.376,499.836c-.009,1.67,1.835,3.015,4.119,3s4.142-1.374,4.151-3.044-1.836-3.015-4.119-3-4.142,1.374-4.151,3.044" fill="#fff"/>
      <g id="Group_1204" data-name="Group 1204" style="mix-blend-mode: overlay;isolation: isolate">
        <g id="Group_1203" data-name="Group 1203">
          <g id="Group_1202" data-name="Group 1202" clip-path="url(#clip-path-4)">
            <path id="Path_3393" data-name="Path 3393" d="M279.155,490.586c-.007,1.378,2.358,2.484,5.283,2.47s5.3-1.143,5.308-2.521-2.357-2.484-5.282-2.47-5.3,1.143-5.309,2.521" fill="#fff"/>
          </g>
        </g>
      </g>
    </g>
  </g>
</svg>
