<svg xmlns="http://www.w3.org/2000/svg" xmlns:xlink="http://www.w3.org/1999/xlink" width="207.467" height="148.626" viewBox="0 0 207.467 148.626">
  <defs>
    <clipPath id="clip-path">
      <rect id="Rectangle_803" data-name="Rectangle 803" width="207.467" height="148.627" transform="translate(0 0)" fill="none"/>
    </clipPath>
  </defs>
  <g id="teamIcon" transform="translate(0 -0.001)">
    <g id="Group_1635" data-name="Group 1635" transform="translate(0 0.001)" clip-path="url(#clip-path)">
      <path id="Path_4239" data-name="Path 4239" d="M75.605,147.784S35.528,91.792,60.416,58.313s44.56,9.983,58.164,6.781C135.8,61.041,143.247.059,168.99,0c29.29-.066,50.788,24.1,39.336,81.664-8.446,42.454,49.61,7.688,41.083,66.945Z" transform="translate(-48.058 -0.001)" fill="#ebf2f9"/>
      <path id="Path_4240" data-name="Path 4240" d="M715.4,1004c-5.448-1.224-9.562,1.44-13.517.675-3.154-.611-4.8-5.065-9.037-6.327a18.824,18.824,0,0,0,2.744-2.623c1.091-1.467,2.658-4.4,0-4.515-1.912-.083-3.4,4.363-4.086,6.864a9.352,9.352,0,0,0-2.047,0c.875-3.936,2.581-11.554,3-13.018.568-1.992-1.817-8.631-4.629-1.18-1.972,5.227-.633,11.267.343,14.408a12.11,12.11,0,0,0-2.191.727c-2.323-7.4-9.714-28.492-17.725-25.871-8.734,2.857,9.978,17.038,14.7,27.552-3.855,2.494-7.243,5.524-13.1,3.312-15.561-5.88-16.8,7.351-16.8,7.351l69.541.033s-1.749-6.16-7.2-7.384" transform="translate(-600.441 -863.494)" fill="#acd29a"/>
      <path id="Path_4241" data-name="Path 4241" d="M1181.866,770.743c.072.934,1.019.9,2.089.677s.793.169,2.3.128,2.007-.759,2.072-1.062c.059-.269-.671-.46-1.452-.687l-.3-.088c-.881-.27-1.482-1.156-2.248-1.918-.726-.722-1.216-4.032-1.216-4.032l-2.139-.017s.672,2.993,1.022,4.034a4.841,4.841,0,0,1-.083,1.988,5.093,5.093,0,0,0-.048.978" transform="translate(-1085.823 -677.848)" fill="#ffb07b"/>
      <path id="Path_4242" data-name="Path 4242" d="M1194.032,818.947c1.07-.224.794.169,2.3.128s2.007-.759,2.072-1.062c.059-.269-.671-.46-1.453-.687l-.009.02a3.322,3.322,0,0,1-2.194.654c-1.013-.094-2.057-.635-2.756-.708a5.113,5.113,0,0,0-.048.978c.072.934,1.019.9,2.089.677" transform="translate(-1095.901 -725.375)" fill="#365da4"/>
      <path id="Path_4243" data-name="Path 4243" d="M984.418,763.106c.046.937.993.953,2.069.786s.788.21,2.293.249,2.026-.652,2.1-.952c.066-.266-.658-.495-1.433-.763-.1-.033-.2-.068-.293-.1-.873-.316-1.449-1.233-2.2-2.035-.706-.76-.125-3.912-.125-3.912l-1.623-1.07s-.223,3.249-.344,4.892c-.049.673-.289,1.349-.374,1.934a5.067,5.067,0,0,0-.074.974" transform="translate(-905.101 -670.359)" fill="#ffb07b"/>
      <path id="Path_4244" data-name="Path 4244" d="M986.487,817.766c1.075-.167.788.21,2.293.249s2.026-.653,2.1-.952c.066-.266-.658-.495-1.433-.763l-.009.02a3.252,3.252,0,0,1-2.21.538c-1.01-.148-2.039-.743-2.735-.852a5.086,5.086,0,0,0-.074.974c.046.938.994.953,2.069.786" transform="translate(-905.101 -724.233)" fill="#365da4"/>
      <path id="Path_4245" data-name="Path 4245" d="M991.208,397.833s-.45,3.039-.9,18.451a64.6,64.6,0,0,0-1.441,6.343c-.606,3.489-1.033,18.049-1.033,18.049a1.173,1.173,0,0,0,.975.547,1.666,1.666,0,0,0,1.065-.316s4.212-19.07,6.262-26.473a143.415,143.415,0,0,0,3.251-17.975Z" transform="translate(-908.244 -351.872)" fill="#2b478b"/>
      <path id="Path_4246" data-name="Path 4246" d="M1092.583,378.88s.332,3.068,3.732,17.745c0,0-.076,3.081.222,6.647s3.739,17.607,3.739,17.607a1.544,1.544,0,0,0,1.143-.031,3.4,3.4,0,0,0,1.137-.77s-1.319-20.069-1.232-28.005a148.048,148.048,0,0,0-1.408-18.434Z" transform="translate(-1004.554 -331.617)" fill="#2b478b"/>
      <path id="Path_4247" data-name="Path 4247" d="M1039.842,34.868a2.41,2.41,0,0,0-1.65-.561.67.67,0,0,1,.36-.208c-.283-.079-.934.271-.934.271-3.889-2.41-4.8,5.7-4.789,7.6s-.053,4.08-2.094,5.64c-4.015,3.07-.937,9.133-.937,9.133-.723,2.895,1.953,6.441,1.953,6.441-.045-1.537,5.01-11.331,7.736-13.566a13.594,13.594,0,0,0,1.025-3.774,13.251,13.251,0,0,1-.664,3.433c2.338-2.715,1.407-13.152-.005-14.407" transform="translate(-945.791 -30.111)" fill="#c65447"/>
      <path id="Path_4248" data-name="Path 4248" d="M1114.12,121.013a2.839,2.839,0,0,1-2.245.573c-.912-.347-1.508-2-1.5-2,.386-.107.5-.848.49-4.031l.175.048,2.831.783.105.029s-.067,1.29-.069,2.5c0,.257,0,.51.009.748a2.851,2.851,0,0,0,.2,1.349" transform="translate(-1020.916 -102.557)" fill="#ffb07b"/>
      <path id="Path_4249" data-name="Path 4249" d="M1120.6,120.8c0,.257,0,.51.009.748-1.646-.093-2.6-2.721-2.954-3.874l2.909.593.105.029s-.067,1.29-.069,2.5" transform="translate(-1027.607 -104.436)" fill="#ea8e50"/>
      <path id="Path_4250" data-name="Path 4250" d="M1102.39,45.562a14.794,14.794,0,0,1-1.067-3.523c-.148-1.159.275-5.456,3.369-4.837a3.5,3.5,0,0,1,1.743.92c.672.633,1.641,2,.557,5.75l-.281,1.267Z" transform="translate(-1012.566 -32.965)" fill="#c65447"/>
      <path id="Path_4251" data-name="Path 4251" d="M1117.012,65.54s-3.854-.711-3.5-4.055.1-5.687,2.571-5.374,2.818,1.687,2.894,2.843-.953,6.685-1.965,6.586" transform="translate(-1023.776 -49.776)" fill="#ffb07b"/>
      <path id="Path_4252" data-name="Path 4252" d="M1105.192,51.673s-1.471,3.7-3.149,3.947a2.525,2.525,0,0,1-2.314-.506,6.383,6.383,0,0,0,1.9-3.461s2.968-2.011,3.563.021" transform="translate(-1011.125 -45.055)" fill="#c65447"/>
      <path id="Path_4253" data-name="Path 4253" d="M1163.866,57.186a5.4,5.4,0,0,1,.794,1.93c.1.891,0,2.661.372,2.678,0,0,1.078-2.5.347-4.194-.774-1.8-1.513-.414-1.513-.414" transform="translate(-1070.094 -50.305)" fill="#c65447"/>
      <path id="Path_4254" data-name="Path 4254" d="M995.277,335.581c-.809-2.391-3.056-4.369-4.95-4.37a4.755,4.755,0,0,0-3.587,1.751c-.546.62-1.369.211-1.517-.749l-1.658-10.751c-.242-1.568-1.348-2.565-2.471-2.228l-26.823,8.058c-1.1.33-1.8,1.838-1.559,3.37l5.766,37.4a2.777,2.777,0,0,0,1.424,2.187l-.352.139h1.041l.008,0a1.549,1.549,0,0,0,.385-.064l.584-.176,6.884-2.068c.966-.29,1.358-1.922.709-2.962a9.281,9.281,0,0,1-1.271-3.659c-.542-3.972,1.218-7.907,4.014-8.964,3.11-1.176,6.251,1.534,6.92,5.874a10.621,10.621,0,0,1-.319,4.684,1.572,1.572,0,0,0,.262,1.459l-.4.274h.93a.663.663,0,0,0,.215-.028l8.22-2.469c1.123-.338,1.838-1.883,1.6-3.451l-1.647-10.684c-.152-.989.494-1.855,1.2-1.6a4.031,4.031,0,0,0,2.557.068c3.44-1.033,5.45-6.288,3.844-11.036" transform="translate(-875.911 -283.273)" fill="#d86713"/>
      <path id="Path_4255" data-name="Path 4255" d="M978.572,331.212a4.755,4.755,0,0,0-3.587,1.751c-.546.621-1.369.211-1.517-.749l-1.658-10.751c-.242-1.567-1.348-2.565-2.471-2.228l-26.823,8.058c-1.1.33-1.8,1.839-1.559,3.37l5.766,37.4c.245,1.59,1.368,2.6,2.507,2.26l7.468-2.244c.966-.29,1.358-1.921.709-2.962a9.281,9.281,0,0,1-1.271-3.659c-.542-3.972,1.218-7.907,4.014-8.964,3.11-1.176,6.251,1.534,6.92,5.874a10.622,10.622,0,0,1-.319,4.684c-.283.928.3,1.916,1.005,1.7l8.22-2.469c1.123-.338,1.838-1.882,1.6-3.451l-1.647-10.684c-.152-.989.494-1.855,1.2-1.6a4.031,4.031,0,0,0,2.557.067c3.439-1.033,5.45-6.288,3.844-11.036-.809-2.391-3.056-4.369-4.95-4.37" transform="translate(-865.103 -283.274)" fill="#f1a34f"/>
      <path id="Path_4256" data-name="Path 4256" d="M1286.529,299.817a3.017,3.017,0,0,1,2.111,1.9c.438,1.519-.174,2.547-.409,2.544s-.687-.246-.9-1.034-.8-3.411-.8-3.411" transform="translate(-1182.874 -266.098)" fill="#ffb07b"/>
      <path id="Path_4257" data-name="Path 4257" d="M1000.659,360.075a2.908,2.908,0,0,1,2.554,1.546c.675,1.55.139,2.828-.119,2.883s-.783-.1-1.116-.9-1.319-3.526-1.319-3.526" transform="translate(-920.036 -319.579)" fill="#ffb07b"/>
      <path id="Path_4258" data-name="Path 4258" d="M997.621,169.78c-.167-.05-.895-.169-1.821-.373-1.7-.374-4.082-1.031-4.88-2.058a22.209,22.209,0,0,1-1.242-3.572,46.347,46.347,0,0,0-.418,9.154l-11.525,3.463c.988-2.789,2.518-6.246,2.231-9.045-.106-1.037-.514-2.461-.666-4.06-.013-.138-.024-.275-.032-.415-1.616,1.857-3.483,3.907-3.528,4.316-.074.687,1.184,8.292,1.184,8.292-.312,1-1.67.793-1.67.793-1.272-1.268-3.143-8.452-2.992-10.043s4.787-10.662,5.91-12.829c1.109-2.142,5.157-2.088,5.254-2.087h0c3.219,2.7,3.509.456,3.509.456s2.9.771,3.4,1.968,2.688,10.279,2.843,10.6c.324.669,5.615,3.345,5.71,4.119s-.8,1.462-1.272,1.321" transform="translate(-893.919 -134.298)" fill="#80bdcc"/>
      <path id="Path_4259" data-name="Path 4259" d="M1044.312,266.41l-4.019,1.2c1-2.781,2.316-6.244,2.028-9.025-.108-1.038-.349-2.267-.465-3.873-.011-.155-.031-.621-.031-.621s2.846,3.126,2.9,6.509a46.784,46.784,0,0,1-.41,5.808" transform="translate(-956.477 -225.515)" fill="#5f9aa8"/>
      <path id="Path_4260" data-name="Path 4260" d="M1194.755,246.367c-1.726-.374-4.133-1.032-4.94-2.059a22.033,22.033,0,0,1-1.258-3.576s-.186-2.831.344-2.725,1.31,5.127,1.866,5.444c.5.284,3.253,1.76,3.987,2.917" transform="translate(-1092.766 -211.236)" fill="#5f9aa8"/>
      <path id="Path_4261" data-name="Path 4261" d="M2258.3,1243.531c-.243,1.144-1.366,1.907-1.518,3.306a3.716,3.716,0,0,1-.488,1.577h-3.5a.816.816,0,0,1,.643-.7c.971-.3,1.337-1.94,1.277-3.465-.025-.639-.014-1.369.009-2,.031-.874.082-1.56.082-1.56l2.064-.678.217.389.208.374s1.244,1.61,1,2.754" transform="translate(-2071.291 -1100.554)" fill="#2c3a64"/>
      <path id="Path_4262" data-name="Path 4262" d="M2038.26,1277.891h-7.074a1.352,1.352,0,0,1,.892-.62,4.376,4.376,0,0,0,3.395-3.071c.014-.062.026-.126.036-.191.334-2.076,2.763.636,2.763.636s.008.083.019.224a14.716,14.716,0,0,1-.029,3.022" transform="translate(-1867.533 -1130.031)" fill="#2c3a64"/>
      <path id="Path_4263" data-name="Path 4263" d="M2045.841,818.506s.369,6.424.8,14.146c.589,10.49,1.3,23.375,1.368,25.816.121,4.239.608,11.019.608,11.019a3.114,3.114,0,0,0,3.461.932,150.538,150.538,0,0,0,2.644-19.919c.009-.168.018-.337.027-.506.546-10.425,1.4-32.377,1.4-32.377Z" transform="translate(-1881.008 -725.662)" fill="#35488b"/>
      <path id="Path_4264" data-name="Path 4264" d="M2045.841,818.506s.369,6.424.8,14.146l8.081,17.847c.009-.168.018-.337.027-.506.546-10.425,1.4-32.377,1.4-32.377Z" transform="translate(-1881.008 -725.662)" fill="#2c3a64"/>
      <path id="Path_4265" data-name="Path 4265" d="M2066.749,799.2s6.649,23.266,11.02,34.2,5.738,13.985,5.738,13.985,2.5-1.4,2.732-2.352c0,0-1.672-21.108-4.6-26.253-1.654-2.908-3.6-11.633-3.689-14.684s-.592-9.09-.592-9.09Z" transform="translate(-1900.232 -705.596)" fill="#35488b"/>
      <path id="Path_4266" data-name="Path 4266" d="M2089.045,452.424a37.738,37.738,0,0,1-.3-3.88l3.373-3.795c-.125,5.218,2.27,7.727,2.27,7.727s-4.5,3.089-7.094,1.945a7.39,7.39,0,0,1,1.755-2" transform="translate(-1919.117 -394.73)" fill="#935c2f"/>
      <path id="Path_4267" data-name="Path 4267" d="M2085.873,399.516s4.292,1,4.694-2.745,1.228-6.131-1.495-6.924-3.41.522-3.762,1.724-.543,7.589.563,7.945" transform="translate(-1917.044 -345.788)" fill="#a16d3c"/>
      <path id="Path_4268" data-name="Path 4268" d="M1857.794,529.263l-.913-.79s-1.139-2.347-3.085-.889c0,0-.771.686-.254,1.26s.378.25,1.095,1.082,1.644,1.129,2.242.671l.767-.1Z" transform="translate(-1704.038 -467.825)" fill="#a16d3c"/>
      <path id="Path_4269" data-name="Path 4269" d="M1893.766,528.436c.235-1.028.347-1.118.347-1.118s7.389,1.219,8.085,1.291,10.37-2.71,10.37-2.71l4.568,7.742s-13.467.709-15.229.478c-2.913-.381-8.194-4.166-8.194-4.166a4.159,4.159,0,0,1,.054-1.517" transform="translate(-1741.095 -466.752)" fill="#d3782f"/>
      <path id="Path_4270" data-name="Path 4270" d="M2054.385,534.92c.013.4-.577.838-.833,1a14.343,14.343,0,0,1-5.755,2.318c-2.407.345-5.252-.411-6.228-.393a.361.361,0,0,1-.273-.145c-.065-.073-.117-4.177-.065-9.353,0-.2,0-.419.013-.618v-.072c0-.539.01-1.087.018-1.64.024-1.513.065-3.065.112-4.609.07-2.275.167-4.511.3-6.492a51.564,51.564,0,0,1,.545-5.131,13.8,13.8,0,0,1,2.81-6.266l.9-1.107a3.187,3.187,0,0,0,2.8-.472c1.028-.708,2.147-1.471,2.329-1.29,1.387,1.447,2.321,4.732,2.8,8.908a64.089,64.089,0,0,1,.377,7.367c0,1-.025,2.021-.067,3.049-.232,5.515.006,10.3.142,13.075.04.8.071,1.434.079,1.872" transform="translate(-1876.75 -444.32)" fill="#e69d43"/>
      <path id="Path_4271" data-name="Path 4271" d="M1534.843,304.516,1507.7,298.5c-1.154-.256-2.238.842-2.421,2.453l-1.2,10.559a17.31,17.31,0,0,0,.033,1.864l.978.2a.934.934,0,0,0,.17.035.959.959,0,0,0,.546-.1,4.094,4.094,0,0,1,2.911-.333c2.857.731,4.855,4.452,4.551,8.484-.338,4.485-3.291,7.6-6.44,6.9a5.222,5.222,0,0,1-3.022-2.113.808.808,0,0,0-.53-.349l-1.023-.214-1.275,12.88c-.181,1.589.6,3.081,1.733,3.333l7.753,1.719c.717.159,1.064,1.316.641,2.141a9.669,9.669,0,0,0-.971,3.313c-.553,4.863,2.238,9.39,6,9.013,1.894-.19,4.033-2.407,4.719-4.878a10.821,10.821,0,0,0,.126-5.315c-.218-.937.354-1.863,1.051-1.709l7.8,1.729c1.137.252,2.206-.831,2.387-2.418l4.315-37.925c.177-1.551-.581-3.009-1.693-3.255" transform="translate(-1380.021 -264.895)" fill="#4a75cb"/>
      <path id="Path_4272" data-name="Path 4272" d="M2051.751,579.073s-2.081,13.552-9.891,16.571c.024-1.513.065-3.066.112-4.609.071-2.275.167-4.511.3-6.491a2.351,2.351,0,0,1,.39-.234c2.65-1.22,9.087-5.237,9.087-5.237" transform="translate(-1877.348 -513.947)" fill="#d3782f"/>
      <path id="Path_4273" data-name="Path 4273" d="M1508.4,351.529a10.825,10.825,0,0,0,.126-5.315c-.218-.937.354-1.863,1.051-1.709l7.8,1.729c1.138.252,2.206-.831,2.387-2.418l4.315-37.926c.177-1.551-.582-3.009-1.693-3.255l-27.14-6.017c-1.154-.256-2.238.843-2.421,2.453l-1.2,10.559c-.155,1.366.8,2.469,1.727,2a4.093,4.093,0,0,1,2.91-.333c2.857.731,4.856,4.452,4.552,8.484-.339,4.485-3.291,7.6-6.441,6.9a5.22,5.22,0,0,1-3.022-2.113c-.519-.706-1.392-.3-1.505.695l-1.322,11.622c-.181,1.589.6,3.081,1.733,3.333l7.753,1.719c.718.159,1.064,1.316.642,2.141a9.672,9.672,0,0,0-.971,3.313c-.553,4.863,2.238,9.39,6,9.013,1.894-.19,4.033-2.407,4.72-4.878" transform="translate(-1368.572 -263.227)" fill="#699dee"/>
      <path id="Path_4274" data-name="Path 4274" d="M1850.525,609.564l-1.116-.258s-1.272-2.57-3.49-1.128c0,0-.879.687-.3,1.329s.427.289,1.232,1.217,1.854,1.3,2.535.846l.87-.063Z" transform="translate(-1696.738 -539.389)" fill="#a16d3c"/>
      <path id="Path_4275" data-name="Path 4275" d="M1898.134,531.4c.036-1.146.474-1.268.474-1.268s8.453-.781,9.182-.978,7.462-7.984,7.462-7.984,2.6-3.266,4.427-2.164c1.585.958,2.081,2.847,2.161,4.585a5.552,5.552,0,0,1-2.089,4.885c-3.023,1.971-9.07,5.841-10.447,6.175-3.065.743-10.943-1.638-10.943-1.638a4.826,4.826,0,0,1-.227-1.612" transform="translate(-1745.2 -460.435)" fill="#e69d43"/>
      <path id="Path_4276" data-name="Path 4276" d="M2077.138,369.074a4.344,4.344,0,0,1-.606-4.6,4.837,4.837,0,0,0,3.317,0c1.947-.634,3.688.264,3.915,1.216,0,0,.757.423.833,2.008s-2.2,6.58-2.2,6.58a2.543,2.543,0,0,1-.354-1.427c.133-.581.549-1.876.038-1.876s-.682,1.057-.89.634.171-2.193-.435-2.484-2.934.488-3.616-.047" transform="translate(-1908.873 -323.291)" fill="#2c3a64"/>
      <path id="Path_4277" data-name="Path 4277" d="M927.759,885.982l-7.672-48.623H922.2c.5,0,.91-.572.91-1.27v-1.642c0-.7-.409-1.27-.91-1.27H895.41c-.5,0-.91.572-.91,1.27v1.642c0,.7.409,1.27.91,1.27h2.719l-7.672,48.623a1.288,1.288,0,0,0,.661,1.451c.467.145.933-.272,1.036-.926l7.755-49.148h18.4l7.755,49.148c.1.654.57,1.07,1.036.926a1.288,1.288,0,0,0,.661-1.451" transform="translate(-818.694 -739.472)" fill="#c3e0f4"/>
      <path id="Path_4278" data-name="Path 4278" d="M1836.042,1034.718c-2.84-3.805-13.062,20.2-13.062,20.2s15.9-16.4,13.062-20.2" transform="translate(-1676.103 -917.984)" fill="#acd29a"/>
      <path id="Path_4279" data-name="Path 4279" d="M1576.721,1135.717c-2.514-1.4-10.548,10.419-12.357,13.149a28.941,28.941,0,0,0-4.567-.465c-12.721-.317-18.492,7.726-18.492,7.726l35.487.169s-3.144-5.572-12.062-7.36c2.179-1.436,8.624-5.62,10.968-6.425,2.84-.974,3.862-5.209,1.022-6.794" transform="translate(-1417.122 -1007.885)" fill="#acd29a"/>
      <path id="Path_4280" data-name="Path 4280" d="M1455.849,922.368h-7.659c-.991,0-1.622,1.484-1.143,2.694.463,1.169-1.166,11.3-4.6,11.566-3.226.249-5.9-3.344-5.9-7.8a10.013,10.013,0,0,1,1.021-4.5c.418-.826,0-1.966-.728-1.966h-8.431c-1.152,0-2.086,1.3-2.086,2.912,0,0-.764,12.631-1.414,12.178a4.388,4.388,0,0,0-2.2-.808h-.008c-.094-.006-.189-.01-.284-.01s-1.484-.033-1.484-.033l-.21,15.609,1.205.018a5.321,5.321,0,0,0,3.025-.827c.629-.448,1.374.2,1.374,1.181v11.026c0,1.608.934,2.911,2.086,2.911h27.51c1.125,0,2.038-1.273,2.038-2.844V925.321c0-1.631-.947-2.953-2.116-2.953" transform="translate(-1306.26 -818.633)" fill="#d86713"/>
      <path id="Path_4281" data-name="Path 4281" d="M1358.271,951.771a4.24,4.24,0,0,0,3.78-.66c.629-.448,1.374.2,1.374,1.181v11.026c0,1.608.934,2.911,2.086,2.911h27.51c1.125,0,2.038-1.274,2.038-2.844V925.026c0-1.631-.947-2.953-2.116-2.953h-7.659c-.991,0-1.622,1.484-1.143,2.694a10.327,10.327,0,0,1,.693,3.96c-.069,4.053-2.389,7.392-5.289,7.605-3.226.237-5.9-3.344-5.9-7.8a10.016,10.016,0,0,1,1.021-4.5c.418-.826,0-1.966-.728-1.966h-8.43c-1.153,0-2.087,1.3-2.087,2.912v10.958c0,1.014-.764,1.673-1.414,1.22a4.335,4.335,0,0,0-2.5-.819c-3.528,0-6.292,4.559-5.436,9.686.431,2.582,2.336,5.182,4.192,5.741" transform="translate(-1244.837 -818.371)" fill="#f1a34f"/>
      <path id="Path_4282" data-name="Path 4282" d="M331.267,1159.579l4.944.051s-.172-1.67-3.5-2.1c-1.29-5-5.081-18.462-8.373-17.826-3.25.628,4.447,12.976,7.578,17.776a5.7,5.7,0,0,0-1.237.137c-.754-2.1-2.25-5.06-4.65-4.925-2.555.144.926,3.4,3.322,5.4a5.891,5.891,0,0,0-1.869,1.448l3.729.038.068.052s0-.018-.011-.051" transform="translate(-297.485 -1011.505)" fill="#acd29a"/>
      <path id="Path_4283" data-name="Path 4283" d="M628.794,820.716l.731.829s2-1,2.453,2.318c0,0,.12,1.415-.522,1.417s-.377-.155-1.286-.117a1.766,1.766,0,0,1-1.8-1.661l-.435-.872Z" transform="translate(-577.347 -728.413)" fill="#ea8e50"/>
      <path id="Path_4284" data-name="Path 4284" d="M389.286,667.945a2.546,2.546,0,0,0,.537-1.479s-6.758-7.724-7.444-8.353a103.98,103.98,0,0,1-7.771-10.343c-1.154-1.863-2.583-1.14-4.219-.485l-1.347.539c-1.626.651-2.049,3.826-.715,5.369,3.758,4.345,10.01,9.233,11.18,10.26a58.062,58.062,0,0,0,8.588,5.58,3.672,3.672,0,0,0,1.191-1.088" transform="translate(-337.921 -573.863)" fill="#1e3d70"/>
      <path id="Path_4285" data-name="Path 4285" d="M711.05,1257.773a3.986,3.986,0,0,0,4.153.809s2.026-.644,2.471.766c0,0-3.108,2.2-3.894,2.807a10.494,10.494,0,0,0-1.648,1.725.674.674,0,0,1-1.18-.127c-.137-.235-.293-.514-.465-.838-.479-.906-1.6-3.834-1.6-3.834Z" transform="translate(-651.776 -1116.316)" fill="#233862"/>
      <path id="Path_4286" data-name="Path 4286" d="M456.622,927.916s-1,3.215-3.3,2.624a81.615,81.615,0,0,1-7.931-11.057,27.8,27.8,0,0,1-2.465-5.376c-2.14-6.916-7.915-17.23-11.587-22.458l9.187-4.64s2.943,8.263,6.858,18.413c2.822,7.313,6.148,15.606,9.242,22.493" transform="translate(-396.582 -787.251)" fill="#2b478b"/>
      <path id="Path_4287" data-name="Path 4287" d="M447.38,905.423l-1.993,14.06a27.8,27.8,0,0,1-2.465-5.376c-2.14-6.916-7.915-17.23-11.587-22.458l9.187-4.64s2.943,8.263,6.858,18.413" transform="translate(-396.582 -787.251)" fill="#233862"/>
      <path id="Path_4288" data-name="Path 4288" d="M499.263,1262.891s-.1,2.565,2.127,2.907c0,0,1.273.01,1.277,1.642l-6.474.029a9.556,9.556,0,0,1-.234-2.069,21.359,21.359,0,0,1,.752-3.915Z" transform="translate(-455.999 -1119.61)" fill="#233862"/>
      <path id="Path_4289" data-name="Path 4289" d="M406.117,882.519s4.093,6.278,6.691,17.588c1.413,6.153-2.591,21.624-3.372,27a8.963,8.963,0,0,1-4.523-.673,173.059,173.059,0,0,1,.935-19.66c.6-4.789-5.389-10.242-8.006-18.9-1.781-5.887.386-5.787,3.048-5.928Z" transform="translate(-365.19 -782.76)" fill="#2b478b"/>
      <path id="Path_4290" data-name="Path 4290" d="M370.139,576.844c-2.277,1.795-6.939.14-6.939.14a11.811,11.811,0,0,0,1.033-7.887l1.788,1.268,1.921,1.361s.124.859.21,2.4c.022.4.042.841.055,1.326a5.769,5.769,0,0,1,1.932,1.389" transform="translate(-333.937 -505.093)" fill="#ffb07b"/>
      <path id="Path_4291" data-name="Path 4291" d="M358.911,653.643a.934.934,0,0,1-.559.853c-.918.234-3.483,1.627-5.793,1.946a13.432,13.432,0,0,1-5.735-.542c-.263-.074-.88-.306-.923-.657-.055-.384-7.653-21.622-1.746-30.745.139-.214,1.3.172,2.371.525a3.239,3.239,0,0,0,2.695-.307l1,.734a13.026,13.026,0,0,1,3.823,7.012c.138,1.354.693,2.357.853,3.548q.089.661.183,1.29.182,1.234.374,2.35c.347,2.014.714,3.748,1.074,5.246.383,1.59.759,2.913,1.095,4.019.435,1.435.8,2.507,1.033,3.329a5.464,5.464,0,0,1,.255,1.4" transform="translate(-314.36 -554.208)" fill="#2a4e96"/>
      <path id="Path_4292" data-name="Path 4292" d="M385,709.126c-10.726-7.054-14.441-20.6-14.441-20.6s8.715,4.487,10.864,5.656q.181,1.234.374,2.35c.347,2.014.714,3.748,1.074,5.245.383,1.59.759,2.913,1.095,4.019.435,1.435.8,2.508,1.033,3.329" transform="translate(-340.699 -611.091)" fill="#1e3d70"/>
      <path id="Path_4293" data-name="Path 4293" d="M487.461,378.846l-2.3-10.169c-.223-.988-.955-1.455-1.595-1.2h0a1.068,1.068,0,0,0-.1.047l-.806.376s-1.261,1.813-2.167,2.179c-2.783,1.124-5.424-.946-6.439-4.734-1.129-4.212.181-8.838,3.214-10.173,1.038-.457,3.08.395,3.08.395l.82-.38a1.373,1.373,0,0,0,.592-1.564l-2.529-11.193c-.346-1.53-1.514-2.379-2.61-1.9l-7.467,3.287c-.691.3-1.369-.513-1.255-1.511a10.708,10.708,0,0,0-.191-3.56c-1.058-4.684-4.994-6.987-8.231-4.312-1.63,1.347-2.831,4.655-2.654,7.288a9.456,9.456,0,0,0,1.584,4.821,1.565,1.565,0,0,1-.393,2.179l-7.513,3.307c-1.1.482-1.7,2.113-1.358,3.642l8.252,36.526c.338,1.494,1.479,2.323,2.549,1.852l26.138-11.506c1.111-.489,1.728-2.143,1.378-3.695" transform="translate(-412.868 -295.813)" fill="#4a75cb"/>
      <path id="Path_4294" data-name="Path 4294" d="M446.956,345.009a9.455,9.455,0,0,0,1.584,4.821,1.565,1.565,0,0,1-.393,2.178l-7.513,3.307c-1.1.482-1.7,2.113-1.358,3.642l8.252,36.526c.338,1.494,1.479,2.323,2.549,1.852l26.138-11.507c1.112-.489,1.728-2.143,1.378-3.695l-2.3-10.169c-.3-1.316-1.5-1.708-2.179-.709a5.618,5.618,0,0,1-2.491,2.107c-2.783,1.124-5.753-.954-6.769-4.741-1.129-4.212.511-8.831,3.544-10.166a4.067,4.067,0,0,1,3.371.006c.688.307,1.339-.594,1.122-1.556l-2.529-11.193c-.346-1.53-1.514-2.379-2.61-1.9l-7.467,3.287c-.691.3-1.369-.513-1.255-1.512a10.709,10.709,0,0,0-.191-3.56c-1.058-4.684-4.994-6.987-8.231-4.312-1.63,1.347-2.831,4.656-2.655,7.288" transform="translate(-403.794 -298.732)" fill="#699dee"/>
      <path id="Path_4295" data-name="Path 4295" d="M622.158,834.684l.927.474s1.856-1.832,3.012,1.148c0,0,.418,1.3-.244,1.584s-.421.016-1.351.449a1.514,1.514,0,0,1-2.2-.807l-.63-.645Z" transform="translate(-571.586 -740.737)" fill="#ffb07b"/>
      <path id="Path_4296" data-name="Path 4296" d="M375.612,674.922c.343-1.248.5-1.813.5-1.813s-7-7.969-7.717-8.652A63.561,63.561,0,0,1,360.706,655c-1.171-1.953-3.017-2.845-4.8-2.323l-1.47.43c-1.775.52-2.352,3.656-.975,5.3,3.878,4.641,10.42,10.025,11.64,11.144,3.028,2.78,9.725,6.674,9.725,6.674a2.27,2.27,0,0,0,.788-1.311" transform="translate(-324.277 -579.145)" fill="#2a4e96"/>
      <path id="Path_4297" data-name="Path 4297" d="M382.489,584.13c-2.239.175-3.7-2.405-3.7-2.405a18.04,18.04,0,0,0,1.564-1.359l1.921,1.362s.124.859.21,2.4" transform="translate(-348.275 -515.094)" fill="#ea8e50"/>
      <path id="Path_4298" data-name="Path 4298" d="M359.447,522.375s-3.393,3.4-4.877.417-2.921-4.552-.817-6.848,3.1-1.571,3.764-.744,2.775,6.214,1.93,7.175" transform="translate(-324.278 -456.548)" fill="#ffb07b"/>
      <path id="Path_4299" data-name="Path 4299" d="M322.938,482.153a9.977,9.977,0,0,0-.4-1.953s-.213,1.231-1.825,1.061-4.167.221-5.018,2.785q-.081.245-.145.5a8.091,8.091,0,0,1-.191-1.42,6.043,6.043,0,0,0,0,2.484h0c0,.04-.008.08-.013.121a5.943,5.943,0,0,0-.654,1.725,1.349,1.349,0,0,1,.6-.748c-.007,2,.572,3.945,1.59,4.526,1.488.849,1.476.2,2.972,1.587,0,0,.4-.7.128-1.162s-1.308-1.146-.73-1.826.791.085,1-.382-.851-1.826.517-3.1,2.281-3.057,2.159-4.2" transform="translate(-289.341 -426.194)" fill="#233862"/>
      <path id="Path_4300" data-name="Path 4300" d="M1219.709,1137.357s-1.716-3.54-4.4-3.255c-.816.087-2.142.364-3.682.66-1.162-5.659-4.364-19.111-8.683-19.868-4.411-.774,4.221,14.186,7.75,20.043-.644.118-1.312.234-1.987.336-1.869-2.785-5.125-6.911-7.845-6.594s2.378,4.252,6.062,6.826c-2.26.236-4.4.21-5.713-.5-3.208-1.731-6.155,2.348-6.155,2.348Z" transform="translate(-1098.77 -989.481)" fill="#82b378"/>
      <path id="Path_4301" data-name="Path 4301" d="M207.232,1315.458H.235c-.129,0-.235-.148-.235-.328v-.112c0-.181.106-.328.235-.328h207c.129,0,.235.148.235.328v.112c0,.181-.106.328-.235.328" transform="translate(0 -1166.832)" fill="#2e3552"/>
    </g>
  </g>
</svg>
